<svg width="148" height="35" viewBox="0 0 148 35" fill="none" xmlns="http://www.w3.org/2000/svg">
<path d="M23.4536 16.2786C23.417 12.4089 27.0267 10.5281 27.1852 10.4416C25.1365 7.8042 21.9658 7.43669 20.8561 7.40426C18.1976 7.15565 15.6123 8.82026 14.2586 8.82026C12.8806 8.82026 10.7831 7.43669 8.53922 7.46912C5.64903 7.51235 2.92957 8.99321 1.45398 11.3064C-1.60693 16.0083 0.673512 22.9262 3.61248 26.731C5.08806 28.5902 6.79535 30.6763 9.0514 30.6007C11.2465 30.525 12.0757 29.3576 14.722 29.3576C17.3561 29.3576 18.1244 30.6007 20.417 30.5574C22.7828 30.525 24.2584 28.6875 25.6852 26.8067C27.3803 24.6773 28.0632 22.5695 28.0876 22.4614C28.0267 22.4398 23.5023 20.9049 23.4536 16.2786ZM19.1244 4.90735C20.3073 3.59944 21.1121 1.81594 20.8926 0C19.1854 0.0648549 17.0391 1.04849 15.8074 2.33477C14.722 3.46973 13.7464 5.3181 13.9903 7.05837C15.9171 7.18808 17.8927 6.19364 19.1244 4.90735ZM55.3066 30.3305H52.2335L50.5506 25.6393H44.6971L43.0995 30.3305H40.1118L45.9044 14.3653H49.4897L55.3066 30.3305ZM50.0506 23.672L48.5263 19.5105C48.3677 19.0781 48.0629 18.0837 47.6238 16.5056H47.5629C47.3799 17.1865 47.0995 18.1918 46.7092 19.5105L45.2093 23.672H50.0506ZM70.1966 24.4395C70.1966 26.3959 69.599 27.9416 68.3917 29.0766C67.3186 30.0927 65.9772 30.5899 64.3918 30.5899C62.6723 30.5899 61.4407 30.0494 60.6846 28.9577V35H57.7944V22.6019C57.7944 21.3697 57.7578 20.1158 57.6846 18.8187H60.2212L60.3797 20.6455H60.4285C61.3919 19.2727 62.8553 18.5809 64.8064 18.5809C66.343 18.5809 67.6113 19.1214 68.6356 20.1915C69.6844 21.2724 70.1966 22.6776 70.1966 24.4395ZM67.2576 24.5259C67.2576 23.4018 66.9771 22.483 66.404 21.7588C65.782 21.0022 64.9406 20.6238 63.8918 20.6238C63.1845 20.6238 62.5382 20.84 61.9528 21.2508C61.3797 21.6723 60.9894 22.2128 60.8187 22.8938C60.7334 23.2072 60.6846 23.4666 60.6846 23.672V25.596C60.6846 26.4284 60.9772 27.1418 61.5504 27.7146C62.1236 28.2875 62.8797 28.5794 63.8065 28.5794C64.8918 28.5794 65.7333 28.2011 66.343 27.466C66.9527 26.7202 67.2576 25.7474 67.2576 24.5259ZM85.1231 24.4395C85.1231 26.3959 84.5256 27.9416 83.3183 29.0766C82.2451 30.0927 80.9037 30.5899 79.3184 30.5899C77.5989 30.5899 76.3672 30.0494 75.6111 28.9577V35H72.7209V22.6019C72.7209 21.3697 72.6843 20.1158 72.6112 18.8187H75.1477L75.3062 20.6455H75.355C76.3184 19.2727 77.7818 18.5809 79.733 18.5809C81.2695 18.5809 82.5378 19.1214 83.5622 20.1915C84.6109 21.2724 85.1231 22.6776 85.1231 24.4395ZM82.1842 24.5259C82.1842 23.4018 81.9037 22.483 81.3305 21.7588C80.7086 21.0022 79.8671 20.6238 78.8184 20.6238C78.1111 20.6238 77.4647 20.84 76.8794 21.2508C76.3062 21.6723 75.9282 22.2128 75.7453 22.8938C75.6599 23.2072 75.6111 23.4666 75.6111 23.672V25.596C75.6111 26.4284 75.9038 27.1418 76.477 27.7146C77.0501 28.2875 77.8062 28.5794 78.733 28.5794C79.8184 28.5794 80.672 28.2011 81.2695 27.466C81.8915 26.7202 82.1842 25.7474 82.1842 24.5259ZM101.83 25.8555C101.83 27.2174 101.294 28.32 100.233 29.1739C99.0619 30.1035 97.4278 30.5683 95.3303 30.5683C93.3913 30.5683 91.8425 30.2332 90.6718 29.5738L91.3425 27.4444C92.6108 28.1038 94.001 28.4389 95.5132 28.4389C96.5985 28.4389 97.4522 28.2227 98.0497 27.7903C98.6595 27.3579 98.9643 26.7742 98.9643 26.05C98.9643 25.4015 98.7082 24.861 98.2204 24.4179C97.7205 23.9747 96.8912 23.5639 95.7327 23.1856C92.5498 22.1371 90.9767 20.613 90.9767 18.6133C90.9767 17.3054 91.5376 16.2353 92.6474 15.3922C93.7571 14.5599 95.2327 14.1384 97.0741 14.1384C98.7082 14.1384 100.074 14.387 101.159 14.895L100.428 16.9704C99.4034 16.4839 98.257 16.2353 96.9644 16.2353C95.9522 16.2353 95.1473 16.4623 94.5742 16.8947C94.0986 17.2946 93.8547 17.7702 93.8547 18.3431C93.8547 18.97 94.1352 19.4997 94.6839 19.8996C95.1595 20.278 96.0376 20.6887 97.3058 21.1319C98.8546 21.6831 99.9887 22.3317 100.72 23.0775C101.464 23.8233 101.83 24.7529 101.83 25.8555ZM111.391 20.7427H108.208V26.3311C108.208 27.7471 108.769 28.4605 109.891 28.4605C110.403 28.4605 110.83 28.4172 111.171 28.3416L111.257 30.2872C110.684 30.471 109.94 30.5683 109.013 30.5683C107.867 30.5683 106.989 30.2548 106.342 29.6387C105.696 29.0225 105.379 27.9849 105.379 26.5364V20.7319H103.489V18.8187H105.379V16.7109L108.208 15.9543V18.8187H111.391V20.7427ZM125.708 24.4827C125.708 26.2554 125.135 27.7038 124 28.8388C122.805 30.0062 121.22 30.5899 119.244 30.5899C117.342 30.5899 115.818 30.0278 114.684 28.9145C113.549 27.8011 112.988 26.3851 112.988 24.6773C112.988 22.8938 113.574 21.4345 114.732 20.2996C115.903 19.1646 117.476 18.5917 119.452 18.5917C121.354 18.5917 122.891 19.1538 124.049 20.278C125.159 21.3589 125.708 22.7641 125.708 24.4827ZM122.72 24.5368C122.72 23.4775 122.464 22.5803 121.952 21.8237C121.342 20.9049 120.476 20.4509 119.354 20.4509C118.196 20.4509 117.305 20.9049 116.708 21.8237C116.184 22.5803 115.94 23.4991 115.94 24.5908C115.94 25.6501 116.196 26.5581 116.708 27.3039C117.33 28.2227 118.208 28.6767 119.33 28.6767C120.427 28.6767 121.293 28.2119 121.927 27.2823C122.452 26.504 122.72 25.596 122.72 24.5368ZM135.098 21.067C134.817 21.0238 134.512 21.0022 134.183 21.0022C133.171 21.0022 132.378 21.3372 131.83 22.0182C131.354 22.6127 131.11 23.3802 131.11 24.2881V30.3305H128.22V22.4398C128.22 21.1103 128.195 19.8996 128.135 18.8187H130.647L130.756 21.0238H130.842C131.147 20.2671 131.622 19.651 132.281 19.197C132.927 18.7863 133.622 18.5809 134.366 18.5809C134.634 18.5809 134.878 18.6025 135.086 18.6242L135.098 21.067ZM148 24.0287C148 24.4827 147.963 24.8718 147.89 25.1853H139.232C139.268 26.3203 139.683 27.1958 140.488 27.7903C141.22 28.32 142.159 28.5902 143.317 28.5902C144.598 28.5902 145.768 28.4064 146.817 28.0497L147.268 29.8224C146.037 30.298 144.585 30.5358 142.915 30.5358C140.903 30.5358 139.317 30.0062 138.171 28.9577C137.025 27.9092 136.451 26.4932 136.451 24.7313C136.451 23.0019 136.988 21.5534 138.061 20.3969C139.183 19.1646 140.695 18.5485 142.598 18.5485C144.463 18.5485 145.89 19.1646 146.841 20.3969C147.61 21.3913 148 22.5911 148 24.0287ZM145.244 23.3694C145.268 22.6127 145.073 21.9534 144.683 21.4021C144.183 20.6887 143.415 20.332 142.39 20.332C141.451 20.332 140.683 20.6779 140.098 21.3697C139.622 21.9209 139.329 22.5911 139.244 23.3586L145.244 23.3694Z" fill="white"/>
<path d="M48.4554 8.87629H46.9473L46.1203 6.68041H43.25L42.4595 8.87629H41L43.8338 1.39175H45.5851L48.4554 8.87629ZM45.8649 5.75258L45.123 3.79381C45.05 3.59794 44.9041 3.12371 44.673 2.38144H44.6486C44.5514 2.70103 44.4297 3.16495 44.223 3.79381L43.4932 5.75258H45.8649ZM55.5581 3.47423L53.15 8.87629H51.7757L49.4405 3.47423H50.9608L52.0432 6.3299C52.2257 6.80412 52.3838 7.25773 52.5054 7.69072H52.5419C52.6513 7.29897 52.8095 6.84536 53.0041 6.3299L54.0743 3.47423H55.5581ZM60.6905 8.87629L60.5811 8.25773H60.5446C60.1068 8.75258 59.4865 9 58.6838 9C57.5405 9 56.7378 8.31959 56.7378 7.41237C56.7378 6.08247 58.1 5.39175 60.4595 5.39175V5.28866C60.4595 4.57732 60.0095 4.2268 59.1338 4.2268C58.5013 4.2268 57.9541 4.36082 57.4676 4.62887L57.1757 3.84536C57.7595 3.53608 58.5014 3.38144 59.3649 3.38144C61.0311 3.38144 61.8703 4.12371 61.8703 5.61856V7.60825C61.8703 8.15464 61.8946 8.57732 61.9676 8.89691L60.6905 8.87629ZM60.4959 6.18557C58.927 6.18557 58.1365 6.50516 58.1365 7.27835C58.1365 7.84536 58.5378 8.12371 59.1095 8.12371C59.827 8.12371 60.4959 7.65979 60.4959 7.02062V6.18557ZM65.0203 2.58763C64.5459 2.58763 64.1811 2.27835 64.1811 1.86598C64.1811 1.45361 64.5581 1.15464 65.0446 1.15464C65.5311 1.15464 65.9203 1.45361 65.9081 1.86598C65.9081 2.29897 65.5432 2.58763 65.0203 2.58763ZM64.3392 3.47423H65.75V8.86598H64.3392V3.47423ZM68.2676 1H69.6784V8.86598H68.2676V1ZM75.6865 8.87629L75.577 8.25773H75.5405C75.1027 8.75258 74.4824 9 73.6797 9C72.5365 9 71.7338 8.31959 71.7338 7.41237C71.7338 6.08247 73.0959 5.39175 75.4554 5.39175V5.28866C75.4554 4.57732 75.0054 4.2268 74.1297 4.2268C73.4973 4.2268 72.95 4.36082 72.4635 4.62887L72.1716 3.83505C72.7554 3.52577 73.4973 3.37113 74.3608 3.37113C76.027 3.37113 76.8662 4.1134 76.8662 5.60825V7.59794C76.8662 8.14433 76.8905 8.56701 76.9514 8.8866H75.6865V8.87629ZM75.4919 6.18557C73.923 6.18557 73.1324 6.50516 73.1324 7.27835C73.1324 7.84536 73.5338 8.12371 74.1054 8.12371C74.823 8.12371 75.4919 7.65979 75.4919 7.02062V6.18557ZM82.6068 9C81.7068 9 81.0378 8.68041 80.6 8.04124H80.5757L80.4905 8.87629H79.2865C79.323 8.4433 79.3351 7.95876 79.3351 7.42268V1H80.7581V4.26804H80.7824C81.2081 3.6701 81.877 3.37113 82.8135 3.37113C84.3459 3.37113 85.4162 4.48454 85.4162 6.10309C85.4162 7.7732 84.2243 9 82.6068 9ZM82.3149 4.30928C81.5 4.30928 80.7581 4.90722 80.7581 5.74227V6.69072C80.7581 7.43299 81.427 8.04124 82.2905 8.04124C83.3487 8.04124 83.9811 7.30928 83.9811 6.14433C83.9811 5.05155 83.3243 4.30928 82.3149 4.30928ZM87.5081 1H88.9189V8.86598H87.5081V1ZM96.6176 6.46392H92.373C92.3973 7.48454 93.2 8.06186 94.3797 8.06186C95.0122 8.06186 95.5838 7.96907 96.0946 7.80412L96.3135 8.63918C95.7176 8.86598 95.0122 8.96907 94.1851 8.96907C92.1905 8.96907 91.0108 7.90722 91.0108 6.24742C91.0108 4.59794 92.2149 3.35052 94.027 3.35052C95.6446 3.35052 96.6784 4.37113 96.6784 5.91753C96.6784 6.13402 96.6662 6.31959 96.6176 6.46392ZM95.3284 5.60825C95.3284 4.7732 94.8297 4.18557 93.9297 4.18557C93.1149 4.18557 92.4824 4.7835 92.3851 5.60825H95.3284ZM105.192 9C103.331 9 102.127 7.82474 102.127 6.2268C102.127 4.5567 103.355 3.37113 105.301 3.37113C107.138 3.37113 108.366 4.49485 108.366 6.13402C108.366 7.81443 107.101 9 105.192 9ZM105.253 4.24742C104.231 4.24742 103.574 5.06186 103.574 6.18557C103.574 7.29897 104.243 8.10309 105.241 8.10309C106.238 8.10309 106.907 7.23711 106.907 6.15464C106.895 5.06186 106.25 4.24742 105.253 4.24742ZM115.968 8.87629H114.557V5.7732C114.557 4.81443 114.119 4.34021 113.268 4.34021C112.428 4.34021 111.857 4.94845 111.857 5.65979V8.86598H110.446V5.02062C110.446 4.54639 110.434 4.03093 110.397 3.47423H111.638L111.699 4.30928H111.735C112.112 3.73196 112.891 3.36082 113.754 3.36082C115.092 3.36082 115.968 4.2268 115.968 5.63917V8.87629ZM125.223 4.38144H123.666V7C123.666 7.6701 123.946 8 124.493 8C124.736 8 124.955 7.97938 125.126 7.94845L125.162 8.85567C124.882 8.94845 124.518 8.98969 124.068 8.98969C122.949 8.98969 122.292 8.46392 122.292 7.10309V4.38144H121.368V3.48454H122.292V2.49485L123.678 2.13402V3.47423H125.235V4.38144M132.715 8.87629H131.304V5.79381C131.304 4.82474 130.866 4.34021 130.015 4.34021C129.285 4.34021 128.604 4.76289 128.604 5.61856V8.86598H127.193V1H128.604V4.23711H128.628C129.078 3.64948 129.711 3.36082 130.538 3.36082C131.888 3.36082 132.715 4.24742 132.715 5.65979V8.87629ZM139.939 6.46392H135.695C135.719 7.48454 136.522 8.06186 137.701 8.06186C138.334 8.06186 138.905 7.96907 139.416 7.80412L139.635 8.63918C139.039 8.86598 138.334 8.96907 137.507 8.96907C135.512 8.96907 134.332 7.90722 134.332 6.24742C134.332 4.59794 135.536 3.35052 137.349 3.35052C138.966 3.35052 140 4.37113 140 5.91753C140 6.13402 139.988 6.31959 139.939 6.46392ZM138.65 5.60825C138.65 4.7732 138.151 4.18557 137.251 4.18557C136.436 4.18557 135.792 4.7835 135.707 5.60825H138.65Z" fill="white"/>
</svg>
