<svg width="80" height="80" viewBox="0 0 80 80" fill="none" xmlns="http://www.w3.org/2000/svg">
<circle cx="40" cy="40" r="40" fill="white"/>
<circle cx="40" cy="40" r="35.5" fill="white" stroke="#730D23"/>
<path d="M44.7998 22.7201C44.7998 22.4231 44.6734 22.1382 44.4483 21.9281C44.2233 21.7181 43.9181 21.6001 43.5998 21.6001H36.3998C36.0815 21.6001 35.7763 21.7181 35.5513 21.9281C35.3262 22.1382 35.1998 22.4231 35.1998 22.7201C35.1998 23.0171 35.0734 23.302 34.8483 23.5121C34.6233 23.7221 34.3181 23.8401 33.9998 23.8401C33.6815 23.8401 33.3763 23.9581 33.1513 24.1681C32.9262 24.3782 32.7998 24.6631 32.7998 24.9601V26.0801C32.7998 26.3771 32.9262 26.662 33.1513 26.8721C33.3763 27.0821 33.6815 27.2001 33.9998 27.2001H45.9998C46.3181 27.2001 46.6233 27.0821 46.8483 26.8721C47.0734 26.662 47.1998 26.3771 47.1998 26.0801V24.9601C47.1998 24.6631 47.0734 24.3782 46.8483 24.1681C46.6233 23.9581 46.3181 23.8401 45.9998 23.8401C45.6815 23.8401 45.3763 23.7221 45.1513 23.5121C44.9262 23.302 44.7998 23.0171 44.7998 22.7201Z" fill="#9f4d59"/>
<path d="M30.6041 24H29.2001C28.2453 24 27.3296 24.3709 26.6545 25.031C25.9794 25.6911 25.6001 26.5864 25.6001 27.52V55.68C25.6001 56.6136 25.9794 57.5089 26.6545 58.169C27.3296 58.8291 28.2453 59.2 29.2001 59.2H50.8001C51.7549 59.2 52.6705 58.8291 53.3457 58.169C54.0208 57.5089 54.4001 56.6136 54.4001 55.68V27.52C54.4001 26.5864 54.0208 25.6911 53.3457 25.031C52.6705 24.3709 51.7549 24 50.8001 24H49.3961C49.5281 24.3661 49.6001 24.7627 49.6001 25.1733V26.3467C49.6001 27.2802 49.2208 28.1756 48.5457 28.8357C47.8706 29.4958 46.9549 29.8667 46.0001 29.8667H34.0001C33.0453 29.8667 32.1296 29.4958 31.4545 28.8357C30.7794 28.1756 30.4001 27.2802 30.4001 26.3467V25.1733C30.4001 24.7627 30.4721 24.3661 30.6041 24ZM44.8001 38.08C44.8001 37.4576 45.053 36.8607 45.503 36.4207C45.9531 35.9806 46.5636 35.7333 47.2001 35.7333C47.8366 35.7333 48.4471 35.9806 48.8972 36.4207C49.3472 36.8607 49.6001 37.4576 49.6001 38.08V49.8133C49.6001 50.4357 49.3472 51.0326 48.8972 51.4727C48.4471 51.9128 47.8366 52.16 47.2001 52.16C46.5636 52.16 45.9531 51.9128 45.503 51.4727C45.053 51.0326 44.8001 50.4357 44.8001 49.8133V38.08ZM30.4001 47.4667C30.4001 46.8443 30.653 46.2474 31.103 45.8073C31.5531 45.3672 32.1636 45.12 32.8001 45.12C33.4366 45.12 34.0471 45.3672 34.4972 45.8073C34.9472 46.2474 35.2001 46.8443 35.2001 47.4667V49.8133C35.2001 50.4357 34.9472 51.0326 34.4972 51.4727C34.0471 51.9128 33.4366 52.16 32.8001 52.16C32.1636 52.16 31.5531 51.9128 31.103 51.4727C30.653 51.0326 30.4001 50.4357 30.4001 49.8133V47.4667ZM40.0001 40.4267C40.6366 40.4267 41.2471 40.6739 41.6972 41.114C42.1472 41.5541 42.4001 42.151 42.4001 42.7733V49.8133C42.4001 50.4357 42.1472 51.0326 41.6972 51.4727C41.2471 51.9128 40.6366 52.16 40.0001 52.16C39.3636 52.16 38.7531 51.9128 38.303 51.4727C37.853 51.0326 37.6001 50.4357 37.6001 49.8133V42.7733C37.6001 42.151 37.853 41.5541 38.303 41.114C38.7531 40.6739 39.3636 40.4267 40.0001 40.4267Z" fill="#001628"/>
<circle cx="40" cy="40" r="40" fill="white"/>
<circle cx="40" cy="40" r="35.5" fill="white" stroke="#730D23"/>
<path fill-rule="evenodd" clip-rule="evenodd" d="M27.1243 23.116C27.5071 22.7339 27.9667 22.4374 28.4727 22.2462C28.9787 22.0551 29.5195 21.9737 30.0593 22.0074C30.5991 22.0411 31.1256 22.1892 31.6039 22.4418C32.0822 22.6944 32.5013 23.0458 32.8335 23.4726L36.76 28.5172C37.4796 29.4426 37.7334 30.648 37.449 31.7855L36.2525 36.5764C36.1906 36.8245 36.194 37.0844 36.2622 37.3309C36.3304 37.5773 36.4612 37.802 36.6419 37.983L42.0164 43.3579C42.1976 43.5389 42.4226 43.67 42.6694 43.7382C42.9163 43.8064 43.1766 43.8096 43.4251 43.7473L48.2134 42.5507C48.7747 42.4103 49.3606 42.3994 49.9267 42.5188C50.4929 42.6382 51.0245 42.8847 51.4814 43.2398L56.5256 47.1643C58.339 48.5753 58.5052 51.2552 56.8822 52.8762L54.6203 55.1381C53.0017 56.757 50.5824 57.4679 48.3271 56.6738C42.5549 54.6427 37.314 51.3379 32.9932 47.0046C28.6605 42.6842 25.356 37.4436 23.3248 31.6718C22.5329 29.4185 23.2438 26.9969 24.8625 25.378L27.1243 23.116Z" fill="#001628"/>
</svg>
