<svg width="857" height="504" viewBox="0 0 857 504" fill="none" xmlns="http://www.w3.org/2000/svg">
<rect x="0.5" y="0.5" width="856" height="503" fill="#25678E" fill-opacity="0.06" stroke="#25678E"/>
<path d="M92 423H792.67" stroke="#263238" stroke-miterlimit="10"/>
<path d="M120.178 391.483L309.508 233.313L390.118 303.703L549.128 231.733L732.548 374.083" stroke="#263238" stroke-linecap="round" stroke-linejoin="round"/>
<path d="M267.608 268.223L283.688 262.793L291.728 271.393L306.968 260.073L313.318 264.603L322.198 255.093L345.048 277.273L348.858 268.673" stroke="#263238" stroke-linecap="round" stroke-linejoin="round"/>
<path d="M482.588 262.333L508.398 257.813L512.208 269.573L525.328 261.883L533.788 272.293L560.878 256.453L574.418 264.603L581.188 257.813" stroke="#263238" stroke-linecap="round" stroke-linejoin="round"/>
<path d="M732.178 179.693L717.098 192.723L704.758 176.273" stroke="#263238" stroke-linecap="round" stroke-linejoin="round"/>
<path d="M732.178 233.843L717.098 246.863L704.758 230.413" stroke="#263238" stroke-linecap="round" stroke-linejoin="round"/>
<path d="M732.178 298.273L717.098 311.293L704.758 294.843" stroke="#263238" stroke-linecap="round" stroke-linejoin="round"/>
<path d="M732.178 363.383L717.098 376.403L704.758 359.953" stroke="#263238" stroke-linecap="round" stroke-linejoin="round"/>
<path d="M590.638 422.513H659.828C658.498 414.053 653.068 415.513 652.348 402.423C651.978 395.823 658.088 387.653 657.568 378.973C657.128 371.823 650.078 364.493 649.568 356.323C649.068 348.943 655.088 340.753 654.498 332.803C653.948 325.283 646.808 318.073 646.178 310.263C645.558 302.643 651.448 294.363 650.758 286.663C650.068 278.963 642.758 271.873 642.018 264.283C641.228 256.473 646.928 248.063 646.018 240.583C645.098 232.653 637.608 225.803 636.598 218.493C635.468 210.353 640.768 201.663 639.528 194.633C638.008 186.023 629.998 179.793 628.308 173.443C625.168 161.613 625.558 150.203 621.848 149.443C617.848 148.653 616.988 159.833 613.988 172.333C612.478 178.603 604.638 184.963 603.358 193.583C602.358 200.583 607.848 209.033 606.938 217.143C606.128 224.403 598.838 231.383 598.128 239.273C597.458 246.693 603.378 254.873 602.798 262.633C602.228 270.173 595.148 277.373 594.658 285.033C594.168 292.693 600.278 300.713 599.858 308.283C599.428 316.033 592.478 323.353 592.128 330.813C591.748 338.703 597.978 346.663 597.668 353.983C597.338 362.093 590.478 369.523 590.228 376.613C589.918 385.213 596.228 393.163 596.048 399.713C595.618 413.933 589.108 410.983 588.878 422.433L590.638 422.513Z" fill="#25678E"/>
<path opacity="0.3" d="M590.638 422.513H659.828C658.498 414.053 653.068 415.513 652.348 402.423C651.978 395.823 658.088 387.653 657.568 378.973C657.128 371.823 650.078 364.493 649.568 356.323C649.068 348.943 655.088 340.753 654.498 332.803C653.948 325.283 646.808 318.073 646.178 310.263C645.558 302.643 651.448 294.363 650.758 286.663C650.068 278.963 642.758 271.873 642.018 264.283C641.228 256.473 646.928 248.063 646.018 240.583C645.098 232.653 637.608 225.803 636.598 218.493C635.468 210.353 640.768 201.663 639.528 194.633C638.008 186.023 629.998 179.793 628.308 173.443C625.168 161.613 625.558 150.203 621.848 149.443C617.848 148.653 616.988 159.833 613.988 172.333C612.478 178.603 604.638 184.963 603.358 193.583C602.358 200.583 607.848 209.033 606.938 217.143C606.128 224.403 598.838 231.383 598.128 239.273C597.458 246.693 603.378 254.873 602.798 262.633C602.228 270.173 595.148 277.373 594.658 285.033C594.168 292.693 600.278 300.713 599.858 308.283C599.428 316.033 592.478 323.353 592.128 330.813C591.748 338.703 597.978 346.663 597.668 353.983C597.338 362.093 590.478 369.523 590.228 376.613C589.918 385.213 596.228 393.163 596.048 399.713C595.618 413.933 589.108 410.983 588.878 422.433L590.638 422.513Z" fill="white"/>
<path d="M620.338 172.183V419.303" stroke="#263238" stroke-linecap="round" stroke-linejoin="round"/>
<path d="M631.148 198.093L619.878 207.823L610.658 195.533" stroke="#263238" stroke-linecap="round" stroke-linejoin="round"/>
<path d="M631.148 241.103L619.878 250.833L610.658 238.543" stroke="#263238" stroke-linecap="round" stroke-linejoin="round"/>
<path d="M631.148 281.553L619.878 291.283L610.658 278.993" stroke="#263238" stroke-linecap="round" stroke-linejoin="round"/>
<path d="M631.148 329.693L619.878 339.423L610.658 327.133" stroke="#263238" stroke-linecap="round" stroke-linejoin="round"/>
<path d="M631.148 378.333L619.878 388.063L610.658 375.773" stroke="#263238" stroke-linecap="round" stroke-linejoin="round"/>
<path d="M133.198 422.513H183.528C182.528 416.363 178.608 417.443 178.078 407.903C177.818 403.103 182.258 397.163 181.878 390.843C181.558 385.653 176.438 380.323 176.038 374.373C175.678 369.013 180.038 363.053 179.628 357.273C179.228 351.803 174.028 346.563 173.568 340.873C173.128 335.333 177.408 329.313 176.898 323.713C176.388 318.113 171.108 312.963 170.548 307.433C169.988 301.903 174.118 295.643 173.488 290.203C172.808 284.433 167.368 279.453 166.628 274.133C165.808 268.213 169.628 261.893 168.758 256.783C167.658 250.523 161.828 245.993 160.598 241.373C158.318 232.763 158.598 224.473 155.908 223.933C153.028 223.353 152.368 231.483 150.188 240.573C149.088 245.143 143.388 249.763 142.448 256.033C141.698 261.103 145.718 267.273 145.058 273.173C144.468 278.443 139.168 283.523 138.648 289.263C138.158 294.653 142.468 300.613 142.048 306.263C141.638 311.743 136.488 316.983 136.128 322.553C135.768 328.123 140.218 333.963 139.908 339.463C139.598 344.963 134.548 350.463 134.288 355.853C134.008 361.583 138.538 367.373 138.288 372.693C138.048 378.593 133.058 384.003 132.878 389.153C132.648 395.413 137.248 401.153 137.108 405.953C136.798 416.293 132.108 414.153 131.898 422.473L133.198 422.513Z" fill="#25678E"/>
<path opacity="0.3" d="M133.198 422.513H183.528C182.528 416.363 178.608 417.443 178.078 407.903C177.818 403.103 182.258 397.163 181.878 390.843C181.558 385.653 176.438 380.323 176.038 374.373C175.678 369.013 180.038 363.053 179.628 357.273C179.228 351.803 174.028 346.563 173.568 340.873C173.128 335.333 177.408 329.313 176.898 323.713C176.388 318.113 171.108 312.963 170.548 307.433C169.988 301.903 174.118 295.643 173.488 290.203C172.808 284.433 167.368 279.453 166.628 274.133C165.808 268.213 169.628 261.893 168.758 256.783C167.658 250.523 161.828 245.993 160.598 241.373C158.318 232.763 158.598 224.473 155.908 223.933C153.028 223.353 152.368 231.483 150.188 240.573C149.088 245.143 143.388 249.763 142.448 256.033C141.698 261.103 145.718 267.273 145.058 273.173C144.468 278.443 139.168 283.523 138.648 289.263C138.158 294.653 142.468 300.613 142.048 306.263C141.638 311.743 136.488 316.983 136.128 322.553C135.768 328.123 140.218 333.963 139.908 339.463C139.598 344.963 134.548 350.463 134.288 355.853C134.008 361.583 138.538 367.373 138.288 372.693C138.048 378.593 133.058 384.003 132.878 389.153C132.648 395.413 137.248 401.153 137.108 405.953C136.798 416.293 132.108 414.153 131.898 422.473L133.198 422.513Z" fill="white"/>
<path d="M154.808 240.453V420.173" stroke="#263238" stroke-linecap="round" stroke-linejoin="round"/>
<path d="M162.658 259.293L154.468 266.363L147.768 257.433" stroke="#263238" stroke-linecap="round" stroke-linejoin="round"/>
<path d="M162.658 290.573L154.468 297.653L147.768 288.713" stroke="#263238" stroke-linecap="round" stroke-linejoin="round"/>
<path d="M162.658 319.993L154.468 327.073L147.768 318.133" stroke="#263238" stroke-linecap="round" stroke-linejoin="round"/>
<path d="M162.658 355.003L154.468 362.073L147.768 353.143" stroke="#263238" stroke-linecap="round" stroke-linejoin="round"/>
<path d="M162.658 390.383L154.468 397.453L147.768 388.513" stroke="#263238" stroke-linecap="round" stroke-linejoin="round"/>
<path d="M141.938 130.163C140.938 129.163 139.228 128.163 136.248 128.113C129.558 127.953 131.348 132.693 129.558 133.833C127.768 134.973 127.268 133.183 125.468 134.323C123.668 135.463 124.468 137.753 123.018 138.083C121.568 138.413 119.588 136.613 117.788 137.753C115.988 138.893 115.998 139.873 115.178 139.873C114.358 139.873 112.728 139.223 111.748 139.873C110.768 140.523 109.618 141.343 109.618 141.343H127.178" stroke="#263238" stroke-linecap="round" stroke-linejoin="round"/>
<path d="M143.798 133.083L143.288 132.853C143.209 132.245 143.004 131.659 142.688 131.133" stroke="#263238" stroke-linecap="round" stroke-linejoin="round"/>
<path d="M129.418 141.343H150.938C151.054 140.845 150.984 140.323 150.743 139.872C150.502 139.422 150.106 139.074 149.628 138.893C147.828 137.893 147.018 138.733 146.358 137.893C145.698 137.053 147.658 135.403 144.618 133.523" stroke="#263238" stroke-linecap="round" stroke-linejoin="round"/>
<path d="M242.308 141.343H285.028C285.028 141.343 286.488 136.983 281.148 134.073C275.808 131.163 273.388 133.583 271.448 131.153C269.508 128.723 276.778 122.423 262.228 116.153C262.228 116.153 261.228 102.573 241.358 102.083C232.778 101.873 228.888 104.373 226.818 107.563" stroke="#263238" stroke-linecap="round" stroke-linejoin="round"/>
<path d="M229.268 141.343H236.388" stroke="#263238" stroke-linecap="round" stroke-linejoin="round"/>
<path d="M216.828 141.343H162.268C162.268 141.343 165.668 138.923 168.578 136.983C171.488 135.043 176.338 136.983 178.768 136.983C181.198 136.983 181.188 134.073 186.528 130.673C191.868 127.273 197.688 132.613 202.058 131.673C206.428 130.733 203.998 123.913 209.338 120.513C214.678 117.113 216.128 122.453 221.468 119.053C222.958 118.053 223.618 116.323 224.228 114.253" stroke="#263238" stroke-linecap="round" stroke-linejoin="round"/>
<path d="M636.708 141.343H663.158C663.158 141.343 664.068 138.643 660.758 136.843C657.448 135.043 655.948 136.543 654.758 135.033C653.568 133.523 658.068 129.633 649.048 125.723C649.048 125.723 648.448 117.313 636.128 117.013C630.818 116.883 628.408 118.433 627.128 120.403" stroke="#263238" stroke-linecap="round" stroke-linejoin="round"/>
<path d="M628.638 141.343H633.038" stroke="#263238" stroke-linecap="round" stroke-linejoin="round"/>
<path d="M625.508 124.513C625.327 125.687 624.722 126.755 623.808 127.513C620.498 129.623 619.598 126.313 616.288 128.413C612.978 130.513 614.488 134.723 611.788 135.333C609.088 135.943 605.478 132.623 602.168 134.723C598.858 136.823 598.868 138.633 597.368 138.633C595.868 138.633 592.858 137.433 591.058 138.633C589.258 139.833 587.148 141.333 587.148 141.333H620.938" stroke="#263238" stroke-linecap="round" stroke-linejoin="round"/>
<path d="M498.378 224.213H524.828C524.828 224.213 525.728 221.513 522.428 219.713C519.128 217.913 517.618 219.413 516.428 217.903C515.238 216.393 519.728 212.493 510.718 208.593C510.718 208.593 510.118 200.183 497.798 199.883C492.488 199.753 490.078 201.303 488.798 203.273" stroke="#263238" stroke-linecap="round" stroke-linejoin="round"/>
<path d="M490.308 224.213H494.708" stroke="#263238" stroke-linecap="round" stroke-linejoin="round"/>
<path d="M487.178 207.423C486.991 208.597 486.383 209.664 485.468 210.423C482.168 212.523 481.268 209.223 477.958 211.323C474.648 213.423 476.158 217.633 473.448 218.233C470.738 218.833 467.148 215.533 463.838 217.633C460.528 219.733 460.538 221.543 459.028 221.543C457.518 221.543 454.528 220.343 452.718 221.543C450.908 222.743 448.818 224.243 448.818 224.243H482.598" stroke="#263238" stroke-linecap="round" stroke-linejoin="round"/>
<path d="M279.218 422.513H284.058V402.983C284.156 399.321 285.68 395.841 288.305 393.285C290.93 390.729 294.449 389.298 298.113 389.298C301.777 389.298 305.297 390.729 307.922 393.285C310.547 395.841 312.071 399.321 312.168 402.983V422.513H317.008V402.983C316.895 398.047 314.854 393.352 311.323 389.901C307.792 386.45 303.051 384.518 298.113 384.518C293.176 384.518 288.435 386.45 284.904 389.901C281.372 393.352 279.332 398.047 279.218 402.983V422.513Z" fill="#BDBDBD" stroke="#263238" stroke-miterlimit="10"/>
<path d="M238.038 413.913H269.718V183.603H238.038L238.038 413.913Z" fill="#919191" stroke="#263238" stroke-miterlimit="10"/>
<path d="M238.038 413.913H251.898L251.898 183.603H238.038L238.038 413.913Z" fill="white" stroke="#263238" stroke-miterlimit="10"/>
<path d="M238.038 199.843H269.718V181.613H238.038V199.843Z" fill="#263238" stroke="#263238" stroke-miterlimit="10"/>
<path d="M238.038 199.843H251.898V181.613H238.038V199.843Z" fill="#263238" stroke="#263238" stroke-miterlimit="10"/>
<path d="M231.788 414.293H238.078L238.078 296.533H231.788V414.293Z" fill="#BDBDBD" stroke="#263238" stroke-miterlimit="10"/>
<path d="M219.878 414.293H234.768L234.768 296.533H219.878V414.293Z" fill="white" stroke="#263238" stroke-miterlimit="10"/>
<path d="M196.438 414.293H233.478V334.023H196.438V414.293Z" fill="#25678E" stroke="#263238" stroke-linecap="round" stroke-linejoin="round"/>
<path d="M196.438 383.313H233.478V334.023H196.438V383.313Z" fill="#263238" stroke="#263238" stroke-miterlimit="10"/>
<path d="M196.438 351.383H233.478V334.013H196.438V351.383Z" fill="#BDBDBD" stroke="#263238" stroke-miterlimit="10"/>
<path d="M196.438 359.113H233.478V351.223H196.438V359.113Z" fill="white" stroke="#263238" stroke-miterlimit="10"/>
<path d="M191.138 414.293H197.428L197.428 296.533H191.138V414.293Z" fill="#BDBDBD" stroke="#263238" stroke-miterlimit="10"/>
<path d="M179.228 414.293H194.118L194.118 296.533H179.228V414.293Z" fill="white" stroke="#263238" stroke-miterlimit="10"/>
<path d="M173.488 298.363H242.698V291.183H173.488V298.363Z" fill="#25678E" stroke="#263238" stroke-linecap="round" stroke-linejoin="round"/>
<path d="M173.488 298.363H190.538V291.183H173.488V298.363Z" fill="#25678E" stroke="#263238" stroke-linecap="round" stroke-linejoin="round"/>
<path d="M173.488 414.303H242.698V412.203H173.488V414.303Z" fill="white" stroke="#263238" stroke-miterlimit="10"/>
<path d="M173.488 414.303H190.538V412.203H173.488V414.303Z" fill="white" stroke="#263238" stroke-miterlimit="10"/>
<path d="M207.778 346.893H223.738V336.413H207.778V346.893Z" fill="#263238" stroke="#263238" stroke-miterlimit="10"/>
<path d="M211.198 344.653H220.318V338.663H211.198V344.653Z" fill="white" stroke="#263238" stroke-miterlimit="10"/>
<path d="M207.778 337.673H223.738V336.423H207.778V337.673Z" fill="white" stroke="#263238" stroke-miterlimit="10"/>
<path d="M219.258 356.873H229.238V352.633H219.258V356.873Z" fill="white" stroke="#263238" stroke-miterlimit="10"/>
<path d="M219.258 354.633H229.238V352.633H219.258V354.633Z" fill="white" stroke="#263238" stroke-miterlimit="10"/>
<path d="M201.538 356.873H211.518V352.633H201.538V356.873Z" fill="white" stroke="#263238" stroke-miterlimit="10"/>
<path d="M201.538 354.633H211.518V352.633H201.538V354.633Z" fill="white" stroke="#263238" stroke-miterlimit="10"/>
<path d="M182.848 368.143H190.538V340.123H182.848V368.143Z" fill="white" stroke="#263238" stroke-miterlimit="10"/>
<path d="M182.858 368.143H188.578V340.123H182.858V368.143Z" fill="white" stroke="#263238" stroke-miterlimit="10"/>
<path d="M184.068 366.883H187.358V341.393H184.068V366.883Z" fill="white" stroke="#263238" stroke-miterlimit="10"/>
<path d="M191.708 359.233H193.828V355.973H191.708V359.233Z" fill="white" stroke="#263238" stroke-miterlimit="10"/>
<path d="M163.568 422.493H350.228V414.073H163.568V422.493Z" fill="#919191" stroke="#263238" stroke-miterlimit="10"/>
<path d="M163.558 422.493H186.568V414.073H163.558V422.493Z" fill="#BDBDBD" stroke="#263238" stroke-miterlimit="10"/>
<path d="M571.018 422.513H575.858V402.983C575.858 399.257 577.338 395.683 579.973 393.048C582.608 390.414 586.182 388.933 589.908 388.933C593.634 388.933 597.208 390.414 599.843 393.048C602.478 395.683 603.958 399.257 603.958 402.983V422.513H608.798V402.983C608.798 397.973 606.808 393.169 603.265 389.626C599.723 386.083 594.918 384.093 589.908 384.093C584.898 384.093 580.093 386.083 576.551 389.626C573.008 393.169 571.018 397.973 571.018 402.983V422.513Z" fill="#BDBDBD" stroke="#263238" stroke-miterlimit="10"/>
<path d="M529.828 413.913H561.508V183.603H529.828V413.913Z" fill="#919191" stroke="#263238" stroke-miterlimit="10"/>
<path d="M529.828 413.913H543.688V183.603H529.828V413.913Z" fill="white" stroke="#263238" stroke-miterlimit="10"/>
<path d="M529.828 201.833H561.508V183.603H529.828V201.833Z" fill="#263238" stroke="#263238" stroke-miterlimit="10"/>
<path d="M529.828 201.833H543.688V183.603H529.828V201.833Z" fill="#263238" stroke="#263238" stroke-miterlimit="10"/>
<path d="M523.578 414.293H529.868V296.533H523.578V414.293Z" fill="#BDBDBD" stroke="#263238" stroke-miterlimit="10"/>
<path d="M511.668 414.293H526.558V296.533H511.668V414.293Z" fill="white" stroke="#263238" stroke-miterlimit="10"/>
<path d="M488.228 414.293H525.268V334.023H488.228V414.293Z" fill="#25678E" stroke="#263238" stroke-linecap="round" stroke-linejoin="round"/>
<path d="M488.228 383.313H525.268V334.023H488.228V383.313Z" fill="#263238" stroke="#263238" stroke-miterlimit="10"/>
<path d="M488.228 351.383H525.268V334.013H488.228V351.383Z" fill="#BDBDBD" stroke="#263238" stroke-miterlimit="10"/>
<path d="M488.228 359.113H525.268V351.223H488.228V359.113Z" fill="white" stroke="#263238" stroke-miterlimit="10"/>
<path d="M482.928 414.293H489.218V296.533H482.928V414.293Z" fill="#BDBDBD" stroke="#263238" stroke-miterlimit="10"/>
<path d="M471.018 414.293H485.908V296.533H471.018V414.293Z" fill="white" stroke="#263238" stroke-miterlimit="10"/>
<path d="M465.278 298.363H534.488V291.183H465.278V298.363Z" fill="#25678E" stroke="#263238" stroke-linecap="round" stroke-linejoin="round"/>
<path d="M465.278 298.363H482.328V291.183H465.278V298.363Z" fill="#25678E" stroke="#263238" stroke-linecap="round" stroke-linejoin="round"/>
<path d="M465.278 414.303H534.488V412.203H465.278V414.303Z" fill="white" stroke="#263238" stroke-miterlimit="10"/>
<path d="M465.278 414.303H482.328V412.203H465.278V414.303Z" fill="white" stroke="#263238" stroke-miterlimit="10"/>
<path d="M499.578 346.893H515.538V336.413H499.578V346.893Z" fill="#263238" stroke="#263238" stroke-miterlimit="10"/>
<path d="M502.998 344.653H512.118V338.663H502.998V344.653Z" fill="white" stroke="#263238" stroke-miterlimit="10"/>
<path d="M499.578 337.673H515.538V336.423H499.578V337.673Z" fill="white" stroke="#263238" stroke-miterlimit="10"/>
<path d="M511.038 356.873H521.018V352.633H511.038V356.873Z" fill="white" stroke="#263238" stroke-miterlimit="10"/>
<path d="M511.038 354.633H521.018V352.633H511.038V354.633Z" fill="white" stroke="#263238" stroke-miterlimit="10"/>
<path d="M493.328 356.873H503.308V352.633H493.328V356.873Z" fill="white" stroke="#263238" stroke-miterlimit="10"/>
<path d="M493.328 354.633H503.308V352.633H493.328V354.633Z" fill="white" stroke="#263238" stroke-miterlimit="10"/>
<path d="M474.638 368.143H482.328V340.123H474.638V368.143Z" fill="white" stroke="#263238" stroke-miterlimit="10"/>
<path d="M474.648 368.143H480.368V340.123H474.648V368.143Z" fill="white" stroke="#263238" stroke-miterlimit="10"/>
<path d="M475.858 366.883H479.148V341.393H475.858V366.883Z" fill="white" stroke="#263238" stroke-miterlimit="10"/>
<path d="M478.858 341.433C475.318 343.703 473.308 349.613 473.218 349.883L474.478 350.303C474.478 350.243 476.138 345.413 478.858 343.083V341.433Z" fill="white" stroke="#263238" stroke-miterlimit="10"/>
<path d="M477.608 344.783C477.638 344.782 477.667 344.775 477.694 344.762C477.721 344.749 477.745 344.731 477.765 344.708C477.784 344.686 477.799 344.66 477.808 344.631C477.817 344.603 477.821 344.573 477.818 344.543L477.698 342.433C477.697 342.404 477.69 342.376 477.678 342.35C477.665 342.323 477.648 342.3 477.627 342.28C477.605 342.261 477.58 342.246 477.553 342.236C477.526 342.226 477.497 342.222 477.468 342.223C477.439 342.224 477.411 342.231 477.385 342.244C477.358 342.256 477.335 342.273 477.315 342.295C477.296 342.316 477.281 342.341 477.271 342.368C477.261 342.395 477.257 342.424 477.258 342.453L477.378 344.573C477.378 344.602 477.384 344.632 477.396 344.658C477.407 344.685 477.425 344.709 477.446 344.729C477.468 344.749 477.494 344.764 477.522 344.773C477.549 344.783 477.579 344.786 477.608 344.783Z" fill="white" stroke="#263238" stroke-width="0.5" stroke-miterlimit="10"/>
<path d="M476.078 346.663C476.107 346.663 476.136 346.658 476.162 346.647C476.189 346.635 476.213 346.619 476.234 346.599C476.254 346.578 476.27 346.554 476.281 346.527C476.292 346.501 476.298 346.472 476.298 346.443V344.323C476.298 344.294 476.292 344.266 476.281 344.239C476.27 344.212 476.254 344.188 476.234 344.168C476.213 344.147 476.189 344.131 476.162 344.12C476.136 344.109 476.107 344.103 476.078 344.103C476.049 344.103 476.021 344.109 475.994 344.12C475.967 344.131 475.943 344.147 475.923 344.168C475.902 344.188 475.886 344.212 475.875 344.239C475.864 344.266 475.858 344.294 475.858 344.323V346.443C475.858 346.472 475.864 346.501 475.875 346.527C475.886 346.554 475.902 346.578 475.923 346.599C475.943 346.619 475.967 346.635 475.994 346.647C476.021 346.658 476.049 346.663 476.078 346.663Z" fill="white" stroke="#263238" stroke-width="0.5" stroke-miterlimit="10"/>
<path d="M475.018 349.013C475.076 349.001 475.126 348.967 475.16 348.919C475.193 348.871 475.207 348.811 475.198 348.753L474.718 346.513C474.713 346.484 474.703 346.457 474.687 346.432C474.671 346.408 474.65 346.387 474.626 346.371C474.601 346.355 474.574 346.344 474.545 346.339C474.516 346.334 474.486 346.336 474.458 346.343C474.401 346.355 474.351 346.389 474.319 346.438C474.287 346.487 474.276 346.546 474.288 346.603L474.758 348.843C474.772 348.899 474.807 348.947 474.855 348.979C474.903 349.01 474.961 349.022 475.018 349.013Z" fill="white" stroke="#263238" stroke-width="0.5" stroke-miterlimit="10"/>
<path d="M474.428 356.093C474.428 356.093 473.838 361.743 473.958 362.213C474.078 362.683 476.668 363.273 476.668 363.273" stroke="#263238" stroke-miterlimit="10"/>
<path d="M471.218 365.863L475.448 364.863C475.978 364.728 476.443 364.407 476.758 363.96C477.073 363.513 477.219 362.968 477.168 362.423L476.538 356.353L475.208 356.493L475.848 362.563C475.858 362.785 475.793 363.004 475.664 363.185C475.536 363.366 475.351 363.499 475.138 363.563L470.908 364.563L471.218 365.863Z" fill="black"/>
<path d="M472.843 364.98L471.084 365.18L471.47 368.558L473.228 368.358L472.843 364.98Z" fill="black" stroke="#263238" stroke-miterlimit="10"/>
<path d="M471.811 355.959L470.053 356.159L471.083 365.191L472.842 364.99L471.811 355.959Z" fill="white" stroke="#263238" stroke-miterlimit="10"/>
<path d="M472.978 348.893L475.598 350.093L475.268 351.503L477.228 352.813L476.688 356.403L470.038 358.153L468.518 356.403L469.708 350.523L472.218 350.093L472.978 348.893Z" fill="white" stroke="#263238" stroke-miterlimit="10"/>
<path d="M471.018 351.393L473.848 350.853L474.488 349.583L472.978 348.893L472.218 350.093L469.708 350.523L468.518 356.403L469.718 357.783L471.018 351.393Z" fill="white" stroke="#263238" stroke-miterlimit="10"/>
<path d="M466.988 313.943C468.238 303.013 472.238 300.693 475.418 300.693H475.518C476.522 300.701 477.513 300.92 478.427 301.337C479.34 301.754 480.155 302.36 480.818 303.113C486.218 308.933 485.468 323.523 485.418 324.473V357.743C485.432 357.874 485.418 358.007 485.377 358.132C485.336 358.257 485.269 358.372 485.181 358.47C485.093 358.567 484.985 358.646 484.865 358.699C484.745 358.753 484.615 358.78 484.483 358.78C484.352 358.78 484.221 358.753 484.101 358.699C483.981 358.646 483.873 358.567 483.785 358.47C483.697 358.372 483.63 358.257 483.589 358.132C483.549 358.007 483.535 357.874 483.548 357.743V324.393C483.548 324.243 484.378 309.693 479.448 304.393C478.951 303.821 478.337 303.362 477.646 303.047C476.956 302.733 476.206 302.572 475.448 302.573H475.388C471.048 302.573 469.388 308.863 468.798 314.163C468.22 319.412 468.511 324.719 469.658 329.873L471.078 336.403V345.203L467.828 330.273C466.647 324.914 466.363 319.396 466.988 313.943Z" fill="#263238"/>
<path d="M483.498 359.233H485.618V355.973H483.498V359.233Z" fill="white" stroke="#263238" stroke-miterlimit="10"/>
<path d="M467.628 395.393C469.628 391.513 471.978 387.113 471.978 381.873C471.978 373.873 471.328 367.373 471.328 367.303L473.188 367.123C473.188 367.183 473.848 373.773 473.848 381.873C473.848 387.583 471.308 392.393 469.278 396.263C467.678 399.313 466.278 401.953 466.848 403.763C466.939 404.208 467.129 404.626 467.404 404.986C467.68 405.346 468.033 405.639 468.438 405.843C469.346 406.107 470.32 406.021 471.168 405.603V407.603C470.585 407.787 469.979 407.885 469.368 407.893C468.814 407.899 468.264 407.797 467.748 407.593C467.08 407.293 466.491 406.843 466.026 406.277C465.561 405.712 465.233 405.046 465.068 404.333C464.268 401.773 465.828 398.813 467.628 395.393Z" fill="black"/>
<path d="M411.808 422.493H598.468V414.073H411.808V422.493Z" fill="#919191" stroke="#263238" stroke-miterlimit="10"/>
<path d="M411.808 422.493H434.818V414.073H411.808V422.493Z" fill="#BDBDBD" stroke="#263238" stroke-miterlimit="10"/>
<path d="M636.768 152.583H271.788V190.853H636.768V152.583Z" fill="#263238" stroke="#263238" stroke-miterlimit="10"/>
<path d="M133.868 190.853L433.978 190.853V152.583L133.868 152.583V190.853Z" fill="#25678E" stroke="#263238" stroke-linecap="round" stroke-linejoin="round"/>
<path d="M433.938 190.853V154.243L349.068 175.513C337.128 178.51 324.552 177.738 313.068 173.303L294.508 166.153C285.958 162.856 276.623 162.16 267.678 164.153L147.678 190.823L433.938 190.853Z" fill="#919191" stroke="#263238" stroke-miterlimit="10"/>
<path d="M279.658 414.323C279.658 414.323 277.588 418.653 277.958 419.553C278.328 420.453 280.738 420.413 280.738 420.413L280.838 414.513C280.838 414.513 280.298 412.943 279.658 414.323Z" fill="white" stroke="#263238" stroke-linecap="round" stroke-linejoin="round"/>
<path d="M285.328 417.513C285.328 417.513 287.938 419.123 288.678 419.513C289.418 419.903 292.538 420.563 292.598 421.223C292.658 421.883 289.598 422.313 288.028 422.533C285.108 422.448 282.205 422.052 279.368 421.353C279.058 421.113 280.218 417.153 280.218 417.153L285.328 417.513Z" fill="white" stroke="#263238" stroke-linecap="round" stroke-linejoin="round"/>
<path d="M295.558 360.833C295.558 360.833 294.198 384.123 294.298 387.183C294.398 390.243 293.298 392.363 293.208 393.233C293.118 394.103 285.818 412.143 285.818 412.143L284.428 416.303L281.578 411.943L284.578 391.513L281.578 361.353L289.188 360.353L295.558 360.833Z" fill="#525252" stroke="#263238" stroke-linecap="round" stroke-linejoin="round"/>
<path d="M271.678 361.513C271.678 361.513 273.358 371.583 275.118 375.863C276.878 380.143 279.118 391.673 279.118 391.673C279.118 391.673 277.718 397.473 278.638 399.833C279.558 402.193 279.638 415.093 279.638 415.093C279.529 415.848 279.475 416.61 279.478 417.373C279.548 417.823 279.608 418.583 279.608 418.583C279.608 418.583 281.818 418.203 282.608 418.143C283.398 418.083 286.028 417.633 286.028 417.633C286.028 417.633 286.148 416.003 286.328 415.033C286.508 414.063 285.858 412.483 285.878 412.153C285.898 411.823 286.968 403.273 286.968 403.273C286.968 403.273 288.568 391.693 288.728 389.523C288.888 387.353 286.408 364.213 286.408 364.213C286.408 364.213 279.528 359.673 276.928 359.373C274.328 359.073 271.678 361.513 271.678 361.513Z" fill="#525252" stroke="#263238" stroke-linecap="round" stroke-linejoin="round"/>
<path d="M279.508 320.093C279.508 320.093 269.918 325.473 269.878 325.993C269.838 326.513 271.788 347.333 271.788 347.333C271.788 347.333 270.588 359.203 270.498 360.493C270.451 361.42 270.471 362.349 270.558 363.273L276.038 360.723C276.038 360.723 285.708 364.983 287.038 365.253L289.608 365.783L290.908 363.443L291.038 366.443C292.154 365.612 293.182 364.671 294.108 363.633L296.208 360.923L295.268 347.663C295.268 347.663 294.268 330.293 294.378 329.343C294.488 328.393 293.228 323.263 292.378 322.583C290.855 321.798 289.273 321.129 287.648 320.583L280.938 319.243L279.508 320.093Z" fill="white" stroke="#263238" stroke-linecap="round" stroke-linejoin="round"/>
<path d="M278.088 309.743C278.296 310.688 278.633 311.6 279.088 312.453C279.638 313.213 281.168 315.453 281.168 315.453L284.568 313.453L283.938 307.513L278.088 309.743Z" fill="#263238" stroke="#263238" stroke-linecap="round" stroke-linejoin="round"/>
<path d="M280.648 312.713L280.078 318.813L286.908 323.323L288.108 318.723L282.378 311.623L280.648 312.713Z" fill="white" stroke="#263238" stroke-linecap="round" stroke-linejoin="round"/>
<path d="M284.698 317.633L287.178 321.063L287.838 319.253L284.698 317.633Z" fill="#263238"/>
<path d="M292.738 306.383L292.548 310.183L292.048 311.103L292.138 314.673L291.488 315.233C291.488 315.233 290.488 318.233 290.298 318.533C289.828 318.995 289.3 319.395 288.728 319.723C288.378 319.863 284.878 317.873 284.328 317.053C283.778 316.233 283.158 315.233 283.158 315.233L283.268 312.553L283.018 307.553L292.738 306.383Z" fill="white" stroke="#263238" stroke-linecap="round" stroke-linejoin="round"/>
<path d="M289.768 311.373V312.373C289.534 312.486 289.274 312.534 289.015 312.511C288.757 312.488 288.509 312.395 288.298 312.243" stroke="#263238" stroke-linecap="round" stroke-linejoin="round"/>
<path d="M290.228 316.563C290.228 316.563 289.898 316.633 289.168 316.163" stroke="#263238" stroke-linecap="round" stroke-linejoin="round"/>
<path d="M287.558 308.503L292.508 308.783L292.738 306.383L287.078 307.933L287.558 308.503Z" fill="#263238"/>
<path d="M290.588 310.913L287.828 310.623" stroke="#263238" stroke-linecap="round" stroke-linejoin="round"/>
<path d="M291.488 315.233L289.658 315.363" stroke="#263238" stroke-linecap="round" stroke-linejoin="round"/>
<path d="M293.338 306.203C293.338 306.203 292.808 302.613 291.588 301.483C290.368 300.353 283.998 299.433 283.368 299.733C282.738 300.033 281.608 300.603 281.608 300.603C280.832 301.036 280.098 301.541 279.418 302.113C278.911 302.479 278.495 302.955 278.2 303.506C277.905 304.057 277.741 304.669 277.718 305.293C277.709 306.785 277.833 308.274 278.088 309.743L293.338 306.203Z" fill="#25678E" stroke="#263238" stroke-linecap="round" stroke-linejoin="round"/>
<path d="M279.658 316.803L285.368 319.393L287.128 323.943L278.558 319.933L279.658 316.803Z" fill="white" stroke="#263238" stroke-linecap="round" stroke-linejoin="round"/>
<path d="M283.578 311.683C283.578 311.683 282.928 309.163 281.578 310.033C280.228 310.903 281.798 313.653 282.018 314.033C282.238 314.413 283.018 314.473 283.448 313.593" fill="white"/>
<path d="M283.578 311.683C283.578 311.683 282.928 309.163 281.578 310.033C280.228 310.903 281.798 313.653 282.018 314.033C282.238 314.413 283.018 314.473 283.448 313.593" stroke="#263238" stroke-linecap="round" stroke-linejoin="round"/>
<path d="M285.118 308.063C285.118 308.063 288.368 309.643 290.708 309.493C293.348 309.313 298.848 308.673 297.508 307.623C295.948 307.103 294.355 306.689 292.738 306.383C292.738 306.383 287.088 307.183 285.118 308.063Z" fill="#25678E" stroke="#263238" stroke-linecap="round" stroke-linejoin="round"/>
<path d="M321.638 356.213C318.538 353.363 312.308 352.943 312.028 352.923L311.948 354.253C312.008 354.253 317.098 354.593 320.048 356.633L321.638 356.213Z" fill="white" stroke="#263238" stroke-miterlimit="10"/>
<path d="M318.088 355.853C318.097 355.881 318.112 355.906 318.131 355.928C318.15 355.951 318.173 355.969 318.199 355.982C318.225 355.995 318.254 356.002 318.283 356.004C318.312 356.006 318.341 356.003 318.368 355.993L320.368 355.343C320.423 355.323 320.467 355.283 320.493 355.231C320.519 355.179 320.525 355.119 320.508 355.063C320.49 355.007 320.451 354.96 320.398 354.932C320.346 354.904 320.285 354.897 320.228 354.913L318.228 355.573C318.174 355.594 318.129 355.634 318.103 355.686C318.077 355.738 318.072 355.797 318.088 355.853Z" fill="white" stroke="#263238" stroke-width="0.5" stroke-miterlimit="10"/>
<path d="M315.868 354.853C315.885 354.909 315.922 354.957 315.972 354.986C316.022 355.016 316.081 355.026 316.138 355.013L318.188 354.473C318.244 354.457 318.292 354.42 318.322 354.37C318.351 354.32 318.361 354.26 318.348 354.203C318.341 354.175 318.329 354.148 318.311 354.125C318.294 354.101 318.272 354.081 318.247 354.067C318.222 354.052 318.194 354.042 318.165 354.038C318.136 354.034 318.107 354.036 318.078 354.043L316.078 354.583C316.046 354.586 316.015 354.595 315.986 354.61C315.958 354.625 315.933 354.646 315.913 354.671C315.893 354.697 315.879 354.726 315.871 354.758C315.864 354.789 315.863 354.821 315.868 354.853Z" fill="white" stroke="#263238" stroke-width="0.5" stroke-miterlimit="10"/>
<path d="M313.328 354.433C313.328 354.433 313.328 354.433 313.328 354.483C313.342 354.509 313.36 354.532 313.383 354.55C313.405 354.569 313.431 354.583 313.459 354.591C313.487 354.599 313.517 354.602 313.546 354.599C313.575 354.596 313.603 354.587 313.628 354.573L315.628 353.573C315.681 353.547 315.722 353.5 315.74 353.444C315.759 353.388 315.755 353.326 315.728 353.273C315.702 353.22 315.655 353.18 315.599 353.161C315.543 353.142 315.481 353.147 315.428 353.173L313.428 354.173C313.384 354.198 313.35 354.238 313.332 354.285C313.314 354.333 313.312 354.385 313.328 354.433Z" fill="white" stroke="#263238" stroke-width="0.5" stroke-miterlimit="10"/>
<path d="M306.338 355.683C306.338 355.683 300.728 356.563 300.338 356.803C299.948 357.043 300.008 359.683 300.008 359.683" stroke="#263238" stroke-miterlimit="10"/>
<path d="M296.068 355.083L298.138 358.913C298.408 359.387 298.839 359.749 299.353 359.932C299.867 360.116 300.429 360.109 300.938 359.913L306.638 357.743L306.168 356.503L300.468 358.663C300.257 358.745 300.023 358.747 299.81 358.67C299.597 358.593 299.419 358.441 299.308 358.243L297.238 354.413L296.068 355.083Z" fill="black"/>
<path d="M296.634 354.803L293.468 356.042L294.113 357.69L297.279 356.451L296.634 354.803Z" fill="black" stroke="#263238" stroke-miterlimit="10"/>
<path d="M305.107 351.48L296.642 354.792L297.287 356.441L305.752 353.128L305.107 351.48Z" fill="white" stroke="#263238" stroke-miterlimit="10"/>
<path d="M312.928 352.433L312.438 355.273L310.988 355.323L310.228 357.553L306.608 357.943L303.218 351.973L304.518 350.053L310.508 349.693L311.568 352.003L312.928 352.433Z" fill="#25678E" stroke="#263238" stroke-linecap="round" stroke-linejoin="round"/>
<path d="M309.998 351.183L311.248 353.783L312.648 354.073L312.928 352.433L311.568 352.003L310.508 349.693L304.518 350.053L303.488 351.573L309.998 351.183Z" fill="#25678E" stroke="#263238" stroke-linecap="round" stroke-linejoin="round"/>
<path d="M276.498 343.443L278.548 346.513L296.988 354.913L300.058 357.783L303.128 356.753L305.798 356.343L302.518 350.813L295.968 350.613L283.678 342.623L281.828 340.363L276.498 343.443Z" fill="white" stroke="#263238" stroke-linecap="round" stroke-linejoin="round"/>
<path d="M269.878 325.993L274.248 346.103L283.878 340.983L277.528 326.643" fill="white"/>
<path d="M269.878 325.993L274.248 346.103L283.878 340.983L277.528 326.643" stroke="#263238" stroke-linecap="round" stroke-linejoin="round"/>
<path d="M293.488 356.013C285.39 357.997 278.027 362.254 272.268 368.283C264.038 377.283 255.648 386.113 246.938 394.643C236.998 404.373 229.048 410.883 216.148 416.553C206.968 420.553 193.388 424.553 183.628 420.553C171.308 415.433 174.518 397.983 174.258 387.453C173.738 366.513 173.748 345.513 174.388 324.583C174.468 322.003 174.558 319.423 174.708 316.853C174.928 312.973 175.228 305.373 176.848 301.853C178.108 299.113 180.848 297.683 182.568 297.753C188.428 297.993 190.158 304.823 190.788 310.863C191.418 316.903 192.498 353.663 192.498 353.663" stroke="#263238" stroke-width="3" stroke-linejoin="round"/>
<path d="M265.158 353.663H264.728C264.293 353.663 263.865 353.56 263.478 353.362C263.091 353.164 262.756 352.877 262.502 352.525C262.247 352.172 262.079 351.765 262.013 351.335C261.946 350.905 261.982 350.466 262.118 350.053C262.668 348.363 263.598 346.653 265.118 346.393C268.358 345.853 277.258 348.543 277.258 350.393C277.258 352.243 277.258 353.083 276.178 353.083H269.438L264.048 359.023L263.928 358.923C263.65 358.69 263.427 358.398 263.274 358.069C263.121 357.74 263.042 357.381 263.042 357.018C263.042 356.655 263.121 356.297 263.274 355.968C263.427 355.639 263.65 355.347 263.928 355.113C264.422 354.708 264.839 354.217 265.158 353.663Z" fill="#263238" stroke="#263238" stroke-linecap="round" stroke-linejoin="round"/>
<path d="M326.088 403.813H415.588C415.588 403.813 428.528 395.183 425.828 372.533C423.128 349.883 408.578 364.993 403.188 380.083H363.288C363.288 380.083 354.658 362.833 340.648 364.993C326.638 367.153 326.088 403.813 326.088 403.813Z" fill="#263238" stroke="#263238" stroke-linecap="round" stroke-linejoin="round"/>
<path d="M348.078 399.323C348.205 393.324 346.476 387.433 343.128 382.453V376.153H332.338C323.638 376.153 316.588 386.523 316.588 399.323C316.588 412.123 323.638 422.513 332.338 422.513H343.128V416.213C346.48 411.228 348.209 405.329 348.078 399.323Z" fill="#263238" stroke="#263238" stroke-linecap="round" stroke-linejoin="round"/>
<path d="M343.128 422.493C351.821 422.493 358.868 412.12 358.868 399.323C358.868 386.527 351.821 376.153 343.128 376.153C334.435 376.153 327.388 386.527 327.388 399.323C327.388 412.12 334.435 422.493 343.128 422.493Z" fill="#263238"/>
<mask id="mask0_406_798" style="mask-type:luminance" maskUnits="userSpaceOnUse" x="327" y="376" width="32" height="47">
<path d="M343.128 422.493C351.821 422.493 358.868 412.12 358.868 399.323C358.868 386.527 351.821 376.153 343.128 376.153C334.435 376.153 327.388 386.527 327.388 399.323C327.388 412.12 334.435 422.493 343.128 422.493Z" fill="white"/>
</mask>
<g mask="url(#mask0_406_798)">
<path opacity="0.2" d="M343.128 422.493C351.821 422.493 358.868 412.12 358.868 399.323C358.868 386.527 351.821 376.153 343.128 376.153C334.435 376.153 327.388 386.527 327.388 399.323C327.388 412.12 334.435 422.493 343.128 422.493Z" fill="white" stroke="#263238" stroke-linecap="round" stroke-linejoin="round"/>
</g>
<path d="M343.128 422.493C351.821 422.493 358.868 412.12 358.868 399.323C358.868 386.527 351.821 376.153 343.128 376.153C334.435 376.153 327.388 386.527 327.388 399.323C327.388 412.12 334.435 422.493 343.128 422.493Z" stroke="#263238" stroke-linecap="round" stroke-linejoin="round"/>
<path d="M250.818 376.153H240.628C232.408 376.153 225.748 386.523 225.748 399.323C225.748 412.123 232.408 422.513 240.628 422.513H250.818C259.038 422.513 265.698 412.143 265.698 399.343C265.698 386.543 259.038 376.153 250.818 376.153Z" fill="#263238" stroke="#263238" stroke-linecap="round" stroke-linejoin="round"/>
<path d="M343.128 417.813C350.065 417.813 355.688 409.535 355.688 399.323C355.688 389.111 350.065 380.833 343.128 380.833C336.191 380.833 330.568 389.111 330.568 399.323C330.568 409.535 336.191 417.813 343.128 417.813Z" fill="white" stroke="#263238" stroke-linecap="round" stroke-linejoin="round"/>
<path d="M421.808 399.323C421.93 393.543 420.858 387.8 418.658 382.453V376.153H409.128C403.588 376.153 399.128 386.523 399.128 399.323C399.128 412.123 403.608 422.493 409.128 422.493H418.658V416.193C420.858 410.847 421.93 405.104 421.808 399.323Z" fill="#263238" stroke="#263238" stroke-linecap="round" stroke-linejoin="round"/>
<path d="M418.658 422.493C424.192 422.493 428.678 412.12 428.678 399.323C428.678 386.527 424.192 376.153 418.658 376.153C413.124 376.153 408.638 386.527 408.638 399.323C408.638 412.12 413.124 422.493 418.658 422.493Z" fill="#263238"/>
<mask id="mask1_406_798" style="mask-type:luminance" maskUnits="userSpaceOnUse" x="408" y="376" width="21" height="47">
<path d="M418.658 422.493C424.192 422.493 428.678 412.12 428.678 399.323C428.678 386.527 424.192 376.153 418.658 376.153C413.124 376.153 408.638 386.527 408.638 399.323C408.638 412.12 413.124 422.493 418.658 422.493Z" fill="white"/>
</mask>
<g mask="url(#mask1_406_798)">
<path opacity="0.2" d="M418.658 422.493C424.192 422.493 428.678 412.12 428.678 399.323C428.678 386.527 424.192 376.153 418.658 376.153C413.124 376.153 408.638 386.527 408.638 399.323C408.638 412.12 413.124 422.493 418.658 422.493Z" fill="white" stroke="#263238" stroke-linecap="round" stroke-linejoin="round"/>
</g>
<path d="M418.658 422.493C424.192 422.493 428.678 412.12 428.678 399.323C428.678 386.527 424.192 376.153 418.658 376.153C413.124 376.153 408.638 386.527 408.638 399.323C408.638 412.12 413.124 422.493 418.658 422.493Z" stroke="#263238" stroke-linecap="round" stroke-linejoin="round"/>
<path d="M426.648 399.323C426.648 409.533 423.068 417.813 418.648 417.813C414.228 417.813 410.648 409.533 410.648 399.323C410.648 389.113 414.228 380.833 418.648 380.833C423.068 380.833 426.648 389.113 426.648 399.323Z" fill="white" stroke="#263238" stroke-linecap="round" stroke-linejoin="round"/>
<path d="M329.858 404.983C329.858 386.523 336.278 371.553 344.188 371.553C352.098 371.553 358.518 386.553 358.518 404.983C358.518 405.983 358.518 406.983 358.458 407.983H409.508C409.508 406.983 409.458 405.983 409.458 404.983C409.458 386.513 414.138 371.513 419.938 371.513C423.788 371.513 427.148 378.203 428.938 388.143V360.913C428.94 359.67 428.505 358.466 427.711 357.51C426.916 356.554 425.811 355.908 424.588 355.683L424.338 355.633C420.808 354.923 414.438 348.203 404.528 339.713C394.618 331.223 385.778 330.513 385.778 330.513H296.378C294.689 330.514 293.047 331.073 291.708 332.103L261.228 355.633C261.228 355.633 233.938 360.933 227.938 366.953C221.938 372.973 222.628 407.953 222.628 407.953H329.938C329.878 407.003 329.858 406.003 329.858 404.983Z" fill="white" stroke="#263238" stroke-linecap="round" stroke-linejoin="round"/>
<path d="M363.828 330.513H296.378C294.689 330.514 293.047 331.073 291.708 332.103L261.228 355.633H347.548L363.828 330.513Z" fill="white" stroke="#263238" stroke-linecap="round" stroke-linejoin="round"/>
<path d="M328.498 365.093C323.638 365.153 315.148 365.473 311.498 366.953C308.454 368.153 305.5 369.57 302.658 371.193H319.938L328.498 365.093Z" fill="#263238" stroke="#263238" stroke-linecap="round" stroke-linejoin="round"/>
<path d="M321.018 376.513V373.333H302.618L305.948 376.403C305.895 376.435 305.845 376.472 305.798 376.513H321.018Z" fill="#263238" stroke="#263238" stroke-linecap="round" stroke-linejoin="round"/>
<path d="M322.788 371.903V376.513C323.502 376.45 324.192 376.223 324.804 375.85C325.416 375.477 325.934 374.968 326.318 374.363C328.088 371.533 332.068 365.073 332.068 365.073L322.788 371.903Z" fill="#263238" stroke="#263238" stroke-linecap="round" stroke-linejoin="round"/>
<path d="M229.678 376.393L233.008 373.323H225.158C224.918 374.323 224.688 375.383 224.488 376.503H229.828C229.782 376.462 229.731 376.425 229.678 376.393Z" fill="#263238" stroke="#263238" stroke-linecap="round" stroke-linejoin="round"/>
<path d="M227.048 368.173C226.513 369.124 226.08 370.13 225.758 371.173H233.008C231.075 370.069 229.086 369.068 227.048 368.173Z" fill="#263238" stroke="#263238" stroke-linecap="round" stroke-linejoin="round"/>
<path d="M347.548 355.633H399.938C399.938 355.633 407.368 353.153 405.248 343.953C404.528 340.833 389.678 333.693 387.558 333.693H362.058L347.548 355.633Z" fill="#263238"/>
<mask id="mask2_406_798" style="mask-type:luminance" maskUnits="userSpaceOnUse" x="347" y="333" width="59" height="23">
<path d="M347.548 355.633H399.938C399.938 355.633 407.368 353.153 405.248 343.953C404.528 340.833 389.678 333.693 387.558 333.693H362.058L347.548 355.633Z" fill="white"/>
</mask>
<g mask="url(#mask2_406_798)">
<path opacity="0.2" d="M347.548 355.633H399.938C399.938 355.633 407.368 353.153 405.248 343.953C404.528 340.833 389.678 333.693 387.558 333.693H362.058L347.548 355.633Z" fill="white" stroke="#263238" stroke-linecap="round" stroke-linejoin="round"/>
</g>
<path d="M347.548 355.633H399.938C399.938 355.633 407.368 353.153 405.248 343.953C404.528 340.833 389.678 333.693 387.558 333.693H362.058L347.548 355.633Z" stroke="#263238" stroke-linecap="round" stroke-linejoin="round"/>
<path d="M289.648 333.693L261.218 355.633H347.548L361.758 333.693H289.648Z" fill="#263238" stroke="#263238" stroke-linecap="round" stroke-linejoin="round"/>
<path d="M234.338 371.903V379.333L239.638 383.223H282.448L292.358 378.983V371.903H234.338Z" fill="#263238" stroke="#263238" stroke-linecap="round" stroke-linejoin="round"/>
<path opacity="0.3" d="M236.318 371.903H234.338V373.883H236.318V371.903Z" fill="white" stroke="#263238" stroke-linecap="round" stroke-linejoin="round"/>
<path opacity="0.3" d="M238.498 374.093H236.518V376.073H238.498V374.093Z" fill="white" stroke="#263238" stroke-linecap="round" stroke-linejoin="round"/>
<path opacity="0.3" d="M240.688 376.283H238.708V378.263H240.688V376.283Z" fill="white" stroke="#263238" stroke-linecap="round" stroke-linejoin="round"/>
<path opacity="0.3" d="M242.878 378.463H240.898V380.443H242.878V378.463Z" fill="white" stroke="#263238" stroke-linecap="round" stroke-linejoin="round"/>
<path opacity="0.3" d="M291.968 371.903H289.988V373.883H291.968V371.903Z" fill="white" stroke="#263238" stroke-linecap="round" stroke-linejoin="round"/>
<path opacity="0.3" d="M289.778 374.093H287.798V376.073H289.778V374.093Z" fill="white" stroke="#263238" stroke-linecap="round" stroke-linejoin="round"/>
<path opacity="0.3" d="M287.588 376.283H285.608V378.263H287.588V376.283Z" fill="white" stroke="#263238" stroke-linecap="round" stroke-linejoin="round"/>
<path opacity="0.3" d="M285.408 378.463H283.428V380.443H285.408V378.463Z" fill="white" stroke="#263238" stroke-linecap="round" stroke-linejoin="round"/>
<path opacity="0.3" d="M245.918 378.463H243.938V380.443H245.918V378.463Z" fill="white" stroke="#263238" stroke-linecap="round" stroke-linejoin="round"/>
<path opacity="0.3" d="M248.948 378.463H246.968V380.443H248.948V378.463Z" fill="white" stroke="#263238" stroke-linecap="round" stroke-linejoin="round"/>
<path opacity="0.3" d="M251.988 378.463H250.008V380.443H251.988V378.463Z" fill="white" stroke="#263238" stroke-linecap="round" stroke-linejoin="round"/>
<path opacity="0.3" d="M255.028 378.463H253.048V380.443H255.028V378.463Z" fill="white" stroke="#263238" stroke-linecap="round" stroke-linejoin="round"/>
<path opacity="0.3" d="M258.068 378.463H256.088V380.443H258.068V378.463Z" fill="white" stroke="#263238" stroke-linecap="round" stroke-linejoin="round"/>
<path opacity="0.3" d="M261.098 378.463H259.118V380.443H261.098V378.463Z" fill="white" stroke="#263238" stroke-linecap="round" stroke-linejoin="round"/>
<path opacity="0.3" d="M264.138 378.463H262.158V380.443H264.138V378.463Z" fill="white" stroke="#263238" stroke-linecap="round" stroke-linejoin="round"/>
<path opacity="0.3" d="M267.178 378.463H265.198V380.443H267.178V378.463Z" fill="white" stroke="#263238" stroke-linecap="round" stroke-linejoin="round"/>
<path opacity="0.3" d="M270.218 378.463H268.238V380.443H270.218V378.463Z" fill="white" stroke="#263238" stroke-linecap="round" stroke-linejoin="round"/>
<path opacity="0.3" d="M273.258 378.463H271.278V380.443H273.258V378.463Z" fill="white" stroke="#263238" stroke-linecap="round" stroke-linejoin="round"/>
<path opacity="0.3" d="M276.288 378.463H274.308V380.443H276.288V378.463Z" fill="white" stroke="#263238" stroke-linecap="round" stroke-linejoin="round"/>
<path opacity="0.3" d="M279.328 378.463H277.348V380.443H279.328V378.463Z" fill="white" stroke="#263238" stroke-linecap="round" stroke-linejoin="round"/>
<path opacity="0.3" d="M282.368 378.463H280.388V380.443H282.368V378.463Z" fill="white" stroke="#263238" stroke-linecap="round" stroke-linejoin="round"/>
<path d="M312.878 392.423H224.778L223.598 382.983C223.058 388.173 222.818 393.703 222.708 398.243L223.018 399.503L224.778 395.963H232.338L227.618 399.853H297.618L295.108 395.963H312.828L317.778 398.793H321.318V380.793L312.878 392.423Z" fill="#263238" stroke="#263238" stroke-linecap="round" stroke-linejoin="round"/>
<path d="M382.068 355.633H385.018C384.708 351.293 383.468 341.733 378.608 333.693H375.608C377.358 337.393 381.398 346.923 382.068 355.633Z" fill="#263238" stroke="#263238" stroke-linecap="round" stroke-linejoin="round"/>
<path d="M318.268 339.653L319.348 342.653C318.019 343.923 317.243 345.666 317.188 347.503V355.673H310.558L316.108 339.673L318.268 339.653ZM287.268 343.653C282.718 346.423 275.838 352.533 272.508 355.593H294.668L306.138 337.993L298.588 338.533C294.605 339.751 290.8 341.486 287.268 343.693V343.653ZM333.098 341.513L330.398 340.973H326.628L325.548 342.053C325.548 342.053 328.248 342.323 328.548 343.943C328.734 345.553 328.824 347.173 328.818 348.793H330.708C330.708 348.793 330.708 345.793 332.058 344.483C332.821 343.712 333.633 342.99 334.488 342.323L333.098 341.513Z" fill="#525252" stroke="#263238" stroke-linecap="round" stroke-linejoin="round"/>
<path d="M365.988 353.663H365.548C365.114 353.663 364.685 353.56 364.298 353.362C363.911 353.164 363.576 352.877 363.322 352.525C363.067 352.172 362.899 351.765 362.833 351.335C362.766 350.905 362.802 350.466 362.938 350.053C363.488 348.363 364.418 346.653 365.988 346.393C369.218 345.853 378.118 348.543 378.118 350.393C378.118 352.243 378.118 353.083 377.038 353.083H370.298L364.938 359.063L364.818 358.963C364.541 358.73 364.317 358.438 364.164 358.109C364.011 357.78 363.932 357.421 363.932 357.058C363.932 356.695 364.011 356.337 364.164 356.008C364.317 355.679 364.541 355.387 364.818 355.153C365.289 354.726 365.684 354.222 365.988 353.663Z" fill="white" stroke="#263238" stroke-linecap="round" stroke-linejoin="round"/>
<path d="M364.788 358.963L364.908 359.063L370.298 353.123H377.038C377.928 353.123 378.038 352.563 378.108 351.303H362.838C362.928 351.958 363.252 352.558 363.75 352.992C364.248 353.426 364.887 353.664 365.548 353.663H365.988C365.675 354.224 365.27 354.728 364.788 355.153C364.51 355.387 364.287 355.679 364.134 356.008C363.981 356.337 363.902 356.695 363.902 357.058C363.902 357.421 363.981 357.78 364.134 358.109C364.287 358.438 364.51 358.729 364.788 358.963Z" fill="#263238" stroke="#263238" stroke-linecap="round" stroke-linejoin="round"/>
<path d="M381.438 362.143H375.368V363.443H381.438V362.143Z" fill="#263238" stroke="#263238" stroke-linecap="round" stroke-linejoin="round"/>
<path d="M408.738 362.143H402.668V363.443H408.738V362.143Z" fill="#263238" stroke="#263238" stroke-linecap="round" stroke-linejoin="round"/>
<path d="M409.168 356.943C409.168 356.943 413.558 359.943 416.108 370.383C416.108 370.383 405.268 371.683 405.268 401.583" stroke="#263238" stroke-linecap="round" stroke-linejoin="round"/>
<path d="M403.938 402.883H358.488C358.488 403.55 358.488 404.25 358.488 404.983C358.488 405.983 358.488 406.983 358.428 407.983H409.478C409.478 406.983 409.428 405.983 409.428 404.983C409.428 404.913 409.428 404.843 409.428 404.773L403.938 402.883Z" fill="#263238" stroke="#263238" stroke-linecap="round" stroke-linejoin="round"/>
<path d="M329.858 404.983C329.858 404.283 329.858 403.583 329.858 402.883H222.638C222.638 406.003 222.638 407.993 222.638 407.993H329.938C329.878 407.003 329.858 406.003 329.858 404.983Z" fill="#263238" stroke="#263238" stroke-linecap="round" stroke-linejoin="round"/>
<path d="M427.018 359.513C426.478 359.513 425.948 359.654 425.479 359.921C425.01 360.187 424.619 360.572 424.343 361.036C424.068 361.5 423.918 362.028 423.908 362.567C423.899 363.107 424.03 363.64 424.288 364.113L428.918 372.603V360.913C428.913 360.45 428.845 359.989 428.718 359.543H427.018V359.513Z" fill="#263238" stroke="#263238" stroke-linecap="round" stroke-linejoin="round"/>
<path d="M385.398 360.133C385.398 360.133 395.098 374.133 385.398 397.873" stroke="#263238" stroke-linecap="round" stroke-linejoin="round"/>
<path d="M731.448 160.143H655.598V422.493H731.448V160.143Z" fill="#666666" stroke="#263238" stroke-miterlimit="10"/>
<path d="M725.878 160.143H650.028V422.493H725.878V160.143Z" fill="#919191" stroke="#263238" stroke-miterlimit="10"/>
<path d="M725.878 160.143H650.028V350.263H725.878V160.143Z" fill="white" stroke="#263238" stroke-linecap="round" stroke-linejoin="round"/>
<path d="M725.878 232.843H650.028V277.453H725.878V232.843Z" fill="#263238" stroke="#263238" stroke-miterlimit="10"/>
<path d="M715.438 286.103H658.378V295.153H715.438V286.103Z" fill="white" stroke="#263238" stroke-linecap="round" stroke-linejoin="round"/>
<path d="M715.438 308.023H658.378V317.073H715.438V308.023Z" fill="white" stroke="#263238" stroke-linecap="round" stroke-linejoin="round"/>
<path d="M715.438 243.303H658.378V252.353H715.438V243.303Z" fill="#8F8F8F" stroke="#263238" stroke-linecap="round" stroke-linejoin="round"/>
<path d="M715.438 259.313H658.378V268.363H715.438V259.313Z" fill="#8F8F8F" stroke="#263238" stroke-linecap="round" stroke-linejoin="round"/>
<path d="M729.548 377.313C731.098 377.993 734.908 377.903 734.918 377.903C734.928 377.903 734.098 375.413 734.028 375.263C733.188 373.513 730.548 370.623 728.398 370.923C728.043 370.981 727.704 371.112 727.403 371.309C727.102 371.507 726.846 371.765 726.651 372.068C726.457 372.371 726.328 372.711 726.274 373.067C726.221 373.423 726.242 373.786 726.338 374.133C726.688 375.623 728.218 376.733 729.548 377.313Z" fill="#263238"/>
<path d="M730.858 388.343C732.478 388.583 735.858 387.593 736.148 387.513C736.703 389.462 737.391 391.37 738.208 393.223C738.678 394.303 739.208 395.383 739.698 396.453L739.068 395.543C737.798 394.073 734.488 391.993 732.488 392.843C732.16 392.993 731.867 393.211 731.629 393.481C731.391 393.752 731.212 394.07 731.104 394.414C730.997 394.758 730.963 395.121 731.005 395.48C731.047 395.838 731.164 396.183 731.348 396.493C732.088 397.833 733.848 398.493 735.288 398.703C737.029 398.705 738.759 398.439 740.418 397.913C740.628 398.323 740.828 398.733 741.028 399.143C742.028 401.143 743.028 403.053 743.918 405.003C744.238 405.683 744.528 406.373 744.828 407.053C744.548 406.653 744.318 406.313 744.278 406.273C743.008 404.803 739.698 402.713 737.698 403.563C737.37 403.713 737.078 403.931 736.839 404.201C736.601 404.472 736.422 404.79 736.314 405.134C736.207 405.478 736.173 405.841 736.215 406.2C736.257 406.558 736.374 406.903 736.558 407.213C737.298 408.553 739.068 409.213 740.498 409.433C742.193 409.44 743.88 409.187 745.498 408.683C745.778 409.393 746.058 410.103 746.298 410.803C746.448 411.293 746.628 411.743 746.758 412.233C746.888 412.723 747.028 413.233 747.158 413.683C747.388 414.603 747.618 415.563 747.818 416.473C747.958 417.103 748.078 417.713 748.198 418.323C747.888 417.633 747.198 416.323 747.198 416.203C746.198 414.563 743.198 411.993 741.108 412.533C740.762 412.632 740.44 412.802 740.164 413.033C739.888 413.264 739.663 413.551 739.505 413.874C739.346 414.198 739.258 414.551 739.245 414.911C739.231 415.27 739.294 415.629 739.428 415.963C739.958 417.403 741.598 418.323 742.988 418.753C744.378 419.183 747.888 418.753 748.308 418.753C748.508 419.753 748.698 420.753 748.858 421.673C748.908 421.963 748.958 422.233 748.998 422.513H750.328C750.258 422.163 750.198 421.813 750.118 421.443C749.918 420.443 749.688 419.323 749.428 418.203C750.456 417.802 751.458 417.338 752.428 416.813C753.737 417.937 755.194 418.875 756.758 419.603C756.368 420.553 755.978 421.473 755.608 422.343C755.577 422.398 755.551 422.455 755.528 422.513H756.918C757.278 421.643 757.638 420.723 757.998 419.763C758.408 419.853 761.748 420.523 763.308 420.173C764.718 419.853 766.428 419.063 767.058 417.663C767.218 417.34 767.307 416.986 767.322 416.626C767.336 416.266 767.274 415.906 767.14 415.572C767.006 415.237 766.803 414.934 766.544 414.683C766.285 414.431 765.977 414.237 765.638 414.113C763.578 413.423 760.438 415.763 759.288 417.313C759.228 417.413 758.598 418.493 758.218 419.183C758.378 418.743 758.548 418.313 758.708 417.863C759.038 416.963 759.338 416.063 759.708 415.093C759.848 414.623 759.988 414.143 760.138 413.653C760.288 413.163 760.388 412.653 760.518 412.153C760.798 410.983 761.028 409.773 761.228 408.553C762.825 409.195 764.512 409.586 766.228 409.713C767.678 409.613 769.488 409.083 770.318 407.803C770.526 407.508 770.67 407.172 770.739 406.818C770.808 406.463 770.802 406.098 770.721 405.746C770.64 405.394 770.486 405.063 770.268 404.775C770.05 404.487 769.774 404.248 769.458 404.073C767.528 403.073 764.078 404.913 762.698 406.283C762.618 406.363 761.698 407.463 761.268 408.063C761.388 407.333 761.498 406.603 761.598 405.863C761.858 403.703 762.068 401.523 762.278 399.343L762.488 397.343C762.768 397.443 766.068 398.673 767.688 398.563C769.138 398.463 770.948 397.933 771.778 396.643C771.986 396.349 772.129 396.014 772.199 395.66C772.268 395.306 772.262 394.942 772.181 394.591C772.099 394.24 771.945 393.91 771.728 393.622C771.51 393.335 771.234 393.097 770.918 392.923C768.988 391.923 765.538 393.763 764.158 395.133C764.058 395.233 762.798 396.803 762.498 397.223C762.658 395.753 762.818 394.293 763.048 392.863C763.334 390.927 763.752 389.013 764.298 387.133C764.428 387.133 767.868 388.483 769.528 388.363C770.978 388.263 772.788 387.733 773.618 386.443C773.826 386.149 773.969 385.814 774.039 385.46C774.108 385.106 774.102 384.742 774.021 384.391C773.939 384.04 773.785 383.709 773.567 383.422C773.35 383.135 773.074 382.897 772.758 382.723C770.828 381.723 767.368 383.563 765.998 384.933C765.888 385.033 764.538 386.733 764.318 387.053C764.318 386.943 764.318 386.833 764.398 386.723C764.994 384.849 765.757 383.031 766.678 381.293C767.168 380.293 767.678 379.433 768.228 378.573C768.838 378.883 771.668 380.263 773.178 380.323C774.688 380.383 776.488 380.043 777.458 378.863C777.695 378.592 777.873 378.273 777.979 377.929C778.086 377.584 778.119 377.221 778.077 376.863C778.034 376.505 777.917 376.16 777.733 375.85C777.549 375.54 777.302 375.272 777.008 375.063C775.198 373.863 771.558 375.313 770.008 376.523C769.928 376.583 769.158 377.343 768.608 377.903L769.348 376.753C770.258 375.393 771.168 374.193 771.988 373.143C772.458 372.543 772.898 372.013 773.308 371.523C774.078 371.523 777.148 371.423 778.488 370.793C779.828 370.163 781.298 369.023 781.618 367.533C781.704 367.183 781.716 366.818 781.652 366.462C781.588 366.107 781.45 365.769 781.248 365.47C781.045 365.172 780.782 364.919 780.475 364.728C780.169 364.537 779.826 364.413 779.468 364.363C777.308 364.133 774.748 367.093 773.958 368.863C773.888 369.013 773.098 371.533 773.138 371.533H773.188C772.778 371.993 772.338 372.533 771.878 373.053C771.038 374.053 770.088 375.273 769.148 376.623C768.119 378.071 767.174 379.577 766.318 381.133C765.37 382.854 764.573 384.654 763.938 386.513C763.934 386.536 763.934 386.56 763.938 386.583C763.938 385.943 763.938 384.163 763.938 384.033C763.688 382.113 762.078 378.543 759.938 378.143C759.579 378.082 759.211 378.098 758.858 378.19C758.505 378.281 758.176 378.447 757.892 378.676C757.608 378.905 757.377 379.192 757.212 379.517C757.048 379.842 756.954 380.199 756.938 380.563C756.808 382.093 757.938 383.613 758.998 384.563C760.058 385.513 763.588 386.703 763.858 386.783C763.256 388.717 762.782 390.688 762.438 392.683C762.228 393.843 762.058 395.013 761.898 396.203C761.898 395.653 761.898 395.153 761.898 395.093C761.648 393.163 760.038 389.603 757.898 389.203C757.539 389.143 757.171 389.16 756.819 389.253C756.467 389.346 756.139 389.512 755.855 389.74C755.572 389.969 755.34 390.255 755.175 390.579C755.01 390.904 754.916 391.26 754.898 391.623C754.778 393.143 755.898 394.673 756.958 395.623C758.411 396.585 760.003 397.317 761.678 397.793C761.628 398.253 761.568 398.703 761.508 399.153C761.248 401.333 760.998 403.513 760.688 405.633C760.578 406.383 760.448 407.123 760.308 407.853C760.308 407.363 760.308 406.953 760.308 406.853C760.058 404.933 758.448 401.363 756.308 400.963C755.949 400.902 755.581 400.918 755.228 401.01C754.875 401.101 754.546 401.267 754.262 401.496C753.978 401.725 753.747 402.012 753.582 402.337C753.418 402.662 753.324 403.019 753.308 403.383C753.188 404.913 754.308 406.433 755.368 407.383C756.779 408.326 758.327 409.045 759.958 409.513C759.798 410.263 759.638 411.013 759.448 411.733C759.318 412.213 759.218 412.733 759.048 413.173C758.878 413.613 758.738 414.173 758.588 414.603C758.258 415.503 757.928 416.423 757.588 417.293C757.358 417.893 757.128 418.473 756.898 419.043C757.008 418.303 757.208 416.843 757.208 416.713C757.188 415.009 756.73 413.339 755.878 411.863C755.893 411.673 755.893 411.483 755.878 411.293C755.833 410.935 755.713 410.591 755.527 410.283C755.34 409.975 755.09 409.709 754.794 409.503C754.498 409.298 754.162 409.157 753.808 409.09C753.453 409.022 753.089 409.03 752.738 409.113C750.638 409.673 749.308 413.353 749.208 415.293C749.208 415.403 749.278 416.653 749.338 417.433C749.238 416.983 749.138 416.533 749.028 416.073C748.808 415.143 748.558 414.223 748.298 413.233C748.148 412.763 748.008 412.283 747.858 411.793C747.708 411.303 747.528 410.793 747.358 410.333C746.938 409.193 746.468 408.063 745.958 406.943C746.768 406.743 749.648 406.013 750.798 405.123C751.948 404.233 753.168 402.803 753.158 401.273C753.168 400.912 753.101 400.553 752.963 400.22C752.825 399.886 752.618 399.586 752.355 399.338C752.093 399.089 751.781 398.899 751.441 398.78C751.1 398.66 750.738 398.614 750.378 398.643C748.218 398.873 746.378 402.313 745.958 404.213C745.958 404.333 745.808 405.723 745.748 406.493C745.438 405.813 745.138 405.143 744.808 404.493C743.808 402.493 742.808 400.613 741.808 398.673C741.488 398.083 741.188 397.483 740.878 396.893C741.168 396.823 744.598 396.033 745.878 395.043C747.018 394.163 748.238 392.713 748.228 391.183C748.238 390.823 748.171 390.465 748.034 390.132C747.896 389.8 747.69 389.5 747.429 389.252C747.168 389.004 746.857 388.813 746.518 388.693C746.178 388.573 745.817 388.525 745.458 388.553C743.298 388.793 741.458 392.223 741.028 394.123C741.028 394.273 740.818 396.273 740.798 396.783C740.118 395.473 739.458 394.163 738.858 392.853C738.031 391.079 737.322 389.252 736.738 387.383C736.868 387.383 740.458 386.533 741.738 385.513C742.888 384.633 744.108 383.193 744.098 381.663C744.108 381.302 744.041 380.943 743.903 380.61C743.765 380.276 743.558 379.976 743.295 379.728C743.033 379.479 742.721 379.289 742.381 379.17C742.04 379.05 741.678 379.004 741.318 379.033C739.168 379.273 737.318 382.703 736.898 384.603C736.898 384.753 736.678 386.913 736.668 387.303C736.668 387.193 736.588 387.083 736.558 386.973C736.023 385.086 735.655 383.155 735.458 381.203C735.338 380.123 735.278 379.083 735.248 378.073C735.938 377.993 739.058 377.573 740.348 376.793C741.638 376.013 742.958 374.793 743.108 373.223C743.159 372.866 743.134 372.503 743.035 372.156C742.935 371.81 742.764 371.488 742.532 371.213C742.299 370.937 742.012 370.714 741.687 370.557C741.362 370.4 741.009 370.314 740.648 370.303C738.478 370.303 736.238 373.513 735.648 375.303C735.648 375.403 735.398 376.463 735.248 377.233C735.248 376.773 735.248 376.303 735.248 375.873C735.248 374.223 735.358 372.723 735.458 371.393C735.518 370.643 735.598 369.953 735.668 369.323C736.298 368.883 738.808 367.113 739.578 365.853C740.029 365.215 740.335 364.486 740.475 363.718C740.614 362.949 740.585 362.159 740.388 361.403C740.267 361.065 740.076 360.755 739.827 360.495C739.579 360.235 739.278 360.03 738.946 359.893C738.613 359.757 738.255 359.691 737.896 359.702C737.536 359.712 737.183 359.798 736.858 359.953C734.928 360.953 734.418 364.833 734.738 366.743C734.738 366.903 735.488 369.443 735.528 369.413C735.438 370.023 735.358 370.683 735.278 371.413C735.148 372.743 735.008 374.243 734.968 375.893C734.909 377.668 734.953 379.444 735.098 381.213C735.255 383.196 735.59 385.16 736.098 387.083C736.092 387.106 736.092 387.13 736.098 387.153C735.758 386.623 734.748 385.153 734.658 385.043C733.388 383.583 730.078 381.493 728.078 382.343C727.75 382.493 727.457 382.71 727.219 382.981C726.981 383.252 726.802 383.57 726.696 383.915C726.589 384.26 726.556 384.623 726.6 384.981C726.643 385.339 726.762 385.684 726.948 385.993C727.658 387.513 729.428 388.143 730.858 388.343Z" fill="#263238"/>
<path d="M768.078 378.153C768.078 378.153 768.768 375.623 768.788 375.453C769.058 373.533 768.448 369.673 766.498 368.723C766.169 368.575 765.812 368.497 765.451 368.496C765.09 368.495 764.732 368.57 764.402 368.716C764.072 368.863 763.776 369.077 763.534 369.345C763.292 369.613 763.11 369.93 762.998 370.273C762.822 371.033 762.814 371.822 762.975 372.586C763.136 373.349 763.461 374.068 763.928 374.693C764.848 376.123 768.078 378.153 768.078 378.153Z" fill="#263238"/>
<path d="M682.668 393.663C683.786 393.96 684.942 394.088 686.098 394.043C686.098 394.043 685.578 392.453 685.528 392.353C684.998 391.243 683.308 389.403 681.938 389.583C681.711 389.621 681.494 389.706 681.302 389.833C681.109 389.96 680.946 390.126 680.821 390.32C680.697 390.514 680.615 390.732 680.58 390.96C680.545 391.188 680.558 391.421 680.618 391.643C680.794 392.108 681.068 392.529 681.422 392.878C681.776 393.226 682.201 393.494 682.668 393.663Z" fill="#263238"/>
<path d="M683.508 400.703C684.652 400.697 685.788 400.518 686.878 400.173C687.239 401.414 687.68 402.63 688.198 403.813C688.498 404.503 688.818 405.193 689.198 405.883C688.998 405.593 688.818 405.333 688.798 405.293C687.988 404.363 685.868 403.033 684.598 403.573C684.389 403.669 684.202 403.807 684.049 403.98C683.897 404.153 683.782 404.356 683.713 404.575C683.644 404.795 683.623 405.027 683.649 405.256C683.676 405.485 683.751 405.705 683.868 405.903C684.16 406.306 684.535 406.641 684.968 406.884C685.402 407.128 685.883 407.274 686.378 407.313C687.491 407.318 688.598 407.15 689.658 406.813L690.048 407.593C690.678 408.843 691.308 410.093 691.888 411.333C692.098 411.773 692.288 412.203 692.468 412.643C692.298 412.383 692.148 412.173 692.118 412.143C691.308 411.203 689.198 409.873 687.918 410.413C687.711 410.511 687.526 410.651 687.375 410.824C687.224 410.997 687.112 411.2 687.044 411.419C686.976 411.639 686.955 411.87 686.981 412.098C687.008 412.326 687.082 412.545 687.198 412.743C687.489 413.147 687.865 413.483 688.298 413.728C688.731 413.973 689.212 414.122 689.708 414.163C690.79 414.164 691.865 414.003 692.898 413.683C693.078 414.133 693.258 414.593 693.408 415.033C693.558 415.473 693.628 415.633 693.708 415.953C693.788 416.273 693.878 416.563 693.958 416.873C694.108 417.463 694.258 418.073 694.378 418.653C694.468 419.053 694.548 419.443 694.628 419.833C694.428 419.393 694.018 418.543 693.978 418.483C693.318 417.433 691.428 415.793 690.088 416.133C689.867 416.198 689.662 416.308 689.485 416.456C689.309 416.605 689.166 416.789 689.065 416.996C688.965 417.203 688.908 417.429 688.9 417.66C688.892 417.89 688.932 418.119 689.018 418.333C689.245 418.776 689.565 419.164 689.957 419.47C690.35 419.775 690.804 419.992 691.288 420.103C692.411 420.278 693.555 420.278 694.678 420.103C694.808 420.753 694.928 421.373 695.028 421.973C695.028 422.153 695.088 422.333 695.118 422.503H695.938C695.938 422.283 695.858 422.053 695.808 421.823C695.678 421.163 695.528 420.473 695.368 419.753C696.017 419.498 696.649 419.201 697.258 418.863C698.092 419.581 699.02 420.18 700.018 420.643C699.778 421.253 699.528 421.843 699.288 422.393C699.274 422.431 699.257 422.467 699.238 422.503H700.128L700.818 420.753C701.926 421.006 703.065 421.093 704.198 421.013C704.69 420.936 705.16 420.753 705.574 420.477C705.988 420.201 706.338 419.838 706.598 419.413C706.699 419.206 706.756 418.98 706.764 418.75C706.772 418.52 706.732 418.29 706.647 418.077C706.561 417.863 706.431 417.669 706.266 417.508C706.101 417.348 705.904 417.223 705.688 417.143C704.378 416.703 702.378 418.193 701.638 419.193C701.638 419.243 701.198 419.933 700.948 420.373L701.268 419.533C701.478 418.963 701.668 418.393 701.878 417.773L702.148 416.853C702.248 416.553 702.318 416.213 702.398 415.853C702.578 415.103 702.718 414.333 702.848 413.563C703.874 413.97 704.957 414.217 706.058 414.293C706.556 414.293 707.048 414.184 707.499 413.973C707.95 413.763 708.349 413.455 708.668 413.073C708.802 412.886 708.895 412.672 708.94 412.447C708.985 412.221 708.981 411.988 708.929 411.764C708.877 411.54 708.778 411.329 708.638 411.146C708.498 410.963 708.321 410.812 708.118 410.703C706.888 410.063 704.688 411.233 703.808 412.103C703.748 412.163 703.198 412.863 702.898 413.243C702.968 412.783 703.048 412.313 703.098 411.833C703.278 410.463 703.398 409.073 703.538 407.673C703.538 407.253 703.628 406.823 703.668 406.403C704.73 406.828 705.849 407.091 706.988 407.183C707.487 407.179 707.979 407.068 708.431 406.857C708.882 406.647 709.284 406.342 709.608 405.963C709.741 405.774 709.831 405.559 709.875 405.333C709.918 405.106 709.913 404.873 709.861 404.648C709.808 404.423 709.708 404.212 709.568 404.029C709.428 403.845 709.251 403.694 709.048 403.583C707.818 402.953 705.618 404.123 704.738 404.993C704.678 405.053 703.868 406.063 703.678 406.323C703.778 405.393 703.888 404.463 704.028 403.543C704.218 402.308 704.486 401.085 704.828 399.883C705.895 400.314 707.021 400.58 708.168 400.673C708.666 400.673 709.158 400.564 709.609 400.353C710.06 400.143 710.459 399.835 710.778 399.453C710.911 399.265 711.002 399.05 711.047 398.824C711.091 398.598 711.087 398.365 711.035 398.14C710.983 397.916 710.884 397.705 710.745 397.521C710.606 397.337 710.43 397.184 710.228 397.073C708.998 396.443 706.788 397.613 705.908 398.483C705.848 398.553 704.978 399.633 704.838 399.833L704.898 399.623C705.276 398.429 705.762 397.27 706.348 396.163C706.658 395.553 706.998 394.973 707.348 394.423C708.341 394.957 709.411 395.335 710.518 395.543C711.013 395.592 711.513 395.535 711.984 395.374C712.455 395.214 712.886 394.954 713.248 394.613C713.4 394.44 713.513 394.237 713.581 394.018C713.648 393.798 713.669 393.567 713.642 393.339C713.615 393.111 713.54 392.891 713.422 392.693C713.304 392.496 713.146 392.326 712.958 392.193C711.808 391.423 709.478 392.343 708.518 393.113L707.628 394.003C707.778 393.753 707.938 393.503 708.098 393.263C708.678 392.393 709.258 391.633 709.778 390.963C710.078 390.583 710.358 390.243 710.628 389.963C711.748 389.981 712.864 389.829 713.938 389.513C714.402 389.332 714.822 389.052 715.167 388.693C715.512 388.334 715.775 387.904 715.938 387.433C715.992 387.211 715.999 386.98 715.957 386.755C715.916 386.53 715.828 386.317 715.699 386.128C715.57 385.939 715.402 385.78 715.208 385.66C715.013 385.541 714.795 385.463 714.568 385.433C713.198 385.283 711.568 387.173 711.058 388.303C711.058 388.393 710.508 390.003 710.528 390.003C710.268 390.293 709.998 390.613 709.698 391.003C709.158 391.663 708.558 392.413 707.958 393.283C707.303 394.204 706.702 395.162 706.158 396.153C705.54 397.266 705.022 398.43 704.608 399.633C704.608 399.233 704.608 398.093 704.608 398.003C704.448 396.783 703.418 394.503 702.058 394.253C701.831 394.218 701.599 394.231 701.377 394.291C701.155 394.351 700.949 394.457 700.77 394.602C700.592 394.748 700.446 394.929 700.343 395.134C700.239 395.339 700.18 395.564 700.168 395.793C700.188 396.292 700.317 396.78 700.545 397.224C700.772 397.668 701.095 398.057 701.488 398.363C702.444 398.988 703.49 399.463 704.588 399.773C704.204 401.009 703.9 402.268 703.678 403.543C703.548 404.283 703.438 405.033 703.338 405.783C703.338 405.433 703.338 405.123 703.338 405.073C703.178 403.853 702.148 401.573 700.788 401.323C700.561 401.288 700.329 401.301 700.107 401.361C699.885 401.421 699.679 401.527 699.5 401.672C699.322 401.818 699.176 401.999 699.073 402.204C698.969 402.409 698.91 402.634 698.898 402.863C698.92 403.361 699.048 403.847 699.274 404.291C699.5 404.734 699.818 405.124 700.208 405.433C701.132 406.045 702.143 406.51 703.208 406.813C703.208 407.103 703.128 407.393 703.098 407.683C702.928 409.073 702.768 410.463 702.568 411.823C702.495 412.297 702.415 412.767 702.328 413.233C702.328 412.923 702.328 412.663 702.328 412.623C702.168 411.393 701.138 409.113 699.778 408.863C699.551 408.828 699.319 408.841 699.097 408.901C698.875 408.961 698.669 409.067 698.49 409.212C698.312 409.358 698.166 409.539 698.063 409.744C697.959 409.949 697.9 410.174 697.888 410.403C697.906 410.901 698.033 411.389 698.259 411.833C698.485 412.277 698.806 412.666 699.198 412.973C700.101 413.572 701.089 414.03 702.128 414.333C702.028 414.813 701.928 415.283 701.808 415.743C701.688 416.203 701.648 416.363 701.548 416.673L701.248 417.583C701.048 418.153 700.828 418.743 700.618 419.293C700.468 419.683 700.318 420.043 700.168 420.413C700.248 419.943 700.378 419.003 700.378 418.923C700.36 417.837 700.064 416.773 699.518 415.833C699.533 415.714 699.533 415.593 699.518 415.473C699.491 415.245 699.415 415.025 699.297 414.828C699.178 414.631 699.019 414.461 698.83 414.329C698.641 414.198 698.427 414.108 698.201 414.066C697.975 414.023 697.742 414.029 697.518 414.083C696.178 414.433 695.328 416.783 695.268 418.023C695.268 418.093 695.268 418.883 695.348 419.383C695.278 419.093 695.218 418.813 695.148 418.513C695.008 417.923 694.848 417.333 694.678 416.703L694.408 415.793C694.318 415.483 694.188 415.163 694.078 414.853C693.818 414.133 693.508 413.413 693.188 412.693C694.27 412.462 695.312 412.071 696.278 411.533C696.693 411.258 697.042 410.894 697.301 410.469C697.56 410.044 697.723 409.568 697.778 409.073C697.785 408.843 697.742 408.614 697.655 408.402C697.567 408.189 697.435 407.997 697.268 407.839C697.101 407.68 696.903 407.559 696.685 407.482C696.468 407.405 696.238 407.375 696.008 407.393C694.638 407.543 693.438 409.743 693.188 410.953C693.188 411.023 693.088 411.953 693.058 412.403C692.858 411.973 692.668 411.543 692.448 411.113C691.838 409.873 691.178 408.633 690.518 407.403L689.928 406.263C691.048 406.033 692.127 405.635 693.128 405.083C693.543 404.808 693.892 404.444 694.151 404.019C694.41 403.594 694.573 403.118 694.628 402.623C694.635 402.393 694.592 402.164 694.505 401.952C694.417 401.739 694.285 401.547 694.118 401.389C693.951 401.23 693.753 401.109 693.536 401.032C693.319 400.955 693.088 400.925 692.858 400.943C691.488 401.093 690.288 403.293 690.038 404.503C690.038 404.593 689.908 405.873 689.888 406.193C689.458 405.363 689.038 404.523 688.648 403.683C688.123 402.55 687.672 401.385 687.298 400.193C688.425 399.959 689.51 399.558 690.518 399.003C690.922 398.716 691.257 398.345 691.503 397.915C691.748 397.485 691.897 397.006 691.938 396.513C691.943 396.284 691.9 396.056 691.811 395.845C691.723 395.633 691.591 395.443 691.424 395.285C691.257 395.128 691.059 395.007 690.843 394.931C690.627 394.855 690.397 394.825 690.168 394.843C688.788 394.993 687.598 397.183 687.348 398.393C687.348 398.493 687.208 399.863 687.198 400.113C687.198 400.043 687.198 399.983 687.128 399.913C686.786 398.706 686.552 397.472 686.428 396.223C686.348 395.533 686.318 394.873 686.298 394.223C687.417 394.114 688.512 393.837 689.548 393.403C689.989 393.174 690.375 392.851 690.679 392.457C690.983 392.063 691.198 391.608 691.308 391.123C691.341 390.896 691.325 390.664 691.261 390.443C691.198 390.222 691.089 390.017 690.94 389.841C690.792 389.666 690.608 389.523 690.401 389.424C690.194 389.324 689.968 389.269 689.738 389.263C688.348 389.263 686.928 391.263 686.538 392.483C686.538 392.543 686.378 393.223 686.288 393.713C686.288 393.423 686.288 393.123 686.288 392.843C686.288 391.843 686.348 390.843 686.418 389.983C686.418 389.503 686.508 389.073 686.558 388.663C687.494 388.055 688.333 387.31 689.048 386.453C689.336 386.046 689.531 385.581 689.621 385.09C689.71 384.6 689.693 384.096 689.568 383.613C689.491 383.396 689.37 383.197 689.211 383.03C689.052 382.863 688.859 382.731 688.646 382.643C688.433 382.555 688.203 382.514 687.973 382.521C687.742 382.527 687.516 382.583 687.308 382.683C686.078 383.323 685.758 385.793 685.958 387.013C685.958 387.123 686.438 388.743 686.458 388.723C686.398 389.113 686.348 389.533 686.298 389.993C686.218 390.833 686.128 391.793 686.098 392.853C686.065 393.984 686.095 395.116 686.188 396.243C686.283 397.509 686.491 398.764 686.808 399.993C686.588 399.653 685.948 398.713 685.888 398.653C685.078 397.713 682.968 396.383 681.698 396.923C681.489 397.019 681.302 397.157 681.149 397.33C680.997 397.503 680.882 397.706 680.813 397.925C680.744 398.145 680.723 398.377 680.749 398.606C680.776 398.835 680.851 399.055 680.968 399.253C681.257 399.669 681.635 400.014 682.074 400.265C682.514 400.516 683.004 400.666 683.508 400.703Z" fill="#263238"/>
<path d="M707.258 394.203C707.258 394.203 707.698 392.583 707.718 392.483C707.888 391.253 707.498 388.783 706.248 388.183C706.038 388.089 705.809 388.041 705.579 388.041C705.348 388.042 705.12 388.09 704.91 388.185C704.699 388.279 704.511 388.417 704.358 388.589C704.204 388.761 704.088 388.963 704.018 389.183C703.904 389.668 703.898 390.172 704 390.659C704.102 391.146 704.309 391.605 704.608 392.003C705.379 392.862 706.272 393.603 707.258 394.203Z" fill="#263238"/>
</svg>
