<svg width="84" height="9" viewBox="0 0 84 9" fill="none" xmlns="http://www.w3.org/2000/svg">
<path d="M0.107422 0.555664C0.107422 0.383789 0.200521 0.297852 0.386719 0.297852H1.40723C1.81185 0.297852 2.12337 0.467936 2.3418 0.808105L4.08203 3.48828L5.81689 0.808105C6.0389 0.467936 6.35042 0.297852 6.75146 0.297852H7.77734C7.95996 0.297852 8.05127 0.383789 8.05127 0.555664C8.05127 0.63444 8.02262 0.718587 7.96533 0.808105L5.0918 5.25V7.50586C5.0918 7.64551 5.04167 7.76367 4.94141 7.86035C4.84473 7.95345 4.72656 8 4.58691 8H3.57715C3.4375 8 3.31755 7.95345 3.21729 7.86035C3.11702 7.76367 3.06689 7.64551 3.06689 7.50586V5.25L0.19873 0.808105C0.137858 0.718587 0.107422 0.63444 0.107422 0.555664ZM15.7695 7.20508C15.0391 7.84603 13.9648 8.1665 12.5469 8.1665C11.1325 8.1665 10.0583 7.84603 9.32422 7.20508C8.59017 6.56055 8.22314 5.54183 8.22314 4.14893C8.22314 2.75602 8.59017 1.7391 9.32422 1.09814C10.0583 0.457194 11.1325 0.136719 12.5469 0.136719C13.9648 0.136719 15.0391 0.457194 15.7695 1.09814C16.5036 1.7391 16.8706 2.75602 16.8706 4.14893C16.8706 5.54183 16.5036 6.56055 15.7695 7.20508ZM14.3032 2.23145C13.9416 1.80176 13.3561 1.58691 12.5469 1.58691C11.7412 1.58691 11.1558 1.80176 10.7905 2.23145C10.4289 2.66113 10.248 3.30208 10.248 4.1543C10.248 5.00293 10.4289 5.64209 10.7905 6.07178C11.1558 6.49788 11.7412 6.71094 12.5469 6.71094C13.3561 6.71094 13.9416 6.49788 14.3032 6.07178C14.6649 5.64209 14.8457 5.00293 14.8457 4.1543C14.8457 3.30208 14.6649 2.66113 14.3032 2.23145Z" fill="#F68C2E"/>
<path d="M21.1997 7.50586L22.5479 2.39258C22.9131 0.999674 24.1019 0.301432 26.1143 0.297852H29.0093C29.1418 0.297852 29.251 0.347982 29.3369 0.448242C29.4264 0.548503 29.4712 0.664876 29.4712 0.797363V7.50586C29.4712 7.64551 29.4211 7.76367 29.3208 7.86035C29.2205 7.95345 29.1006 8 28.9609 8H27.9512C27.8044 8 27.6826 7.95345 27.5859 7.86035C27.4928 7.76367 27.4463 7.64193 27.4463 7.49512V6.1416H23.6274L23.2676 7.49512C23.2318 7.64193 23.1512 7.76367 23.0259 7.86035C22.9006 7.95345 22.7681 8 22.6284 8H21.5703C21.4307 8 21.3304 7.96061 21.2695 7.88184C21.2087 7.79948 21.1782 7.72786 21.1782 7.66699C21.1818 7.60612 21.189 7.55241 21.1997 7.50586ZM24.0249 4.62158H27.4463V1.81787H25.9155C25.5718 1.81787 25.271 1.91634 25.0132 2.11328C24.759 2.30664 24.5871 2.56803 24.4976 2.89746L24.0249 4.62158ZM31.0073 7.50586V0.818848C31.0073 0.672038 31.0575 0.548503 31.1577 0.448242C31.258 0.347982 31.3779 0.297852 31.5176 0.297852H34.52C36.0741 0.297852 37.2038 0.609375 37.9092 1.23242C38.6182 1.85189 38.9727 2.82585 38.9727 4.1543C38.9727 5.47917 38.6182 6.45133 37.9092 7.0708C37.2038 7.69027 36.0741 8 34.52 8H31.5176C31.3779 8 31.258 7.95345 31.1577 7.86035C31.0575 7.76367 31.0073 7.64551 31.0073 7.50586ZM33.0322 6.47998H34.4609C35.4242 6.47998 36.0794 6.30452 36.4268 5.95361C36.7741 5.6027 36.9478 5.00293 36.9478 4.1543C36.9478 3.30208 36.7741 2.70052 36.4268 2.34961C36.0794 1.99512 35.4242 1.81787 34.4609 1.81787H33.0322V6.47998ZM39.2896 0.749023C39.2681 0.706055 39.2573 0.659505 39.2573 0.609375C39.2573 0.555664 39.2896 0.491211 39.354 0.416016C39.422 0.33724 39.5169 0.297852 39.6387 0.297852H40.8149C41.0942 0.297852 41.3073 0.467936 41.4541 0.808105L43.5327 5.43799L45.6113 0.808105C45.7581 0.471517 45.9712 0.301432 46.2505 0.297852H47.4268C47.5521 0.297852 47.647 0.33724 47.7114 0.416016C47.7759 0.491211 47.8081 0.555664 47.8081 0.609375C47.8081 0.659505 47.7992 0.706055 47.7812 0.749023L44.6875 7.45215C44.5192 7.81738 44.2632 8 43.9194 8H43.146C42.8022 8 42.5462 7.81738 42.3779 7.45215L39.2896 0.749023ZM47.5718 7.50586L48.9199 2.39258C49.2852 0.999674 50.474 0.301432 52.4863 0.297852H55.3813C55.5138 0.297852 55.623 0.347982 55.709 0.448242C55.7985 0.548503 55.8433 0.664876 55.8433 0.797363V7.50586C55.8433 7.64551 55.7931 7.76367 55.6929 7.86035C55.5926 7.95345 55.4727 8 55.333 8H54.3232C54.1764 8 54.0547 7.95345 53.958 7.86035C53.8649 7.76367 53.8184 7.64193 53.8184 7.49512V6.1416H49.9995L49.6396 7.49512C49.6038 7.64193 49.5233 7.76367 49.3979 7.86035C49.2726 7.95345 49.1401 8 49.0005 8H47.9424C47.8027 8 47.7025 7.96061 47.6416 7.88184C47.5807 7.79948 47.5503 7.72786 47.5503 7.66699C47.5539 7.60612 47.561 7.55241 47.5718 7.50586ZM50.397 4.62158H53.8184V1.81787H52.2876C51.9438 1.81787 51.6431 1.91634 51.3853 2.11328C51.131 2.30664 50.9591 2.56803 50.8696 2.89746L50.397 4.62158ZM57.3794 7.49512V0.808105C57.3794 0.668457 57.4277 0.548503 57.5244 0.448242C57.6211 0.347982 57.7393 0.297852 57.8789 0.297852H59.458C59.5833 0.297852 59.7158 0.347982 59.8555 0.448242C59.9951 0.548503 60.1097 0.668457 60.1992 0.808105L63.4434 5.79785V0.797363C63.4434 0.657715 63.4917 0.539551 63.5884 0.442871C63.6886 0.346191 63.8086 0.297852 63.9482 0.297852H64.8721C65.0117 0.297852 65.1299 0.346191 65.2266 0.442871C65.3268 0.539551 65.377 0.661296 65.377 0.808105V7.49512C65.377 7.63477 65.3268 7.75472 65.2266 7.85498C65.1299 7.95166 65.0117 8 64.8721 8H63.0889C62.9492 8 62.806 7.95166 62.6592 7.85498C62.5124 7.75472 62.396 7.63477 62.3101 7.49512L59.3398 2.88672V7.49512C59.3398 7.63477 59.2897 7.75472 59.1895 7.85498C59.0928 7.95166 58.9746 8 58.835 8H57.8896C57.75 8 57.63 7.95166 57.5298 7.85498C57.4295 7.75472 57.3794 7.63477 57.3794 7.49512ZM67.4717 7.09229C66.8092 6.4585 66.478 5.47917 66.478 4.1543C66.478 2.82585 66.8092 1.84473 67.4717 1.21094C68.1377 0.573568 69.1349 0.254883 70.4634 0.254883H71.6611C72.474 0.254883 73.1919 0.466146 73.8149 0.888672C74.4416 1.3112 74.7549 1.88949 74.7549 2.62354C74.7549 2.8348 74.6922 2.98698 74.5669 3.08008C74.4416 3.1696 74.3198 3.21436 74.2017 3.21436H73.5625C73.2331 3.21436 72.9771 3.01742 72.7944 2.62354C72.5295 2.05778 72.089 1.7749 71.4731 1.7749H70.5171C69.7329 1.7749 69.2012 1.9432 68.9219 2.27979C68.6426 2.61637 68.5029 3.23942 68.5029 4.14893C68.5029 5.05843 68.6426 5.68327 68.9219 6.02344C69.2012 6.36003 69.7329 6.52832 70.5171 6.52832H71.5859C72.2018 6.52832 72.6405 6.24544 72.9019 5.67969C73.0845 5.28223 73.3423 5.0835 73.6753 5.0835H74.3145C74.4827 5.0835 74.6152 5.14616 74.7119 5.27148C74.8122 5.39681 74.8623 5.53288 74.8623 5.67969C74.8623 6.41374 74.5508 6.99202 73.9277 7.41455C73.3047 7.8335 72.5868 8.04297 71.7739 8.04297H70.4634C69.1349 8.04297 68.1377 7.72607 67.4717 7.09229ZM75.9097 7.48438V0.797363C75.9097 0.657715 75.9598 0.539551 76.0601 0.442871C76.1603 0.346191 76.2803 0.297852 76.4199 0.297852H82.6128C82.7524 0.297852 82.8706 0.347982 82.9673 0.448242C83.0675 0.548503 83.1177 0.668457 83.1177 0.808105V1.31299C83.1177 1.45264 83.0675 1.57259 82.9673 1.67285C82.8706 1.76953 82.7524 1.81787 82.6128 1.81787H77.9346V3.38086H81.9629C82.1025 3.38086 82.2207 3.43099 82.3174 3.53125C82.4176 3.62793 82.4678 3.74609 82.4678 3.88574V4.39062C82.4678 4.53027 82.4176 4.65023 82.3174 4.75049C82.2207 4.84717 82.1025 4.89551 81.9629 4.89551H77.9346V6.47998H82.6021C82.7381 6.47998 82.8545 6.52832 82.9512 6.625C83.0479 6.72168 83.0962 6.83984 83.0962 6.97949V7.49512C83.0962 7.63477 83.0461 7.75472 82.9458 7.85498C82.8455 7.95166 82.7256 8 82.5859 8H76.4199C76.2803 8 76.1603 7.95166 76.0601 7.85498C75.9598 7.75472 75.9097 7.63118 75.9097 7.48438Z" fill="#730D23"/>
</svg>
