<svg width="277" height="489" viewBox="0 0 277 489" fill="none" xmlns="http://www.w3.org/2000/svg">
<g filter="url(#filter0_d_482_37)">
<rect x="4" width="269" height="481" rx="31" fill="white"/>
</g>
<path fill-rule="evenodd" clip-rule="evenodd" d="M72 14.3513H37C25.9543 14.3513 17 23.3056 17 34.3513V441C17 452.046 25.9543 461 37 461H240C251.046 461 260 452.046 260 441V34.3513C260 23.3056 251.046 14.3513 240 14.3513H205V22.1053C205 31.4942 197.389 39.1053 188 39.1053H89C79.6112 39.1053 72 31.4942 72 22.1053V14.3513Z" fill="#8C2424" fill-opacity="0.82"/>
<path fill-rule="evenodd" clip-rule="evenodd" d="M60 84C54.4772 84 50 88.4772 50 94V123C50 128.523 54.4772 133 60 133H223C228.523 133 233 128.523 233 123V94C233 88.4772 228.523 84 223 84H60ZM78.1219 103.906C78.1419 103.886 78.1719 103.836 78.2119 103.756C78.2319 103.696 78.2419 103.626 78.2419 103.546L78.2719 103.426C78.2519 103.266 78.2119 103.116 78.1519 102.976C78.1119 102.836 78.0619 102.696 78.0019 102.556L77.9419 102.316C77.9219 102.236 77.8919 102.156 77.8519 102.076L77.4919 101.056L77.2819 100.396L77.2219 100.216C77.2219 100.156 77.2019 100.086 77.1619 100.006L77.1019 99.8863C77.1019 99.8463 77.0919 99.8063 77.0719 99.7663C76.9719 99.6063 76.8819 99.5163 76.8019 99.4963C76.7219 99.4363 76.6319 99.4063 76.5319 99.4063C76.4119 99.4063 76.3219 99.4163 76.2619 99.4363C76.2219 99.4363 76.1519 99.4663 76.0519 99.5263C75.9919 99.5463 75.9519 99.5663 75.9319 99.5863L75.9019 99.6163L75.8419 99.6763C75.8219 99.6763 75.8019 99.6863 75.7819 99.7063L75.5119 99.8863C75.4319 99.9663 75.3419 100.036 75.2419 100.096L74.9419 100.276L74.9119 100.306C74.8719 100.326 74.8519 100.346 74.8519 100.366C74.7719 100.406 74.7119 100.446 74.6719 100.486C74.6519 100.506 74.6219 100.526 74.5819 100.546C74.5419 100.546 74.5019 100.566 74.4619 100.606L74.4319 100.636C74.4119 100.636 74.3819 100.656 74.3419 100.696L74.3719 100.396L74.4319 100.216C74.4519 100.136 74.4719 100.066 74.4919 100.006L74.6119 99.5263L74.7019 99.3163L74.7919 99.0163L74.8519 98.8363L74.9119 98.5963V98.4463C74.9119 98.4063 74.9019 98.3663 74.8819 98.3263V98.2063C74.8419 98.1263 74.8019 98.0763 74.7619 98.0563C74.6819 97.9363 74.6019 97.8663 74.5219 97.8463C74.3819 97.7863 74.2319 97.7663 74.0719 97.7863H73.5919H72.7519C72.4119 97.7663 72.0619 97.7563 71.7019 97.7563C71.3419 97.7363 70.9919 97.7463 70.6519 97.7863C70.4719 97.7863 70.3119 97.8563 70.1719 97.9963C70.0519 98.1363 69.9919 98.2863 69.9919 98.4463V98.5363C69.9919 98.5763 70.0019 98.6263 70.0219 98.6863L70.1119 99.0463L70.2919 99.6163C70.3119 99.6563 70.3319 99.7263 70.3519 99.8263C70.3919 99.9263 70.4219 100.046 70.4419 100.186C70.4819 100.246 70.5019 100.316 70.5019 100.396L70.5619 100.576L70.6219 100.756L70.2919 100.516L70.0219 100.336C69.9419 100.256 69.8419 100.186 69.7219 100.126C69.6219 100.066 69.5219 99.9963 69.4219 99.9163L69.1819 99.7363C69.1219 99.6763 69.0419 99.6263 68.9419 99.5863C68.8819 99.5463 68.8219 99.5163 68.7619 99.4963C68.7019 99.4563 68.6519 99.4363 68.6119 99.4363C68.5519 99.4163 68.4719 99.4063 68.3719 99.4063C68.3319 99.4263 68.2819 99.4363 68.2219 99.4363C68.1819 99.4363 68.1419 99.4563 68.1019 99.4963C67.9019 99.6363 67.7719 99.8163 67.7119 100.036C67.6519 100.256 67.5919 100.456 67.5319 100.636L67.1719 101.716C67.1319 101.876 67.0819 102.036 67.0219 102.196L66.8419 102.676C66.8219 102.776 66.7919 102.876 66.7519 102.976C66.7119 103.076 66.6819 103.176 66.6619 103.276C66.6219 103.416 66.6319 103.546 66.6919 103.666C66.6919 103.726 66.7219 103.806 66.7819 103.906L66.8419 103.966C66.8619 103.986 66.8819 104.016 66.9019 104.056C66.9419 104.096 66.9819 104.166 67.0219 104.266C67.0619 104.346 67.0919 104.386 67.1119 104.386H67.2019L67.4419 104.656C67.4819 104.696 67.5019 104.656 67.5019 104.536C67.5019 104.436 67.5219 104.366 67.5619 104.326C67.6019 104.346 67.6319 104.406 67.6519 104.506C67.6719 104.606 67.7119 104.646 67.7719 104.626C67.8119 104.606 67.8319 104.586 67.8319 104.566C67.8519 104.526 67.8719 104.496 67.8919 104.476C67.9519 104.456 68.0019 104.456 68.0419 104.476C68.1219 104.496 68.1919 104.526 68.2519 104.566C68.3119 104.606 68.3819 104.636 68.4619 104.656C68.6019 104.676 68.7219 104.666 68.8219 104.626C68.9419 104.566 69.0519 104.496 69.1519 104.416C69.1919 104.376 69.2319 104.346 69.2719 104.326C69.3119 104.286 69.3519 104.256 69.3919 104.236C69.4519 104.176 69.4619 104.186 69.4219 104.266C69.3819 104.346 69.3319 104.416 69.2719 104.476C69.2119 104.536 69.1819 104.546 69.1819 104.506L68.2219 105.196C68.2019 105.216 68.1719 105.236 68.1319 105.256L68.0419 105.346L67.8619 105.496C67.8419 105.516 67.7919 105.556 67.7119 105.616C67.6519 105.656 67.6219 105.696 67.6219 105.736C67.5819 105.776 67.5619 105.826 67.5619 105.886C67.5219 105.966 67.5019 106.046 67.5019 106.126C67.5019 106.186 67.5119 106.246 67.5319 106.306C67.5719 106.426 67.6519 106.536 67.7719 106.636L68.0419 106.846C68.0819 106.886 68.1219 106.916 68.1619 106.936L69.3619 107.836L70.5619 108.736L70.5919 108.766C70.6319 108.786 70.6519 108.806 70.6519 108.826V108.976C70.6719 109.036 70.6819 109.086 70.6819 109.126V109.306C70.7019 109.366 70.7119 109.416 70.7119 109.456L70.7719 109.786V109.906C70.7919 109.946 70.8019 109.986 70.8019 110.026C70.8219 110.086 70.8419 110.176 70.8619 110.296C70.8819 110.396 70.9119 110.466 70.9519 110.506C71.0719 110.506 71.1319 110.436 71.1319 110.296V110.266V110.236V110.176C71.1519 110.156 71.1619 110.136 71.1619 110.116L71.2519 109.636V109.576C71.2719 109.556 71.2819 109.516 71.2819 109.456L71.3119 109.246V109.156C71.3319 109.116 71.3419 109.086 71.3419 109.066C71.3619 109.026 71.3719 108.986 71.3719 108.946C71.3719 108.886 71.3819 108.836 71.4019 108.796H71.4319C71.4319 108.776 71.4419 108.766 71.4619 108.766L71.4919 108.736C71.5319 108.696 71.5919 108.616 71.6719 108.496L71.7319 108.436C71.7719 108.356 71.8119 108.256 71.8519 108.136C71.8919 108.036 71.9319 107.926 71.9719 107.806L72.0919 107.446V107.416C72.1119 107.396 72.1219 107.376 72.1219 107.356C72.1619 107.256 72.1919 107.176 72.2119 107.116L72.2719 106.876C72.3119 106.796 72.3419 106.726 72.3619 106.666L72.4219 106.486C72.4419 106.486 72.4619 106.456 72.4819 106.396V106.486L72.6319 106.846V106.906L72.6919 107.026V107.086C72.7119 107.106 72.7219 107.126 72.7219 107.146L72.9019 107.626C72.9219 107.786 72.9719 107.976 73.0519 108.196C73.0919 108.316 73.1319 108.396 73.1719 108.436C73.1719 108.456 73.1919 108.486 73.2319 108.526C73.2719 108.546 73.3019 108.586 73.3219 108.646C73.3619 108.706 73.4019 108.756 73.4419 108.796C73.4419 108.876 73.4619 108.956 73.5019 109.036L73.5919 109.276L73.7119 109.456L73.8319 109.576C73.8719 109.596 73.9019 109.626 73.9219 109.666L73.9819 109.726C74.1019 109.846 74.1819 109.946 74.2219 110.026C74.2819 110.086 74.3319 110.146 74.3719 110.206L74.5519 110.326C74.5919 110.426 74.6519 110.436 74.7319 110.356L74.7919 110.296C74.8119 110.296 74.8219 110.286 74.8219 110.266C74.8619 110.226 74.8819 110.186 74.8819 110.146C74.9219 110.106 74.9419 110.066 74.9419 110.026C74.9419 109.966 74.9519 109.916 74.9719 109.876C74.9919 109.856 75.0019 109.836 75.0019 109.816C75.0019 109.776 75.0119 109.746 75.0319 109.726C75.0719 109.586 75.1019 109.456 75.1219 109.336L75.1819 108.976L75.3019 109.096C75.3419 108.936 75.3619 108.776 75.3619 108.616C75.3619 108.456 75.3719 108.306 75.3919 108.166C75.4519 108.166 75.5119 108.136 75.5719 108.076L75.6319 108.136C75.7519 108.336 75.8219 108.446 75.8419 108.466C75.8819 108.466 75.9119 108.446 75.9319 108.406C75.9519 108.346 75.9719 108.306 75.9919 108.286C76.0319 108.266 76.0819 108.226 76.1419 108.166C76.1819 108.126 76.2119 108.086 76.2319 108.046V108.286C76.2319 108.346 76.2419 108.406 76.2619 108.466L76.3519 108.286C76.3719 108.246 76.3919 108.216 76.4119 108.196C76.4319 108.156 76.4519 108.126 76.4719 108.106L76.7419 107.536C76.9019 107.316 76.9619 107.196 76.9219 107.176C76.9019 107.136 76.8419 107.146 76.7419 107.206C76.6619 107.246 76.6219 107.256 76.6219 107.236C76.6219 107.196 76.7319 107.066 76.9519 106.846C76.9719 106.846 76.9819 106.856 76.9819 106.876C77.0019 106.896 77.0219 106.896 77.0419 106.876C77.0619 106.856 77.0719 106.836 77.0719 106.816C77.0719 106.796 77.0819 106.776 77.1019 106.756L77.2819 106.486V106.816C77.2819 106.916 77.2919 107.016 77.3119 107.116V107.356C77.3119 107.436 77.3219 107.496 77.3419 107.536V107.566C77.3619 107.566 77.3719 107.556 77.3719 107.536L77.4019 107.506L77.4319 107.236V106.966L77.4919 106.666V106.606C77.5319 106.306 77.5819 106.006 77.6419 105.706C77.7219 105.406 77.7819 105.146 77.8219 104.926V104.746C77.8419 104.646 77.8519 104.556 77.8519 104.476V104.386C77.8719 104.366 77.8819 104.346 77.8819 104.326L77.9119 104.056C77.9919 104.016 78.0419 103.976 78.0619 103.936C78.0819 103.936 78.1019 103.926 78.1219 103.906ZM77.1319 105.076C77.1719 105.036 77.1919 105.006 77.1919 104.986C77.2319 105.106 77.2519 105.226 77.2519 105.346C77.2519 105.466 77.2619 105.586 77.2819 105.706L77.1319 105.556C77.0519 105.476 76.9919 105.426 76.9519 105.406C76.9119 105.366 76.8819 105.346 76.8619 105.346C76.9019 105.306 76.9419 105.256 76.9819 105.196C77.0419 105.136 77.0919 105.096 77.1319 105.076ZM99.0719 118.876C99.0919 118.776 99.1019 118.696 99.1019 118.636C99.1019 118.456 99.0919 118.276 99.0719 118.096V117.556V115.216C99.0719 115.056 99.0819 114.886 99.1019 114.706C99.1219 114.526 99.1119 114.366 99.0719 114.226C99.0519 114.066 98.992 113.926 98.8919 113.806C98.812 113.666 98.6519 113.566 98.4119 113.506C98.1919 113.466 97.952 113.456 97.6919 113.476C97.4319 113.496 97.2619 113.506 97.1819 113.506H92.472V113.416C92.4919 113.376 92.5019 113.346 92.5019 113.326L92.6219 113.266C92.6619 113.226 92.702 113.196 92.7419 113.176L93.1619 112.756C93.1819 112.776 93.1919 112.806 93.1919 112.846C93.1919 112.866 93.202 112.886 93.222 112.906C93.2819 112.946 93.3219 112.956 93.3419 112.936C93.402 112.896 93.452 112.806 93.492 112.666C93.5319 112.526 93.562 112.426 93.5819 112.366H93.6119C93.6119 112.346 93.6219 112.336 93.6419 112.336C93.722 112.296 93.7719 112.266 93.792 112.246C93.8919 112.206 93.972 112.146 94.0319 112.066L94.2719 111.826C94.3319 111.766 94.3919 111.716 94.452 111.676C94.5319 111.616 94.6019 111.566 94.6619 111.526L95.1119 111.136C95.7719 110.556 96.3419 109.986 96.8219 109.426C97.1019 109.146 97.312 108.876 97.452 108.616C97.8519 108.036 98.1419 107.446 98.3219 106.846C98.422 106.646 98.4819 106.476 98.5019 106.336C98.5219 106.296 98.5319 106.256 98.5319 106.216C98.5319 106.176 98.542 106.146 98.5619 106.126V105.856C98.5819 105.696 98.5919 105.546 98.5919 105.406C98.6119 105.266 98.6219 105.126 98.6219 104.986V104.926C98.6219 104.766 98.6119 104.586 98.5919 104.386C98.5919 104.166 98.562 103.936 98.5019 103.696C98.3619 102.976 98.1119 102.326 97.7519 101.746C97.4119 101.166 96.972 100.656 96.4319 100.216C96.132 99.9563 95.7719 99.7163 95.3519 99.4963H95.292V99.4663C94.9319 99.2663 94.5519 99.0963 94.152 98.9563C93.7519 98.8163 93.3319 98.6963 92.8919 98.5963H92.8319C92.812 98.5763 92.792 98.5663 92.7719 98.5663L92.1119 98.4463H91.9619C91.9219 98.4263 91.882 98.4163 91.8419 98.4163H91.7819C91.7619 98.3963 91.7319 98.3863 91.6919 98.3863C91.6119 98.3463 91.5119 98.3263 91.3919 98.3263C91.312 98.3063 91.222 98.2963 91.1219 98.2963H90.8219C90.7619 98.2763 90.6819 98.2763 90.5819 98.2963C90.4419 98.2763 90.292 98.2663 90.132 98.2663H89.6519C88.0919 98.2663 86.6719 98.5263 85.3919 99.0463C84.132 99.5463 83.0919 100.256 82.2719 101.176C82.1919 101.256 82.0919 101.366 81.9719 101.506C81.8719 101.646 81.7719 101.806 81.6719 101.986C81.6519 101.986 81.6419 101.996 81.6419 102.016L81.5819 102.076C81.4819 102.216 81.4019 102.356 81.3419 102.496L81.1619 102.856C81.1019 102.976 81.0519 103.096 81.0119 103.216C80.7919 103.756 80.6519 104.296 80.5919 104.836C80.5719 104.996 80.5519 105.166 80.5319 105.346C80.5119 105.526 80.5119 105.696 80.5319 105.856C80.5519 105.936 80.5919 106.016 80.6519 106.096L80.6819 106.156L80.6519 106.126L80.7119 106.246L80.6953 106.196C80.6997 106.203 80.7053 106.21 80.7119 106.216L80.7719 106.276C80.8519 106.396 80.9219 106.486 80.9819 106.546C80.9419 106.526 80.8719 106.496 80.7719 106.456C80.6919 106.396 80.6419 106.376 80.6219 106.396C80.6219 106.416 80.7219 106.536 80.9219 106.756C80.9619 106.796 80.9819 106.856 80.9819 106.936C81.0019 106.996 81.0219 107.016 81.0419 106.996C81.1019 106.956 81.1319 106.856 81.1319 106.696C81.2919 106.956 81.3619 107.096 81.3419 107.116C81.3219 107.136 81.2919 107.136 81.2519 107.116C81.2119 107.096 81.2319 107.156 81.3119 107.296C81.3519 107.316 81.3719 107.276 81.3719 107.176C81.3919 107.056 81.4119 107.016 81.4319 107.056C81.4719 107.196 81.4619 107.366 81.4019 107.566C81.3619 107.746 81.4019 107.886 81.5219 107.986C81.6019 108.026 81.6319 107.976 81.6119 107.836C81.5919 107.676 81.5719 107.526 81.5519 107.386C81.5519 107.226 81.5819 107.176 81.6419 107.236C81.7619 107.336 81.8019 107.476 81.7619 107.656C81.7219 107.836 81.7219 108.006 81.7619 108.166C81.7819 108.186 81.8019 108.176 81.8219 108.136C81.8619 108.096 81.8819 108.066 81.8819 108.046C81.9219 107.906 81.9419 107.766 81.9419 107.626L82.0019 107.206C82.0219 107.186 82.042 107.176 82.0619 107.176C82.1019 107.176 82.1319 107.166 82.1519 107.146C82.2319 107.086 82.3019 107.026 82.3619 106.966L82.5719 106.756C82.5719 106.876 82.5919 106.956 82.6319 106.996C82.6519 106.996 82.6919 106.966 82.7519 106.906C82.8519 106.806 82.9119 106.736 82.9319 106.696L82.9919 106.576V106.606C83.0119 106.606 83.0219 106.616 83.0219 106.636C83.0819 106.736 83.1619 106.836 83.2619 106.936L83.3519 107.086L83.3819 107.116L83.4419 107.236L83.5019 107.296C83.542 107.376 83.5719 107.406 83.5919 107.386C83.6119 107.386 83.6219 107.356 83.6219 107.296C83.6419 107.236 83.6519 107.136 83.6519 106.996V106.876C83.6719 106.836 83.6819 106.796 83.6819 106.756V106.696C83.702 106.676 83.7119 106.656 83.7119 106.636C83.7319 106.636 83.7419 106.646 83.7419 106.666H83.7719L83.8319 106.726C83.9919 106.766 84.1219 106.806 84.2219 106.846C84.3219 106.886 84.3919 106.916 84.4319 106.936L85.0919 107.116C85.3119 107.176 85.5319 107.196 85.7519 107.176C85.9919 107.156 86.2219 107.096 86.4419 106.996C86.6619 106.896 86.8719 106.786 87.0719 106.666C87.2319 106.586 87.3819 106.486 87.5219 106.366C87.6819 106.246 87.8019 106.116 87.882 105.976L87.9419 105.916L88.0019 105.766C88.0219 105.746 88.0519 105.696 88.0919 105.616L88.2719 105.196C88.3319 105.056 88.4019 104.926 88.4819 104.806C88.5219 104.766 88.5519 104.716 88.5719 104.656C88.6119 104.596 88.6619 104.556 88.722 104.536C88.7419 104.516 88.7719 104.506 88.8119 104.506C88.8919 104.546 88.9419 104.566 88.9619 104.566C89.0619 104.626 89.1519 104.696 89.2319 104.776C89.3319 104.836 89.4319 104.866 89.5319 104.866C89.7719 104.886 89.9919 104.796 90.1919 104.596C90.2319 104.556 90.2619 104.516 90.2819 104.476C90.3019 104.416 90.3319 104.376 90.3719 104.356C90.5119 104.416 90.6019 104.506 90.6419 104.626C90.6819 104.706 90.702 104.756 90.702 104.776C90.7419 104.856 90.7619 104.936 90.7619 105.016V105.286C90.7619 105.646 90.6619 106.006 90.4619 106.366C90.3619 106.526 90.2419 106.696 90.1019 106.876C89.9619 107.056 89.792 107.256 89.5919 107.476C89.452 107.616 89.292 107.766 89.1119 107.926C88.9319 108.066 88.7619 108.216 88.6019 108.376L88.542 108.436C88.5219 108.456 88.4919 108.476 88.452 108.496C88.2319 108.716 87.8719 109.016 87.3719 109.396C86.8719 109.756 86.3319 110.136 85.7519 110.536C85.1719 110.936 84.6319 111.326 84.132 111.706C83.6319 112.066 83.2719 112.356 83.0519 112.576C82.9119 112.676 82.7719 112.786 82.6319 112.906C82.4919 113.006 82.3419 113.106 82.1819 113.206L81.4919 113.716C81.3919 113.796 81.2819 113.876 81.1619 113.956C81.0419 114.016 80.9319 114.096 80.8319 114.196C80.5119 114.456 80.3219 114.756 80.2619 115.096C80.2019 115.416 80.1719 115.636 80.1719 115.756V116.236V117.316C80.1719 117.656 80.1619 117.996 80.1419 118.336V118.576V118.786C80.1419 118.846 80.1519 118.916 80.1719 118.996C80.1919 119.156 80.2719 119.306 80.4119 119.446C80.4519 119.466 80.4819 119.486 80.5019 119.506C80.5419 119.526 80.5719 119.556 80.5919 119.596L80.8319 119.686C80.9319 119.866 81.0419 120.026 81.1619 120.166C81.3019 120.306 81.4819 120.396 81.7019 120.436H81.8219C81.8619 120.456 81.9019 120.466 81.9419 120.466C81.9619 120.486 81.9819 120.496 82.0019 120.496C82.042 120.516 82.0619 120.516 82.0619 120.496C82.1019 120.396 82.1019 120.266 82.0619 120.106C82.042 119.966 82.0819 119.896 82.1819 119.896C82.2819 119.876 82.3119 119.946 82.2719 120.106C82.2519 120.266 82.2619 120.396 82.3019 120.496C82.3419 120.536 82.3819 120.506 82.4219 120.406C82.4619 120.326 82.4819 120.246 82.4819 120.166C82.4819 120.106 82.5019 120.046 82.542 119.986C82.6019 120.106 82.6519 120.166 82.6919 120.166C82.7319 120.186 82.7519 120.166 82.7519 120.106C82.7519 120.066 82.7719 120.036 82.8119 120.016L82.8719 120.076L82.9919 120.196C83.0719 120.256 83.1419 120.316 83.202 120.376C83.2219 120.376 83.2319 120.386 83.2319 120.406H83.2619C83.2619 120.426 83.2719 120.436 83.292 120.436C83.3719 120.876 83.4219 121.306 83.4419 121.726C83.4619 122.166 83.5219 122.596 83.6219 123.016C83.6619 123.176 83.702 123.286 83.7419 123.346C83.8019 123.406 83.8419 123.426 83.8619 123.406C83.9219 123.366 83.9719 123.246 84.0119 123.046L84.1019 122.746C84.1419 122.426 84.1619 122.106 84.1619 121.786C84.1619 121.466 84.1819 121.146 84.2219 120.826C84.2219 120.806 84.2519 120.766 84.3119 120.706C84.3919 120.646 84.4419 120.606 84.4619 120.586L84.6119 120.676L84.6719 120.736L84.702 120.796C84.8019 120.896 84.882 120.996 84.9419 121.096C85.0019 121.216 85.0719 121.336 85.1519 121.456V121.486C85.1719 121.506 85.1819 121.526 85.1819 121.546L85.2719 121.726C85.3919 121.986 85.4919 122.246 85.5719 122.506C85.6719 122.786 85.7719 123.056 85.8719 123.316V123.436L85.9319 123.556C85.972 123.676 86.0319 123.836 86.1119 124.036C86.2119 124.236 86.3319 124.356 86.4719 124.396C86.5119 124.396 86.5319 124.386 86.5319 124.366C86.5719 124.386 86.6119 124.396 86.6519 124.396C86.7719 124.436 86.882 124.516 86.9819 124.636C87.1019 124.756 87.2219 124.786 87.3419 124.726C87.5019 124.646 87.6019 124.516 87.6419 124.336C87.702 124.156 87.7719 123.996 87.8519 123.856C87.9119 123.836 87.9819 123.786 88.0619 123.706C88.1019 123.666 88.1619 123.586 88.2419 123.466L88.4219 123.106L88.6019 122.686C88.6619 122.566 88.7119 122.436 88.7519 122.296C88.8919 121.956 89.0019 121.646 89.0819 121.366C89.1219 121.306 89.1519 121.236 89.1719 121.156L89.2319 120.976L89.3519 120.676L89.472 120.376C89.4919 120.376 89.5019 120.386 89.5019 120.406C89.542 120.846 89.562 121.306 89.562 121.786C89.562 122.286 89.5819 122.766 89.6219 123.226C89.6219 123.246 89.6419 123.256 89.6819 123.256C89.7219 123.256 89.7419 123.246 89.7419 123.226C89.7819 122.766 89.8019 122.286 89.8019 121.786C89.8019 121.306 89.8219 120.846 89.8619 120.406H89.9819H90.042C90.0619 120.426 90.0819 120.436 90.1019 120.436C90.2619 120.756 90.4019 121.066 90.5219 121.366C90.6619 121.686 90.7719 122.016 90.8519 122.356C90.9319 122.616 91.0019 122.866 91.062 123.106C91.1419 123.346 91.2219 123.596 91.3019 123.856C91.3419 123.996 91.3919 124.126 91.452 124.246C91.5119 124.386 91.5819 124.506 91.6619 124.606C91.7619 125.166 91.792 125.796 91.7519 126.496C91.7119 127.196 91.7519 127.776 91.8719 128.236C91.9119 128.436 91.9419 128.466 91.9619 128.326C91.9819 128.186 91.9819 127.956 91.9619 127.636V126.616C91.9619 126.256 91.972 125.976 91.9919 125.776L92.0519 125.656C92.0919 125.616 92.1219 125.576 92.1419 125.536C92.1819 125.436 92.202 125.326 92.202 125.206C92.202 125.086 92.222 124.986 92.2619 124.906C92.2819 124.926 92.3019 124.936 92.3219 124.936C92.3419 124.936 92.3619 124.946 92.382 124.966C92.4219 124.986 92.4619 125.016 92.5019 125.056L92.652 125.206C92.6719 125.206 92.6819 125.216 92.6819 125.236L92.7419 125.296C92.7619 125.596 92.7119 125.976 92.5919 126.436C92.492 126.896 92.4319 127.316 92.4119 127.696C92.4119 128.096 92.562 128.366 92.8619 128.506C93.0819 128.586 93.2119 128.516 93.2519 128.296C93.292 128.076 93.2819 127.776 93.222 127.396C93.1619 127.036 93.1019 126.666 93.042 126.286C92.9819 125.906 92.9619 125.606 92.9819 125.386C93.0819 125.366 93.1719 125.296 93.2519 125.176C93.3519 125.036 93.4419 124.866 93.5219 124.666C93.6219 124.486 93.7119 124.356 93.792 124.276L93.8219 124.246C93.8619 124.206 93.9019 124.176 93.9419 124.156C94.0219 124.156 94.0819 124.206 94.1219 124.306C94.1619 124.406 94.222 124.446 94.3019 124.426C94.402 124.386 94.472 124.306 94.5119 124.186C94.5519 124.066 94.6019 123.976 94.6619 123.916C94.8219 123.756 94.9319 123.626 94.992 123.526C95.0719 123.426 95.172 123.256 95.292 123.016C95.3319 122.956 95.3619 122.896 95.382 122.836C95.422 122.776 95.452 122.726 95.472 122.686C95.5319 122.526 95.6219 122.366 95.7419 122.206L95.8619 122.026C95.9019 121.986 95.9419 121.936 95.9819 121.876L96.1919 121.606C96.312 121.446 96.4319 121.296 96.5519 121.156L96.972 120.796L97.242 120.526C97.4419 120.566 97.5119 120.596 97.452 120.616C97.4119 120.636 97.3619 120.646 97.3019 120.646C97.2619 120.666 97.312 120.686 97.452 120.706C97.5319 120.706 97.6219 120.666 97.7219 120.586C97.8419 120.526 97.9319 120.476 97.9919 120.436C98.0719 120.356 98.132 120.276 98.172 120.196L98.292 119.956L98.3519 119.836C98.3919 119.796 98.4319 119.766 98.472 119.746C98.5119 119.726 98.542 119.706 98.5619 119.686C98.4819 119.786 98.402 119.876 98.3219 119.956C98.2619 120.036 98.3619 119.946 98.6219 119.686L98.7719 119.536C98.832 119.476 98.882 119.416 98.9219 119.356C98.9619 119.316 98.9819 119.276 98.9819 119.236C99.0019 119.196 99.0219 119.166 99.042 119.146V119.086C99.062 119.066 99.0719 119.046 99.0719 119.026V118.876ZM119.895 116.026C120.035 115.746 120.145 115.446 120.225 115.126C120.425 114.526 120.525 113.886 120.525 113.206V113.056C120.525 112.896 120.515 112.756 120.495 112.636C120.495 112.516 120.485 112.416 120.465 112.336C120.445 112.176 120.415 112.026 120.375 111.886L120.255 111.466C120.195 111.126 120.095 110.886 119.955 110.746C119.895 110.606 119.825 110.476 119.745 110.356C119.665 110.216 119.575 110.086 119.475 109.966C119.355 109.786 119.215 109.616 119.055 109.456L118.995 109.396C118.895 109.296 118.785 109.196 118.665 109.096C118.545 108.996 118.405 108.896 118.245 108.796L117.855 108.586L117.915 108.526L117.975 108.466C118.035 108.426 118.085 108.386 118.125 108.346C118.185 108.306 118.235 108.266 118.275 108.226L118.635 107.836C118.835 107.576 119.015 107.286 119.175 106.966C119.335 106.566 119.455 106.166 119.535 105.766V105.736C119.555 105.636 119.565 105.546 119.565 105.466C119.585 105.366 119.595 105.276 119.595 105.196C119.635 104.936 119.645 104.686 119.625 104.446C119.625 104.186 119.605 103.926 119.565 103.666L119.385 102.886C119.385 102.866 119.375 102.846 119.355 102.826V102.766C119.335 102.666 119.305 102.576 119.265 102.496C119.245 102.416 119.215 102.346 119.175 102.286C118.755 101.326 118.025 100.506 116.985 99.8263C115.965 99.1263 114.555 98.6763 112.755 98.4763H112.515C112.455 98.4563 112.385 98.4463 112.305 98.4463C112.225 98.4263 112.145 98.4163 112.065 98.4163H111.855C111.775 98.3963 111.665 98.3863 111.525 98.3863H111.015C110.855 98.3663 110.695 98.3663 110.535 98.3863C108.315 98.4263 106.585 98.7863 105.345 99.4663C104.105 100.146 103.225 100.986 102.705 101.986C102.625 102.086 102.565 102.216 102.525 102.376V102.406L102.345 102.826C102.305 102.966 102.265 103.116 102.225 103.276C102.205 103.436 102.175 103.596 102.135 103.756C102.135 103.796 102.125 103.846 102.105 103.906V104.056C102.105 104.096 102.095 104.136 102.075 104.176V104.296V105.046C102.115 105.566 102.215 106.046 102.375 106.486C102.515 106.866 102.715 107.256 102.975 107.656L103.275 108.016C103.375 108.116 103.485 108.216 103.605 108.316L103.755 108.466L103.935 108.586C103.895 108.626 103.855 108.646 103.815 108.646L103.635 108.766C103.495 108.866 103.345 108.976 103.185 109.096C103.045 109.216 102.915 109.346 102.795 109.486C102.675 109.606 102.595 109.696 102.555 109.756C102.235 110.136 101.975 110.546 101.775 110.986C101.575 111.426 101.445 111.906 101.385 112.426C101.305 112.886 101.305 113.446 101.385 114.106C101.485 114.746 101.645 115.276 101.865 115.696C101.865 115.736 101.875 115.766 101.895 115.786C101.975 115.946 102.055 116.116 102.135 116.296C102.235 116.456 102.345 116.616 102.465 116.776L102.525 116.836C103.185 117.716 104.165 118.456 105.465 119.056C106.785 119.636 108.495 119.946 110.595 119.986C110.635 120.066 110.655 120.136 110.655 120.196C110.675 120.256 110.695 120.326 110.715 120.406C110.735 120.446 110.755 120.506 110.775 120.586C110.795 120.686 110.835 120.756 110.895 120.796C110.995 120.876 111.125 120.856 111.285 120.736C111.445 120.636 111.555 120.546 111.615 120.466L111.735 120.286C111.755 120.266 111.765 120.236 111.765 120.196C111.765 120.156 111.775 120.126 111.795 120.106L111.945 120.166C111.965 120.186 111.975 120.206 111.975 120.226C112.055 120.306 112.135 120.346 112.215 120.346C112.275 120.346 112.365 120.316 112.485 120.256C112.545 120.156 112.585 120.106 112.605 120.106H112.635C112.635 120.126 112.645 120.136 112.665 120.136V120.166L112.695 120.196C112.775 120.256 112.845 120.316 112.905 120.376C112.965 120.436 113.035 120.496 113.115 120.556C113.095 120.556 113.095 120.566 113.115 120.586C113.155 120.606 113.185 120.616 113.205 120.616C113.245 120.836 113.255 121.056 113.235 121.276C113.215 121.516 113.235 121.746 113.295 121.966C113.335 122.086 113.345 122.026 113.325 121.786C113.325 121.546 113.355 121.376 113.415 121.276C113.435 121.236 113.455 121.256 113.475 121.336C113.495 121.436 113.515 121.506 113.535 121.546C113.555 121.566 113.575 121.596 113.595 121.636L113.655 121.756C113.675 122.056 113.685 122.446 113.685 122.926C113.705 123.426 113.715 123.916 113.715 124.396C113.735 124.896 113.755 125.296 113.775 125.596C113.775 125.676 113.815 125.756 113.895 125.836C113.935 125.856 113.975 125.816 114.015 125.716C114.055 125.656 114.075 125.586 114.075 125.506L114.135 125.326L114.225 124.576C114.325 124.276 114.365 123.906 114.345 123.466V122.176C114.345 121.756 114.395 121.396 114.495 121.096C114.495 120.996 114.535 120.916 114.615 120.856C114.715 120.916 114.795 120.996 114.855 121.096L115.095 121.396L115.275 121.576C115.295 121.796 115.275 122.136 115.215 122.596C115.155 123.056 115.095 123.546 115.035 124.066C114.975 124.586 114.965 125.056 115.005 125.476C115.045 125.896 115.175 126.176 115.395 126.316C115.575 126.436 115.695 126.386 115.755 126.166C115.815 125.946 115.835 125.626 115.815 125.206C115.795 124.806 115.755 124.366 115.695 123.886C115.655 123.406 115.615 122.966 115.575 122.566C115.535 122.166 115.525 121.876 115.545 121.696C115.665 121.676 115.755 121.586 115.815 121.426C115.895 121.286 115.955 121.166 115.995 121.066C116.035 120.966 116.075 120.856 116.115 120.736C116.175 120.636 116.215 120.546 116.235 120.466L116.595 119.746V120.226C116.615 120.406 116.635 120.576 116.655 120.736C116.655 120.776 116.665 120.756 116.685 120.676C116.725 120.596 116.755 120.546 116.775 120.526L116.985 120.046L117.345 119.086C117.465 118.766 117.655 118.496 117.915 118.276C117.915 118.536 117.885 118.926 117.825 119.446C117.785 119.966 117.735 120.486 117.675 121.006C117.635 121.526 117.635 121.926 117.675 122.206C117.735 122.506 117.875 122.566 118.095 122.386C118.315 122.186 118.445 121.886 118.485 121.486C118.525 121.106 118.515 120.696 118.455 120.256C118.415 119.816 118.355 119.396 118.275 118.996C118.215 118.596 118.185 118.276 118.185 118.036L118.365 117.886L118.575 117.676C118.715 117.536 118.855 117.386 118.995 117.226C119.155 117.066 119.305 116.886 119.445 116.686C119.605 116.526 119.755 116.306 119.895 116.026ZM109.545 103.876C109.565 103.876 109.575 103.866 109.575 103.846H109.605C109.625 103.826 109.645 103.816 109.665 103.816C109.765 103.756 109.875 103.716 109.995 103.696C110.135 103.676 110.255 103.656 110.355 103.636H111.015C111.175 103.616 111.345 103.616 111.525 103.636C111.705 103.636 111.865 103.666 112.005 103.726L112.155 103.816C112.175 103.816 112.185 103.826 112.185 103.846C112.305 103.926 112.385 103.996 112.425 104.056C112.625 104.276 112.735 104.496 112.755 104.716C112.775 104.776 112.785 104.836 112.785 104.896C112.805 104.956 112.815 105.016 112.815 105.076C112.815 105.356 112.735 105.636 112.575 105.916C112.495 106.036 112.425 106.116 112.365 106.156L112.335 106.186C112.255 106.266 112.155 106.336 112.035 106.396C111.895 106.476 111.755 106.536 111.615 106.576C111.475 106.616 111.325 106.646 111.165 106.666C110.985 106.686 110.805 106.696 110.625 106.696C110.465 106.676 110.245 106.616 109.965 106.516L109.845 106.456C109.825 106.436 109.795 106.416 109.755 106.396C109.395 106.176 109.165 105.866 109.065 105.466C108.965 105.066 109.005 104.696 109.185 104.356C109.285 104.176 109.405 104.026 109.545 103.906V103.876ZM109.305 114.406L109.155 114.256C108.895 113.876 108.775 113.466 108.795 113.026C108.835 112.806 108.905 112.586 109.005 112.366C109.125 112.146 109.285 111.966 109.485 111.826C109.685 111.706 109.915 111.646 110.175 111.646C110.435 111.626 110.675 111.606 110.895 111.586C111.115 111.586 111.355 111.596 111.615 111.616C111.875 111.616 112.095 111.676 112.275 111.796C112.295 111.796 112.305 111.806 112.305 111.826H112.335V111.856H112.365C112.585 112.016 112.745 112.226 112.845 112.486C112.965 112.746 113.015 113.006 112.995 113.266C112.955 113.666 112.815 114.006 112.575 114.286C112.375 114.506 112.135 114.666 111.855 114.766L111.615 114.856L111.435 114.916H111.255C111.195 114.936 111.095 114.946 110.955 114.946C110.695 114.946 110.435 114.916 110.175 114.856C109.935 114.796 109.705 114.696 109.485 114.556C109.425 114.516 109.365 114.466 109.305 114.406ZM142.842 115.246C142.822 115.046 142.812 114.866 142.812 114.706V111.856V111.436C142.832 111.276 142.832 111.126 142.812 110.986C142.812 110.926 142.792 110.856 142.752 110.776C142.752 110.736 142.742 110.696 142.722 110.656C142.702 110.616 142.682 110.586 142.662 110.566C142.642 110.526 142.622 110.506 142.602 110.506L142.542 110.446C142.362 110.306 142.172 110.236 141.972 110.236H139.362V100.126V99.7363C139.382 99.6163 139.382 99.4963 139.362 99.3763C139.362 99.3363 139.352 99.3063 139.332 99.2863C139.292 99.0863 139.162 98.9163 138.942 98.7763C138.922 98.7563 138.902 98.7463 138.882 98.7463C138.862 98.7463 138.842 98.7363 138.822 98.7163C138.782 98.7163 138.752 98.7063 138.732 98.6863H138.702C138.442 98.6463 138.172 98.6363 137.892 98.6563C137.632 98.6763 137.372 98.6863 137.112 98.6863H133.332H132.672C132.452 98.6663 132.232 98.6763 132.012 98.7163C131.932 98.7163 131.852 98.7363 131.772 98.7763C131.752 98.7963 131.732 98.8063 131.712 98.8063C131.692 98.8263 131.672 98.8363 131.652 98.8363C131.632 98.8363 131.612 98.8463 131.592 98.8663C131.472 98.9463 131.382 99.0163 131.322 99.0763C131.182 99.1763 131.062 99.2963 130.962 99.4363C130.882 99.5763 130.792 99.7163 130.692 99.8563L130.512 100.096C130.452 100.156 130.392 100.236 130.332 100.336L130.182 100.546L128.742 102.406L128.562 102.646L128.412 102.796C128.352 102.856 128.292 102.926 128.232 103.006C128.152 103.086 128.072 103.176 127.992 103.276C127.932 103.356 127.872 103.446 127.812 103.546C127.592 103.826 127.372 104.116 127.152 104.416C126.952 104.716 126.752 105.006 126.552 105.286L124.152 108.406C124.012 108.606 123.862 108.806 123.702 109.006C123.542 109.206 123.382 109.416 123.222 109.636L122.862 110.056C122.762 110.196 122.662 110.346 122.562 110.506C122.482 110.626 122.422 110.826 122.382 111.106C122.362 111.266 122.352 111.436 122.352 111.616C122.372 111.776 122.382 111.936 122.382 112.096V115.036V115.396C122.382 115.516 122.392 115.636 122.412 115.756V115.816C122.432 115.816 122.442 115.826 122.442 115.846C122.522 115.966 122.582 116.046 122.622 116.086L122.712 116.176C122.752 116.216 122.792 116.266 122.832 116.326C122.872 116.366 122.902 116.406 122.922 116.446L123.222 116.776L123.252 116.806C123.292 116.846 123.322 116.866 123.342 116.866C123.382 117.106 123.392 117.356 123.372 117.616C123.352 117.856 123.372 118.086 123.432 118.306C123.472 118.386 123.492 118.346 123.492 118.186C123.512 118.006 123.522 117.826 123.522 117.646C123.542 117.466 123.552 117.426 123.552 117.526C123.592 117.966 123.612 118.476 123.612 119.056C123.612 119.636 123.632 120.156 123.672 120.616C123.672 120.636 123.692 120.786 123.732 121.066C123.792 121.366 123.852 121.566 123.912 121.666C123.932 121.686 123.952 121.686 123.972 121.666C124.012 121.646 124.032 121.626 124.032 121.606C124.072 121.546 124.092 121.486 124.092 121.426C124.112 121.366 124.132 121.296 124.152 121.216C124.192 121.116 124.212 121.006 124.212 120.886L124.272 120.526C124.292 120.446 124.322 120.266 124.362 119.986C124.402 119.726 124.442 119.456 124.482 119.176C124.522 118.896 124.542 118.726 124.542 118.666C124.562 118.406 124.572 118.156 124.572 117.916C124.592 117.656 124.622 117.396 124.662 117.136C124.662 117.056 124.702 117.016 124.782 117.016C124.802 117.016 124.822 117.026 124.842 117.046C124.822 117.026 124.842 117.036 124.902 117.076C124.962 117.116 125.002 117.156 125.022 117.196C125.282 117.496 125.482 117.836 125.622 118.216C125.782 118.576 125.932 118.926 126.072 119.266L126.192 119.506C126.232 119.586 126.262 119.666 126.282 119.746C126.362 119.886 126.432 120.016 126.492 120.136C126.572 120.276 126.662 120.396 126.762 120.496C126.922 120.676 127.092 120.836 127.272 120.976C127.452 121.116 127.612 121.286 127.752 121.486C127.812 121.566 127.862 121.636 127.902 121.696C127.962 121.776 128.022 121.846 128.082 121.906C128.162 122.386 128.212 122.726 128.232 122.926C128.252 123.146 128.262 123.306 128.262 123.406V123.856C128.262 124.036 128.282 124.346 128.322 124.786C128.322 124.806 128.342 124.806 128.382 124.786C128.422 124.766 128.442 124.746 128.442 124.726C128.482 124.286 128.502 123.846 128.502 123.406C128.522 122.966 128.552 122.526 128.592 122.086C128.632 122.046 128.662 122.026 128.682 122.026L128.892 121.816C129.012 121.656 129.102 121.486 129.162 121.306L129.402 120.766C129.582 120.306 129.712 119.836 129.792 119.356C129.892 118.876 130.022 118.416 130.182 117.976C130.222 117.876 130.252 117.786 130.272 117.706C130.312 117.606 130.352 117.516 130.392 117.436C130.432 117.356 130.472 117.286 130.512 117.226C130.552 117.166 130.582 117.116 130.602 117.076L130.662 116.956C130.682 116.916 130.702 116.886 130.722 116.866L130.902 116.686V116.926C130.922 116.986 130.942 117.056 130.962 117.136C130.982 117.156 131.002 117.146 131.022 117.106C131.042 117.066 131.062 117.036 131.082 117.016C131.222 116.916 131.322 116.836 131.382 116.776C131.462 116.716 131.532 116.656 131.592 116.596H131.682L131.832 116.446L131.862 116.416C131.882 116.416 131.902 116.406 131.922 116.386L132.162 116.326V118.876C132.162 119.136 132.262 119.346 132.462 119.506C132.542 119.566 132.622 119.616 132.702 119.656C132.802 119.996 132.842 120.216 132.822 120.316V120.646C132.822 120.746 132.852 120.936 132.912 121.216C132.932 121.316 132.942 121.296 132.942 121.156V120.676C132.942 120.496 132.952 120.356 132.972 120.256C132.992 120.216 133.022 120.226 133.062 120.286C133.102 120.366 133.122 120.426 133.122 120.466C133.142 120.686 133.122 120.966 133.062 121.306L132.882 122.386C132.822 122.746 132.812 123.056 132.852 123.316C132.892 123.596 133.022 123.766 133.242 123.826C133.462 123.866 133.582 123.766 133.602 123.526C133.622 123.306 133.612 123.016 133.572 122.656C133.612 122.696 133.632 122.626 133.632 122.446C133.652 122.266 133.662 122.056 133.662 121.816C133.662 121.576 133.672 121.386 133.692 121.246C133.712 121.026 133.722 120.786 133.722 120.526C133.742 120.286 133.772 120.046 133.812 119.806C133.832 119.826 133.872 119.836 133.932 119.836C133.972 119.856 134.002 119.866 134.022 119.866C134.042 119.866 134.082 119.926 134.142 120.046L134.292 120.286C134.332 120.366 134.372 120.426 134.412 120.466C134.512 120.626 134.632 120.766 134.772 120.886C134.852 120.966 134.932 121.056 135.012 121.156C135.092 121.276 135.202 121.356 135.342 121.396C135.502 121.436 135.622 121.366 135.702 121.186C135.782 121.006 135.832 120.866 135.852 120.766C135.872 120.726 135.882 120.686 135.882 120.646C135.902 120.606 135.932 120.576 135.972 120.556L136.062 120.706L136.182 120.826C136.242 120.886 136.282 120.936 136.302 120.976L136.422 121.066C136.462 120.986 136.502 120.886 136.542 120.766C136.582 120.886 136.622 120.976 136.662 121.036C136.682 121.056 136.702 121.046 136.722 121.006C136.742 120.966 136.762 120.936 136.782 120.916C136.822 120.876 136.872 120.806 136.932 120.706C136.992 120.606 137.062 120.566 137.142 120.586C137.162 120.586 137.182 120.596 137.202 120.616C137.222 120.636 137.242 120.646 137.262 120.646C137.422 120.746 137.592 120.746 137.772 120.646C137.872 120.586 137.962 120.506 138.042 120.406C138.142 120.326 138.232 120.246 138.312 120.166C138.372 120.106 138.422 120.066 138.462 120.046L138.852 119.656C138.932 119.616 138.992 119.576 139.032 119.536L139.212 119.356L139.302 119.176C139.362 119.056 139.382 118.926 139.362 118.786V118.396V116.536C139.382 116.556 139.422 116.576 139.482 116.596C139.502 116.596 139.522 116.586 139.542 116.566C139.542 116.606 139.562 116.646 139.602 116.686C139.642 116.706 139.672 116.736 139.692 116.776L139.752 116.836C139.912 117.036 139.982 117.316 139.962 117.676C139.942 118.016 139.952 118.276 139.992 118.456C139.992 118.476 140.002 118.456 140.022 118.396C140.062 118.336 140.092 118.296 140.112 118.276C140.152 118.176 140.172 118.066 140.172 117.946C140.192 117.826 140.212 117.716 140.232 117.616C140.252 117.496 140.262 117.376 140.262 117.256C140.282 117.136 140.312 117.026 140.352 116.926L140.442 116.836L140.488 116.813C140.505 116.836 140.529 116.863 140.562 116.896C140.582 116.896 140.622 116.866 140.682 116.806C140.722 116.766 140.762 116.716 140.802 116.656L140.922 116.536C140.922 116.516 140.932 116.496 140.952 116.476L141.042 116.626C141.082 116.666 141.122 116.716 141.162 116.776C141.202 116.836 141.262 116.896 141.342 116.956C141.362 116.976 141.392 117.016 141.432 117.076C141.472 117.136 141.502 117.176 141.522 117.196H141.642C141.782 117.116 141.902 116.986 142.002 116.806C142.042 116.726 142.082 116.656 142.122 116.596C142.182 116.516 142.222 116.446 142.242 116.386L142.422 116.206C142.542 116.146 142.632 116.046 142.692 115.906C142.732 115.866 142.762 115.826 142.782 115.786C142.842 115.606 142.862 115.426 142.842 115.246ZM132.372 110.566H129.222L129.282 110.506L129.372 110.416C129.412 110.376 129.442 110.326 129.462 110.266L129.822 109.786C129.922 109.646 130.012 109.516 130.092 109.396C130.192 109.256 130.282 109.126 130.362 109.006V108.976C130.382 108.976 130.392 108.966 130.392 108.946L131.532 107.416C131.592 107.316 131.652 107.226 131.712 107.146C131.792 107.046 131.862 106.956 131.922 106.876L132.042 106.696C132.082 106.636 132.122 106.586 132.162 106.546C132.202 106.506 132.222 106.476 132.222 106.456V106.426L132.312 106.336C132.412 106.196 132.462 106.186 132.462 106.306C132.482 106.426 132.482 106.566 132.462 106.726C132.462 106.886 132.442 106.976 132.402 106.996C132.382 106.996 132.372 106.826 132.372 106.486V110.566ZM133.362 121.006C133.362 120.826 133.372 120.666 133.392 120.526C133.432 120.306 133.442 120.336 133.422 120.616C133.402 120.896 133.402 121.236 133.422 121.636C133.402 121.416 133.382 121.206 133.362 121.006ZM155.993 103.906C156.013 103.886 156.043 103.836 156.083 103.756C156.103 103.696 156.113 103.626 156.113 103.546L156.143 103.426C156.123 103.266 156.083 103.116 156.023 102.976C155.983 102.836 155.933 102.696 155.873 102.556L155.813 102.316C155.793 102.236 155.763 102.156 155.723 102.076L155.363 101.056L155.153 100.396L155.093 100.216C155.093 100.156 155.073 100.086 155.033 100.006L154.973 99.8863C154.973 99.8463 154.963 99.8063 154.943 99.7663C154.843 99.6063 154.753 99.5163 154.673 99.4963C154.593 99.4363 154.503 99.4063 154.403 99.4063C154.283 99.4063 154.193 99.4163 154.133 99.4363C154.093 99.4363 154.023 99.4663 153.923 99.5263C153.863 99.5463 153.823 99.5663 153.803 99.5863L153.773 99.6163L153.713 99.6763C153.693 99.6763 153.673 99.6863 153.653 99.7063L153.383 99.8863C153.303 99.9663 153.213 100.036 153.113 100.096L152.813 100.276L152.783 100.306C152.743 100.326 152.723 100.346 152.723 100.366C152.643 100.406 152.583 100.446 152.543 100.486C152.523 100.506 152.493 100.526 152.453 100.546C152.413 100.546 152.373 100.566 152.333 100.606L152.303 100.636C152.283 100.636 152.253 100.656 152.213 100.696L152.243 100.396L152.303 100.216C152.323 100.136 152.343 100.066 152.363 100.006L152.483 99.5263L152.573 99.3163L152.663 99.0163L152.723 98.8363L152.783 98.5963V98.4463C152.783 98.4063 152.773 98.3663 152.753 98.3263V98.2063C152.713 98.1263 152.673 98.0763 152.633 98.0563C152.553 97.9363 152.473 97.8663 152.393 97.8463C152.253 97.7863 152.103 97.7663 151.943 97.7863H151.463H150.623C150.283 97.7663 149.933 97.7563 149.573 97.7563C149.213 97.7363 148.863 97.7463 148.523 97.7863C148.343 97.7863 148.183 97.8563 148.043 97.9963C147.923 98.1363 147.863 98.2863 147.863 98.4463V98.5363C147.863 98.5763 147.873 98.6263 147.893 98.6863L147.983 99.0463L148.163 99.6163C148.183 99.6563 148.203 99.7263 148.223 99.8263C148.263 99.9263 148.293 100.046 148.313 100.186C148.353 100.246 148.373 100.316 148.373 100.396L148.433 100.576L148.493 100.756L148.163 100.516L147.893 100.336C147.813 100.256 147.713 100.186 147.593 100.126C147.493 100.066 147.393 99.9963 147.293 99.9163L147.053 99.7363C146.993 99.6763 146.913 99.6263 146.813 99.5863C146.753 99.5463 146.693 99.5163 146.633 99.4963C146.573 99.4563 146.523 99.4363 146.483 99.4363C146.423 99.4163 146.343 99.4063 146.243 99.4063C146.203 99.4263 146.153 99.4363 146.093 99.4363C146.053 99.4363 146.013 99.4563 145.973 99.4963C145.773 99.6363 145.643 99.8163 145.583 100.036C145.523 100.256 145.463 100.456 145.403 100.636L145.043 101.716C145.003 101.876 144.953 102.036 144.893 102.196L144.713 102.676C144.693 102.776 144.663 102.876 144.623 102.976C144.583 103.076 144.553 103.176 144.533 103.276C144.493 103.416 144.503 103.546 144.563 103.666C144.563 103.726 144.593 103.806 144.653 103.906L144.713 103.966C144.733 103.986 144.753 104.016 144.773 104.056C144.813 104.096 144.853 104.166 144.893 104.266C144.933 104.346 144.963 104.386 144.983 104.386H145.073L145.313 104.656C145.353 104.696 145.373 104.656 145.373 104.536C145.373 104.436 145.393 104.366 145.433 104.326C145.473 104.346 145.503 104.406 145.523 104.506C145.543 104.606 145.583 104.646 145.643 104.626C145.683 104.606 145.703 104.586 145.703 104.566C145.723 104.526 145.743 104.496 145.763 104.476C145.823 104.456 145.873 104.456 145.913 104.476C145.993 104.496 146.063 104.526 146.123 104.566C146.183 104.606 146.253 104.636 146.333 104.656C146.473 104.676 146.593 104.666 146.693 104.626C146.813 104.566 146.923 104.496 147.023 104.416C147.063 104.376 147.103 104.346 147.143 104.326C147.183 104.286 147.223 104.256 147.263 104.236C147.323 104.176 147.333 104.186 147.293 104.266C147.253 104.346 147.203 104.416 147.143 104.476C147.083 104.536 147.053 104.546 147.053 104.506L146.093 105.196C146.073 105.216 146.043 105.236 146.003 105.256L145.913 105.346L145.733 105.496C145.713 105.516 145.663 105.556 145.583 105.616C145.523 105.656 145.493 105.696 145.493 105.736C145.453 105.776 145.433 105.826 145.433 105.886C145.393 105.966 145.373 106.046 145.373 106.126C145.373 106.186 145.383 106.246 145.403 106.306C145.443 106.426 145.523 106.536 145.643 106.636L145.913 106.846C145.953 106.886 145.993 106.916 146.033 106.936L147.233 107.836L148.433 108.736L148.463 108.766C148.503 108.786 148.523 108.806 148.523 108.826V108.976C148.543 109.036 148.553 109.086 148.553 109.126V109.306C148.573 109.366 148.583 109.416 148.583 109.456L148.643 109.786V109.906C148.663 109.946 148.673 109.986 148.673 110.026C148.693 110.086 148.713 110.176 148.733 110.296C148.753 110.396 148.783 110.466 148.823 110.506C148.943 110.506 149.003 110.436 149.003 110.296V110.266V110.236V110.176C149.023 110.156 149.033 110.136 149.033 110.116L149.123 109.636V109.576C149.143 109.556 149.153 109.516 149.153 109.456L149.183 109.246V109.156C149.203 109.116 149.213 109.086 149.213 109.066C149.233 109.026 149.243 108.986 149.243 108.946C149.243 108.886 149.253 108.836 149.273 108.796H149.303C149.303 108.776 149.313 108.766 149.333 108.766L149.363 108.736C149.403 108.696 149.463 108.616 149.543 108.496L149.603 108.436C149.643 108.356 149.683 108.256 149.723 108.136C149.763 108.036 149.803 107.926 149.843 107.806L149.963 107.446V107.416C149.983 107.396 149.993 107.376 149.993 107.356C150.033 107.256 150.063 107.176 150.083 107.116L150.143 106.876C150.183 106.796 150.213 106.726 150.233 106.666L150.293 106.486C150.313 106.486 150.333 106.456 150.353 106.396V106.486L150.503 106.846V106.906L150.563 107.026V107.086C150.583 107.106 150.593 107.126 150.593 107.146L150.773 107.626C150.793 107.786 150.843 107.976 150.923 108.196C150.963 108.316 151.003 108.396 151.043 108.436C151.043 108.456 151.063 108.486 151.103 108.526C151.143 108.546 151.173 108.586 151.193 108.646C151.233 108.706 151.273 108.756 151.313 108.796C151.313 108.876 151.333 108.956 151.373 109.036L151.463 109.276L151.583 109.456L151.703 109.576C151.743 109.596 151.773 109.626 151.793 109.666L151.853 109.726C151.973 109.846 152.053 109.946 152.093 110.026C152.153 110.086 152.203 110.146 152.243 110.206L152.423 110.326C152.463 110.426 152.523 110.436 152.603 110.356L152.663 110.296C152.683 110.296 152.693 110.286 152.693 110.266C152.733 110.226 152.753 110.186 152.753 110.146C152.793 110.106 152.813 110.066 152.813 110.026C152.813 109.966 152.823 109.916 152.843 109.876C152.863 109.856 152.873 109.836 152.873 109.816C152.873 109.776 152.883 109.746 152.903 109.726C152.943 109.586 152.973 109.456 152.993 109.336L153.053 108.976L153.173 109.096C153.213 108.936 153.233 108.776 153.233 108.616C153.233 108.456 153.243 108.306 153.263 108.166C153.323 108.166 153.383 108.136 153.443 108.076L153.503 108.136C153.623 108.336 153.693 108.446 153.713 108.466C153.753 108.466 153.783 108.446 153.803 108.406C153.823 108.346 153.843 108.306 153.863 108.286C153.903 108.266 153.953 108.226 154.013 108.166C154.053 108.126 154.083 108.086 154.103 108.046V108.286C154.103 108.346 154.113 108.406 154.133 108.466L154.223 108.286C154.243 108.246 154.263 108.216 154.283 108.196C154.303 108.156 154.323 108.126 154.343 108.106L154.613 107.536C154.773 107.316 154.833 107.196 154.793 107.176C154.773 107.136 154.713 107.146 154.613 107.206C154.533 107.246 154.493 107.256 154.493 107.236C154.493 107.196 154.603 107.066 154.823 106.846C154.843 106.846 154.853 106.856 154.853 106.876C154.873 106.896 154.893 106.896 154.913 106.876C154.933 106.856 154.943 106.836 154.943 106.816C154.943 106.796 154.953 106.776 154.973 106.756L155.153 106.486V106.816C155.153 106.916 155.163 107.016 155.183 107.116V107.356C155.183 107.436 155.193 107.496 155.213 107.536V107.566C155.233 107.566 155.243 107.556 155.243 107.536L155.273 107.506L155.303 107.236V106.966L155.363 106.666V106.606C155.403 106.306 155.453 106.006 155.513 105.706C155.593 105.406 155.653 105.146 155.693 104.926V104.746C155.713 104.646 155.723 104.556 155.723 104.476V104.386C155.743 104.366 155.753 104.346 155.753 104.326L155.783 104.056C155.863 104.016 155.913 103.976 155.933 103.936C155.953 103.936 155.973 103.926 155.993 103.906ZM155.003 105.076C155.043 105.036 155.063 105.006 155.063 104.986C155.103 105.106 155.123 105.226 155.123 105.346C155.123 105.466 155.133 105.586 155.153 105.706L155.003 105.556C154.923 105.476 154.863 105.426 154.823 105.406C154.783 105.366 154.753 105.346 154.733 105.346C154.773 105.306 154.813 105.256 154.853 105.196C154.913 105.136 154.963 105.096 155.003 105.076ZM176.643 116.026C176.783 115.746 176.893 115.446 176.973 115.126C177.173 114.526 177.273 113.886 177.273 113.206V113.056C177.273 112.896 177.263 112.756 177.243 112.636C177.243 112.516 177.233 112.416 177.213 112.336C177.193 112.176 177.163 112.026 177.123 111.886L177.003 111.466C176.943 111.126 176.843 110.886 176.703 110.746C176.643 110.606 176.573 110.476 176.493 110.356C176.413 110.216 176.323 110.086 176.223 109.966C176.103 109.786 175.963 109.616 175.803 109.456L175.743 109.396C175.643 109.296 175.533 109.196 175.413 109.096C175.293 108.996 175.153 108.896 174.993 108.796L174.603 108.586L174.663 108.526L174.723 108.466C174.783 108.426 174.833 108.386 174.873 108.346C174.933 108.306 174.983 108.266 175.023 108.226L175.383 107.836C175.583 107.576 175.763 107.286 175.923 106.966C176.083 106.566 176.203 106.166 176.283 105.766V105.736C176.303 105.636 176.313 105.546 176.313 105.466C176.333 105.366 176.343 105.276 176.343 105.196C176.383 104.936 176.393 104.686 176.373 104.446C176.373 104.186 176.353 103.926 176.313 103.666L176.133 102.886C176.133 102.866 176.123 102.846 176.103 102.826V102.766C176.083 102.666 176.053 102.576 176.013 102.496C175.993 102.416 175.963 102.346 175.923 102.286C175.503 101.326 174.773 100.506 173.733 99.8263C172.713 99.1263 171.303 98.6763 169.503 98.4763H169.263C169.203 98.4563 169.133 98.4463 169.053 98.4463C168.973 98.4263 168.893 98.4163 168.813 98.4163H168.603C168.523 98.3963 168.413 98.3863 168.273 98.3863H167.763C167.603 98.3663 167.443 98.3663 167.283 98.3863C165.063 98.4263 163.333 98.7863 162.093 99.4663C160.853 100.146 159.973 100.986 159.453 101.986C159.373 102.086 159.313 102.216 159.273 102.376V102.406L159.093 102.826C159.053 102.966 159.013 103.116 158.973 103.276C158.953 103.436 158.923 103.596 158.883 103.756C158.883 103.796 158.873 103.846 158.853 103.906V104.056C158.853 104.096 158.843 104.136 158.823 104.176V104.296V105.046C158.863 105.566 158.963 106.046 159.123 106.486C159.263 106.866 159.463 107.256 159.723 107.656L160.023 108.016C160.123 108.116 160.233 108.216 160.353 108.316L160.503 108.466L160.683 108.586C160.643 108.626 160.603 108.646 160.563 108.646L160.383 108.766C160.243 108.866 160.093 108.976 159.933 109.096C159.793 109.216 159.663 109.346 159.543 109.486C159.423 109.606 159.343 109.696 159.303 109.756C158.983 110.136 158.723 110.546 158.523 110.986C158.323 111.426 158.193 111.906 158.133 112.426C158.053 112.886 158.053 113.446 158.133 114.106C158.233 114.746 158.393 115.276 158.613 115.696C158.613 115.736 158.623 115.766 158.643 115.786C158.723 115.946 158.803 116.116 158.883 116.296C158.983 116.456 159.093 116.616 159.213 116.776L159.273 116.836C159.933 117.716 160.913 118.456 162.213 119.056C163.533 119.636 165.243 119.946 167.343 119.986C167.383 120.066 167.403 120.136 167.403 120.196C167.423 120.256 167.443 120.326 167.463 120.406C167.483 120.446 167.503 120.506 167.523 120.586C167.543 120.686 167.583 120.756 167.643 120.796C167.743 120.876 167.873 120.856 168.033 120.736C168.193 120.636 168.303 120.546 168.363 120.466L168.483 120.286C168.503 120.266 168.513 120.236 168.513 120.196C168.513 120.156 168.523 120.126 168.543 120.106L168.693 120.166C168.713 120.186 168.723 120.206 168.723 120.226C168.803 120.306 168.883 120.346 168.963 120.346C169.023 120.346 169.113 120.316 169.233 120.256C169.293 120.156 169.333 120.106 169.353 120.106H169.383C169.383 120.126 169.393 120.136 169.413 120.136V120.166L169.443 120.196C169.523 120.256 169.593 120.316 169.653 120.376C169.713 120.436 169.783 120.496 169.863 120.556C169.843 120.556 169.843 120.566 169.863 120.586C169.903 120.606 169.933 120.616 169.953 120.616C169.993 120.836 170.003 121.056 169.983 121.276C169.963 121.516 169.983 121.746 170.043 121.966C170.083 122.086 170.093 122.026 170.073 121.786C170.073 121.546 170.103 121.376 170.163 121.276C170.183 121.236 170.203 121.256 170.223 121.336C170.243 121.436 170.263 121.506 170.283 121.546C170.303 121.566 170.323 121.596 170.343 121.636L170.403 121.756C170.423 122.056 170.433 122.446 170.433 122.926C170.453 123.426 170.463 123.916 170.463 124.396C170.483 124.896 170.503 125.296 170.523 125.596C170.523 125.676 170.563 125.756 170.643 125.836C170.683 125.856 170.723 125.816 170.763 125.716C170.803 125.656 170.823 125.586 170.823 125.506L170.883 125.326L170.973 124.576C171.073 124.276 171.113 123.906 171.093 123.466V122.176C171.093 121.756 171.143 121.396 171.243 121.096C171.243 120.996 171.283 120.916 171.363 120.856C171.463 120.916 171.543 120.996 171.603 121.096L171.843 121.396L172.023 121.576C172.043 121.796 172.023 122.136 171.963 122.596C171.903 123.056 171.843 123.546 171.783 124.066C171.723 124.586 171.713 125.056 171.753 125.476C171.793 125.896 171.923 126.176 172.143 126.316C172.323 126.436 172.443 126.386 172.503 126.166C172.563 125.946 172.583 125.626 172.563 125.206C172.543 124.806 172.503 124.366 172.443 123.886C172.403 123.406 172.363 122.966 172.323 122.566C172.283 122.166 172.273 121.876 172.293 121.696C172.413 121.676 172.503 121.586 172.563 121.426C172.643 121.286 172.703 121.166 172.743 121.066C172.783 120.966 172.823 120.856 172.863 120.736C172.923 120.636 172.963 120.546 172.983 120.466L173.343 119.746V120.226C173.363 120.406 173.383 120.576 173.403 120.736C173.403 120.776 173.413 120.756 173.433 120.676C173.473 120.596 173.503 120.546 173.523 120.526L173.733 120.046L174.093 119.086C174.213 118.766 174.403 118.496 174.663 118.276C174.663 118.536 174.633 118.926 174.573 119.446C174.533 119.966 174.483 120.486 174.423 121.006C174.383 121.526 174.383 121.926 174.423 122.206C174.483 122.506 174.623 122.566 174.843 122.386C175.063 122.186 175.193 121.886 175.233 121.486C175.273 121.106 175.263 120.696 175.203 120.256C175.163 119.816 175.103 119.396 175.023 118.996C174.963 118.596 174.933 118.276 174.933 118.036L175.113 117.886L175.323 117.676C175.463 117.536 175.603 117.386 175.743 117.226C175.903 117.066 176.053 116.886 176.193 116.686C176.353 116.526 176.503 116.306 176.643 116.026ZM166.293 103.876C166.313 103.876 166.323 103.866 166.323 103.846H166.353C166.373 103.826 166.393 103.816 166.413 103.816C166.513 103.756 166.623 103.716 166.743 103.696C166.883 103.676 167.003 103.656 167.103 103.636H167.763C167.923 103.616 168.093 103.616 168.273 103.636C168.453 103.636 168.613 103.666 168.753 103.726L168.903 103.816C168.923 103.816 168.933 103.826 168.933 103.846C169.053 103.926 169.133 103.996 169.173 104.056C169.373 104.276 169.483 104.496 169.503 104.716C169.523 104.776 169.533 104.836 169.533 104.896C169.553 104.956 169.563 105.016 169.563 105.076C169.563 105.356 169.483 105.636 169.323 105.916C169.243 106.036 169.173 106.116 169.113 106.156L169.083 106.186C169.003 106.266 168.903 106.336 168.783 106.396C168.643 106.476 168.503 106.536 168.363 106.576C168.223 106.616 168.073 106.646 167.913 106.666C167.733 106.686 167.553 106.696 167.373 106.696C167.213 106.676 166.993 106.616 166.713 106.516L166.593 106.456C166.573 106.436 166.543 106.416 166.503 106.396C166.143 106.176 165.913 105.866 165.813 105.466C165.713 105.066 165.753 104.696 165.933 104.356C166.033 104.176 166.153 104.026 166.293 103.906V103.876ZM166.053 114.406L165.903 114.256C165.643 113.876 165.523 113.466 165.543 113.026C165.583 112.806 165.653 112.586 165.753 112.366C165.873 112.146 166.033 111.966 166.233 111.826C166.433 111.706 166.663 111.646 166.923 111.646C167.183 111.626 167.423 111.606 167.643 111.586C167.863 111.586 168.103 111.596 168.363 111.616C168.623 111.616 168.843 111.676 169.023 111.796C169.043 111.796 169.053 111.806 169.053 111.826H169.083V111.856H169.113C169.333 112.016 169.493 112.226 169.593 112.486C169.713 112.746 169.763 113.006 169.743 113.266C169.703 113.666 169.563 114.006 169.323 114.286C169.123 114.506 168.883 114.666 168.603 114.766L168.363 114.856L168.183 114.916H168.003C167.943 114.936 167.843 114.946 167.703 114.946C167.443 114.946 167.183 114.916 166.923 114.856C166.683 114.796 166.453 114.696 166.233 114.556C166.173 114.516 166.113 114.466 166.053 114.406ZM195.39 112.306L195.84 111.676L196.02 111.376C196.56 110.596 197.03 109.816 197.43 109.036C197.85 108.256 198.1 107.426 198.18 106.546C198.22 106.366 198.23 106.186 198.21 106.006V105.466C198.21 105.366 198.2 105.276 198.18 105.196C198.18 105.096 198.17 104.996 198.15 104.896C198.13 104.696 198.09 104.496 198.03 104.296C197.99 104.096 197.95 103.906 197.91 103.726L197.73 103.216L197.67 103.096C197.65 103.036 197.63 102.986 197.61 102.946C197.41 102.466 197.14 102.016 196.8 101.596C196.66 101.436 196.51 101.276 196.35 101.116C196.21 100.936 196.06 100.776 195.9 100.636C195.78 100.536 195.65 100.436 195.51 100.336C195.39 100.236 195.26 100.146 195.12 100.066L194.94 99.9463C194.88 99.8863 194.82 99.8463 194.76 99.8263C194.58 99.6863 194.35 99.5563 194.07 99.4363C193.81 99.3163 193.53 99.2163 193.23 99.1363C192.73 98.9563 192.19 98.8063 191.61 98.6863H191.55C191.53 98.6663 191.51 98.6563 191.49 98.6563C191.41 98.5763 191.21 98.5363 190.89 98.5363C190.85 98.5163 190.8 98.5063 190.74 98.5063C190.68 98.5063 190.63 98.4963 190.59 98.4763H190.23C189.67 98.4163 189.08 98.3863 188.46 98.3863C186.68 98.3863 185.14 98.6663 183.84 99.2263C182.56 99.7863 181.53 100.516 180.75 101.416L180.66 101.506C180.52 101.646 180.4 101.816 180.3 102.016L179.94 102.556L179.82 102.766C179.76 102.826 179.7 102.916 179.64 103.036C179.6 103.136 179.56 103.256 179.52 103.396C179.48 103.496 179.44 103.606 179.4 103.726C179.38 103.826 179.35 103.926 179.31 104.026C179.23 104.246 179.17 104.476 179.13 104.716C179.09 104.956 179.05 105.186 179.01 105.406C178.91 106.266 178.97 107.116 179.19 107.956L179.28 108.226C179.32 108.306 179.35 108.396 179.37 108.496L179.49 108.796C179.69 109.256 179.94 109.696 180.24 110.116C180.32 110.236 180.38 110.316 180.42 110.356C180.46 110.376 180.52 110.436 180.6 110.536C180.68 110.616 180.67 110.616 180.57 110.536L180.87 110.836L181.08 111.046L181.17 111.136C181.27 111.216 181.34 111.276 181.38 111.316C181.42 111.356 181.45 111.406 181.47 111.466C181.51 111.546 181.57 111.626 181.65 111.706C181.67 111.726 181.68 111.746 181.68 111.766L181.71 111.796C181.83 112.256 181.89 112.576 181.89 112.756C181.91 112.916 181.91 113.066 181.89 113.206C181.89 113.346 181.92 113.616 181.98 114.016C181.98 114.056 182 114.046 182.04 113.986C182.1 113.926 182.13 113.886 182.13 113.866C182.17 113.566 182.19 113.276 182.19 112.996C182.21 112.696 182.24 112.396 182.28 112.096C182.36 112.236 182.45 112.336 182.55 112.396C182.57 112.396 182.58 112.406 182.58 112.426H182.61C182.63 112.466 182.64 112.506 182.64 112.546C182.64 112.586 182.65 112.626 182.67 112.666C182.67 112.806 182.7 112.866 182.76 112.846C182.8 112.826 182.82 112.776 182.82 112.696C182.84 112.656 182.85 112.626 182.85 112.606V112.576V112.486C182.87 112.566 182.88 112.696 182.88 112.876C182.88 112.936 182.87 112.996 182.85 113.056V113.266C182.85 113.306 182.86 113.366 182.88 113.446C182.9 113.526 182.93 113.586 182.97 113.626C183.01 113.686 183.04 113.686 183.06 113.626V113.536V112.726C183.1 112.726 183.12 112.746 183.12 112.786L183.18 112.846C183.26 112.946 183.3 113.066 183.3 113.206C183.28 113.406 183.24 113.626 183.18 113.866C183.14 114.106 183.13 114.336 183.15 114.556C183.15 114.716 183.21 114.856 183.33 114.976C183.41 115.056 183.47 115.096 183.51 115.096C183.61 115.096 183.65 115.036 183.63 114.916V114.646L183.51 113.536V113.116C183.53 113.116 183.55 113.126 183.57 113.146C183.59 113.166 183.61 113.176 183.63 113.176L183.66 113.206C183.68 113.206 183.7 113.216 183.72 113.236H183.81C183.89 113.236 183.93 113.246 183.93 113.266C183.95 113.286 183.96 113.316 183.96 113.356C183.96 113.436 183.95 113.526 183.93 113.626C183.93 113.706 183.92 113.786 183.9 113.866C183.88 114.006 183.85 114.166 183.81 114.346C183.77 114.506 183.77 114.666 183.81 114.826C183.84 114.944 183.86 115.026 183.87 115.071C183.87 115.08 183.87 115.088 183.87 115.096C183.881 115.127 183.88 115.119 183.87 115.071C183.868 115.017 183.858 114.955 183.84 114.886C183.88 114.946 183.91 114.976 183.93 114.976C183.97 115.076 183.98 115.196 183.96 115.336C183.94 115.476 183.98 115.546 184.08 115.546C184.18 115.566 184.22 115.506 184.2 115.366C184.18 115.226 184.18 115.116 184.2 115.036L184.29 114.946C184.27 115.026 184.25 115.086 184.23 115.126C184.23 115.166 184.25 115.106 184.29 114.946V114.916C184.33 114.836 184.35 114.776 184.35 114.736C184.37 114.616 184.36 114.496 184.32 114.376C184.3 114.236 184.27 114.106 184.23 113.986C184.23 113.946 184.22 113.906 184.2 113.866V113.716C184.2 113.676 184.19 113.626 184.17 113.566V113.416V113.266C184.39 113.326 184.55 113.346 184.65 113.326C184.71 113.326 184.78 113.316 184.86 113.296C184.96 113.256 185.04 113.236 185.1 113.236C185.14 113.236 185.16 113.246 185.16 113.266C185.18 113.286 185.2 113.296 185.22 113.296C185.26 113.296 185.28 113.286 185.28 113.266C185.32 113.266 185.34 113.276 185.34 113.296H185.4C185.42 113.296 185.43 113.306 185.43 113.326H185.46C185.62 113.386 185.78 113.416 185.94 113.416H186.15C186.21 113.396 186.28 113.386 186.36 113.386H186.39C186.37 113.466 186.35 113.536 186.33 113.596L186.3 113.656L185.79 114.316L185.67 114.496L185.55 114.616C185.31 114.856 185.07 115.146 184.83 115.486C184.61 115.826 184.38 116.166 184.14 116.506C184.02 116.666 183.9 116.816 183.78 116.956C183.68 117.096 183.6 117.206 183.54 117.286L182.82 118.276C182.76 118.316 182.69 118.396 182.61 118.516C182.61 118.556 182.59 118.596 182.55 118.636C182.47 118.756 182.43 118.886 182.43 119.026C182.43 119.166 182.47 119.286 182.55 119.386C182.67 119.546 182.8 119.646 182.94 119.686H183.09L183.12 119.716C183.12 119.736 183.13 119.756 183.15 119.776C183.25 119.956 183.37 120.146 183.51 120.346C183.65 120.526 183.8 120.676 183.96 120.796C184.14 120.936 184.29 121.116 184.41 121.336C184.51 121.496 184.59 121.656 184.65 121.816L184.89 122.356C184.93 122.376 184.96 122.406 184.98 122.446L185.04 122.566C185.04 122.606 185.06 122.646 185.1 122.686L185.19 122.776C185.23 122.816 185.28 122.826 185.34 122.806C185.38 122.786 185.44 122.736 185.52 122.656C185.6 122.556 185.66 122.446 185.7 122.326L185.88 122.026C185.9 122.006 185.91 121.986 185.91 121.966C185.91 121.946 185.92 121.926 185.94 121.906C186.1 121.626 186.26 121.336 186.42 121.036C186.6 120.756 186.81 120.506 187.05 120.286C187.13 120.286 187.19 120.276 187.23 120.256L187.29 120.196C187.33 120.176 187.35 120.186 187.35 120.226C187.39 120.546 187.41 120.856 187.41 121.156C187.41 121.476 187.43 121.796 187.47 122.116C187.47 122.156 187.48 122.136 187.5 122.056C187.54 121.996 187.57 121.956 187.59 121.936L187.95 121.366C188.07 121.166 188.12 121.016 188.1 120.916C188.1 120.836 188.09 120.726 188.07 120.586C188.05 120.466 188.08 120.266 188.16 119.986L188.22 120.046C188.26 120.066 188.29 120.096 188.31 120.136C188.33 120.156 188.33 120.186 188.31 120.226C188.31 120.266 188.34 120.396 188.4 120.616C188.44 120.756 188.48 120.876 188.52 120.976C188.56 121.076 188.61 121.196 188.67 121.336C188.69 121.356 188.73 121.426 188.79 121.546C188.85 121.666 188.92 121.716 189 121.696C189.06 121.656 189.11 121.576 189.15 121.456C189.19 121.336 189.22 121.266 189.24 121.246C189.32 121.006 189.38 120.756 189.42 120.496C189.46 120.236 189.52 119.986 189.6 119.746C189.66 119.706 189.73 119.646 189.81 119.566L189.9 119.476C189.88 119.476 189.88 119.466 189.9 119.446C189.94 119.426 189.97 119.416 189.99 119.416L190.23 119.176C190.33 119.076 190.41 118.976 190.47 118.876C190.55 118.756 190.63 118.646 190.71 118.546C190.77 118.446 190.83 118.356 190.89 118.276C190.97 118.176 191.05 118.086 191.13 118.006L191.31 117.766C191.37 117.666 191.43 117.576 191.49 117.496L191.79 117.136C191.89 116.996 191.98 116.856 192.06 116.716C192.12 116.656 192.17 116.596 192.21 116.536L192.39 116.296C192.73 115.936 193.07 115.486 193.41 114.946L193.56 114.766C193.66 114.646 193.75 114.526 193.83 114.406C193.93 114.266 194.02 114.126 194.1 113.986L194.25 113.806L195.03 112.726L195.21 112.546L195.39 112.306ZM189.84 107.746C189.54 107.966 189.2 108.086 188.82 108.106C188.8 108.106 188.77 108.116 188.73 108.136H188.55C188.31 108.116 188.08 108.076 187.86 108.016C187.66 107.956 187.45 107.846 187.23 107.686C187.09 107.526 186.98 107.396 186.9 107.296C186.82 107.176 186.76 107.046 186.72 106.906C186.64 106.566 186.64 106.216 186.72 105.856C186.82 105.476 186.97 105.146 187.17 104.866C187.39 104.586 187.64 104.436 187.92 104.416C188.14 104.396 188.36 104.396 188.58 104.416C188.82 104.436 189.04 104.466 189.24 104.506C189.36 104.506 189.48 104.516 189.6 104.536C189.72 104.556 189.82 104.616 189.9 104.716C190.08 104.896 190.23 105.116 190.35 105.376C190.39 105.496 190.42 105.626 190.44 105.766C190.46 105.886 190.47 106.026 190.47 106.186C190.47 106.486 190.42 106.786 190.32 107.086C190.22 107.286 190.12 107.436 190.02 107.536C189.98 107.596 189.92 107.666 189.84 107.746ZM217.939 107.266C217.959 107.106 217.959 106.956 217.939 106.816V104.266V103.906C217.959 103.786 217.959 103.676 217.939 103.576C217.939 103.516 217.919 103.466 217.879 103.426C217.799 103.186 217.639 103.036 217.399 102.976C217.259 102.936 217.109 102.916 216.949 102.916C216.809 102.916 216.659 102.926 216.499 102.946H215.899C215.819 102.966 215.779 102.956 215.779 102.916C215.799 102.876 215.809 102.846 215.809 102.826L215.869 102.436C215.929 101.956 215.989 101.536 216.049 101.176C216.069 101.016 216.089 100.896 216.109 100.816C216.129 100.716 216.129 100.636 216.109 100.576C216.049 100.276 215.879 100.096 215.599 100.036H215.509C215.489 100.016 215.459 100.006 215.419 100.006H214.999C214.919 100.026 214.829 100.036 214.729 100.036H214.489H212.059C211.799 100.036 211.609 100.106 211.489 100.246C211.369 100.366 211.289 100.506 211.249 100.666C211.229 100.706 211.219 100.786 211.219 100.906L211.099 101.536L211.039 102.046L210.949 102.526C210.949 102.546 210.939 102.576 210.919 102.616V102.706L210.889 102.946H209.089C209.009 102.966 208.969 102.956 208.969 102.916C208.989 102.876 208.999 102.846 208.999 102.826L209.059 102.436V102.346L209.239 101.176L209.299 100.876C209.319 100.756 209.319 100.656 209.299 100.576C209.279 100.456 209.209 100.336 209.089 100.216C208.969 100.096 208.819 100.036 208.639 100.036H206.119H205.789C205.689 100.016 205.589 100.006 205.489 100.006C205.289 100.006 205.139 100.016 205.039 100.036C204.759 100.096 204.569 100.266 204.469 100.546C204.429 100.666 204.409 100.766 204.409 100.846L204.379 101.086L204.289 101.566C204.289 101.646 204.279 101.696 204.259 101.716L204.139 102.526C204.139 102.546 204.129 102.576 204.109 102.616V102.706L204.079 102.946H201.559C201.499 102.946 201.409 102.966 201.289 103.006H201.229C201.209 103.006 201.179 103.026 201.139 103.066L201.079 103.126L200.959 103.246C200.859 103.386 200.809 103.526 200.809 103.666C200.789 103.786 200.779 103.916 200.779 104.056C200.799 104.176 200.809 104.296 200.809 104.416V106.666C200.809 106.786 200.799 106.906 200.779 107.026C200.779 107.146 200.789 107.256 200.809 107.356C200.849 107.476 200.889 107.566 200.929 107.626C200.949 107.686 200.999 107.756 201.079 107.836C201.099 107.976 201.099 108.106 201.079 108.226C201.079 108.346 201.109 108.456 201.169 108.556C201.209 108.616 201.229 108.586 201.229 108.466C201.229 108.326 201.249 108.246 201.289 108.226C201.309 108.206 201.349 108.256 201.409 108.376C201.529 108.496 201.619 108.576 201.679 108.616C201.939 108.816 202.199 108.826 202.459 108.646C202.579 108.586 202.689 108.506 202.789 108.406L203.059 108.136C203.079 108.096 203.119 108.046 203.179 107.986L203.269 108.346C203.249 108.426 203.239 108.506 203.239 108.586C203.239 108.646 203.229 108.716 203.209 108.796L203.029 109.936C203.009 109.996 202.999 110.076 202.999 110.176L202.939 110.566H202.339H201.559C201.299 110.546 201.079 110.546 200.899 110.566H200.689C200.629 110.566 200.569 110.576 200.509 110.596C200.429 110.616 200.339 110.676 200.239 110.776C200.179 110.836 200.139 110.886 200.119 110.926C200.119 110.946 200.109 110.956 200.089 110.956V110.986C200.049 111.066 200.029 111.126 200.029 111.166C200.009 111.266 199.999 111.376 199.999 111.496C200.019 111.596 200.029 111.696 200.029 111.796V114.976C200.069 115.096 200.109 115.186 200.149 115.246C200.189 115.346 200.239 115.406 200.299 115.426V115.546C200.319 115.606 200.329 115.646 200.329 115.666C200.329 115.766 200.339 115.836 200.359 115.876C200.359 115.936 200.369 115.976 200.389 115.996C200.429 116.216 200.479 116.466 200.539 116.746C200.619 117.026 200.729 117.306 200.869 117.586C200.869 117.606 200.889 117.656 200.929 117.736V117.766C200.949 117.786 200.959 117.806 200.959 117.826C200.999 117.846 201.029 117.876 201.049 117.916L201.109 117.976C201.189 117.996 201.239 117.996 201.259 117.976C201.299 117.936 201.349 117.876 201.409 117.796C201.469 117.716 201.489 117.686 201.469 117.706V117.676L201.499 117.646C201.499 117.606 201.519 117.546 201.559 117.466C201.559 117.426 201.569 117.396 201.589 117.376C201.629 117.276 201.659 117.186 201.679 117.106C201.699 117.006 201.709 116.936 201.709 116.896C201.729 116.776 201.739 116.656 201.739 116.536C201.759 116.416 201.769 116.296 201.769 116.176C201.789 116.136 201.799 116.086 201.799 116.026C201.879 115.826 201.909 115.756 201.889 115.816C201.889 115.856 201.909 115.836 201.949 115.756C201.989 115.736 202.009 115.716 202.009 115.696C202.009 115.676 202.019 115.656 202.039 115.636C202.059 115.616 202.079 115.606 202.099 115.606L202.129 115.966C202.129 115.986 202.119 116.016 202.099 116.056V116.176L202.009 116.866L201.919 117.376C201.919 117.456 201.909 117.536 201.889 117.616C201.869 117.676 201.859 117.746 201.859 117.826V117.976C201.859 118.036 201.869 118.086 201.889 118.126C201.929 118.206 201.959 118.256 201.979 118.276L202.039 118.336L202.099 118.396L202.219 118.456L202.369 118.516C202.449 118.736 202.479 118.856 202.459 118.876C202.459 118.895 202.442 118.879 202.408 118.829C202.402 118.815 202.396 118.803 202.391 118.793C202.376 118.751 202.369 118.739 202.369 118.756C202.374 118.762 202.382 118.774 202.391 118.793C202.393 118.8 202.396 118.808 202.399 118.816C202.402 118.821 202.405 118.825 202.408 118.829C202.434 118.89 202.471 118.985 202.519 119.116C202.539 119.196 202.549 119.296 202.549 119.416C202.569 119.536 202.599 119.566 202.639 119.506C202.719 119.406 202.749 119.296 202.729 119.176C202.709 119.036 202.719 118.906 202.759 118.786C202.779 118.766 202.799 118.776 202.819 118.816C202.859 118.836 202.879 118.856 202.879 118.876C202.919 119.076 202.899 119.296 202.819 119.536C202.759 119.776 202.819 119.936 202.999 120.016C203.099 120.056 203.139 120.006 203.119 119.866C203.119 119.726 203.099 119.566 203.059 119.386C203.039 119.206 203.059 119.066 203.119 118.966C203.159 118.866 203.169 118.926 203.149 119.146C203.129 119.366 203.159 119.496 203.239 119.536C203.299 119.576 203.329 119.546 203.329 119.446C203.329 119.326 203.339 119.236 203.359 119.176C203.399 119.096 203.419 119.026 203.419 118.966L203.479 118.726C203.579 118.666 203.629 118.626 203.629 118.606L203.659 118.576C203.699 118.616 203.729 118.666 203.749 118.726C203.769 118.786 203.799 118.806 203.839 118.786C203.859 118.786 203.879 118.756 203.899 118.696L203.959 118.816C203.979 118.816 203.989 118.826 203.989 118.846C204.009 118.846 204.019 118.856 204.019 118.876C204.119 119.196 204.159 119.386 204.139 119.446C204.119 119.486 204.139 119.606 204.199 119.806C204.199 119.826 204.219 119.836 204.259 119.836C204.299 119.836 204.319 119.826 204.319 119.806C204.479 119.506 204.539 119.326 204.499 119.266C204.479 119.186 204.449 119.136 204.409 119.116C204.389 119.096 204.439 119.036 204.559 118.936C204.599 118.916 204.629 118.886 204.649 118.846L204.739 118.756C204.759 118.736 204.769 118.716 204.769 118.696H204.799C204.799 118.676 204.809 118.666 204.829 118.666C204.869 118.926 204.889 119.206 204.889 119.506C204.889 119.786 204.899 120.066 204.919 120.346C204.939 120.486 204.949 120.696 204.949 120.976V121.666C204.969 121.846 204.999 121.866 205.039 121.726C205.259 121.506 205.359 121.246 205.339 120.946C205.339 120.646 205.289 120.356 205.189 120.076C205.109 119.816 205.049 119.626 205.009 119.506C204.989 119.366 205.079 119.346 205.279 119.446C205.359 119.506 205.439 119.496 205.519 119.416C205.599 119.376 205.639 119.336 205.639 119.296C205.679 119.556 205.679 119.816 205.639 120.076C205.599 120.356 205.639 120.606 205.759 120.826C205.819 120.926 205.849 120.906 205.849 120.766C205.869 120.626 205.879 120.446 205.879 120.226V119.746C205.899 119.586 205.919 119.416 205.939 119.236C205.959 119.056 205.979 118.886 205.999 118.726C206.019 118.726 206.049 118.706 206.089 118.666C206.189 118.626 206.269 118.576 206.329 118.516C206.389 118.456 206.439 118.396 206.479 118.336C206.539 118.296 206.589 118.246 206.629 118.186C206.649 118.166 206.679 118.116 206.719 118.036C206.779 117.876 206.809 117.726 206.809 117.586C206.829 117.566 206.839 117.546 206.839 117.526L206.929 116.656V116.596C206.949 116.556 206.959 116.526 206.959 116.506V116.416C206.979 116.376 206.989 116.346 206.989 116.326V116.206C207.009 116.166 207.019 116.136 207.019 116.116V115.906C207.039 115.786 207.049 115.766 207.049 115.846L207.109 115.876C207.129 115.856 207.159 116.046 207.199 116.446C207.219 116.586 207.219 116.776 207.199 117.016C207.199 117.256 207.239 117.326 207.319 117.226C207.419 117.066 207.449 116.886 207.409 116.686C207.389 116.486 207.399 116.286 207.439 116.086L207.499 116.146L207.559 116.206C207.619 116.226 207.649 116.226 207.649 116.206L207.739 116.266C207.819 116.286 207.909 116.286 208.009 116.266C208.089 116.386 208.179 116.446 208.279 116.446C208.399 116.406 208.479 116.366 208.519 116.326C208.559 116.266 208.589 116.136 208.609 115.936C208.649 115.896 208.679 115.856 208.699 115.816C208.719 115.856 208.739 115.876 208.759 115.876C208.799 115.856 208.819 115.816 208.819 115.756C208.839 115.696 208.859 115.646 208.879 115.606C208.979 115.566 209.009 115.586 208.969 115.666C208.949 115.726 208.949 115.746 208.969 115.726L208.909 116.116V116.206L208.729 117.376L208.669 117.676C208.649 117.776 208.649 117.876 208.669 117.976C208.669 117.996 208.689 118.046 208.729 118.126L208.819 118.276C208.899 118.416 208.979 118.546 209.059 118.666C209.159 118.786 209.249 118.896 209.329 118.996C209.349 119.016 209.369 119.046 209.389 119.086L209.449 119.206C209.469 119.226 209.489 119.266 209.509 119.326C209.529 119.386 209.549 119.406 209.569 119.386C209.609 119.286 209.629 119.186 209.629 119.086C209.629 118.986 209.639 118.886 209.659 118.786C209.679 118.806 209.689 118.826 209.689 118.846C209.789 119.006 209.879 119.176 209.959 119.356C210.059 119.536 210.149 119.716 210.229 119.896C210.269 119.996 210.309 120.106 210.349 120.226C210.409 120.346 210.459 120.466 210.499 120.586L210.679 121.036C210.739 121.176 210.809 121.316 210.889 121.456C210.989 121.616 211.109 121.686 211.249 121.666C211.329 121.666 211.409 121.606 211.489 121.486C211.569 121.406 211.629 121.316 211.669 121.216C211.729 121.116 211.779 121.006 211.819 120.886C211.859 120.846 211.889 120.796 211.909 120.736C211.929 120.676 211.949 120.626 211.969 120.586L212.029 120.466C212.129 120.246 212.239 120.026 212.359 119.806L212.719 119.146L212.809 118.996C212.829 118.956 212.839 118.926 212.839 118.906L212.899 118.846C212.939 118.846 212.989 118.796 213.049 118.696C213.129 118.576 213.179 118.496 213.199 118.456C213.219 118.416 213.239 118.386 213.259 118.366C213.299 118.346 213.329 118.326 213.349 118.306C213.369 118.286 213.379 118.266 213.379 118.246C213.399 118.206 213.429 118.176 213.469 118.156C213.509 118.116 213.529 118.056 213.529 117.976L213.559 117.946V117.916C213.579 117.856 213.589 117.796 213.589 117.736C213.589 117.656 213.599 117.596 213.619 117.556L213.799 116.296C213.799 116.216 213.809 116.126 213.829 116.026C213.849 115.926 213.859 115.866 213.859 115.846L213.889 115.606V115.636L213.919 115.666V115.726L214.099 116.176V116.296L214.129 116.326L214.219 116.626C214.319 116.906 214.409 117.186 214.489 117.466C214.589 117.746 214.709 118.016 214.849 118.276V118.306C214.869 118.306 214.879 118.316 214.879 118.336C214.959 118.456 215.029 118.536 215.089 118.576C215.109 118.636 215.119 118.696 215.119 118.756C215.139 118.816 215.159 118.866 215.179 118.906C215.259 118.986 215.309 118.996 215.329 118.936C215.369 118.896 215.389 118.846 215.389 118.786C215.409 118.726 215.429 118.676 215.449 118.636C215.509 118.596 215.579 118.516 215.659 118.396C215.859 118.076 215.989 117.836 216.049 117.676C216.129 117.496 216.239 117.206 216.379 116.806C216.419 116.646 216.469 116.496 216.529 116.356C216.589 116.196 216.639 116.046 216.679 115.906C216.699 115.846 216.709 115.786 216.709 115.726C216.729 115.646 216.749 115.576 216.769 115.516C216.869 115.496 216.969 115.406 217.069 115.246C217.089 115.206 217.119 115.126 217.159 115.006C217.199 114.806 217.199 114.616 217.159 114.436V112.036V111.526C217.179 111.346 217.169 111.186 217.129 111.046C217.069 110.886 216.979 110.776 216.859 110.716L216.799 110.656C216.779 110.636 216.739 110.626 216.679 110.626C216.559 110.586 216.469 110.566 216.409 110.566C216.269 110.546 216.129 110.546 215.989 110.566H215.659H214.759C214.679 110.586 214.639 110.576 214.639 110.536C214.659 110.496 214.669 110.466 214.669 110.446V110.266L214.789 109.486C214.809 109.466 214.819 109.436 214.819 109.396L214.879 109.066V108.856L214.939 108.616C214.959 108.556 214.969 108.496 214.969 108.436C214.969 108.376 214.979 108.316 214.999 108.256L215.029 107.986C215.049 107.986 215.089 108.016 215.149 108.076C215.309 108.216 215.469 108.296 215.629 108.316H215.689C215.769 108.336 215.839 108.356 215.899 108.376C215.959 108.376 216.029 108.386 216.109 108.406C216.209 108.406 216.309 108.416 216.409 108.436C216.509 108.456 216.609 108.456 216.709 108.436H216.829L216.949 108.376L217.009 108.316C217.049 108.296 217.069 108.296 217.069 108.316C217.109 108.456 217.119 108.616 217.099 108.796C217.079 108.956 217.109 109.106 217.189 109.246C217.229 109.326 217.249 109.296 217.249 109.156C217.269 108.996 217.289 108.886 217.309 108.826C217.349 108.666 217.379 108.516 217.399 108.376L217.519 107.956C217.639 107.896 217.729 107.806 217.789 107.686L217.849 107.626C217.909 107.526 217.939 107.406 217.939 107.266ZM207.831 110.566H209.749L209.779 110.266C209.799 110.226 209.809 110.166 209.809 110.086C209.849 109.826 209.889 109.576 209.929 109.336C209.969 109.076 210.009 108.836 210.049 108.616L210.109 108.106C210.149 108.026 210.159 107.986 210.139 107.986H210.049C210.029 107.986 209.999 107.996 209.959 108.016H209.899C209.759 108.036 209.619 108.066 209.479 108.106C209.359 108.126 209.219 108.136 209.059 108.136L208.459 108.046L208.219 107.986L208.189 108.226V108.286C208.169 108.326 208.159 108.376 208.159 108.436C208.159 108.476 208.149 108.526 208.129 108.586L208.069 108.946C208.069 109.066 208.049 109.186 208.009 109.306L207.919 110.056C207.939 109.996 207.929 110.076 207.889 110.296C207.856 110.46 207.837 110.55 207.831 110.566Z" fill="white"/>
<circle cx="140" cy="417" r="25" fill="white"/>
<circle cx="140" cy="215" r="25" fill="#D9D9D9"/>
<circle cx="67" cy="215" r="25" fill="#D9D9D9"/>
<circle cx="213" cy="215" r="25" fill="#D9D9D9"/>
<circle cx="140" cy="280" r="25" fill="#D9D9D9"/>
<circle cx="67" cy="280" r="25" fill="#D9D9D9"/>
<circle cx="213" cy="280" r="25" fill="#D9D9D9"/>
<circle cx="65" cy="347" r="25" fill="#D9D9D9"/>
<circle cx="212" cy="347" r="25" fill="#D9D9D9"/>
<circle cx="140" cy="347" r="25" fill="#D9D9D9"/>
<path d="M65.74 269.06H69.1V281.54H72.19L71.53 284H69.1V289.55H66.07V284H57.91V282.59L65.74 269.06ZM66.07 272.66L61.06 281.54H66.07V272.66Z" fill="black"/>
<path d="M61.35 219.6H64.77V210.21L61.32 211.23L60.72 209.58L65.88 207.09H67.74V219.6H71.01V222.03H61.35V219.6Z" fill="black"/>
<path d="M140.53 206.7C141.39 206.7 142.18 206.84 142.9 207.12C143.62 207.38 144.2 207.8 144.64 208.38C145.08 208.94 145.3 209.67 145.3 210.57C145.3 211.73 144.99 212.83 144.37 213.87C143.75 214.89 142.91 215.87 141.85 216.81C140.81 217.75 139.65 218.67 138.37 219.57H146.05L145.45 222.03H133.9V220.05C135.36 219.07 136.6 218.16 137.62 217.32C138.66 216.48 139.5 215.69 140.14 214.95C140.78 214.19 141.24 213.48 141.52 212.82C141.82 212.16 141.97 211.55 141.97 210.99C141.97 210.27 141.79 209.76 141.43 209.46C141.07 209.14 140.61 208.98 140.05 208.98C139.39 208.98 138.66 209.16 137.86 209.52C137.08 209.88 136.4 210.34 135.82 210.9L134.26 208.95C135.26 208.17 136.29 207.6 137.35 207.24C138.41 206.88 139.47 206.7 140.53 206.7Z" fill="black"/>
<path d="M214.66 205.67C215.98 205.67 217.01 205.96 217.75 206.54C218.51 207.1 218.89 207.91 218.89 208.97C218.89 209.75 218.71 210.5 218.35 211.22C218.01 211.94 217.51 212.61 216.85 213.23C216.19 213.85 215.42 214.43 214.54 214.97C215.26 214.97 215.97 215.13 216.67 215.45C217.39 215.75 217.98 216.21 218.44 216.83C218.92 217.45 219.16 218.25 219.16 219.23C219.16 220.15 218.99 220.98 218.65 221.72C218.33 222.46 217.87 223.11 217.27 223.67C216.69 224.25 216 224.74 215.2 225.14C214.42 225.56 213.56 225.9 212.62 226.16C211.7 226.42 210.73 226.61 209.71 226.73C208.71 226.85 207.7 226.91 206.68 226.91L206.53 225.41C207.67 225.33 208.79 225.18 209.89 224.96C211.01 224.74 212.01 224.4 212.89 223.94C213.79 223.48 214.5 222.87 215.02 222.11C215.56 221.37 215.83 220.45 215.83 219.35C215.83 218.39 215.55 217.68 214.99 217.22C214.43 216.76 213.74 216.53 212.92 216.53C212.64 216.53 212.34 216.56 212.02 216.62C211.72 216.68 211.41 216.76 211.09 216.86L210.31 215.3C210.99 215.02 211.65 214.66 212.29 214.22C212.93 213.78 213.51 213.3 214.03 212.78C214.55 212.26 214.96 211.72 215.26 211.16C215.56 210.6 215.71 210.04 215.71 209.48C215.71 209 215.58 208.63 215.32 208.37C215.06 208.09 214.65 207.95 214.09 207.95C213.45 207.95 212.75 208.13 211.99 208.49C211.23 208.85 210.61 209.31 210.13 209.87L208.63 207.86C209.51 207.14 210.49 206.6 211.57 206.24C212.65 205.86 213.68 205.67 214.66 205.67Z" fill="black"/>
<path d="M139.66 269.09H147.55L146.71 272.09H140.86L139.69 274.91C141.45 275.57 142.87 276.44 143.95 277.52C145.05 278.6 145.6 279.96 145.6 281.6C145.6 282.84 145.33 283.96 144.79 284.96C144.27 285.96 143.56 286.82 142.66 287.54C141.76 288.26 140.73 288.85 139.57 289.31C138.41 289.77 137.21 290.08 135.97 290.24L135.55 288.77C136.87 288.43 138.03 287.97 139.03 287.39C140.05 286.83 140.84 286.09 141.4 285.17C141.98 284.27 142.27 283.16 142.27 281.84C142.27 280.9 142.02 280.06 141.52 279.32C141.04 278.58 140.38 277.94 139.54 277.4C138.72 276.84 137.8 276.39 136.78 276.05L139.66 269.09Z" fill="black"/>
<path d="M61.05 339.09H72.57V340.62L64.14 359.61H60.6L69.63 341.79H60.3L61.05 339.09Z" fill="black"/>
<path d="M212.825 339.25C213.808 339.25 214.725 339.483 215.575 339.95C216.442 340.4 217.133 341.083 217.65 342C218.183 342.917 218.45 344.092 218.45 345.525C218.45 346.975 218.158 348.342 217.575 349.625C217.008 350.908 216.233 352.067 215.25 353.1C214.267 354.133 213.15 355.008 211.9 355.725C210.667 356.458 209.392 357 208.075 357.35L207.475 355.975C208.958 355.392 210.217 354.683 211.25 353.85C212.3 353.033 213.15 352.158 213.8 351.225C214.45 350.275 214.925 349.308 215.225 348.325C215.525 347.342 215.675 346.4 215.675 345.5C215.675 344.583 215.542 343.792 215.275 343.125C215.025 342.458 214.675 341.95 214.225 341.6C213.792 341.233 213.275 341.05 212.675 341.05C212.042 341.05 211.5 341.233 211.05 341.6C210.617 341.95 210.283 342.408 210.05 342.975C209.833 343.525 209.725 344.1 209.725 344.7C209.725 345.25 209.825 345.775 210.025 346.275C210.242 346.775 210.558 347.183 210.975 347.5C211.408 347.817 211.942 347.975 212.575 347.975C213.075 347.975 213.6 347.875 214.15 347.675C214.717 347.475 215.275 347.175 215.825 346.775L215.5 348.575C214.933 349.008 214.325 349.333 213.675 349.55C213.042 349.75 212.417 349.85 211.8 349.85C210.717 349.85 209.808 349.625 209.075 349.175C208.358 348.725 207.825 348.133 207.475 347.4C207.125 346.667 206.95 345.892 206.95 345.075C206.95 344.375 207.075 343.683 207.325 343C207.575 342.3 207.942 341.667 208.425 341.1C208.925 340.533 209.542 340.083 210.275 339.75C211.008 339.417 211.858 339.25 212.825 339.25Z" fill="black"/>
<path d="M140.62 337.1C141.5 337.1 142.33 337.27 143.11 337.61C143.91 337.95 144.55 338.47 145.03 339.17C145.53 339.85 145.78 340.72 145.78 341.78C145.78 342.8 145.48 343.81 144.88 344.81C144.28 345.81 143.36 346.71 142.12 347.51L140.56 346.13C141.4 345.63 142.02 345.01 142.42 344.27C142.84 343.51 143.05 342.76 143.05 342.02C143.05 341.36 142.94 340.82 142.72 340.4C142.5 339.96 142.21 339.64 141.85 339.44C141.49 339.22 141.09 339.11 140.65 339.11C140.21 339.11 139.79 339.23 139.39 339.47C139.01 339.69 138.7 340.03 138.46 340.49C138.22 340.95 138.1 341.52 138.1 342.2C138.1 342.9 138.25 343.49 138.55 343.97C138.87 344.45 139.29 344.89 139.81 345.29C140.33 345.67 140.88 346.08 141.46 346.52C142.06 346.92 142.65 347.34 143.23 347.78C143.83 348.22 144.38 348.71 144.88 349.25C145.38 349.77 145.78 350.38 146.08 351.08C146.4 351.78 146.56 352.59 146.56 353.51C146.56 354.81 146.25 355.9 145.63 356.78C145.01 357.64 144.21 358.28 143.23 358.7C142.25 359.12 141.22 359.33 140.14 359.33C139.12 359.33 138.15 359.13 137.23 358.73C136.33 358.33 135.59 357.73 135.01 356.93C134.45 356.13 134.17 355.14 134.17 353.96C134.17 353.12 134.33 352.34 134.65 351.62C134.97 350.88 135.45 350.19 136.09 349.55C136.75 348.89 137.55 348.26 138.49 347.66L139.96 349.1C139.16 349.58 138.54 350.1 138.1 350.66C137.68 351.2 137.39 351.74 137.23 352.28C137.07 352.82 136.99 353.35 136.99 353.87C136.99 354.63 137.13 355.27 137.41 355.79C137.71 356.29 138.09 356.67 138.55 356.93C139.03 357.17 139.53 357.29 140.05 357.29C140.61 357.29 141.13 357.16 141.61 356.9C142.09 356.64 142.48 356.25 142.78 355.73C143.08 355.19 143.23 354.54 143.23 353.78C143.23 353 143 352.33 142.54 351.77C142.1 351.21 141.54 350.69 140.86 350.21C140.18 349.73 139.48 349.22 138.76 348.68C138.08 348.18 137.44 347.65 136.84 347.09C136.26 346.51 135.78 345.85 135.4 345.11C135.04 344.37 134.86 343.51 134.86 342.53C134.86 341.35 135.14 340.36 135.7 339.56C136.28 338.74 137.01 338.13 137.89 337.73C138.77 337.31 139.68 337.1 140.62 337.1Z" fill="black"/>
<path d="M219.65 268.07L220.34 269.69C218.58 270.47 217.07 271.39 215.81 272.45C214.57 273.51 213.56 274.64 212.78 275.84C212 277.02 211.43 278.22 211.07 279.44C210.71 280.64 210.53 281.79 210.53 282.89C210.53 283.97 210.68 284.91 210.98 285.71C211.28 286.51 211.7 287.13 212.24 287.57C212.78 288.01 213.4 288.23 214.1 288.23C214.88 288.23 215.53 288.02 216.05 287.6C216.59 287.16 216.99 286.61 217.25 285.95C217.51 285.27 217.64 284.57 217.64 283.85C217.64 283.17 217.52 282.53 217.28 281.93C217.04 281.33 216.66 280.84 216.14 280.46C215.64 280.08 215 279.89 214.22 279.89C213.62 279.89 212.98 280.01 212.3 280.25C211.64 280.49 210.98 280.86 210.32 281.36L210.71 279.2C211.41 278.66 212.14 278.27 212.9 278.03C213.68 277.77 214.44 277.64 215.18 277.64C216.48 277.64 217.56 277.92 218.42 278.48C219.28 279.02 219.92 279.73 220.34 280.61C220.76 281.47 220.97 282.4 220.97 283.4C220.97 284.24 220.82 285.08 220.52 285.92C220.22 286.74 219.77 287.49 219.17 288.17C218.59 288.83 217.86 289.37 216.98 289.79C216.1 290.19 215.08 290.39 213.92 290.39C212.76 290.39 211.66 290.12 210.62 289.58C209.6 289.02 208.77 288.19 208.13 287.09C207.51 285.97 207.2 284.56 207.2 282.86C207.2 281.1 207.54 279.44 208.22 277.88C208.92 276.3 209.86 274.86 211.04 273.56C212.22 272.26 213.55 271.14 215.03 270.2C216.51 269.26 218.05 268.55 219.65 268.07Z" fill="black"/>
<path d="M139.76 408.73C141.32 408.73 142.63 409.07 143.69 409.75C144.75 410.41 145.55 411.33 146.09 412.51C146.65 413.69 146.93 415.04 146.93 416.56C146.93 418.04 146.62 419.37 146 420.55C145.4 421.73 144.54 422.67 143.42 423.37C142.32 424.05 140.99 424.39 139.43 424.39C137.89 424.39 136.58 424.05 135.5 423.37C134.44 422.67 133.63 421.73 133.07 420.55C132.53 419.37 132.26 418.04 132.26 416.56C132.26 415.02 132.56 413.66 133.16 412.48C133.76 411.3 134.62 410.38 135.74 409.72C136.86 409.06 138.2 408.73 139.76 408.73ZM139.61 410.83C138.81 410.83 138.14 411 137.6 411.34C137.08 411.68 136.66 412.13 136.34 412.69C136.02 413.25 135.79 413.87 135.65 414.55C135.53 415.21 135.47 415.88 135.47 416.56C135.47 417.24 135.53 417.92 135.65 418.6C135.79 419.28 136.01 419.89 136.31 420.43C136.61 420.97 137.03 421.41 137.57 421.75C138.11 422.09 138.79 422.26 139.61 422.26C140.43 422.26 141.1 422.09 141.62 421.75C142.16 421.41 142.58 420.97 142.88 420.43C143.18 419.89 143.39 419.28 143.51 418.6C143.63 417.92 143.69 417.24 143.69 416.56C143.69 415.88 143.63 415.2 143.51 414.52C143.39 413.84 143.18 413.23 142.88 412.69C142.58 412.13 142.16 411.68 141.62 411.34C141.08 411 140.41 410.83 139.61 410.83Z" fill="black"/>
<defs>
<filter id="filter0_d_482_37" x="0" y="0" width="277" height="489" filterUnits="userSpaceOnUse" color-interpolation-filters="sRGB">
<feFlood flood-opacity="0" result="BackgroundImageFix"/>
<feColorMatrix in="SourceAlpha" type="matrix" values="0 0 0 0 0 0 0 0 0 0 0 0 0 0 0 0 0 0 127 0" result="hardAlpha"/>
<feOffset dy="4"/>
<feGaussianBlur stdDeviation="2"/>
<feComposite in2="hardAlpha" operator="out"/>
<feColorMatrix type="matrix" values="0 0 0 0 0 0 0 0 0 0 0 0 0 0 0 0 0 0 0.25 0"/>
<feBlend mode="normal" in2="BackgroundImageFix" result="effect1_dropShadow_482_37"/>
<feBlend mode="normal" in="SourceGraphic" in2="effect1_dropShadow_482_37" result="shape"/>
</filter>
</defs>
</svg>
