<svg width="1028" height="1028" viewBox="0 0 1028 1028" fill="none" xmlns="http://www.w3.org/2000/svg">
<path d="M513.036 1026.12C795.874 1026.61 1025.55 797.716 1026.04 514.878C1026.52 232.04 797.63 2.36142 514.792 1.87643C231.954 1.39145 2.27555 230.284 1.79056 513.122C1.30558 795.96 230.198 1025.64 513.036 1026.12Z" fill="#800000" stroke="#FAF5E9" stroke-width="2"/>
<path d="M1025.04 514.876C1024.55 797.162 795.323 1025.61 513.038 1025.12C230.752 1024.64 2.30652 795.409 2.79056 513.124C3.2746 230.838 232.505 2.39239 514.791 2.87643C797.076 3.36047 1025.52 232.591 1025.04 514.876Z" fill="#710E22"/>
<path d="M1024.99 521.177C874.744 568.789 697.903 596.096 508.663 595.771C323.72 595.454 150.71 568.787 2.8613 522.655C2.80876 519.485 2.7851 516.307 2.79056 513.124C3.2746 230.838 232.505 2.39239 514.791 2.87643C797.076 3.36047 1025.52 232.591 1025.04 514.876C1025.03 516.98 1025.02 519.08 1024.99 521.177Z" fill="#FAF5E9"/>
<path d="M365.245 821.786L365.217 838.106L384.417 838.139L384.404 845.579L365.204 845.546L365.175 862.586L386.775 862.623L386.762 870.063L356.042 870.01L356.137 814.33L386.857 814.383L386.845 821.823L365.245 821.786ZM420.312 825.32C423.778 825.326 426.871 826.052 429.588 827.496C432.359 828.941 434.515 831.078 436.057 833.907C437.599 836.737 438.366 840.151 438.36 844.151L438.315 870.151L429.275 870.136L429.317 845.496C429.324 841.549 428.343 838.534 426.373 836.451C424.403 834.314 421.712 833.243 418.298 833.237C414.885 833.231 412.163 834.293 410.133 836.423C408.156 838.499 407.164 841.511 407.157 845.458L407.115 870.098L397.995 870.082L398.071 826.002L407.191 826.018L407.182 831.058C408.678 829.247 410.574 827.837 412.869 826.828C415.218 825.818 417.698 825.316 420.312 825.32ZM490.388 847.12C490.385 848.774 490.276 850.267 490.06 851.6L456.38 851.542C456.641 855.063 457.942 857.892 460.285 860.029C462.628 862.166 465.507 863.238 468.92 863.244C473.827 863.252 477.297 861.205 479.331 857.102L489.171 857.118C487.83 861.169 485.398 864.499 481.873 867.106C478.402 869.66 474.08 870.933 468.907 870.924C464.693 870.916 460.908 869.977 457.552 868.104C454.248 866.179 451.64 863.507 449.725 860.091C447.865 856.621 446.938 852.619 446.946 848.086C446.954 843.553 447.867 839.581 449.686 836.171C451.559 832.707 454.15 830.045 457.46 828.184C460.823 826.323 464.665 825.396 468.985 825.404C473.145 825.411 476.85 826.324 480.1 828.143C483.35 829.962 485.879 832.526 487.687 835.836C489.495 839.092 490.395 842.854 490.388 847.12ZM480.873 844.224C480.825 840.864 479.63 838.169 477.286 836.138C474.943 834.107 472.038 833.089 468.572 833.083C465.425 833.078 462.73 834.086 460.486 836.109C458.243 838.079 456.905 840.77 456.473 844.182L480.873 844.224ZM508.508 832.592C509.845 830.354 511.608 828.624 513.797 827.401C516.039 826.124 518.68 825.489 521.72 825.494L521.704 834.934L519.384 834.93C515.81 834.924 513.089 835.826 511.219 837.636C509.403 839.446 508.49 842.592 508.483 847.072L508.443 870.271L499.323 870.256L499.399 826.176L508.519 826.192L508.508 832.592ZM547.863 825.539C551.276 825.545 554.288 826.243 556.899 827.635C559.564 828.972 561.641 830.656 563.131 832.685L563.142 826.285L572.342 826.301L572.265 871.101C572.258 875.154 571.398 878.753 569.686 881.897C567.974 885.094 565.49 887.596 562.233 889.404C559.03 891.212 555.189 892.112 550.709 892.104C544.735 892.094 539.778 890.672 535.836 887.838C531.894 885.058 529.661 881.268 529.136 876.467L538.175 876.482C538.865 878.777 540.328 880.62 542.566 882.01C544.857 883.454 547.576 884.179 550.722 884.184C554.402 884.19 557.364 883.075 559.608 880.839C561.905 878.603 563.057 875.352 563.065 871.085L563.077 863.725C561.527 865.802 559.417 867.559 556.748 868.994C554.133 870.376 551.145 871.065 547.785 871.059C543.945 871.052 540.426 870.086 537.23 868.161C534.086 866.182 531.584 863.458 529.724 859.988C527.916 856.465 527.017 852.49 527.024 848.063C527.032 843.637 527.945 839.718 529.764 836.308C531.637 832.898 534.148 830.262 537.298 828.401C540.501 826.486 544.023 825.532 547.863 825.539ZM563.104 848.285C563.109 845.245 562.474 842.604 561.197 840.362C559.975 838.12 558.351 836.41 556.326 835.234C554.302 834.057 552.116 833.466 549.769 833.462C547.423 833.458 545.235 834.041 543.206 835.211C541.178 836.328 539.521 838.005 538.238 840.243C537.007 842.427 536.389 845.039 536.384 848.079C536.379 851.119 536.988 853.787 538.21 856.083C539.487 858.378 541.137 860.141 543.161 861.371C545.239 862.548 547.425 863.138 549.718 863.142C552.065 863.146 554.253 862.563 556.281 861.393C558.31 860.224 559.94 858.52 561.17 856.282C562.454 853.991 563.099 851.325 563.104 848.285ZM588.97 820.489C587.317 820.487 585.931 819.924 584.813 818.802C583.695 817.68 583.138 816.293 583.14 814.639C583.143 812.986 583.706 811.6 584.827 810.482C585.949 809.364 587.337 808.807 588.99 808.81C590.59 808.812 591.949 809.375 593.067 810.497C594.186 811.618 594.743 813.006 594.74 814.659C594.738 816.313 594.175 817.698 593.053 818.816C591.931 819.935 590.57 820.492 588.97 820.489ZM593.44 826.337L593.365 870.417L584.245 870.401L584.32 826.322L593.44 826.337ZM645.778 847.387C645.775 849.04 645.666 850.533 645.45 851.866L611.77 851.809C612.031 855.329 613.333 858.158 615.676 860.295C618.019 862.433 620.897 863.504 624.31 863.51C629.217 863.519 632.687 861.471 634.721 857.368L644.561 857.385C643.221 861.436 640.788 864.765 637.264 867.372C633.793 869.926 629.471 871.199 624.297 871.19C620.084 871.183 616.299 870.243 612.942 868.371C609.639 866.445 607.03 863.774 605.116 860.357C603.255 856.887 602.329 852.886 602.336 848.352C602.344 843.819 603.258 839.847 605.077 836.437C606.949 832.974 609.541 830.311 612.85 828.45C616.214 826.59 620.055 825.663 624.375 825.67C628.535 825.677 632.24 826.59 635.491 828.409C638.741 830.228 641.27 832.793 643.077 836.102C644.885 839.359 645.785 843.12 645.778 847.387ZM636.263 844.491C636.215 841.131 635.02 838.435 632.677 836.404C630.334 834.374 627.429 833.355 623.962 833.35C620.815 833.344 618.12 834.353 615.877 836.376C613.633 838.345 612.296 841.036 611.863 844.449L636.263 844.491ZM670.712 871.27C667.245 871.264 664.127 870.645 661.355 869.414C658.637 868.129 656.48 866.419 654.884 864.283C653.288 862.093 652.439 859.665 652.337 856.998L661.777 857.014C661.933 858.881 662.811 860.456 664.408 861.739C666.06 862.968 668.112 863.585 670.565 863.589C673.125 863.594 675.099 863.117 676.488 862.16C677.929 861.149 678.652 859.87 678.654 858.323C678.657 856.67 677.859 855.442 676.261 854.639C674.715 853.837 672.237 852.952 668.825 851.986C665.52 851.074 662.828 850.19 660.75 849.333C658.671 848.476 656.86 847.166 655.316 845.403C653.826 843.641 653.083 841.319 653.088 838.439C653.092 836.093 653.789 833.961 655.179 832.043C656.569 830.072 658.545 828.529 661.107 827.413C663.723 826.298 666.71 825.743 670.07 825.749C675.084 825.757 679.108 827.044 682.144 829.609C685.233 832.121 686.88 835.564 687.086 839.938L677.966 839.922C677.809 837.949 677.012 836.374 675.574 835.198C674.136 834.022 672.19 833.432 669.737 833.428C667.337 833.424 665.496 833.874 664.215 834.779C662.933 835.683 662.291 836.882 662.289 838.375C662.287 839.549 662.711 840.536 663.563 841.337C664.415 842.139 665.454 842.781 666.68 843.263C667.906 843.692 669.718 844.255 672.117 844.952C675.316 845.811 677.928 846.695 679.953 847.606C682.031 848.462 683.816 849.745 685.306 851.455C686.797 853.164 687.566 855.432 687.614 858.259C687.61 860.765 686.913 863.004 685.523 864.975C684.133 866.946 682.157 868.489 679.595 869.605C677.086 870.721 674.125 871.276 670.712 871.27Z" fill="#F68C2E"/>
<path d="M85.1534 656.558C85.1563 654.84 86.0888 653.982 87.9508 653.985L98.1558 654.003C102.202 654.01 105.314 655.716 107.493 659.121L124.849 685.953L142.244 659.181C144.47 655.783 147.588 654.087 151.598 654.094L161.857 654.112C163.683 654.115 164.595 654.976 164.592 656.695C164.59 657.482 164.302 658.323 163.728 659.218L134.917 703.587L134.878 726.146C134.875 727.542 134.372 728.723 133.368 729.688C132.4 730.617 131.217 731.081 129.821 731.078L119.723 731.061C118.326 731.059 117.128 730.591 116.127 729.659C115.126 728.69 114.626 727.508 114.629 726.111L114.668 703.552L86.0621 659.084C85.455 658.188 85.152 657.346 85.1534 656.558ZM241.66 723.321C234.345 729.718 223.597 732.904 209.417 732.88C195.273 732.856 184.537 729.633 177.207 723.211C169.878 716.753 166.225 706.559 166.249 692.63C166.273 678.701 169.96 668.538 177.312 662.141C184.663 655.744 195.411 652.558 209.555 652.582C223.735 652.607 234.471 655.83 241.765 662.252C249.094 668.674 252.747 678.849 252.723 692.778C252.699 706.707 249.012 716.888 241.66 723.321ZM227.082 673.56C223.473 669.257 217.622 667.098 209.53 667.084C201.473 667.07 195.615 669.209 191.956 673.499C188.332 677.79 186.512 684.196 186.498 692.719C186.483 701.205 188.281 707.6 191.89 711.903C195.535 716.17 201.386 718.311 209.442 718.324C217.535 718.338 223.393 716.218 227.017 711.963C230.64 707.672 232.46 701.284 232.474 692.797C232.489 684.275 230.692 677.863 227.082 673.56Z" fill="#F68C2E"/>
<path d="M295.957 726.422L309.526 675.312C313.202 661.39 325.102 654.428 345.226 654.426L374.176 654.476C375.501 654.478 376.592 654.981 377.45 655.985C378.343 656.99 378.789 658.154 378.786 659.479L378.671 726.564C378.669 727.96 378.166 729.141 377.161 730.106C376.157 731.035 374.957 731.499 373.56 731.496L363.463 731.479C361.995 731.477 360.778 731.009 359.813 730.076C358.884 729.108 358.42 727.89 358.423 726.422L358.446 712.887L320.257 712.821L316.636 726.35C316.275 727.817 315.467 729.034 314.212 729.998C312.957 730.927 311.632 731.39 310.235 731.388L299.654 731.37C298.258 731.367 297.256 730.972 296.649 730.183C296.041 729.358 295.738 728.642 295.739 728.033C295.776 727.424 295.849 726.887 295.957 726.422ZM324.258 697.628L358.472 697.686L358.52 669.649L343.212 669.623C339.775 669.617 336.765 670.597 334.184 672.562C331.638 674.491 329.915 677.102 329.014 680.395L324.258 697.628ZM394.033 726.59L394.147 659.72C394.15 658.252 394.653 657.018 395.658 656.017C396.662 655.016 397.862 654.517 399.259 654.519L429.283 654.57C444.824 654.597 456.115 657.732 463.159 663.974C470.238 670.181 473.766 679.927 473.743 693.211C473.721 706.46 470.159 716.175 463.059 722.358C455.994 728.54 444.692 731.618 429.151 731.592L399.127 731.54C397.73 731.538 396.532 731.07 395.531 730.138C394.53 729.169 394.03 727.987 394.033 726.59ZM414.299 716.366L428.586 716.391C438.219 716.407 444.774 714.664 448.254 711.161C451.733 707.657 453.48 701.663 453.494 693.176C453.509 684.654 451.783 678.636 448.315 675.121C444.848 671.57 438.299 669.786 428.666 669.77L414.379 669.745L414.299 716.366ZM476.971 659.164C476.757 658.734 476.65 658.268 476.651 657.767C476.652 657.23 476.975 656.586 477.621 655.835C478.303 655.048 479.252 654.656 480.47 654.658L492.232 654.678C495.025 654.683 497.153 656.388 498.615 659.792L519.322 706.126L540.187 659.863C541.661 656.5 543.795 654.803 546.588 654.772L558.35 654.792C559.604 654.794 560.552 655.189 561.195 655.978C561.838 656.731 562.159 657.376 562.159 657.913C562.158 658.415 562.067 658.88 561.888 659.309L530.835 726.288C529.146 729.937 526.583 731.759 523.145 731.753L515.411 731.74C511.973 731.734 509.416 729.903 507.74 726.248L476.971 659.164ZM559.677 726.874L573.246 675.765C576.922 661.842 588.822 654.88 608.946 654.878L637.896 654.928C639.221 654.93 640.312 655.434 641.17 656.438C642.063 657.442 642.509 658.606 642.507 659.931L642.392 727.016C642.389 728.412 641.886 729.593 640.882 730.558C639.878 731.488 638.677 731.951 637.281 731.949L627.183 731.931C625.715 731.929 624.498 731.461 623.533 730.529C622.604 729.56 622.14 728.342 622.143 726.874L622.166 713.339L583.978 713.273L580.356 726.802C579.995 728.27 579.188 729.486 577.933 730.45C576.678 731.379 575.352 731.842 573.956 731.84L563.375 731.822C561.978 731.82 560.976 731.424 560.369 730.635C559.762 729.811 559.458 729.094 559.459 728.485C559.496 727.876 559.569 727.339 559.677 726.874ZM587.978 698.08L622.192 698.139L622.24 670.101L606.933 670.075C603.495 670.069 600.486 671.049 597.904 673.014C595.359 674.943 593.635 677.554 592.735 680.847L587.978 698.08ZM657.753 726.935L657.868 660.065C657.87 658.668 658.356 657.47 659.324 656.469C660.293 655.468 661.475 654.969 662.872 654.971L678.663 654.998C679.916 655 681.24 655.504 682.635 656.509C684.03 657.514 685.173 658.715 686.066 660.113L718.422 710.066L718.508 660.061C718.51 658.665 718.995 657.484 719.964 656.519C720.968 655.554 722.169 655.073 723.565 655.075L732.803 655.091C734.2 655.093 735.381 655.579 736.346 656.547C737.347 657.516 737.846 658.734 737.843 660.202L737.729 727.072C737.726 728.469 737.223 729.667 736.219 730.668C735.25 731.633 734.068 732.115 732.671 732.112L714.839 732.082C713.443 732.079 712.011 731.593 710.545 730.624C709.078 729.619 707.917 728.417 707.06 727.019L677.437 680.885L677.358 726.969C677.355 728.365 676.852 729.564 675.848 730.565C674.879 731.53 673.697 732.011 672.3 732.009L662.847 731.992C661.451 731.99 660.252 731.505 659.251 730.536C658.25 729.532 657.751 728.331 657.753 726.935ZM758.683 723.08C752.069 716.73 748.774 706.931 748.797 693.683C748.819 680.398 752.148 670.593 758.784 664.266C765.455 657.904 775.433 654.734 788.717 654.757L800.695 654.778C808.823 654.791 815.999 656.916 822.222 661.152C828.481 665.388 831.604 671.177 831.591 678.517C831.588 680.63 830.959 682.15 829.704 683.079C828.449 683.972 827.231 684.418 826.049 684.416L819.657 684.405C816.363 684.399 813.806 682.425 811.987 678.483C809.347 672.821 804.947 669.985 798.789 669.975L789.228 669.958C781.386 669.945 776.066 671.618 773.267 674.98C770.469 678.341 769.061 684.569 769.046 693.664C769.03 702.759 770.416 709.01 773.203 712.416C775.99 715.787 781.305 717.479 789.147 717.492L799.835 717.511C805.994 717.521 810.385 714.7 813.009 709.047C814.842 705.075 817.423 703.092 820.753 703.098L827.145 703.109C828.828 703.112 830.152 703.741 831.116 704.996C832.117 706.251 832.616 707.612 832.613 709.08C832.601 716.421 829.475 722.198 823.238 726.413C817 730.592 809.817 732.674 801.689 732.66L788.583 732.638C775.299 732.615 765.332 729.429 758.683 723.08ZM843.056 727.145L843.171 660.275C843.173 658.879 843.676 657.698 844.681 656.733C845.685 655.768 846.885 655.286 848.282 655.289L910.21 655.395C911.607 655.397 912.787 655.901 913.753 656.905C914.753 657.909 915.253 659.11 915.25 660.506L915.242 665.555C915.239 666.952 914.736 668.15 913.732 669.151C912.763 670.116 911.581 670.598 910.184 670.595L863.402 670.515L863.375 686.145L903.658 686.214C905.055 686.216 906.236 686.72 907.201 687.724C908.202 688.692 908.701 689.875 908.699 691.271L908.69 696.32C908.687 697.717 908.184 698.915 907.18 699.916C906.211 700.881 905.029 701.363 903.632 701.36L863.349 701.291L863.322 717.136L909.997 717.216C911.357 717.218 912.52 717.704 913.486 718.672C914.451 719.641 914.932 720.823 914.93 722.22L914.921 727.376C914.918 728.772 914.415 729.971 913.411 730.972C912.406 731.937 911.206 732.418 909.81 732.416L848.15 732.31C846.753 732.308 845.554 731.822 844.553 730.854C843.553 729.85 843.053 728.613 843.056 727.145Z" fill="#FAF5E9"/>
<rect x="861.659" y="408.161" width="102.225" height="40.8899" transform="rotate(-14.9018 861.659 408.161)" fill="#710E22"/>
<rect x="769.979" y="220.468" width="61.3349" height="23.806" transform="rotate(-44.9018 769.979 220.468)" fill="#1E2E40"/>
<rect x="193.983" y="176.109" width="61.3349" height="23.806" transform="rotate(45.0982 193.983 176.109)" fill="#1E2E40"/>
<rect x="74.9377" y="380.355" width="102.225" height="40.8899" transform="rotate(15.0982 74.9377 380.355)" fill="#F68C2E"/>
<rect x="494.047" y="176.623" width="102.225" height="40.8899" transform="rotate(-89.9018 494.047 176.623)" fill="#1E2E40"/>
<path d="M458.63 338.206C458.632 336.681 459.274 335.219 460.415 334.143C461.555 333.066 463.099 332.463 464.709 332.466L525.405 332.57C527.015 332.573 528.558 333.181 529.694 334.262C530.831 335.342 531.468 336.806 531.465 338.331L531.366 395.832C531.364 397.357 530.722 398.819 529.582 399.895C528.441 400.971 526.897 401.575 525.287 401.572L464.591 401.468C462.981 401.465 461.438 400.857 460.302 399.776C459.166 398.696 458.529 397.232 458.531 395.707L458.63 338.206Z" fill="#1E2E40"/>
<path d="M434.362 332.414C434.373 326.314 436.941 320.468 441.501 316.162C446.062 311.857 452.241 309.444 458.68 309.455L531.515 309.58C537.954 309.591 544.126 312.025 548.671 316.346C553.217 320.667 555.765 326.522 555.754 332.622L555.597 424.624C562.036 424.635 568.207 427.069 572.752 431.39C577.298 435.712 579.846 441.566 579.835 447.667L579.826 453.417C579.823 454.942 580.46 456.405 581.596 457.486C582.733 458.566 584.276 459.174 585.885 459.177C587.495 459.18 589.04 458.577 590.18 457.5C591.32 456.424 591.962 454.963 591.965 453.438L592.054 401.686L585.984 401.676C584.374 401.673 582.831 401.065 581.695 399.984C580.559 398.904 579.922 397.44 579.924 395.915L579.986 359.977C579.988 358.452 580.63 356.99 581.771 355.914C582.911 354.838 584.456 354.234 586.065 354.237L604.213 354.268C604.089 348.794 603.588 343.986 601.797 340.211C600.839 338.016 599.167 336.168 597.024 334.935C594.792 333.667 591.395 332.683 586.102 332.674C584.493 332.671 582.95 332.063 581.813 330.983C580.677 329.902 580.04 328.439 580.043 326.914C580.045 325.389 580.687 323.927 581.827 322.851C582.967 321.774 584.512 321.171 586.122 321.174C592.968 321.186 598.672 322.46 603.256 325.067C607.901 327.697 610.941 331.417 612.877 335.515C616.445 343.053 616.417 352.369 616.404 359.453L616.342 395.966C616.342 396.722 616.185 397.471 615.879 398.169C615.574 398.868 615.126 399.502 614.561 400.037C613.997 400.571 613.326 400.994 612.589 401.283C611.851 401.571 611.06 401.719 610.262 401.717L604.193 401.707L604.104 453.458C604.096 458.033 602.17 462.418 598.75 465.647C595.329 468.876 590.695 470.686 585.866 470.678C581.036 470.669 576.408 468.844 572.999 465.603C569.589 462.362 567.679 457.971 567.686 453.396L567.696 447.646C567.702 444.596 566.428 441.668 564.155 439.508C561.882 437.347 558.796 436.13 555.577 436.125L555.498 482.126L561.568 482.136C563.177 482.139 564.72 482.747 565.857 483.828C566.993 484.908 567.63 486.372 567.627 487.897C567.625 489.422 566.983 490.883 565.843 491.96C564.702 493.036 563.158 493.639 561.548 493.636L428.017 493.407C426.407 493.405 424.864 492.796 423.728 491.716C422.591 490.636 421.954 489.172 421.957 487.647C421.96 486.122 422.602 484.66 423.742 483.584C424.882 482.508 426.427 481.904 428.036 481.907L434.106 481.918L434.362 332.414ZM543.615 332.601C543.62 329.551 542.346 326.624 540.074 324.463C537.801 322.303 534.715 321.086 531.496 321.08L458.661 320.955C455.441 320.95 452.351 322.156 450.071 324.309C447.791 326.462 446.507 329.385 446.502 332.435L446.245 481.938L543.359 482.105L543.615 332.601Z" fill="#1E2E40"/>
</svg>
