<svg width="848" height="535" viewBox="0 0 848 535" fill="none" xmlns="http://www.w3.org/2000/svg">
<rect x="0.5" y="0.5" width="847" height="534" fill="#9f4d59" fill-opacity="0.06" stroke="#730D23"/>
<g opacity="0.3">
<path d="M282.33 114.49H207.26L208.02 100H283.09L282.33 114.49Z" stroke="#730D23" stroke-linecap="round" stroke-linejoin="round"/>
<path d="M282.33 134.78H207.26L208.02 120.29H283.09L282.33 134.78Z" stroke="#730D23" stroke-linecap="round" stroke-linejoin="round"/>
<path d="M282.33 155.07H207.26L208.02 140.58H283.09L282.33 155.07Z" stroke="#730D23" stroke-linecap="round" stroke-linejoin="round"/>
<path d="M282.33 175.36H207.26L208.02 160.87H283.09L282.33 175.36Z" stroke="#730D23" stroke-linecap="round" stroke-linejoin="round"/>
<path d="M282.33 195.66H207.26L208.02 181.16H283.09L282.33 195.66Z" stroke="#730D23" stroke-linecap="round" stroke-linejoin="round"/>
<path d="M282.33 215.95H207.26L208.02 201.45H283.09L282.33 215.95Z" stroke="#730D23" stroke-linecap="round" stroke-linejoin="round"/>
<path d="M282.33 236.24H207.26L208.02 221.74H283.09L282.33 236.24Z" stroke="#730D23" stroke-linecap="round" stroke-linejoin="round"/>
<path d="M282.33 256.53H207.26L208.02 242.03H283.09L282.33 256.53Z" stroke="#730D23" stroke-linecap="round" stroke-linejoin="round"/>
<path d="M282.33 276.82H207.26L208.02 262.32H283.09L282.33 276.82Z" stroke="#730D23" stroke-linecap="round" stroke-linejoin="round"/>
<path d="M282.33 297.11H207.26L208.02 282.61H283.09L282.33 297.11Z" stroke="#730D23" stroke-linecap="round" stroke-linejoin="round"/>
<path d="M282.33 317.4H207.26L208.02 302.91H283.09L282.33 317.4Z" stroke="#730D23" stroke-linecap="round" stroke-linejoin="round"/>
<path d="M361.71 114.49H286.64L287.4 100H362.47L361.71 114.49Z" stroke="#730D23" stroke-linecap="round" stroke-linejoin="round"/>
<path d="M361.71 134.78H286.64L287.4 120.29H362.47L361.71 134.78Z" stroke="#730D23" stroke-linecap="round" stroke-linejoin="round"/>
<path d="M361.71 155.07H286.64L287.4 140.58H362.47L361.71 155.07Z" stroke="#730D23" stroke-linecap="round" stroke-linejoin="round"/>
<path d="M361.71 175.36H286.64L287.4 160.87H362.47L361.71 175.36Z" stroke="#730D23" stroke-linecap="round" stroke-linejoin="round"/>
<path d="M361.71 195.66H286.64L287.4 181.16H362.47L361.71 195.66Z" stroke="#730D23" stroke-linecap="round" stroke-linejoin="round"/>
<path d="M361.71 215.95H286.64L287.4 201.45H362.47L361.71 215.95Z" stroke="#730D23" stroke-linecap="round" stroke-linejoin="round"/>
<path d="M361.71 236.24H286.64L287.4 221.74H362.47L361.71 236.24Z" stroke="#730D23" stroke-linecap="round" stroke-linejoin="round"/>
<path d="M361.71 256.53H286.64L287.4 242.03H362.47L361.71 256.53Z" stroke="#730D23" stroke-linecap="round" stroke-linejoin="round"/>
<path d="M361.71 276.82H286.64L287.4 262.32H362.47L361.71 276.82Z" stroke="#730D23" stroke-linecap="round" stroke-linejoin="round"/>
<path d="M361.71 297.11H286.64L287.4 282.61H362.47L361.71 297.11Z" stroke="#730D23" stroke-linecap="round" stroke-linejoin="round"/>
<path d="M361.71 317.4H286.64L287.4 302.91H362.47L361.71 317.4Z" stroke="#730D23" stroke-linecap="round" stroke-linejoin="round"/>
</g>
<g opacity="0.3">
<path d="M592.54 129.49H495.64V202.8H592.54V129.49Z" stroke="#730D23" stroke-linecap="round" stroke-linejoin="round"/>
<path d="M587.27 135.55H500.89V196.75H587.27V135.55Z" stroke="#730D23" stroke-linecap="round" stroke-linejoin="round"/>
<path d="M529.06 145.19H559.11" stroke="#730D23" stroke-linecap="round" stroke-linejoin="round"/>
<path d="M509.6 154.07H578.57" stroke="#730D23" stroke-linecap="round" stroke-linejoin="round"/>
<path d="M524.97 171.82H563.2" stroke="#730D23" stroke-linecap="round" stroke-linejoin="round"/>
<path d="M510.28 189.58H525.31" stroke="#730D23" stroke-linecap="round" stroke-linejoin="round"/>
<path d="M562.86 189.58H577.88" stroke="#730D23" stroke-linecap="round" stroke-linejoin="round"/>
</g>
<g opacity="0.3">
<path d="M618.85 218.26H547.53V272.22H618.85V218.26Z" stroke="#730D23" stroke-linecap="round" stroke-linejoin="round"/>
<path d="M614.98 222.72H551.4V267.77H614.98V222.72Z" stroke="#730D23" stroke-linecap="round" stroke-linejoin="round"/>
<path d="M572.14 229.82H594.25" stroke="#730D23" stroke-linecap="round" stroke-linejoin="round"/>
<path d="M557.81 236.35H608.58" stroke="#730D23" stroke-linecap="round" stroke-linejoin="round"/>
<path d="M569.12 249.42H597.27" stroke="#730D23" stroke-linecap="round" stroke-linejoin="round"/>
<path d="M558.31 262.49H569.37" stroke="#730D23" stroke-linecap="round" stroke-linejoin="round"/>
<path d="M597.01 262.49H608.07" stroke="#730D23" stroke-linecap="round" stroke-linejoin="round"/>
</g>
<path d="M641.54 402.11H185" stroke="#730D23" stroke-linecap="round" stroke-linejoin="round"/>
<path d="M641.54 411.67H185" stroke="#730D23" stroke-linecap="round" stroke-linejoin="round"/>
<path d="M616.53 296.66H519.73C518.203 296.659 516.726 297.208 515.571 298.207C514.415 299.206 513.659 300.588 513.44 302.1L498.96 401.1H614.07L622.86 303.56C622.936 302.683 622.829 301.799 622.546 300.965C622.262 300.132 621.808 299.366 621.213 298.717C620.618 298.068 619.894 297.55 619.088 297.196C618.282 296.842 617.411 296.659 616.53 296.66Z" fill="#321017" stroke="#730D23" stroke-linecap="round" stroke-linejoin="round"/>
<path d="M485.45 280.5C485.45 280.5 459.26 293.5 450.27 297.09C441.28 300.68 439.07 302.29 438.27 304.49C437.47 306.69 402.49 361.66 398.5 366.66C394.51 371.66 385.9 382.45 387.1 389.84C388.3 397.23 397.9 403.64 407.1 403.44C416.3 403.24 422.1 401.44 423.1 398.84C424.1 396.24 449.49 350.84 449.49 350.84L457.49 401.41H559.64C559.64 401.41 567.64 332.25 567.64 322.05C567.64 311.85 569.64 299.86 565.44 297.26C561.24 294.66 543.85 288.67 531.05 284.47C518.25 280.27 514.26 279.47 511.27 279.47C508.28 279.47 485.45 280.5 485.45 280.5Z" fill="white" stroke="#730D23" stroke-linecap="round" stroke-linejoin="round"/>
<path d="M482.68 280.86C482.68 280.86 479.28 287.26 479.08 292.46C478.88 297.66 478.08 307.25 475.08 313.05C472.08 318.85 469.88 322.05 471.48 321.44C473.08 320.83 482.27 310.65 483.27 308.44C484.27 306.23 485.87 310.44 485.87 310.44C485.87 310.44 482.87 319.03 482.47 320.23C482.07 321.43 495.06 338.02 495.06 338.02C495.06 338.02 506.26 329.23 508.86 327.23C511.46 325.23 510.66 323.63 510.86 321.03C511.06 318.43 511.86 314.64 513.25 312.44C514.64 310.24 518.66 318.86 521.45 322.86C524.24 326.86 527.05 328.26 526.65 325.26C526.25 322.26 524.85 316.46 523.85 306.26C522.85 296.06 523.05 283.87 520.45 280.07C517.85 276.27 504.21 275.52 495.26 274.88C492.814 274.607 490.341 275.022 488.118 276.079C485.896 277.135 484.012 278.791 482.68 280.86Z" fill="white" stroke="#730D23" stroke-linecap="round" stroke-linejoin="round"/>
<path d="M442.3 314.91L449.5 350.87L440.2 326.96" stroke="#730D23" stroke-linecap="round" stroke-linejoin="round"/>
<path d="M483.68 290.5C483.68 290.5 486.48 306.09 489.08 318.08C490.51 324.905 492.517 331.595 495.08 338.08C495.08 338.08 508.28 315.89 512.08 304.3C514.238 297.905 515.91 291.357 517.08 284.71H483.68V290.5Z" stroke="#730D23" stroke-linecap="round" stroke-linejoin="round"/>
<path d="M498.27 295.86L491.08 304.86L496.08 314.46L491.16 326.37C492.245 330.331 493.554 334.227 495.08 338.04C495.08 338.04 499.2 331.12 503.49 323.04L499.88 314.71L504.28 304.71L498.27 295.86Z" fill="#9f4d59" stroke="#730D23" stroke-linecap="round" stroke-linejoin="round"/>
<path d="M483.68 284.7V290.5C483.68 290.5 485.61 301.26 487.75 311.77L497.87 301.09L508.54 312.91C509.875 310.104 511.053 307.226 512.07 304.29C514.228 297.895 515.9 291.347 517.07 284.7H483.68Z" fill="white" stroke="#730D23" stroke-linecap="round" stroke-linejoin="round"/>
<path d="M396.53 372.58C396.53 372.58 415.2 365.76 425.27 382.35" stroke="#730D23" stroke-linecap="round" stroke-linejoin="round"/>
<path d="M425.6 377.23C425.6 377.23 415.17 379.59 409.6 388.48C404.03 397.37 415.36 398.36 418.49 398.36C421.62 398.36 424.58 396.26 424.75 395.17C424.92 394.08 429.02 383.54 428.86 381.08C428.841 380.161 428.507 379.277 427.913 378.576C427.32 377.875 426.503 377.4 425.6 377.23Z" fill="white" stroke="#730D23" stroke-linecap="round" stroke-linejoin="round"/>
<path d="M420.8 380.91C420.8 380.91 415.03 385.91 415.42 387.91C415.81 389.91 424.37 397.61 426.02 396.5C426.318 396.349 426.583 396.14 426.8 395.886C427.016 395.632 427.181 395.338 427.284 395.02C427.387 394.702 427.427 394.368 427.4 394.035C427.374 393.702 427.282 393.377 427.13 393.08C426.66 392.33 420.8 380.91 420.8 380.91Z" fill="white" stroke="#730D23" stroke-linecap="round" stroke-linejoin="round"/>
<path d="M415.45 387.86C415.45 387.86 412.06 391.47 413.17 393.12C414.28 394.77 422.03 398.98 424.04 397.71C426.05 396.44 424.75 395.14 424.75 395.14L415.45 387.86Z" fill="white" stroke="#730D23" stroke-linecap="round" stroke-linejoin="round"/>
<path d="M435.31 380.72L428.37 379.52L430 389.51L437.09 389.73L435.31 380.72Z" fill="white" stroke="#730D23" stroke-linecap="round" stroke-linejoin="round"/>
<path d="M422.82 365.01L430.95 393.5L434.9 397.09V392.02L426.3 364.02C426.23 363.787 426.113 363.571 425.957 363.384C425.801 363.197 425.609 363.044 425.392 362.934C425.175 362.824 424.938 362.758 424.696 362.742C424.453 362.726 424.209 362.759 423.98 362.84C423.549 362.989 423.19 363.295 422.975 363.697C422.759 364.1 422.704 364.569 422.82 365.01Z" fill="#321017" stroke="#730D23" stroke-linecap="round" stroke-linejoin="round"/>
<path d="M425.6 377.23C425.6 377.23 420.8 380.04 421.28 382.17C421.76 384.3 426.94 394.26 428.81 394.39C430.68 394.52 431.81 393.39 431.54 391.23C431.27 389.07 429.54 381.23 428.37 379.52C427.2 377.81 427.07 377.13 425.6 377.23Z" fill="white" stroke="#730D23" stroke-linecap="round" stroke-linejoin="round"/>
<path d="M435.31 380.72C435.31 380.72 440.42 381.36 441.31 382.92C442.2 384.48 438.63 390.7 437.49 392.12C436.35 393.54 434.31 393.48 434.25 389.88C434.346 386.802 434.701 383.738 435.31 380.72Z" fill="white" stroke="#730D23" stroke-linecap="round" stroke-linejoin="round"/>
<path d="M407.67 392.75H463.74C465.306 392.753 466.808 393.376 467.916 394.484C469.024 395.592 469.647 397.093 469.65 398.66C469.65 399.986 469.123 401.258 468.185 402.196C467.248 403.133 465.976 403.66 464.65 403.66H408.45C407.23 403.66 406.06 403.175 405.197 402.313C404.335 401.45 403.85 400.28 403.85 399.06V396.56C403.85 396.059 403.949 395.563 404.141 395.1C404.333 394.637 404.614 394.216 404.969 393.862C405.324 393.508 405.745 393.228 406.209 393.037C406.672 392.846 407.169 392.749 407.67 392.75Z" fill="white" stroke="#730D23" stroke-linecap="round" stroke-linejoin="round"/>
<path d="M507.45 379.86C507.45 379.86 492.86 378.26 489.26 377.06C485.66 375.86 479.86 374.86 477.86 376.46C475.86 378.06 466.07 389.46 465.86 390.85C465.65 392.24 463.66 396.85 464.66 398.05C465.498 398.886 466.528 399.504 467.66 399.85C467.66 399.85 480.66 403.45 482.05 403.65C483.44 403.85 496.84 403.25 496.84 403.25L503.84 400.65L513.63 400.45C513.63 400.45 513.83 403.65 514.03 395.85C514.23 388.05 507.45 379.86 507.45 379.86Z" fill="white" stroke="#730D23" stroke-linecap="round" stroke-linejoin="round"/>
<path d="M467.69 399.86C467.69 399.86 467.89 395.26 468.89 393.26C469.89 391.26 481.28 381.07 481.28 381.07" stroke="#730D23" stroke-linecap="round" stroke-linejoin="round"/>
<path d="M471.45 401.04C471.45 401.04 473.45 396.04 474.25 395.64C475.05 395.24 484.44 389.24 484.44 389.24" stroke="#730D23" stroke-linecap="round" stroke-linejoin="round"/>
<path d="M478.28 402.44C478.28 402.44 478.68 400.44 479.68 400.04C480.68 399.64 489.08 395.84 489.08 395.84" stroke="#730D23" stroke-linecap="round" stroke-linejoin="round"/>
<path d="M487.28 403.44L491.08 402.44L490.68 400.64L486.68 401.64" stroke="#730D23" stroke-linecap="round" stroke-linejoin="round"/>
<path d="M553.24 315.48C553.24 315.48 542.65 337.67 543.24 345.48C543.83 353.29 546.45 366.26 546.45 366.26C546.45 366.26 529.66 372.85 523.86 375.26C518.06 377.67 507.45 379.86 507.45 379.86L512.84 401.05L512.05 403.25H570.21C570.21 403.25 574.61 402.45 575.41 401.45C576.21 400.45 577.01 400.05 577.41 396.85C577.81 393.65 580.41 365.67 579.81 357.85C579.21 350.03 571.01 309.48 570.01 305.28C569.01 301.08 567.22 298.28 565.42 297.28C563.62 296.28 555.82 295.49 555.82 295.49" fill="white"/>
<path d="M553.24 315.48C553.24 315.48 542.65 337.67 543.24 345.48C543.83 353.29 546.45 366.26 546.45 366.26C546.45 366.26 529.66 372.85 523.86 375.26C518.06 377.67 507.45 379.86 507.45 379.86L512.84 401.05L512.05 403.25H570.21C570.21 403.25 574.61 402.45 575.41 401.45C576.21 400.45 577.01 400.05 577.41 396.85C577.81 393.65 580.41 365.67 579.81 357.85C579.21 350.03 571.01 309.48 570.01 305.28C569.01 301.08 567.22 298.28 565.42 297.28C563.62 296.28 555.82 295.49 555.82 295.49" stroke="#730D23" stroke-linecap="round" stroke-linejoin="round"/>
<path d="M547.85 366.66C547.85 366.66 563.24 367.46 570.85 372.25" stroke="#730D23" stroke-linecap="round" stroke-linejoin="round"/>
<path d="M550.64 364.66C550.64 364.66 561.44 364.06 567.24 365.86" stroke="#730D23" stroke-linecap="round" stroke-linejoin="round"/>
<path d="M547.65 314.86C547.65 314.86 542.25 327.46 542.05 332.26C541.85 337.06 541.45 339.86 541.45 339.86" stroke="#730D23" stroke-linecap="round" stroke-linejoin="round"/>
<path d="M481.45 283.3C481.45 283.3 475.26 287.3 474.26 303.49" stroke="#730D23" stroke-width="2" stroke-linecap="round" stroke-linejoin="round"/>
<path d="M485.543 355.892L483.89 356.605C483.094 356.948 482.727 357.872 483.07 358.668L483.09 358.714C483.433 359.51 484.357 359.878 485.153 359.534L486.806 358.822C487.602 358.479 487.97 357.555 487.626 356.759L487.607 356.713C487.263 355.916 486.34 355.549 485.543 355.892Z" stroke="#730D23" stroke-linecap="round" stroke-linejoin="round"/>
<path d="M474.29 234.93C474.29 234.93 471.09 242.52 471.69 247.32C472.29 252.12 478.69 257.32 478.69 257.32C478.69 257.32 480.89 235.93 480.89 235.13C480.89 234.33 476.88 232.53 474.29 234.93Z" fill="#321017" stroke="#730D23" stroke-linecap="round" stroke-linejoin="round"/>
<path d="M471.99 262.12L476.24 259.15" stroke="#730D23" stroke-width="2" stroke-linecap="round" stroke-linejoin="round"/>
<path d="M476.68 236.33C476.68 236.33 475.88 257.52 476.28 261.51C476.68 265.5 478.28 278.3 479.68 282.3C481.08 286.3 485.68 299.09 489.28 300.49C492.88 301.89 500.07 302.89 502.47 301.29C504.87 299.69 513.66 293.7 516.06 287.9C517.483 284.518 518.425 280.953 518.86 277.31C520.856 276.245 522.579 274.735 523.897 272.897C525.215 271.059 526.092 268.942 526.46 266.71C527.66 259.11 524.46 256.92 524.46 256.92L524.66 243.72C524.66 243.72 522.46 234.53 516.66 229.53C510.86 224.53 504.07 224.13 497.07 227.93C490.07 231.73 476.68 236.33 476.68 236.33Z" fill="white" stroke="#730D23" stroke-linecap="round" stroke-linejoin="round"/>
<path d="M514.26 235.13C514.26 235.13 514.46 229.93 509.47 231.73C504.48 233.53 503.27 236.93 495.87 239.93C488.47 242.93 478.68 239.53 475.29 237.53C471.9 235.53 469.49 232.73 474.09 227.53C478.69 222.33 489.48 217.14 501.09 217.14C512.7 217.14 521.68 226.73 525.48 230.73C529.28 234.73 529.88 239.73 528.48 243.32C527.08 246.91 524.48 256.92 524.48 256.92C524.48 256.92 522.88 256.72 522.28 259.11C521.68 261.5 521.88 264.11 519.28 264.31C516.68 264.51 516.88 257.52 516.88 257.52C516.88 257.52 510.49 255.52 509.69 250.92C508.89 246.32 514.26 239.53 514.26 235.13Z" fill="#321017" stroke="#730D23" stroke-linecap="round" stroke-linejoin="round"/>
<path d="M490.45 265.38L471.96 262.12L473.03 270.41C473.096 270.925 473.326 271.406 473.686 271.781C474.046 272.155 474.517 272.404 475.03 272.49L486.27 274.26C486.888 274.36 487.52 274.215 488.034 273.857C488.547 273.498 488.901 272.954 489.02 272.34L490.45 265.38Z" stroke="#730D23" stroke-width="2" stroke-linecap="round" stroke-linejoin="round"/>
<path d="M493.82 265.73L515.26 265.11L513.16 272.87C512.979 273.392 512.634 273.842 512.176 274.152C511.718 274.462 511.172 274.616 510.62 274.59L497.62 274.77C496.946 274.816 496.278 274.619 495.738 274.213C495.198 273.807 494.822 273.22 494.68 272.56L493.82 265.73Z" stroke="#730D23" stroke-width="2" stroke-linecap="round" stroke-linejoin="round"/>
<path d="M490.48 265.38L493.82 265.73" stroke="#730D23" stroke-width="2" stroke-linecap="round" stroke-linejoin="round"/>
<path d="M515.26 265.11L522.26 259.11" stroke="#730D23" stroke-width="2" stroke-linecap="round" stroke-linejoin="round"/>
<path d="M496.67 263.31C496.67 263.31 502.67 258.72 508.27 261.51" stroke="#730D23" stroke-width="2" stroke-linecap="round" stroke-linejoin="round"/>
<path d="M487.68 262.31C487.68 262.31 483.08 257.31 477.88 260.71" stroke="#730D23" stroke-width="2" stroke-linecap="round" stroke-linejoin="round"/>
<path d="M488.88 279.7C488.88 279.7 487.88 283.9 488.88 284.7C490.582 285.64 492.547 285.991 494.47 285.7" stroke="#730D23" stroke-linecap="round" stroke-linejoin="round"/>
<path d="M485.88 287.86C485.88 287.86 489.88 290.86 493.68 291.06C497.48 291.26 501.87 288.46 501.87 288.46" stroke="#730D23" stroke-linecap="round" stroke-linejoin="round"/>
<path d="M500.67 267.51C500.67 267.51 503.07 270.31 507.07 267.31" stroke="#730D23" stroke-linecap="round" stroke-linejoin="round"/>
<path d="M480.98 266.28C480.98 266.28 482.98 269.38 487.34 266.95" stroke="#730D23" stroke-linecap="round" stroke-linejoin="round"/>
<path d="M356.95 235.11C356.95 235.11 358.22 254.16 357.26 255.75L354.45 260.51C354.45 260.51 355.72 274.17 353.18 275.75C351.212 276.804 349.053 277.453 346.83 277.66C346.83 277.66 344.29 287.82 343.33 289.09C342.37 290.36 336.66 294.49 334.76 295.09C332.86 295.69 326.82 296.09 312.53 287.47C298.24 278.85 292.84 276.04 293.16 271.28C293.48 266.52 294.16 261.12 294.16 261.12C294.16 261.12 295.75 238.25 298.61 231.27C301.47 224.29 337.67 220.47 345.61 222.38C353.55 224.29 356.95 235.11 356.95 235.11Z" fill="white" stroke="#730D23" stroke-linecap="round" stroke-linejoin="round"/>
<path d="M320.11 266.54L322.34 268.13C322.34 268.13 320.43 275.75 321.34 279.25" stroke="#730D23" stroke-linecap="round" stroke-linejoin="round"/>
<path d="M351.372 260.049L351.372 260.049L351.372 260.053C351.223 260.732 350.973 261.295 350.712 261.657C350.581 261.839 350.461 261.951 350.369 262.008C350.325 262.036 350.294 262.046 350.277 262.05C350.269 262.052 350.264 262.052 350.262 262.052L350.261 262.052L350.26 262.052L350.26 262.052C350.26 262.052 350.259 262.052 350.257 262.051C350.255 262.05 350.25 262.047 350.243 262.042C350.229 262.031 350.205 262.008 350.177 261.964C350.118 261.873 350.057 261.721 350.015 261.501C349.932 261.063 349.944 260.449 350.098 259.77C350.252 259.088 350.502 258.524 350.762 258.161C350.893 257.979 351.012 257.868 351.103 257.811C351.147 257.784 351.177 257.773 351.193 257.769C351.201 257.768 351.206 257.767 351.208 257.767C351.209 257.767 351.21 257.767 351.21 257.767L351.21 257.768L351.212 257.768C351.214 257.769 351.219 257.772 351.226 257.777C351.24 257.788 351.264 257.812 351.292 257.856C351.352 257.948 351.413 258.101 351.455 258.322C351.538 258.761 351.526 259.375 351.372 260.049Z" fill="#321017" stroke="#730D23"/>
<path d="M348.62 254.33C348.62 254.33 352.08 250.87 354.97 254.14" stroke="#730D23" stroke-linecap="round" stroke-linejoin="round"/>
<path d="M344.25 232.57C344.25 232.57 348.37 240.19 348.06 241.78C347.75 243.37 334.72 247.18 334.72 247.18C334.72 247.18 333.45 254.8 331.54 255.75L329.64 256.7C328.117 254.631 326.838 252.393 325.83 250.03C323.61 245.27 320.43 244.03 316.94 248.76C313.45 253.49 316.3 264.64 318.21 265.59L320.11 266.54C320.11 266.54 318.52 268.13 312.49 269.09C306.46 270.05 302.01 271.31 297.57 270.04C293.13 268.77 286.77 256.7 284.57 241.14C282.37 225.58 289.33 212.25 298.57 208.14C307.81 204.03 328.74 207.82 330.32 208.77C331.9 209.72 342.71 204.65 349.06 207.82C355.41 210.99 355.06 214.49 356.68 216.71C358.3 218.93 366.52 216.08 367.16 224.02C367.8 231.96 364.62 236.72 360.49 237.35C356.36 237.98 344.25 232.57 344.25 232.57Z" fill="#321017" stroke="#730D23" stroke-linecap="round" stroke-linejoin="round"/>
<path d="M269.06 282.42C269.06 282.42 238.63 298.65 232.83 301.86C227.03 305.07 226.16 307.95 225.83 310.86C225.5 313.77 225.83 411.71 225.83 411.71H390.2C390.2 411.71 365.27 336.86 364.45 328.5C363.63 320.14 361.85 305.31 359.53 303.57C357.21 301.83 324.45 287.34 324.45 287.34C324.45 287.34 316.62 278.94 298.08 278.94C279.54 278.94 269.06 282.42 269.06 282.42Z" fill="#9f4d59" stroke="#730D23" stroke-linecap="round" stroke-linejoin="round"/>
<path d="M287.9 342.05C288.76 342.39 289.63 342.7 290.5 342.99" stroke="#730D23" stroke-linecap="round" stroke-linejoin="round"/>
<path d="M255.45 315.17C255.45 315.17 267.45 331.91 283.84 340.17" stroke="#730D23" stroke-linecap="round" stroke-linejoin="round"/>
<path d="M265.87 334.58C265.87 334.58 272.53 341.25 286.44 345.02" stroke="#730D23" stroke-linecap="round" stroke-linejoin="round"/>
<path d="M348.45 310.56C343.82 315.82 337.3 324.23 335.14 331.97" stroke="#730D23" stroke-linecap="round" stroke-linejoin="round"/>
<path d="M353.39 305.31C353.39 305.31 352.47 306.2 351.03 307.73" stroke="#730D23" stroke-linecap="round" stroke-linejoin="round"/>
<path d="M336.87 322.7C336.87 322.7 332.52 331.1 331.66 336.32" stroke="#730D23" stroke-linecap="round" stroke-linejoin="round"/>
<path d="M267.32 283.86C267.32 283.86 284.13 283.28 300.07 283.57C316.01 283.86 326.45 288.79 326.45 288.79C326.45 288.79 316.88 277.2 312.54 274.59C308.2 271.98 294.86 267.59 283.85 271.11C277.068 273.388 271.246 277.878 267.32 283.86Z" fill="#9f4d59" stroke="#730D23" stroke-linecap="round" stroke-linejoin="round"/>
<path d="M219.52 411.6L204.2 352.86C204.051 352.146 204.064 351.409 204.236 350.701C204.408 349.993 204.736 349.333 205.196 348.767C205.656 348.202 206.236 347.747 206.894 347.434C207.552 347.121 208.271 346.959 209 346.96H330.89C332.01 346.961 333.096 347.344 333.969 348.046C334.842 348.747 335.449 349.726 335.69 350.82L349.22 411.66" fill="#321017"/>
<path d="M219.52 411.6L204.2 352.86C204.051 352.146 204.064 351.409 204.236 350.701C204.408 349.993 204.736 349.333 205.196 348.767C205.656 348.202 206.236 347.747 206.894 347.434C207.552 347.121 208.271 346.959 209 346.96H330.89C332.01 346.961 333.096 347.344 333.969 348.046C334.842 348.747 335.449 349.726 335.69 350.82L349.22 411.66" stroke="#730D23" stroke-linecap="round" stroke-linejoin="round"/>
</svg>
