<svg width="26" height="26" viewBox="0 0 26 26" fill="none" xmlns="http://www.w3.org/2000/svg">
<path d="M26 13C26 16.4478 24.6303 19.7545 22.1925 22.1925C19.7545 24.6303 16.4478 26 13 26C9.55219 26 6.24559 24.6303 3.80762 22.1925C1.36964 19.7545 0 16.4478 0 13C0 9.55219 1.36964 6.24559 3.80762 3.80762C6.24559 1.36964 9.55219 0 13 0C16.4478 0 19.7545 1.36964 22.1925 3.80762C24.6303 6.24559 26 9.55219 26 13ZM19.5488 8.07625C19.4327 7.96058 19.2944 7.8695 19.1423 7.80848C18.9902 7.74745 18.8274 7.71771 18.6636 7.72104C18.4998 7.72439 18.3383 7.76072 18.189 7.8279C18.0395 7.89508 17.9051 7.9917 17.7938 8.112L12.1501 15.3026L8.749 11.8999C8.51796 11.6846 8.21239 11.5674 7.89666 11.573C7.58092 11.5785 7.27966 11.7065 7.05637 11.9297C6.83308 12.153 6.70516 12.4543 6.6996 12.77C6.69403 13.0858 6.81122 13.3914 7.0265 13.6224L11.3263 17.9238C11.4421 18.0395 11.58 18.1304 11.7318 18.1917C11.8836 18.2528 12.0462 18.2827 12.2098 18.2798C12.3735 18.2767 12.5348 18.2408 12.6843 18.174C12.8337 18.1072 12.9682 18.011 13.0796 17.8913L19.5666 9.7825C19.7878 9.55256 19.91 9.24508 19.9069 8.92606C19.9038 8.60704 19.7759 8.30193 19.5504 8.07625H19.5488Z" fill="#E75909"/>
</svg>
