<svg width="80" height="80" viewBox="0 0 80 80" fill="none" xmlns="http://www.w3.org/2000/svg">
<circle cx="40" cy="40" r="40" fill="white"/>
<circle cx="40" cy="40" r="35.5" fill="white" stroke="#008BB7"/>
<path d="M44.7998 22.7201C44.7998 22.4231 44.6734 22.1382 44.4483 21.9281C44.2233 21.7181 43.9181 21.6001 43.5998 21.6001H36.3998C36.0815 21.6001 35.7763 21.7181 35.5513 21.9281C35.3262 22.1382 35.1998 22.4231 35.1998 22.7201C35.1998 23.0171 35.0734 23.302 34.8483 23.5121C34.6233 23.7221 34.3181 23.8401 33.9998 23.8401C33.6815 23.8401 33.3763 23.9581 33.1513 24.1681C32.9262 24.3782 32.7998 24.6631 32.7998 24.9601V26.0801C32.7998 26.3771 32.9262 26.662 33.1513 26.8721C33.3763 27.0821 33.6815 27.2001 33.9998 27.2001H45.9998C46.3181 27.2001 46.6233 27.0821 46.8483 26.8721C47.0734 26.662 47.1998 26.3771 47.1998 26.0801V24.9601C47.1998 24.6631 47.0734 24.3782 46.8483 24.1681C46.6233 23.9581 46.3181 23.8401 45.9998 23.8401C45.6815 23.8401 45.3763 23.7221 45.1513 23.5121C44.9262 23.302 44.7998 23.0171 44.7998 22.7201Z" fill="#008BB7"/>
<path d="M30.6041 24H29.2001C28.2453 24 27.3296 24.3709 26.6545 25.031C25.9794 25.6911 25.6001 26.5864 25.6001 27.52V55.68C25.6001 56.6136 25.9794 57.5089 26.6545 58.169C27.3296 58.8291 28.2453 59.2 29.2001 59.2H50.8001C51.7549 59.2 52.6705 58.8291 53.3457 58.169C54.0208 57.5089 54.4001 56.6136 54.4001 55.68V27.52C54.4001 26.5864 54.0208 25.6911 53.3457 25.031C52.6705 24.3709 51.7549 24 50.8001 24H49.3961C49.5281 24.3661 49.6001 24.7627 49.6001 25.1733V26.3467C49.6001 27.2802 49.2208 28.1756 48.5457 28.8357C47.8706 29.4958 46.9549 29.8667 46.0001 29.8667H34.0001C33.0453 29.8667 32.1296 29.4958 31.4545 28.8357C30.7794 28.1756 30.4001 27.2802 30.4001 26.3467V25.1733C30.4001 24.7627 30.4721 24.3661 30.6041 24ZM44.8001 38.08C44.8001 37.4576 45.053 36.8607 45.503 36.4207C45.9531 35.9806 46.5636 35.7333 47.2001 35.7333C47.8366 35.7333 48.4471 35.9806 48.8972 36.4207C49.3472 36.8607 49.6001 37.4576 49.6001 38.08V49.8133C49.6001 50.4357 49.3472 51.0326 48.8972 51.4727C48.4471 51.9128 47.8366 52.16 47.2001 52.16C46.5636 52.16 45.9531 51.9128 45.503 51.4727C45.053 51.0326 44.8001 50.4357 44.8001 49.8133V38.08ZM30.4001 47.4667C30.4001 46.8443 30.653 46.2474 31.103 45.8073C31.5531 45.3672 32.1636 45.12 32.8001 45.12C33.4366 45.12 34.0471 45.3672 34.4972 45.8073C34.9472 46.2474 35.2001 46.8443 35.2001 47.4667V49.8133C35.2001 50.4357 34.9472 51.0326 34.4972 51.4727C34.0471 51.9128 33.4366 52.16 32.8001 52.16C32.1636 52.16 31.5531 51.9128 31.103 51.4727C30.653 51.0326 30.4001 50.4357 30.4001 49.8133V47.4667ZM40.0001 40.4267C40.6366 40.4267 41.2471 40.6739 41.6972 41.114C42.1472 41.5541 42.4001 42.151 42.4001 42.7733V49.8133C42.4001 50.4357 42.1472 51.0326 41.6972 51.4727C41.2471 51.9128 40.6366 52.16 40.0001 52.16C39.3636 52.16 38.7531 51.9128 38.303 51.4727C37.853 51.0326 37.6001 50.4357 37.6001 49.8133V42.7733C37.6001 42.151 37.853 41.5541 38.303 41.114C38.7531 40.6739 39.3636 40.4267 40.0001 40.4267Z" fill="#355666"/>
<circle cx="40" cy="40" r="40" fill="white"/>
<circle cx="40" cy="40" r="35.5" fill="white" stroke="#008BB7"/>
<path fill-rule="evenodd" clip-rule="evenodd" d="M40 24C38.4229 24 35.7874 24.6128 33.3074 25.295C30.7703 25.9887 28.2126 26.8097 26.7086 27.3069C26.0798 27.517 25.5223 27.9023 25.1002 28.4185C24.6781 28.9347 24.4084 29.561 24.3223 30.2252C22.96 40.5783 26.1212 48.2512 29.9566 53.3271C31.5831 55.4985 33.5224 57.4106 35.7097 58.9997C36.592 59.631 37.4103 60.1143 38.1051 60.445C38.7451 60.7502 39.4331 61 40 61C40.5669 61 41.2526 60.7502 41.8949 60.445C42.7325 60.0331 43.5339 59.5496 44.2903 58.9997C46.4777 57.4107 48.417 55.4985 50.0434 53.3271C53.8788 48.2512 57.04 40.5783 55.6777 30.2252C55.5917 29.5606 55.3222 28.934 54.9001 28.4174C54.478 27.9008 53.9204 27.5151 53.2914 27.3046C51.1081 26.5803 48.9079 25.9095 46.6926 25.2927C44.2126 24.6151 41.5771 24 40 24ZM44.9051 35.9001C45.1197 35.683 45.4108 35.561 45.7143 35.561C46.0178 35.561 46.3088 35.683 46.5234 35.9001C46.738 36.1172 46.8586 36.4117 46.8586 36.7188C46.8586 37.0258 46.738 37.3203 46.5234 37.5374L39.6663 44.4749C39.5601 44.5826 39.434 44.668 39.2952 44.7263C39.1563 44.7846 39.0075 44.8146 38.8571 44.8146C38.7068 44.8146 38.558 44.7846 38.4191 44.7263C38.2803 44.668 38.1542 44.5826 38.048 44.4749L34.6194 41.0061C34.5132 40.8986 34.4289 40.771 34.3714 40.6305C34.3139 40.4901 34.2843 40.3395 34.2843 40.1875C34.2843 40.0355 34.3139 39.8849 34.3714 39.7445C34.4289 39.604 34.5132 39.4764 34.6194 39.3689C34.7257 39.2614 34.8518 39.1761 34.9907 39.1179C35.1295 39.0597 35.2783 39.0298 35.4286 39.0298C35.5788 39.0298 35.7276 39.0597 35.8665 39.1179C36.0053 39.1761 36.1315 39.2614 36.2377 39.3689L38.8571 42.0213L44.9051 35.9001Z" fill="#355666"/>
</svg>
