<svg width="41" height="41" viewBox="0 0 41 41" fill="none" xmlns="http://www.w3.org/2000/svg">
<path fill-rule="evenodd" clip-rule="evenodd" d="M8.09174 31.803L7.17281 25.288C4.73983 23.7737 2.86546 22.5273 0.612786 21.0918C-0.450786 14.2293 1.51374 10.5063 4.3972 6.97268C7.98361 2.98151 13.7505 0 20.6529 0C27.5556 0.0629317 33.3404 3.10763 36.7468 7.09879C39.9364 10.8849 41.6487 15.649 40.4049 21.2811L34.1875 25.288L33.268 31.803H23.4105C22.7977 32.2292 21.969 32.6233 20.6529 32.655C19.3554 32.6233 18.5443 32.2292 17.8776 31.803H8.09174Z" fill="#CC2229"/>
<path fill-rule="evenodd" clip-rule="evenodd" d="M20.6532 22.7638C20.1305 16.6902 19.9865 9.1968 19.554 3.18658C18.8151 3.02875 17.7698 3.0762 16.9047 3.20231C16.0397 3.43905 15.409 3.64408 14.67 4.00694C16.0218 9.78067 17.5897 17.1319 18.9235 22.8585C17.1033 17.2898 14.67 10.3171 12.8681 4.76412C12.0031 4.92194 11.1561 5.34773 10.5436 5.7895C9.89481 6.23127 9.51623 6.56266 8.92139 7.35131C11.5344 12.2417 14.67 18.473 17.3016 23.3317C14.2555 18.9145 10.561 13.0936 7.49721 8.70808C6.90266 9.16558 6.4519 9.49697 5.85706 10.3803C5.35238 11.0902 5.10018 11.9263 4.99205 12.731C8.34424 16.3121 12.3449 20.6029 15.7151 24.1678C12.2011 21.202 7.87551 17.3844 4.3975 14.4186C4.05515 15.018 3.8389 15.5229 3.73077 16.5166C3.60467 17.4788 3.82093 18.6303 4.05515 19.3245L10.8494 23.7418L11.5703 28.6479L19.0496 28.6951C19.5902 29.2473 19.7702 29.5312 20.6535 29.5784C21.5002 29.5312 21.9872 29.0737 22.2035 28.6951H29.6642L30.4208 23.7732L37.1614 19.3875C37.4133 18.662 37.5754 17.5417 37.4858 16.5795C37.3776 15.5384 37.1614 15.0177 36.873 14.4656C33.377 17.4156 29.0334 21.2335 25.5554 24.199C28.9432 20.6653 32.9082 16.3585 36.2961 12.7462C36.1161 11.9418 35.8998 11.1212 35.3589 10.4115C34.7281 9.52794 34.3675 9.1968 33.7909 8.72356C30.7095 13.0933 26.9607 18.9619 23.915 23.3472C26.6187 18.4727 29.6822 12.2415 32.3317 7.41449C31.7551 6.64133 31.3403 6.247 30.7637 5.83695C30.079 5.37945 29.232 4.95366 28.4029 4.7801C26.5106 10.3171 24.186 17.3529 22.3476 22.8742C23.6268 17.1477 25.231 9.85958 26.5106 4.10183C25.8621 3.69153 25.2313 3.4865 24.3837 3.26574C23.4108 3.10791 22.4557 3.07645 21.6985 3.18683C21.1941 9.24425 21.1756 16.7219 20.6532 22.7638Z" fill="#F6D330"/>
<path fill-rule="evenodd" clip-rule="evenodd" d="M0 38.7442H3.49626C3.44234 39.4227 3.82093 39.5803 4.00123 39.6909C4.19923 39.7538 5.65935 39.8168 6.38 39.7064C6.66843 39.6592 6.93861 39.5646 6.93861 38.7914C6.93861 38.4602 6.84846 38.0974 6.41595 38.0182C4.88393 37.9081 3.38814 38.0499 1.8564 37.9236C0.324378 37.6242 0.0904378 37.2768 0 36.2199C0.108126 34.7528 0.702962 34.327 2.415 34.2795C4.19882 34.2323 5.98385 34.2323 7.76767 34.2795C9.58784 34.2795 10.1464 34.8951 10.1464 36.2359H6.93861C6.93861 35.5731 6.79453 35.3209 6.41595 35.2892C5.63594 35.242 4.85314 35.242 4.07313 35.2892C3.78469 35.2892 3.4064 35.4156 3.4064 36.0149C3.4064 36.5825 3.56844 36.7246 4.00123 36.7723C5.31672 36.8193 6.65046 36.8353 7.94797 36.9137C10.1105 37.0243 10.1827 37.8604 10.2546 38.7437C10.2905 40.0061 9.76786 40.4473 9.38956 40.6529C9.02923 40.7947 7.28096 40.9685 6.93861 40.9685H3.47858C2.70344 40.9685 1.7303 40.8896 0.883267 40.6686C0.0901527 40.4796 0 39.5488 0 38.7442ZM32.8543 41H35.9178V34.3115H32.8543V41ZM37.9722 41H41V34.3115H37.9722V41ZM31.0701 37.4978C31.0143 37.2886 30.9419 37.0831 30.8533 36.8827C30.3306 36.1413 28.5287 36.1413 26.7807 36.1096C25.4652 36.1096 23.501 36.1413 22.9241 36.63C22.6896 36.851 22.5635 37.1664 22.4916 37.4978C22.4015 37.8924 22.4192 38.3022 22.4192 38.4917C22.4192 38.8386 22.4554 40.1794 23.1943 40.5265C23.879 40.9211 25.9514 40.9685 26.7442 40.9685C27.5912 40.9685 29.9343 40.8896 30.277 40.5422C30.8892 40.3529 31.0336 39.6907 31.1597 39.1702H28.1501C28.1501 39.6907 27.6814 40.0063 26.7442 39.9584C25.8972 40.0061 25.4107 39.8325 25.4107 38.902L31.1594 38.9175C31.1597 38.4603 31.1782 37.971 31.0701 37.4978ZM28.1501 37.9553H25.4107C25.4107 37.766 25.447 37.6079 25.5009 37.4978C25.6986 37.072 26.2036 37.0563 26.7439 37.0246C27.573 37.0246 27.9336 37.1981 28.0779 37.4978C28.1501 37.6242 28.1681 37.7817 28.1501 37.9553ZM12.0568 41H15.0483V38.1603C15.1205 37.7663 15.2286 37.4506 16.3279 37.4506C17.3729 37.4351 17.6613 37.6871 17.6613 38.1603V41H20.6529V38.1603C20.6529 37.2296 20.6352 36.7249 19.9502 36.4572C19.3374 36.1098 18.4542 36.1572 17.6254 36.1572C16.7604 36.1572 15.7872 36.2519 15.0483 36.5676V34.3118H12.0568V41Z" fill="#CC2229"/>
</svg>
