<svg width="51" height="44" viewBox="0 0 51 44" fill="none" xmlns="http://www.w3.org/2000/svg">
<path d="M21.8907 0.428108C18.5461 1.38248 15.1677 4.35164 13.7487 7.63892C13.1744 8.91142 13.0055 10.0425 13.0055 12.4815C12.9717 15.2739 13.073 15.9101 13.9176 17.6775C15.5393 21.1415 19.3569 24.3228 21.9245 24.3228C23.5123 24.3228 24.9651 23.3684 25.5394 21.9545C26.5191 19.4095 25.2691 16.8999 22.161 15.2739C20.1001 14.1781 17.3974 11.5978 16.8569 10.1839C16.6204 9.58301 16.4852 8.31051 16.5866 7.21475C16.8569 3.89213 19.2555 1.55922 23.4448 0.498804C24.7961 0.145332 25.134 0.0039444 24.4583 0.0039444C23.9177 -0.0314026 22.7353 0.180679 21.8907 0.428108Z" fill="#191F6C"/>
<path d="M27.7016 0.746176C26.2488 1.27638 25.3029 2.58422 25.0664 4.38693C24.8299 6.29567 25.9448 7.85094 28.6475 9.51226C33.9516 12.7288 35.7084 16.511 33.6138 20.2578C32.5665 22.1312 30.6746 23.439 27.7691 24.2873C25.2015 25.065 25.3705 25.2417 28.0732 24.6408C33.0057 23.5451 36.4517 20.1164 37.6679 15.1324C38.9517 9.83038 36.4179 3.99811 31.7219 1.52381C29.5597 0.392704 28.9854 0.286663 27.7016 0.746176Z" fill="#CF111C"/>
<path d="M24.188 11.1735C23.3772 12.1279 23.4786 13.259 24.4583 13.9306C26.2826 15.1677 28.3435 12.6227 26.6543 11.1735C25.7083 10.3605 24.8975 10.3605 24.188 11.1735Z" fill="#CF111C"/>
<path d="M2.10838 39.6419C-0.569832 38.2814 -0.683799 35.5025 1.85196 34.3735C2.93464 33.9104 3.67542 33.8814 4.84358 34.2867C5.64134 34.5761 5.72682 34.7209 5.72682 35.8788V37.1814L4.84358 36.6893C3.84637 36.1682 2.59274 36.3419 2.59274 37.0077C2.59274 37.2393 3.13408 37.7025 3.81788 38.0498C5.72682 39.034 6.29665 39.6998 6.29665 41.0024C6.29665 43.2024 3.81788 44.5919 1.31061 43.7524C0.199441 43.3761 0.17095 43.3182 0.0854749 41.9866L0 40.5972L1.08268 41.2051C2.33631 41.8709 3.24804 41.9577 3.70391 41.4077C4.0743 40.9445 3.58994 40.3945 2.10838 39.6419Z" fill="#CF111C"/>
<path fill-rule="evenodd" clip-rule="evenodd" d="M17.6846 37.2284C18.2885 35.7993 18.7648 34.6723 18.8899 34.4604C19.4598 33.3314 20.0581 34.142 21.8531 38.4262C22.8503 40.7998 23.7905 42.884 23.9615 43.0577C24.5313 43.6367 24.2179 43.8104 22.3944 43.8104C20.571 43.8104 20.2575 43.6367 20.8274 43.0577C20.9983 42.884 21.0553 42.5367 20.9413 42.2761C20.7989 41.8998 20.4 41.784 19.3458 41.784H17.8927L18.2346 43.8104H16.5251C14.9011 43.8104 14.5592 43.6367 15.1006 43.0867C15.243 42.913 16.0978 41.0314 16.981 38.8893C17.2252 38.3157 17.4632 37.7524 17.6841 37.2295L17.6843 37.2291L17.6844 37.2289L17.6846 37.2284ZM19.5737 40.0472C20.2006 40.0472 20.2575 39.9604 20.0866 39.3814C19.6877 37.9919 19.4598 37.8183 19.1464 38.6867C18.6905 39.8735 18.7475 40.0472 19.5737 40.0472Z" fill="#CF111C"/>
<path d="M7.66425 35.5893C7.57877 36.8919 7.77821 37.4709 8.1486 36.863C8.23408 36.7183 8.71844 36.5735 9.1743 36.5735H10.0291L9.94357 39.6709C9.88659 41.4077 9.74413 43.0288 9.60168 43.2893C9.40224 43.7525 9.57318 43.8104 11.2827 43.8104C12.9922 43.8104 13.1631 43.7525 12.9637 43.2893C12.8212 43.0288 12.6788 41.4077 12.6218 39.6709L12.5363 36.5735H13.3911C13.8469 36.5735 14.3313 36.6893 14.4168 36.863C14.8156 37.5288 15.1291 37.0656 15.1291 35.7051V34.2577H7.77821L7.66425 35.5893Z" fill="#CF111C"/>
<path fill-rule="evenodd" clip-rule="evenodd" d="M25.1011 43.0867C25.4715 42.8551 25.4715 35.5314 25.1011 34.8077C24.8162 34.2867 24.9302 34.2577 27.6369 34.2577C30.2581 34.2577 30.543 34.3156 31.3408 35.0104C32.4235 35.9367 32.5374 37.2104 31.5972 38.2235L30.9989 38.8893L31.7397 39.4972C32.281 39.9025 32.5089 40.3656 32.5089 40.9446C32.5089 43.1156 31.2838 43.8104 27.5229 43.8104C25.0726 43.8104 24.3033 43.5788 25.1011 43.0867ZM28.7765 38.0209C29.6313 38.0209 30.0587 37.4709 29.7737 36.7183C29.6598 36.4577 29.2324 36.2841 28.7765 36.2841C28.0357 36.2841 27.9503 36.3998 27.9503 37.1525C27.9503 37.9051 28.0357 38.0209 28.7765 38.0209ZM28.8905 41.7261C29.6598 41.6683 29.8022 41.5235 29.8022 40.9156C29.8022 40.3077 29.6598 40.163 28.8905 40.1051C28.0073 40.0183 27.9503 40.0762 27.9503 40.9156C27.9503 41.7551 28.0073 41.813 28.8905 41.7261Z" fill="#CF111C"/>
<path d="M33.7911 35.1262C34.1045 35.7341 34.2184 36.863 34.2184 39.034C34.2184 41.2051 34.1045 42.334 33.7911 42.9419L33.3352 43.8104H39.9168V42.3051C39.9168 41.1472 39.8313 40.8867 39.5749 41.1472C39.3754 41.3498 38.6061 41.4946 37.8654 41.4946C36.5832 41.4946 36.4978 41.4367 36.4978 40.7709C36.4978 40.1051 36.6117 40.0472 37.7799 40.0472H39.062V37.8762L37.7799 37.963C36.5547 38.0788 36.4978 38.0498 36.4978 37.3262C36.4978 36.6314 36.5832 36.5735 37.7514 36.5735C38.4637 36.5735 39.119 36.6893 39.2045 36.863C39.6034 37.5288 39.9168 37.0656 39.9168 35.7051V34.2577H33.3352L33.7911 35.1262Z" fill="#CF111C"/>
<path d="M41.5978 34.9525C41.4553 34.8656 41.3413 34.692 41.3413 34.5183C41.3413 34.3735 42.367 34.2577 43.6207 34.2577C45.786 34.2577 45.9 34.2867 45.5581 34.8077C45.3017 35.242 45.3302 35.5025 45.7006 36.1104C46.3274 37.0656 46.5838 37.0656 46.9827 36.1104C47.2391 35.5893 47.2391 35.213 47.0397 34.8077C46.7547 34.2867 46.8402 34.2577 48.8631 34.2577H51L49.433 36.5446C48.6067 37.8183 47.8944 38.9762 47.8944 39.1209C47.8944 39.2656 48.6067 40.3946 49.4615 41.6104L51 43.8104H48.7207C46.5553 43.8104 46.4698 43.7814 46.7547 43.2314C46.9827 42.7972 46.9542 42.4788 46.5838 41.9288C45.9855 41.0314 45.786 41.0314 45.3872 41.9577C45.1307 42.4788 45.1307 42.8551 45.3302 43.2604C45.6151 43.7814 45.5296 43.8104 43.4782 43.8104H41.3413L42.9369 41.3788L44.5324 38.9183L43.1933 37.0367C42.4525 35.9946 41.7402 35.0683 41.5978 34.9525Z" fill="#CF111C"/>
</svg>
