<svg width="848" height="585" viewBox="0 0 848 585" fill="none" xmlns="http://www.w3.org/2000/svg">
<path d="M307 276.895L296.16 313.383H303.91L314.66 276.895H307Z" fill="#EBEBEB"/>
<path d="M320.14 276.972L309.32 313.384L317.07 313.395L327.79 276.972H320.14Z" fill="#EBEBEB"/>
<path d="M294.48 290.804L297.1 282.668H332.07L329.78 290.804H294.48Z" fill="#EBEBEB"/>
<path d="M291.24 305.817L293.86 297.682H328.83L326.54 305.817H291.24Z" fill="#EBEBEB"/>
<path d="M718.05 143.504C720.774 142.186 723.086 140.025 724.7 137.287C726.313 134.549 727.158 131.354 727.13 128.097C727.13 118.89 720.79 111.411 712.9 111.367C705.01 111.324 698.6 118.748 698.56 127.944C698.501 131.231 699.334 134.463 700.953 137.232C702.573 140.002 704.907 142.184 707.66 143.504C685.66 147.123 686.66 173.235 686.66 173.235L738.66 173.498C738.66 173.498 739.84 147.058 718.05 143.504Z" fill="#EBEBEB"/>
<path d="M175.66 86.6004C176.974 85.9641 178.09 84.9209 178.868 83.5995C179.646 82.2782 180.054 80.7365 180.04 79.1649C180.107 78.1334 179.98 77.098 179.666 76.1225C179.352 75.1471 178.858 74.2526 178.215 73.4942C177.572 72.7358 176.794 72.1298 175.928 71.7136C175.063 71.2975 174.128 71.0801 173.183 71.0748C172.237 71.0696 171.3 71.2766 170.431 71.6831C169.561 72.0897 168.777 72.687 168.128 73.4382C167.478 74.1894 166.976 75.0784 166.653 76.0503C166.33 77.0222 166.193 78.0562 166.25 79.0883C166.221 80.6747 166.622 82.2351 167.404 83.5721C168.185 84.9092 169.311 85.963 170.64 86.6004C160.03 88.3499 160.51 100.957 160.51 100.957L185.6 101.089C185.6 101.089 186.18 88.339 175.66 86.6004Z" fill="#EBEBEB"/>
<path d="M758.36 315.024C759.677 314.39 760.795 313.348 761.576 312.026C762.356 310.705 762.764 309.162 762.75 307.588C762.805 306.564 762.668 305.538 762.347 304.573C762.027 303.608 761.531 302.725 760.888 301.977C760.245 301.229 759.47 300.632 758.609 300.222C757.749 299.813 756.821 299.599 755.882 299.595C754.943 299.59 754.014 299.795 753.15 300.196C752.286 300.598 751.506 301.187 750.857 301.929C750.209 302.671 749.705 303.55 749.377 304.511C749.049 305.473 748.904 306.498 748.95 307.523C748.924 309.109 749.328 310.667 750.111 312.002C750.894 313.337 752.021 314.389 753.35 315.024C742.73 316.773 743.22 329.392 743.22 329.392L768.31 329.512C768.31 329.512 768.88 316.762 758.36 315.024Z" fill="#EBEBEB"/>
<path d="M769.48 481.142C769.48 481.295 614.67 481.426 423.76 481.426C232.85 481.426 78 481.295 78 481.142C78 480.989 232.74 480.847 423.74 480.847C614.74 480.847 769.48 480.978 769.48 481.142Z" fill="#321017"/>
<path d="M372.27 122.466L322.59 480.989H398.72L447.48 122.466H372.27Z" fill="#9f4d59"/>
<path d="M372.271 122.466H373.531H377.301H391.981L447.481 122.378H447.651V122.564C436.921 201.61 419.121 332.771 399.001 481.109V481.35H322.291L322.341 481.022C336.531 378.893 349.001 289.24 357.911 225.153C362.381 193.125 365.961 167.473 368.421 149.813C369.661 141.066 370.611 134.199 371.261 129.573C371.591 127.277 371.841 125.528 372.001 124.347C372.161 123.166 372.271 122.586 372.271 122.586L372.031 124.39C371.871 125.582 371.641 127.343 371.321 129.65C370.691 134.286 369.751 141.12 368.551 149.955C366.111 167.637 362.551 193.311 358.171 225.404C349.321 289.492 336.941 379.09 322.841 481.175L322.591 480.847H398.741L398.481 481.087C418.701 332.771 436.581 201.621 447.351 122.586L447.501 122.772L392.091 122.685H377.371H373.581L372.271 122.466Z" fill="#321017"/>
<path d="M511.14 124.915L460.25 481.82L535.67 480.956L586.36 124.915H511.14Z" fill="#9f4d59"/>
<path d="M511.14 124.916H512.41H516.18H530.86L586.36 124.828H586.53V125.014C575.36 203.601 556.86 333.864 535.94 481.077V481.317H535.23L460.3 482.17H460V481.842C474.55 380.151 487.31 290.935 496.44 227.066C501.02 195.181 504.69 169.638 507.22 152.066C508.48 143.319 509.46 136.517 510.13 131.914C510.46 129.628 510.71 127.89 510.89 126.709C511.07 125.528 511.15 124.959 511.15 124.959C511.15 124.959 511.08 125.572 510.92 126.753C510.76 127.934 510.51 129.694 510.19 131.99L507.34 152.208L496.74 227.252C487.67 291.056 474.98 380.26 460.54 481.864L460.28 481.536L535.21 480.672H535.7L535.45 480.913C556.45 333.679 575.04 203.47 586.25 124.883L586.4 125.08L530.98 124.992H516.27H512.48L511.14 124.916Z" fill="#321017"/>
<path d="M293.771 253.189L317.531 173.312H651.35L634.46 253.189H293.771Z" fill="#9f4d59"/>
<path d="M293.74 253.189L634.43 252.905L634.18 253.123C639.44 228.28 644.91 202.376 650.5 175.947C650.69 175.029 650.88 174.121 651.07 173.246L651.32 173.596L317.49 173.476L317.64 173.356L293.74 253.178C294.09 252.008 302.43 223.753 317.35 173.246V173.137H317.45L651.28 173.017H651.61L651.54 173.366L650.96 176.056C645.37 202.496 639.9 228.389 634.64 253.244V253.462H634.43L293.74 253.189Z" fill="#321017"/>
<path d="M264.44 402.96L288.19 323.083H622.02L605.13 402.96H264.44Z" fill="#9f4d59"/>
<path d="M264.44 402.927L605.13 402.653L604.88 402.861C610.13 378.018 615.61 352.124 621.19 325.685C621.39 324.766 621.58 323.859 621.76 322.984L622.02 323.334L288.19 323.213L288.33 323.104C273.24 373.578 264.79 401.833 264.44 402.927L288.05 322.995V322.885H288.16L621.99 322.765H622.32L622.24 323.115C622.06 323.99 621.86 324.897 621.67 325.816C616.08 352.256 610.61 378.138 605.35 402.992V403.211H605.15L264.44 402.927Z" fill="#321017"/>
<g opacity="0.3">
<path d="M351.86 272.893L427.66 271.395L430.14 253.188H354.59L351.86 272.893Z" fill="black"/>
</g>
<g opacity="0.3">
<path d="M489.69 273.735H564.94L568.15 253.188H492.59L489.69 273.735Z" fill="black"/>
</g>
<g opacity="0.3">
<path d="M406.66 422.041L330.88 421.166L333.18 402.96H408.78L406.66 422.041Z" fill="black"/>
</g>
<g opacity="0.3">
<path d="M543.92 422.041L469.3 421.177L471.6 402.971H547.2L543.92 422.041Z" fill="black"/>
</g>
<path d="M276.89 83.5278L258.69 144.816H271.7L289.75 83.5278H276.89Z" fill="#9f4d59"/>
<path d="M298.951 83.6699L280.791 144.816L293.801 144.838L311.811 83.6699H298.951Z" fill="#9f4d59"/>
<path d="M255.86 106.895L260.26 93.2378H318.99L315.15 106.895H255.86Z" fill="#9f4d59"/>
<path d="M250.42 132.11L254.81 118.453H313.55L309.71 132.11H250.42Z" fill="#9f4d59"/>
<path d="M632.62 98.1475L620.13 140.202H629.06L641.44 98.1475H632.62Z" fill="#455A64"/>
<path d="M647.751 98.2456L635.291 140.202L644.221 140.213L656.571 98.2456H647.751Z" fill="#455A64"/>
<path d="M618.19 114.189L621.21 104.818H661.5L658.86 114.189H618.19Z" fill="#455A64"/>
<path d="M614.46 131.476L617.47 122.116H657.771L655.13 131.476H614.46Z" fill="#455A64"/>
<path d="M247.341 452.428C247.341 452.428 243.461 423.2 243.741 406.208C244.021 389.215 243.741 370.069 243.741 370.069H245.531C245.531 370.069 244.321 403.824 245.641 424.184C246.961 444.544 250.441 452.439 250.441 452.439H247.341" fill="#321017"/>
<path d="M258.93 337.178C258.642 336.143 258.069 335.231 257.29 334.564C256.16 333.777 254.67 334.105 253.4 334.564C247.98 336.653 243.19 347.686 241 353.492L248.18 379.965C261.16 366.843 263.4 349.588 258.93 337.178Z" fill="#455A64"/>
<path d="M256.87 335.636C256.852 335.757 256.818 335.875 256.77 335.986L256.42 336.948C256.1 337.779 255.66 338.993 255.13 340.491C254.07 343.498 252.73 347.708 251.52 352.442C250.31 357.177 249.52 361.54 248.98 364.711C248.73 366.296 248.53 367.587 248.41 368.483L248.26 369.5C248.248 369.624 248.221 369.745 248.18 369.861C248.169 369.741 248.169 369.62 248.18 369.5L248.28 368.461C248.36 367.565 248.53 366.274 248.76 364.678C249.363 360.523 250.181 356.409 251.21 352.355C252.244 348.302 253.482 344.316 254.92 340.414C255.47 338.916 255.92 337.713 256.29 336.893C256.46 336.511 256.59 336.204 256.69 335.953C256.743 335.842 256.803 335.736 256.87 335.636Z" fill="#321017"/>
<path d="M244.99 386.35C241.718 384.318 238.979 381.398 237.039 377.872C235.098 374.346 234.021 370.333 233.91 366.22C233.66 360.348 235.31 354.585 237.18 349.063C237.292 348.563 237.561 348.121 237.94 347.817C238.245 347.697 238.573 347.664 238.892 347.719C239.212 347.775 239.514 347.917 239.77 348.134C244.67 351.185 247.63 356.991 249.21 362.906C250.345 366.828 250.723 370.965 250.32 375.055C249.705 379.35 247.835 383.313 244.99 386.35Z" fill="#455A64"/>
<path d="M244.99 386.35C244.977 386.234 244.977 386.117 244.99 386.001V384.984C244.99 384.098 244.99 382.797 244.89 381.255C244.683 377.156 244.253 373.073 243.6 369.03C242.85 364.285 241.94 360.042 241.27 357.002C240.94 355.504 240.67 354.268 240.48 353.372C240.39 352.967 240.32 352.639 240.27 352.377C240.236 352.264 240.219 352.146 240.22 352.027C240.265 352.136 240.302 352.25 240.33 352.366C240.4 352.617 240.48 352.945 240.59 353.339C240.81 354.192 241.11 355.417 241.48 356.947C242.2 360.009 243.14 364.252 243.89 368.975C244.536 373.034 244.924 377.137 245.05 381.255C245.05 382.83 245.1 384.109 245.05 384.995C245.05 385.41 245.05 385.738 245.05 386.012C245.043 386.127 245.022 386.24 244.99 386.35Z" fill="#321017"/>
<g opacity="0.3">
<path d="M244.99 386.35C241.718 384.318 238.979 381.398 237.039 377.872C235.098 374.346 234.021 370.333 233.91 366.22C233.66 360.348 235.31 354.585 237.18 349.063C237.292 348.563 237.561 348.121 237.94 347.817C238.245 347.697 238.573 347.664 238.892 347.719C239.212 347.775 239.514 347.917 239.77 348.134C244.67 351.185 247.63 356.991 249.21 362.906C250.345 366.828 250.723 370.965 250.32 375.055C249.705 379.35 247.835 383.313 244.99 386.35Z" fill="black"/>
</g>
<path d="M252.59 431.072C259.22 432.669 264.68 437.775 271.07 440.268C275.31 441.909 280.07 442.455 283.47 445.736C282.66 443.549 280.74 442.007 278.87 440.739C273.608 437.139 267.988 434.204 262.12 431.991C259.12 430.897 255.84 429.902 252.78 430.843" fill="#455A64"/>
<path d="M243.011 437.535C234.701 437.382 225.961 429.651 217.701 429.192C226.341 426.141 238.701 428.634 243.011 437.535Z" fill="#455A64"/>
<path d="M246.25 415.753C250.53 414.22 255.091 413.882 259.52 414.769C263.944 415.656 268.292 416.943 272.52 418.618C272.09 415.469 269.76 413.096 267.52 410.964C265.918 409.329 264.177 407.864 262.32 406.59C260.451 405.309 258.286 404.638 256.08 404.655C254.757 404.752 253.466 405.139 252.282 405.793C251.099 406.446 250.047 407.353 249.19 408.46C247.495 410.454 246.441 413 246.19 415.709" fill="#455A64"/>
<path d="M229.21 405.726C223.98 400.85 216.07 401.353 209.21 401.495C220.237 407.249 230.636 414.343 240.21 422.642C240.51 417.339 235.81 411.893 229.21 405.726Z" fill="#455A64"/>
<g opacity="0.3">
<path d="M229.21 405.726C223.98 400.85 216.07 401.353 209.21 401.495C220.237 407.249 230.636 414.343 240.21 422.642C240.51 417.339 235.81 411.893 229.21 405.726Z" fill="black"/>
</g>
<path d="M248.601 398.991C251.14 397.06 253.815 395.353 256.601 393.884C259.351 392.517 261.911 390.341 264.601 388.767C268.051 386.733 271.031 383.89 274.191 381.364C277.351 378.838 280.831 376.553 284.701 375.897C281.515 375.275 278.24 375.481 275.141 376.498C272.055 377.517 269.045 378.797 266.141 380.325C262.061 382.337 257.921 384.393 254.581 387.651C251.241 390.91 248.241 394.136 248.581 399.002" fill="#455A64"/>
<path d="M270.92 437.535C270.828 437.505 270.741 437.461 270.66 437.403L269.94 436.999C269.31 436.638 268.41 436.091 267.28 435.468C266.72 435.151 266.1 434.812 265.43 434.462C264.76 434.112 264.04 433.751 263.27 433.369C261.622 432.557 259.912 431.902 258.16 431.411C256.424 430.892 254.598 430.843 252.84 431.269C252.072 431.452 251.316 431.697 250.58 432.002C249.024 432.701 247.623 433.756 246.47 435.096C245.99 435.665 245.75 436.004 245.73 435.993C245.771 435.896 245.821 435.804 245.88 435.719C245.98 435.555 246.15 435.315 246.38 435.009C247.039 434.17 247.799 433.435 248.64 432.822C249.225 432.396 249.844 432.03 250.49 431.728C251.23 431.402 251.992 431.142 252.77 430.952C254.571 430.49 256.449 430.531 258.23 431.072C260 431.559 261.724 432.225 263.38 433.062C264.15 433.434 264.87 433.795 265.54 434.156C266.21 434.517 266.83 434.867 267.38 435.249C268.5 435.894 269.38 436.463 269.99 436.868L270.69 437.327C270.85 437.458 270.93 437.524 270.92 437.535Z" fill="#321017"/>
<path d="M236.81 433.03C236.99 433.06 237.164 433.115 237.33 433.194C237.66 433.326 238.13 433.544 238.69 433.839C240.158 434.642 241.506 435.682 242.69 436.923C243.881 438.15 244.893 439.57 245.69 441.133C245.936 441.6 246.15 442.086 246.33 442.587C246.413 442.763 246.474 442.951 246.51 443.145C246.51 443.145 246.15 442.401 245.51 441.242C243.845 438.227 241.482 435.746 238.66 434.047C237.51 433.391 236.79 433.085 236.81 433.03Z" fill="#321017"/>
<path d="M218.44 405.278C218.565 405.295 218.686 405.332 218.8 405.387L219.8 405.781L221.37 406.404C221.99 406.656 222.65 407.027 223.37 407.388C227.275 409.367 230.918 411.912 234.2 414.955C235.979 416.65 237.65 418.477 239.2 420.422C240.471 422.005 241.666 423.658 242.78 425.376C243.73 426.852 244.45 428.065 244.94 428.918L245.51 429.892C245.586 429.998 245.647 430.116 245.69 430.241C245.69 430.241 245.6 430.143 245.46 429.924C245.32 429.706 245.1 429.4 244.84 428.984C244.32 428.164 243.58 426.961 242.61 425.518C241.64 424.074 240.43 422.39 239 420.619C237.438 418.714 235.768 416.917 234 415.239C230.736 412.234 227.137 409.692 223.29 407.673C222.55 407.301 221.89 406.918 221.29 406.656L219.74 405.967L218.74 405.529C218.634 405.455 218.534 405.371 218.44 405.278Z" fill="#321017"/>
<path d="M258.741 410.647C258.518 410.646 258.297 410.616 258.081 410.56L257.311 410.406C257.021 410.341 256.671 410.341 256.311 410.297C254.342 410.104 252.363 410.533 250.611 411.533C249.65 412.081 248.773 412.789 248.011 413.632C247.376 414.314 246.816 415.073 246.341 415.896C245.91 416.656 245.529 417.449 245.201 418.268C245.225 418.027 245.283 417.791 245.371 417.569C245.58 416.944 245.844 416.343 246.161 415.775C246.598 414.924 247.128 414.135 247.741 413.424C248.821 412.178 250.154 411.225 251.632 410.642C253.109 410.059 254.691 409.862 256.251 410.067C256.631 410.122 256.981 410.144 257.251 410.221L258.011 410.439C258.262 410.471 258.507 410.541 258.741 410.647Z" fill="#321017"/>
<path d="M267.05 382.348C266.955 382.43 266.851 382.5 266.74 382.556L265.81 383.103C265.01 383.584 263.81 384.284 262.44 385.191C261.07 386.099 259.44 387.236 257.63 388.614C255.713 390.081 253.917 391.727 252.26 393.534C251.402 394.456 250.662 395.501 250.06 396.64C249.52 397.733 249 398.881 248.52 399.92C247.662 401.79 246.892 403.706 246.21 405.661C245.766 406.984 245.392 408.335 245.09 409.706C244.88 410.68 244.8 411.226 244.77 411.226C244.754 411.092 244.754 410.956 244.77 410.822C244.77 410.559 244.85 410.177 244.94 409.728C245.184 408.337 245.518 406.967 245.94 405.628C246.591 403.65 247.346 401.715 248.2 399.833C248.67 398.739 249.2 397.646 249.72 396.552C250.337 395.383 251.094 394.31 251.97 393.359C253.636 391.535 255.45 389.881 257.39 388.417C259.16 387.05 260.83 385.946 262.25 385.049C263.67 384.152 264.86 383.485 265.68 383.048L266.63 382.556L267.05 382.348Z" fill="#321017"/>
<path d="M243.741 409.838C243.661 409.59 243.608 409.333 243.581 409.073C243.481 408.504 243.361 407.804 243.211 406.973C242.814 404.67 242.29 402.395 241.641 400.161C240.969 397.925 240.178 395.734 239.271 393.6C238.951 392.835 238.681 392.179 238.461 391.665C238.346 391.434 238.258 391.187 238.201 390.932C238.339 391.148 238.462 391.375 238.571 391.61C238.791 392.047 239.101 392.704 239.461 393.502C240.433 395.617 241.255 397.81 241.921 400.063C242.576 402.308 243.077 404.603 243.421 406.929C243.551 407.826 243.641 408.548 243.691 409.051C243.732 409.311 243.749 409.574 243.741 409.838Z" fill="#321017"/>
<path d="M243.171 389.182C242.912 385.731 241.992 382.378 240.471 379.341C238.423 375.178 235.565 371.558 232.1 368.733C228.634 365.909 224.644 363.95 220.411 362.994L238.981 393.25L241.381 398.651C242.887 395.785 243.514 392.466 243.171 389.182Z" fill="#455A64"/>
<path d="M269.8 448.82H226.63V457.185H269.8V448.82Z" fill="#1E1E1E"/>
<path d="M229.851 455.522L233.531 481.481H262.191L266.581 455.522H229.851Z" fill="#9f4d59"/>
<path d="M269.74 457.195C269.74 457.283 260 457.359 247.99 457.359C235.98 457.359 226.24 457.283 226.24 457.195C226.24 457.108 235.98 457.031 247.99 457.031C260 457.031 269.74 457.097 269.74 457.195Z" fill="#321017"/>
<path d="M555.25 428.131L564.94 480.125H649C649.444 480.122 649.869 479.927 650.182 479.583C650.495 479.239 650.67 478.773 650.67 478.288C650.67 477.803 650.495 477.337 650.182 476.993C649.869 476.649 649.444 476.454 649 476.451H632.07L623.07 428.098C622.984 427.649 622.761 427.246 622.438 426.954C622.114 426.662 621.71 426.499 621.29 426.491L557.04 425.726C556.769 425.728 556.502 425.796 556.258 425.924C556.014 426.052 555.799 426.238 555.628 426.468C555.457 426.698 555.334 426.966 555.269 427.253C555.204 427.541 555.197 427.841 555.25 428.131Z" fill="#E0E0E0"/>
<path d="M555.25 428.131C555.247 428.08 555.247 428.029 555.25 427.978C555.228 427.822 555.228 427.663 555.25 427.508C555.279 427.195 555.374 426.895 555.529 426.631C555.683 426.367 555.893 426.146 556.14 425.988C556.311 425.877 556.497 425.796 556.69 425.747C556.913 425.72 557.138 425.72 557.36 425.747H558.87H562.65L586.94 425.999L603.88 426.184L613.36 426.294L618.36 426.349H620.9C621.12 426.349 621.32 426.349 621.55 426.349C621.776 426.377 621.996 426.447 622.2 426.556C622.618 426.787 622.945 427.175 623.12 427.65C623.207 427.874 623.267 428.109 623.3 428.35L623.43 429.049C623.52 429.52 623.6 429.99 623.69 430.46C623.87 431.4 624.04 432.341 624.22 433.292C624.567 435.209 624.924 437.137 625.29 439.076C626.024 442.976 626.767 446.967 627.52 451.05C629.04 459.196 630.61 467.681 632.24 476.407L632.12 476.309H648.74C648.96 476.282 649.181 476.282 649.4 476.309C649.843 476.412 650.234 476.695 650.494 477.101C650.754 477.506 650.863 478.005 650.8 478.495C650.755 478.795 650.649 479.079 650.49 479.327C650.331 479.575 650.122 479.78 649.88 479.928C649.634 480.063 649.365 480.141 649.09 480.158H604.41H564.94H564.87V480.081C561.87 464.106 559.5 451.104 557.87 442.105C557.04 437.6 556.39 434.101 555.96 431.717C555.74 430.525 555.58 429.618 555.46 429.006C555.34 428.393 555.3 428.076 555.3 428.076C555.3 428.076 555.37 428.393 555.49 428.995L556.01 431.706C556.45 434.079 557.12 437.578 557.96 442.083C559.65 451.083 562.08 464.073 565.08 480.048L564.99 479.972H604.46H649.1C649.341 479.958 649.577 479.887 649.79 479.764C650.002 479.637 650.184 479.458 650.323 479.242C650.461 479.026 650.553 478.778 650.59 478.517C650.65 478.087 650.557 477.648 650.33 477.29C650.103 476.932 649.76 476.683 649.37 476.593C649.167 476.576 648.963 476.576 648.76 476.593H631.98V476.494L627.28 451.126C626.52 447.059 625.78 443.057 625.06 439.164C624.69 437.207 624.34 435.282 623.98 433.379C623.81 432.417 623.63 431.477 623.46 430.536C623.37 430.066 623.28 429.596 623.2 429.126L623.07 428.426C623.035 428.203 622.981 427.983 622.91 427.77C622.744 427.356 622.45 427.019 622.08 426.819C621.899 426.719 621.702 426.656 621.5 426.633H620.87H618.32L613.32 426.567L603.83 426.447L586.9 426.228L562.61 425.9L558.83 425.845H557.32C557.101 425.817 556.879 425.817 556.66 425.845C556.469 425.885 556.286 425.963 556.12 426.075C555.878 426.23 555.672 426.444 555.518 426.7C555.364 426.956 555.265 427.247 555.23 427.551C555.222 427.745 555.228 427.939 555.25 428.131Z" fill="#321017"/>
<path d="M593.991 451.925C593.991 452.526 593.828 453.114 593.522 453.614C593.217 454.114 592.783 454.503 592.275 454.733C591.767 454.964 591.208 455.024 590.668 454.906C590.129 454.789 589.634 454.5 589.245 454.075C588.856 453.649 588.591 453.108 588.484 452.518C588.377 451.928 588.432 451.317 588.642 450.762C588.853 450.206 589.209 449.732 589.666 449.398C590.123 449.064 590.661 448.885 591.211 448.885C591.948 448.885 592.655 449.206 593.176 449.776C593.698 450.346 593.991 451.119 593.991 451.925Z" fill="white"/>
<path d="M555.331 428.558H559.741L571.741 428.623L611.391 428.929H617.131H618.531C618.772 428.921 619.013 428.939 619.251 428.984C619.615 429.063 619.952 429.251 620.224 429.527C620.495 429.803 620.692 430.157 620.791 430.548C620.891 431.051 620.971 431.532 621.061 432.035C621.771 435.949 622.461 439.689 623.061 443.319C624.361 450.514 625.541 456.998 626.521 462.444C627.501 467.889 628.281 472.285 628.831 475.336C629.101 476.856 629.301 478.037 629.451 478.846L629.601 479.764C629.601 479.972 629.651 480.081 629.651 480.081C629.651 480.081 629.651 479.972 629.581 479.764L629.401 478.857C629.251 478.048 629.031 476.878 628.741 475.358C628.181 472.307 627.361 467.911 626.361 462.477C625.361 457.042 624.171 450.558 622.851 443.363C622.201 439.766 621.511 435.993 620.791 432.079C620.701 431.597 620.621 431.084 620.521 430.613C620.401 430.158 620.13 429.768 619.761 429.52C619.577 429.391 619.374 429.298 619.161 429.247C618.934 429.224 618.707 429.224 618.481 429.247H617.141H611.411L571.741 428.787L559.741 428.645H556.471H555.621L555.331 428.558Z" fill="#321017"/>
<path d="M213.75 242.288L209.75 234.853C211.763 228.367 211.485 221.293 208.971 215.02C206.456 208.748 201.887 203.73 196.161 200.954C190.435 198.178 183.967 197.844 178.027 200.019C172.087 202.193 167.106 206.717 164.063 212.703C161.019 218.689 160.133 225.703 161.579 232.367C163.025 239.031 166.698 244.863 171.876 248.716C177.054 252.569 183.363 254.165 189.563 253.19C195.763 252.215 201.405 248.74 205.38 243.447L213.75 242.288Z" fill="white"/>
<path d="M213.75 242.288L213.19 242.354L211.57 242.551L205.37 243.349L205.47 243.502C205.48 243.476 205.481 243.446 205.471 243.42C205.462 243.393 205.443 243.372 205.42 243.36C205.403 243.346 205.382 243.338 205.36 243.338C205.338 243.338 205.317 243.346 205.3 243.36C202.643 246.855 199.234 249.575 195.38 251.276C192.902 252.368 190.277 253.007 187.61 253.168C182.162 253.544 176.752 251.946 172.217 248.623C167.682 245.3 164.275 240.435 162.522 234.782C160.769 229.129 160.768 223.002 162.519 217.348C164.271 211.694 167.676 206.828 172.21 203.503C175.414 201.173 179.064 199.677 182.88 199.129C186.337 198.659 189.846 198.984 193.182 200.084C196.518 201.184 199.606 203.034 202.25 205.515C206.006 209.044 208.717 213.715 210.036 218.934C211.356 224.153 211.225 229.683 209.66 234.82C209.65 234.848 209.65 234.879 209.66 234.907L212.66 240.375L213.45 241.796L213.73 242.288L213.5 241.818L212.76 240.397L209.82 234.798V234.886C211.183 230.558 211.527 225.925 210.82 221.414C209.724 214.412 206.204 208.14 200.989 203.902C195.775 199.665 189.268 197.787 182.82 198.659C178.937 199.217 175.222 200.739 171.96 203.11C168.536 205.603 165.729 208.984 163.79 212.951C161.639 217.286 160.592 222.172 160.757 227.101C160.923 232.029 162.295 236.819 164.73 240.97C167.165 245.121 170.575 248.481 174.603 250.7C178.631 252.918 183.13 253.914 187.63 253.584C190.335 253.41 192.995 252.745 195.5 251.615C199.401 249.879 202.84 247.096 205.5 243.524L205.33 243.415C205.32 243.441 205.319 243.47 205.329 243.497C205.338 243.523 205.356 243.545 205.38 243.557H205.44L211.69 242.616L213.27 242.365L213.75 242.288Z" fill="#321017"/>
<path d="M192.69 226.073C192.69 226.587 192.83 227.091 193.091 227.518C193.353 227.946 193.724 228.28 194.159 228.477C194.594 228.674 195.073 228.725 195.534 228.625C195.996 228.525 196.42 228.277 196.753 227.913C197.086 227.549 197.312 227.085 197.404 226.58C197.496 226.076 197.449 225.552 197.269 225.077C197.089 224.601 196.784 224.195 196.392 223.909C196.001 223.623 195.541 223.47 195.07 223.47C194.439 223.47 193.833 223.744 193.387 224.232C192.941 224.72 192.69 225.382 192.69 226.073Z" fill="#321017"/>
<path d="M183.16 226.073C183.16 226.587 183.299 227.091 183.561 227.518C183.822 227.946 184.194 228.28 184.629 228.477C185.064 228.674 185.542 228.725 186.004 228.625C186.466 228.525 186.89 228.277 187.223 227.913C187.555 227.549 187.782 227.085 187.874 226.58C187.966 226.076 187.919 225.552 187.739 225.077C187.558 224.601 187.253 224.195 186.862 223.909C186.471 223.623 186.01 223.47 185.54 223.47C184.909 223.473 184.305 223.748 183.86 224.236C183.414 224.723 183.162 225.383 183.16 226.073Z" fill="#321017"/>
<path d="M173.65 224.772C173.417 225.218 173.31 225.73 173.343 226.243C173.375 226.755 173.546 227.246 173.834 227.653C174.121 228.059 174.512 228.364 174.958 228.528C175.403 228.692 175.883 228.708 176.337 228.574C176.791 228.44 177.198 228.162 177.508 227.775C177.818 227.388 178.015 226.91 178.077 226.4C178.138 225.891 178.06 225.373 177.852 224.912C177.644 224.451 177.317 224.067 176.91 223.809C176.361 223.465 175.709 223.373 175.098 223.553C174.487 223.734 173.966 224.172 173.65 224.772Z" fill="#321017"/>
<rect width="848" height="585" fill="#9f4d59" fill-opacity="0.1"/>
</svg>
