<svg width="848" height="585" viewBox="0 0 848 585" fill="none" xmlns="http://www.w3.org/2000/svg">
<path d="M416 524C524.8 524 613 514.15 613 502C613 489.85 524.8 480 416 480C307.2 480 219 489.85 219 502C219 514.15 307.2 524 416 524Z" stroke="#321017" stroke-width="0.25" stroke-miterlimit="10"/>
<path d="M416 519C504.918 519 577 510.493 577 500C577 489.507 504.918 481 416 481C327.082 481 255 489.507 255 500C255 510.493 327.082 519 416 519Z" stroke="#321017" stroke-width="0.5" stroke-miterlimit="10"/>
<path d="M415.5 515C484.259 515 540 508.508 540 500.5C540 492.492 484.259 486 415.5 486C346.741 486 291 492.492 291 500.5C291 508.508 346.741 515 415.5 515Z" stroke="#321017" stroke-miterlimit="10"/>
<path d="M418 509C474.333 509 520 504.971 520 500C520 495.029 474.333 491 418 491C361.667 491 316 495.029 316 500C316 504.971 361.667 509 418 509Z" fill="#9f4d59"/>
<path opacity="0.5" d="M418 509C474.333 509 520 504.971 520 500C520 495.029 474.333 491 418 491C361.667 491 316 495.029 316 500C316 504.971 361.667 509 418 509Z" fill="white"/>
<path d="M416 409C517.62 409 600 336.694 600 247.5C600 158.306 517.62 86 416 86C314.38 86 232 158.306 232 247.5C232 336.694 314.38 409 416 409Z" stroke="#321017" stroke-linecap="round" stroke-linejoin="round" stroke-dasharray="2 3"/>
<path d="M348.871 410C320.67 410 297.212 402.377 280.407 387.63C230.754 344.055 256.123 250.865 336.932 179.985C376.069 145.651 422.213 121.568 466.866 112.197C511.519 102.826 549.531 109.26 573.545 130.381C594.428 148.719 602.884 177.024 597.342 210.061L596.678 209.978C602.18 177.107 593.791 148.981 573.057 130.785C549.165 109.807 511.505 103.432 467.028 112.756C422.552 122.08 376.462 146.127 337.42 180.389C256.855 251.091 231.499 343.865 280.882 387.19C300.545 404.446 329.411 411.867 364.36 408.656L364.428 409.251C359.261 409.737 354.068 409.987 348.871 410Z" fill="#9f4d59"/>
<path d="M495.22 383C448.774 383 394.596 366.689 346.041 334.78C256.515 275.948 219.518 186.038 263.585 134.352C282.901 111.678 315.749 99.1187 356.058 99V99.5935C315.965 99.7123 283.32 112.177 264.139 134.708C220.329 186.133 257.259 275.675 346.487 334.305C435.716 392.936 543.95 398.8 587.774 347.364C605.914 326.055 610.875 298.028 602.103 266.309L602.765 266.166C611.578 298.075 606.577 326.269 588.315 347.708C568.12 371.378 534.421 382.988 495.22 383Z" fill="#9f4d59"/>
<path d="M330.335 313.997C316.047 314.057 301.774 313.198 287.63 311.427C245.537 305.941 219.317 292.292 213.994 272.99C208.671 253.689 224.857 231.067 259.496 209.326C294.134 187.586 342.963 169.355 397.128 157.884C451.293 146.412 504.303 143.104 546.356 148.578C588.409 154.052 614.683 167.701 620.006 187.014C625.329 206.328 609.143 228.925 574.504 250.666C539.866 272.407 491.051 290.626 436.872 302.097C399.762 309.951 363.195 313.997 330.335 313.997ZM503.719 146.638C471.62 146.638 435.148 150.446 397.277 158.467C343.194 169.914 294.392 188.145 259.889 209.791C225.386 231.436 209.404 253.82 214.659 272.859C219.914 291.899 245.89 305.405 287.739 310.844C329.588 316.282 382.626 312.998 436.709 301.55C548.284 277.929 630.217 226.581 619.341 187.181C612.158 161.097 566.235 146.638 503.719 146.638Z" fill="#9f4d59"/>
<path d="M371.018 429C368.287 428.995 365.567 428.712 362.91 428.155C340.979 423.488 325.615 400.07 319.67 362.21C313.724 324.351 317.778 276.824 331.142 228.071C344.506 179.318 365.559 135.304 390.435 104.111C415.312 72.919 441.162 58.18 463.093 62.847C485.024 67.5139 500.388 90.932 506.333 128.78C512.279 166.627 508.211 214.178 494.847 262.93C481.483 311.683 460.377 355.698 435.5 386.926C413.61 414.309 391.043 429 371.018 429ZM454.877 62.597C411.312 62.597 357.586 133.661 331.696 228.214C304.238 328.589 318.21 418.035 363.005 427.571C384.625 432.179 410.191 417.606 434.946 386.545C459.701 355.484 480.794 311.457 494.145 262.728C521.67 162.329 507.657 72.8952 462.836 63.3708C460.228 62.834 457.556 62.5742 454.877 62.597Z" fill="#9f4d59"/>
<path d="M440.018 379.124C440.509 379.543 441.134 379.828 441.814 379.943C442.493 380.058 443.198 379.998 443.838 379.771C444.478 379.544 445.025 379.159 445.41 378.666C445.795 378.173 446 377.593 446 377C446 376.407 445.795 375.827 445.41 375.334C445.025 374.841 444.478 374.456 443.838 374.229C443.198 374.002 442.493 373.942 441.814 374.057C441.134 374.172 440.509 374.457 440.018 374.876C439.366 375.442 439 376.205 439 377C439 377.795 439.366 378.558 440.018 379.124Z" fill="#9f4d59"/>
<path d="M443.025 380C442.099 380.006 441.199 379.69 440.479 379.106C439.76 378.522 439.265 377.706 439.08 376.798C438.896 375.89 439.032 374.946 439.465 374.127C439.899 373.309 440.604 372.666 441.459 372.309C442.314 371.952 443.266 371.903 444.154 372.17C445.041 372.437 445.808 373.004 446.323 373.774C446.839 374.544 447.071 375.469 446.981 376.391C446.89 377.313 446.482 378.175 445.827 378.83C445.461 379.201 445.024 379.496 444.543 379.697C444.063 379.897 443.546 380.001 443.025 380ZM443.025 372.78C442.491 372.779 441.964 372.911 441.493 373.162C441.021 373.414 440.619 373.778 440.322 374.222C440.025 374.667 439.842 375.177 439.789 375.709C439.736 376.241 439.816 376.778 440.02 377.272C440.225 377.766 440.548 378.201 440.961 378.541C441.374 378.88 441.865 379.111 442.389 379.216C442.914 379.32 443.455 379.293 443.967 379.138C444.478 378.982 444.943 378.703 445.321 378.325C445.93 377.716 446.271 376.89 446.271 376.029C446.271 375.168 445.93 374.342 445.321 373.733C445.021 373.43 444.663 373.189 444.269 373.026C443.875 372.862 443.452 372.779 443.025 372.78Z" fill="#9f4d59"/>
<path d="M314.881 315.124C315.301 315.543 315.836 315.828 316.418 315.943C316.999 316.058 317.602 315.998 318.15 315.771C318.698 315.544 319.166 315.159 319.495 314.666C319.824 314.173 320 313.593 320 313C320 312.407 319.824 311.827 319.495 311.334C319.166 310.841 318.698 310.456 318.15 310.229C317.602 310.002 316.999 309.942 316.418 310.057C315.836 310.172 315.301 310.457 314.881 310.876C314.602 311.155 314.38 311.486 314.229 311.85C314.078 312.215 314 312.605 314 313C314 313.395 314.078 313.785 314.229 314.15C314.38 314.514 314.602 314.845 314.881 315.124Z" fill="#9f4d59"/>
<path d="M316.494 317C316.029 316.993 315.571 316.894 315.145 316.709C314.72 316.524 314.336 316.257 314.016 315.922C313.445 315.352 313.092 314.603 313.016 313.803C312.939 313.003 313.144 312.201 313.596 311.535C314.048 310.868 314.719 310.377 315.494 310.147C316.27 309.916 317.102 309.959 317.849 310.268C318.595 310.578 319.211 311.135 319.591 311.845C319.971 312.554 320.091 313.373 319.931 314.16C319.771 314.948 319.342 315.657 318.715 316.165C318.088 316.674 317.303 316.951 316.494 316.949V317ZM316.494 310.659C315.926 310.66 315.37 310.828 314.898 311.141C314.426 311.455 314.058 311.9 313.841 312.421C313.623 312.942 313.567 313.515 313.677 314.069C313.788 314.622 314.061 315.13 314.463 315.529C315.009 316.048 315.737 316.338 316.494 316.338C317.25 316.338 317.978 316.048 318.525 315.529C318.926 315.13 319.2 314.622 319.31 314.069C319.421 313.515 319.364 312.942 319.147 312.421C318.929 311.9 318.561 311.455 318.089 311.141C317.617 310.828 317.062 310.66 316.494 310.659Z" fill="#9f4d59"/>
<path d="M269.875 266.118C270.295 266.538 270.829 266.825 271.411 266.942C271.993 267.058 272.597 266.999 273.146 266.773C273.695 266.546 274.164 266.161 274.494 265.668C274.824 265.174 275 264.594 275 264C275 263.406 274.824 262.826 274.494 262.332C274.164 261.839 273.695 261.454 273.146 261.227C272.597 261.001 271.993 260.942 271.411 261.058C270.829 261.175 270.295 261.462 269.875 261.882C269.315 262.444 269 263.206 269 264C269 264.794 269.315 265.556 269.875 266.118Z" fill="#9f4d59"/>
<path d="M271.499 267C270.689 267 269.904 266.718 269.278 266.204C268.652 265.69 268.224 264.974 268.067 264.18C267.909 263.385 268.033 262.56 268.415 261.846C268.798 261.132 269.417 260.573 270.166 260.264C270.915 259.955 271.748 259.916 272.522 260.153C273.297 260.389 273.966 260.887 274.414 261.562C274.863 262.236 275.064 263.046 274.982 263.852C274.901 264.658 274.542 265.411 273.968 265.982C273.312 266.634 272.424 267 271.499 267ZM271.499 260.636C270.839 260.64 270.202 260.872 269.694 261.293C269.187 261.714 268.841 262.298 268.715 262.945C268.59 263.592 268.693 264.263 269.007 264.843C269.32 265.423 269.825 265.877 270.435 266.126C271.046 266.376 271.724 266.406 272.354 266.212C272.984 266.017 273.527 265.611 273.891 265.061C274.255 264.511 274.418 263.852 274.35 263.196C274.283 262.54 273.99 261.928 273.522 261.464C272.981 260.937 272.254 260.644 271.499 260.649V260.636Z" fill="#9f4d59"/>
<path d="M246.886 219.978C247.305 220.467 247.839 220.799 248.421 220.933C249.002 221.068 249.604 220.998 250.151 220.733C250.699 220.468 251.166 220.019 251.495 219.444C251.824 218.868 252 218.192 252 217.5C252 216.808 251.824 216.132 251.495 215.556C251.166 214.981 250.699 214.532 250.151 214.267C249.604 214.002 249.002 213.932 248.421 214.067C247.839 214.201 247.305 214.533 246.886 215.022C246.605 215.346 246.382 215.732 246.23 216.157C246.078 216.583 246 217.039 246 217.5C246 217.961 246.078 218.417 246.23 218.843C246.382 219.268 246.605 219.654 246.886 219.978Z" fill="#9f4d59"/>
<path d="M249.494 221C248.569 220.998 247.682 220.632 247.025 219.981C246.535 219.491 246.202 218.866 246.067 218.187C245.932 217.507 246.002 216.803 246.267 216.163C246.532 215.522 246.98 214.975 247.556 214.59C248.131 214.205 248.808 214 249.5 214C250.192 214 250.869 214.205 251.444 214.59C252.02 214.975 252.468 215.522 252.733 216.163C252.998 216.803 253.068 217.507 252.933 218.187C252.798 218.866 252.465 219.491 251.975 219.981C251.315 220.635 250.423 221.001 249.494 221ZM247.47 219.535C247.87 219.936 248.381 220.209 248.936 220.32C249.492 220.431 250.068 220.375 250.591 220.158C251.115 219.941 251.562 219.574 251.877 219.102C252.192 218.631 252.36 218.076 252.36 217.509C252.36 216.942 252.192 216.387 251.877 215.916C251.562 215.444 251.115 215.077 250.591 214.86C250.068 214.643 249.492 214.587 248.936 214.698C248.381 214.809 247.87 215.082 247.47 215.483C246.934 216.021 246.633 216.749 246.633 217.509C246.633 218.269 246.934 218.997 247.47 219.535Z" fill="#9f4d59"/>
<path d="M255.028 307.27C255.518 307.619 256.142 307.856 256.82 307.952C257.499 308.048 258.202 307.999 258.841 307.809C259.48 307.62 260.027 307.299 260.411 306.888C260.795 306.477 261 305.994 261 305.5C261 305.006 260.795 304.523 260.411 304.112C260.027 303.701 259.48 303.38 258.841 303.191C258.202 303.002 257.499 302.952 256.82 303.048C256.142 303.144 255.518 303.381 255.028 303.73C254.702 303.962 254.444 304.238 254.267 304.542C254.091 304.846 254 305.171 254 305.5C254 305.829 254.091 306.154 254.267 306.458C254.444 306.762 254.702 307.038 255.028 307.27Z" fill="#9f4d59"/>
<path d="M257.502 308C256.573 308.001 255.681 307.635 255.02 306.982C254.367 306.324 254 305.434 254 304.506C254 303.579 254.367 302.689 255.02 302.031C255.426 301.623 255.927 301.321 256.478 301.153C257.028 300.985 257.612 300.955 258.177 301.066C258.742 301.177 259.271 301.426 259.716 301.791C260.162 302.156 260.511 302.625 260.732 303.156C260.953 303.688 261.039 304.266 260.984 304.839C260.928 305.412 260.731 305.963 260.412 306.442C260.092 306.921 259.66 307.314 259.152 307.586C258.644 307.858 258.078 308 257.502 308ZM257.502 301.636C256.936 301.637 256.383 301.805 255.912 302.12C255.442 302.434 255.075 302.881 254.859 303.404C254.642 303.927 254.586 304.503 254.696 305.058C254.806 305.613 255.079 306.123 255.478 306.524C256.023 307.045 256.748 307.336 257.502 307.336C258.256 307.336 258.98 307.045 259.525 306.524C259.925 306.123 260.197 305.613 260.308 305.058C260.418 304.503 260.361 303.927 260.145 303.404C259.928 302.881 259.561 302.434 259.091 302.12C258.621 301.805 258.068 301.637 257.502 301.636Z" fill="#9f4d59"/>
<path d="M349.026 171.118C349.515 171.538 350.138 171.825 350.817 171.942C351.495 172.058 352.199 171.999 352.839 171.773C353.478 171.546 354.025 171.161 354.41 170.668C354.795 170.174 355 169.594 355 169C355 168.406 354.795 167.826 354.41 167.332C354.025 166.839 353.478 166.454 352.839 166.227C352.199 166.001 351.495 165.942 350.817 166.058C350.138 166.175 349.515 166.462 349.026 166.882C348.701 167.16 348.443 167.49 348.267 167.853C348.091 168.217 348 168.606 348 169C348 169.394 348.091 169.783 348.267 170.147C348.443 170.51 348.701 170.84 349.026 171.118Z" fill="#9f4d59"/>
<path d="M351.013 172C350.354 172.002 349.705 171.881 349.124 171.649C348.542 171.418 348.045 171.082 347.678 170.671C347.311 170.261 347.085 169.789 347.02 169.298C346.954 168.806 347.052 168.31 347.304 167.853C347.556 167.397 347.954 166.994 348.463 166.681C348.972 166.367 349.577 166.153 350.223 166.057C350.869 165.961 351.537 165.986 352.167 166.131C352.797 166.275 353.37 166.533 353.835 166.884C354.392 167.303 354.771 167.837 354.924 168.417C355.077 168.998 354.998 169.6 354.696 170.147C354.395 170.694 353.884 171.161 353.229 171.491C352.573 171.821 351.802 171.998 351.013 172ZM351.013 166.545C350.584 166.542 350.159 166.604 349.762 166.725C349.365 166.847 349.004 167.027 348.7 167.255C348.154 167.657 347.811 168.188 347.73 168.759C347.649 169.33 347.835 169.904 348.255 170.383C348.676 170.863 349.306 171.218 350.037 171.387C350.768 171.557 351.554 171.531 352.263 171.314C352.971 171.097 353.557 170.702 353.92 170.197C354.283 169.691 354.401 169.107 354.253 168.544C354.106 167.981 353.702 167.474 353.111 167.109C352.52 166.745 351.778 166.545 351.013 166.545Z" fill="#9f4d59"/>
<path d="M500.026 110.971C500.515 111.462 501.138 111.796 501.817 111.932C502.495 112.068 503.199 111.999 503.839 111.735C504.478 111.47 505.025 111.021 505.41 110.446C505.795 109.87 506 109.193 506 108.5C506 107.807 505.795 107.13 505.41 106.554C505.025 105.979 504.478 105.53 503.839 105.265C503.199 105.001 502.495 104.932 501.817 105.068C501.138 105.204 500.515 105.538 500.026 106.029C499.701 106.353 499.443 106.738 499.267 107.162C499.091 107.586 499 108.041 499 108.5C499 108.959 499.091 109.414 499.267 109.838C499.443 110.262 499.701 110.647 500.026 110.971Z" fill="#9f4d59"/>
<path d="M501.996 112C501.471 112.002 500.952 111.913 500.467 111.738C499.983 111.563 499.542 111.306 499.172 110.981C498.801 110.656 498.506 110.269 498.305 109.844C498.104 109.419 498 108.964 498 108.504C498 108.043 498.104 107.588 498.305 107.163C498.506 106.738 498.801 106.351 499.172 106.026C499.544 105.701 499.985 105.443 500.471 105.267C500.957 105.091 501.477 105 502.003 105C502.528 105 503.049 105.091 503.535 105.267C504.02 105.443 504.462 105.701 504.833 106.026C505.581 106.685 506 107.575 506 108.504C506 109.432 505.581 110.322 504.833 110.981C504.461 111.307 504.018 111.565 503.531 111.74C503.044 111.915 502.522 112.003 501.996 112ZM501.996 105.631C501.566 105.631 501.141 105.706 500.745 105.85C500.348 105.994 499.988 106.205 499.685 106.471C499.383 106.738 499.143 107.054 498.98 107.401C498.817 107.749 498.734 108.121 498.736 108.497C498.734 108.873 498.816 109.245 498.978 109.592C499.14 109.94 499.38 110.256 499.682 110.522C500.307 111.045 501.138 111.336 502.003 111.336C502.867 111.336 503.699 111.045 504.324 110.522C504.934 109.983 505.275 109.256 505.275 108.497C505.275 107.739 504.934 107.011 504.324 106.472C503.703 105.936 502.867 105.634 501.996 105.631Z" fill="#9f4d59"/>
<path d="M506.026 149.118C506.515 149.538 507.138 149.825 507.817 149.942C508.495 150.058 509.199 149.999 509.839 149.773C510.478 149.546 511.025 149.161 511.41 148.668C511.795 148.174 512 147.594 512 147C512 146.406 511.795 145.826 511.41 145.332C511.025 144.839 510.478 144.454 509.839 144.227C509.199 144.001 508.495 143.942 507.817 144.058C507.138 144.175 506.515 144.461 506.026 144.882C505.701 145.16 505.443 145.49 505.267 145.853C505.091 146.217 505 146.606 505 147C505 147.394 505.091 147.783 505.267 148.147C505.443 148.51 505.701 148.84 506.026 149.118Z" fill="#9f4d59"/>
<path d="M508.502 150C508.041 150.003 507.585 149.927 507.159 149.777C506.733 149.627 506.346 149.406 506.02 149.127C505.367 148.563 505 147.8 505 147.005C505 146.21 505.367 145.448 506.02 144.884C506.427 144.534 506.927 144.275 507.478 144.131C508.028 143.987 508.612 143.961 509.177 144.057C509.742 144.152 510.271 144.365 510.716 144.678C511.162 144.99 511.511 145.392 511.732 145.848C511.953 146.304 512.039 146.799 511.984 147.291C511.928 147.782 511.731 148.254 511.412 148.665C511.092 149.075 510.66 149.412 510.152 149.645C509.644 149.878 509.078 150 508.502 150ZM506.478 148.734C507.023 149.181 507.748 149.431 508.502 149.431C509.256 149.431 509.98 149.181 510.525 148.734C510.792 148.508 511.004 148.237 511.148 147.94C511.292 147.642 511.366 147.322 511.365 147C511.361 146.35 511.06 145.727 510.525 145.265C509.98 144.819 509.256 144.569 508.502 144.569C507.748 144.569 507.023 144.819 506.478 145.265C505.942 145.726 505.641 146.35 505.641 147C505.641 147.65 505.942 148.274 506.478 148.734Z" fill="#9f4d59"/>
<path d="M484.026 291.118C484.515 291.538 485.138 291.825 485.817 291.942C486.495 292.058 487.199 291.999 487.839 291.773C488.478 291.546 489.025 291.161 489.41 290.668C489.795 290.174 490 289.594 490 289C490 288.406 489.795 287.826 489.41 287.332C489.025 286.839 488.478 286.454 487.839 286.227C487.199 286.001 486.495 285.942 485.817 286.058C485.138 286.175 484.515 286.462 484.026 286.882C483.701 287.16 483.443 287.49 483.267 287.853C483.091 288.217 483 288.606 483 289C483 289.394 483.091 289.783 483.267 290.147C483.443 290.51 483.701 290.84 484.026 291.118Z" fill="#9f4d59"/>
<path d="M487.01 292C485.952 292.001 484.936 291.688 484.184 291.13C483.526 290.642 483.115 289.997 483.021 289.306C482.926 288.616 483.154 287.922 483.666 287.343C484.177 286.764 484.94 286.336 485.825 286.132C486.71 285.928 487.662 285.961 488.518 286.224C489.375 286.488 490.083 286.966 490.522 287.577C490.961 288.189 491.103 288.895 490.925 289.577C490.747 290.258 490.26 290.872 489.546 291.314C488.832 291.756 487.936 291.998 487.01 292ZM484.706 290.75C485.162 291.091 485.743 291.322 486.375 291.416C487.007 291.509 487.662 291.46 488.257 291.275C488.852 291.089 489.36 290.776 489.718 290.374C490.075 289.972 490.266 289.499 490.266 289.016C490.266 288.533 490.075 288.061 489.718 287.659C489.36 287.257 488.852 286.943 488.257 286.758C487.662 286.573 487.007 286.523 486.375 286.617C485.743 286.71 485.162 286.942 484.706 287.283C484.094 287.743 483.751 288.366 483.751 289.016C483.751 289.666 484.094 290.29 484.706 290.75Z" fill="#9f4d59"/>
<path d="M334.021 411.118C334.51 411.539 335.134 411.825 335.813 411.942C336.492 412.058 337.197 411.999 337.837 411.773C338.477 411.546 339.024 411.161 339.409 410.668C339.794 410.174 340 409.594 340 409C340 408.406 339.794 407.826 339.409 407.332C339.024 406.839 338.477 406.454 337.837 406.227C337.197 406.001 336.492 405.942 335.813 406.058C335.134 406.175 334.51 406.462 334.021 406.882C333.367 407.444 333 408.206 333 409C333 409.794 333.367 410.556 334.021 411.118Z" fill="#9f4d59"/>
<path d="M336.495 413C336.035 413.001 335.58 412.91 335.155 412.733C334.73 412.556 334.345 412.296 334.022 411.969C333.367 411.311 333 410.421 333 409.494C333 408.566 333.367 407.676 334.022 407.018C334.431 406.613 334.933 406.314 335.485 406.148C336.036 405.983 336.62 405.955 337.185 406.069C337.75 406.182 338.278 406.433 338.723 406.798C339.167 407.164 339.515 407.633 339.735 408.165C339.955 408.696 340.04 409.274 339.983 409.846C339.926 410.418 339.729 410.968 339.408 411.446C339.088 411.924 338.655 412.316 338.147 412.587C337.639 412.858 337.071 413 336.495 413ZM334.468 411.524C335.006 412.06 335.735 412.361 336.495 412.361C337.255 412.361 337.985 412.06 338.522 411.524C339.06 410.987 339.361 410.259 339.361 409.5C339.361 408.741 339.06 408.013 338.522 407.476C337.977 406.955 337.251 406.664 336.495 406.664C335.74 406.664 335.014 406.955 334.468 407.476C333.931 408.013 333.629 408.741 333.629 409.5C333.629 410.259 333.931 410.987 334.468 411.524Z" fill="#9f4d59"/>
<path d="M481.13 409C475.933 408.995 470.741 408.754 465.573 408.277L465.64 407.684C500.59 410.885 529.455 403.487 549.119 386.344C598.501 343.141 573.132 250.655 492.581 180.184C453.539 146.028 407.504 122.091 362.973 112.749C318.442 103.407 280.836 109.821 256.931 130.722C236.197 148.862 227.822 176.96 233.324 209.682L232.66 209.765C227.117 176.794 235.56 148.577 256.456 130.331C280.524 109.275 318.415 102.826 363.135 112.192C407.856 121.558 453.932 145.554 493.055 179.77C573.878 250.477 599.247 343.379 549.593 386.771C532.789 401.4 509.318 409 481.13 409Z" fill="#9f4d59"/>
<path d="M334.193 383C293.413 383 260.476 370.578 240.793 347.533C222.415 326.012 217.399 297.726 226.262 265.725L226.928 265.868C218.106 297.691 223.081 325.809 241.337 347.176C262.665 372.186 299.639 384.56 345.435 382.095C391.231 379.63 440.561 362.575 483.978 334.063C573.694 275.241 610.845 185.406 566.775 133.813C547.486 111.184 514.659 98.7146 474.341 98.5955V98C514.876 98.1191 547.894 110.708 567.319 133.455C611.62 185.31 574.415 275.527 484.4 334.539C440.806 363.123 391.475 380.225 345.489 382.69C341.665 382.889 337.9 382.992 334.193 383Z" fill="#9f4d59"/>
<path d="M499.676 312.998C466.8 312.998 430.245 308.964 393.12 301.098C338.952 289.626 290.067 271.348 255.495 249.678C220.922 228.008 204.668 205.326 209.991 186.013C215.314 166.699 241.468 153.05 283.631 147.576C325.794 142.102 378.685 145.422 432.88 156.881C487.074 168.341 535.946 186.631 570.518 208.313C605.091 229.995 621.331 252.665 616.008 271.966C610.685 291.268 584.532 304.93 542.368 310.404C528.229 312.183 513.96 313.05 499.676 312.998ZM326.378 145.612C312.127 145.554 297.889 146.409 283.78 148.171C241.902 153.621 215.952 167.115 210.697 186.167C205.442 205.219 221.561 227.615 255.929 249.237C290.298 270.86 339.224 289.114 393.323 300.562C504.904 324.184 604.52 311.272 615.397 271.871C620.652 252.831 604.534 230.435 570.165 208.801C535.796 187.167 486.857 168.924 432.757 157.476C395.632 149.587 359.145 145.612 326.378 145.612Z" fill="#9f4d59"/>
<path d="M459.351 427.998C439.131 427.998 416.331 413.354 394.2 385.9C369.079 354.695 347.781 310.668 334.292 261.926C320.803 213.184 316.68 165.49 322.701 127.784C328.722 90.0791 344.272 66.5177 366.389 61.8507C388.507 57.1837 414.611 71.8277 439.8 103.104C464.989 134.38 486.219 178.324 499.708 227.078C513.197 275.832 517.32 323.514 511.299 361.219C505.278 398.924 489.769 422.438 467.692 427.2C464.959 427.757 462.158 428.025 459.351 427.998ZM374.704 61.5888C371.972 61.5841 369.25 61.8639 366.594 62.4222C344.75 67.0297 329.391 90.2696 323.397 127.903C317.404 165.537 321.486 213.148 334.975 261.819C348.464 310.489 369.693 354.457 394.773 385.638C419.853 416.819 445.602 431.26 467.474 426.653C512.746 417.045 526.89 327.609 499.094 227.185C485.618 178.515 464.375 134.559 439.295 103.366C417.3 76.1494 394.692 61.5888 374.69 61.5888H374.704Z" fill="#9f4d59"/>
<path d="M389.12 377.118C388.702 377.538 388.167 377.825 387.586 377.942C387.004 378.058 386.401 377.999 385.853 377.773C385.304 377.546 384.836 377.161 384.506 376.668C384.176 376.174 384 375.594 384 375C384 374.406 384.176 373.826 384.506 373.332C384.836 372.839 385.304 372.454 385.853 372.227C386.401 372.001 387.004 371.942 387.586 372.058C388.167 372.175 388.702 372.461 389.12 372.882C389.399 373.16 389.62 373.49 389.771 373.853C389.922 374.217 390 374.606 390 375C390 375.394 389.922 375.783 389.771 376.147C389.62 376.51 389.399 376.84 389.12 377.118Z" fill="#9f4d59"/>
<path d="M386.506 378C385.581 378.001 384.692 377.688 384.034 377.13C383.542 376.711 383.206 376.177 383.069 375.594C382.932 375.011 383 374.407 383.264 373.857C383.528 373.308 383.977 372.838 384.553 372.507C385.129 372.177 385.807 372 386.5 372C387.193 372 387.871 372.177 388.447 372.507C389.023 372.838 389.472 373.308 389.736 373.857C390 374.407 390.068 375.011 389.931 375.594C389.794 376.177 389.458 376.711 388.966 377.13C388.313 377.688 387.428 378 386.506 378ZM386.506 372.563C385.75 372.564 385.025 372.822 384.49 373.281C384.21 373.505 383.985 373.775 383.829 374.075C383.673 374.375 383.589 374.699 383.582 375.028C383.576 375.356 383.646 375.683 383.79 375.987C383.933 376.292 384.147 376.569 384.418 376.801C384.689 377.033 385.011 377.216 385.367 377.339C385.722 377.462 386.102 377.523 386.485 377.517C386.869 377.511 387.246 377.439 387.596 377.306C387.946 377.172 388.261 376.979 388.523 376.739C388.921 376.397 389.193 375.961 389.302 375.487C389.412 375.012 389.356 374.521 389.14 374.074C388.924 373.627 388.559 373.245 388.09 372.976C387.621 372.708 387.07 372.564 386.506 372.563Z" fill="#9f4d59"/>
<path d="M514.974 315.118C514.485 315.539 513.862 315.825 513.183 315.942C512.505 316.058 511.801 315.999 511.161 315.773C510.522 315.546 509.975 315.161 509.59 314.668C509.205 314.174 509 313.594 509 313C509 312.406 509.205 311.826 509.59 311.332C509.975 310.839 510.522 310.454 511.161 310.227C511.801 310.001 512.505 309.942 513.183 310.058C513.862 310.175 514.485 310.462 514.974 310.882C515.299 311.16 515.557 311.49 515.733 311.853C515.909 312.217 516 312.606 516 313C516 313.394 515.909 313.783 515.733 314.147C515.557 314.51 515.299 314.84 514.974 315.118Z" fill="#9f4d59"/>
<path d="M513.019 316C512.093 316.004 511.194 315.687 510.476 315.103C509.757 314.519 509.264 313.703 509.08 312.795C508.896 311.888 509.032 310.944 509.466 310.126C509.9 309.308 510.604 308.666 511.459 308.309C512.313 307.952 513.265 307.903 514.152 308.17C515.039 308.436 515.806 309.003 516.322 309.772C516.838 310.541 517.071 311.465 516.981 312.387C516.892 313.308 516.485 314.171 515.831 314.826C515.463 315.198 515.025 315.493 514.543 315.694C514.06 315.896 513.542 316 513.019 316ZM513.019 308.754C512.589 308.753 512.162 308.837 511.765 309.001C511.367 309.165 511.005 309.406 510.7 309.71C510.398 310.012 510.159 310.372 509.997 310.767C509.836 311.163 509.754 311.587 509.758 312.014C509.757 312.877 510.095 313.705 510.7 314.319C511.321 314.912 512.146 315.244 513.005 315.244C513.863 315.244 514.689 314.912 515.309 314.319C515.92 313.707 516.263 312.879 516.263 312.014C516.263 311.15 515.92 310.322 515.309 309.71C515.01 309.406 514.654 309.165 514.261 309.001C513.867 308.837 513.445 308.753 513.019 308.754Z" fill="#9f4d59"/>
<path d="M559.972 265.124C559.482 265.543 558.858 265.828 558.18 265.943C557.501 266.058 556.798 265.998 556.159 265.771C555.52 265.544 554.973 265.159 554.589 264.666C554.205 264.173 554 263.593 554 263C554 262.407 554.205 261.827 554.589 261.334C554.973 260.841 555.52 260.456 556.159 260.229C556.798 260.002 557.501 259.942 558.18 260.057C558.858 260.172 559.482 260.457 559.972 260.876C560.298 261.155 560.556 261.486 560.733 261.85C560.909 262.215 561 262.605 561 263C561 263.395 560.909 263.785 560.733 264.15C560.556 264.514 560.298 264.845 559.972 265.124Z" fill="#9f4d59"/>
<path d="M558.025 266C557.099 266.004 556.199 265.767 555.479 265.329C554.76 264.891 554.265 264.28 554.08 263.599C553.896 262.918 554.032 262.21 554.465 261.596C554.899 260.981 555.604 260.499 556.459 260.232C557.314 259.964 558.266 259.927 559.154 260.127C560.041 260.328 560.808 260.753 561.323 261.331C561.839 261.908 562.071 262.602 561.981 263.293C561.89 263.985 561.482 264.632 560.827 265.123C560.46 265.401 560.024 265.621 559.543 265.772C559.062 265.922 558.546 266 558.025 266ZM558.025 260.585C557.598 260.583 557.175 260.645 556.781 260.768C556.386 260.89 556.029 261.071 555.729 261.3C555.155 261.762 554.843 262.372 554.858 263.004C554.873 263.635 555.213 264.237 555.809 264.684C556.404 265.13 557.207 265.386 558.049 265.397C558.891 265.408 559.705 265.174 560.321 264.744C560.93 264.287 561.271 263.667 561.271 263.022C561.271 262.376 560.93 261.756 560.321 261.3C560.021 261.072 559.664 260.891 559.269 260.768C558.875 260.646 558.452 260.583 558.025 260.585Z" fill="#9f4d59"/>
<path d="M583.12 219.118C582.702 219.538 582.167 219.825 581.586 219.942C581.004 220.058 580.401 219.999 579.853 219.773C579.304 219.546 578.836 219.161 578.506 218.668C578.176 218.174 578 217.594 578 217C578 216.406 578.176 215.826 578.506 215.332C578.836 214.839 579.304 214.454 579.853 214.227C580.401 214.001 581.004 213.942 581.586 214.058C582.167 214.175 582.702 214.462 583.12 214.882C583.399 215.16 583.62 215.49 583.771 215.853C583.922 216.217 584 216.606 584 217C584 217.394 583.922 217.783 583.771 218.147C583.62 218.51 583.399 218.84 583.12 219.118Z" fill="#9f4d59"/>
<path d="M580.504 220C579.694 220.001 578.909 219.721 578.283 219.208C577.656 218.695 577.227 217.981 577.068 217.187C576.909 216.392 577.031 215.568 577.412 214.853C577.793 214.139 578.41 213.578 579.157 213.268C579.905 212.957 580.738 212.915 581.513 213.15C582.288 213.384 582.958 213.88 583.408 214.553C583.859 215.226 584.062 216.034 583.983 216.84C583.905 217.646 583.549 218.4 582.977 218.973C582.653 219.299 582.268 219.558 581.843 219.734C581.419 219.91 580.964 220.001 580.504 220ZM580.504 213.659C580.129 213.658 579.758 213.731 579.412 213.874C579.065 214.018 578.751 214.23 578.488 214.496C577.953 215.031 577.653 215.757 577.653 216.513C577.653 217.269 577.953 217.994 578.488 218.529C579.031 219.048 579.753 219.338 580.504 219.338C581.255 219.338 581.978 219.048 582.52 218.529C583.055 217.994 583.355 217.269 583.355 216.513C583.355 215.757 583.055 215.031 582.52 214.496C582.257 214.229 581.943 214.017 581.597 213.873C581.251 213.73 580.879 213.657 580.504 213.659Z" fill="#9f4d59"/>
<path d="M574.979 306.118C574.49 306.538 573.866 306.825 573.187 306.942C572.508 307.058 571.803 306.999 571.163 306.773C570.523 306.546 569.976 306.161 569.591 305.668C569.206 305.174 569 304.594 569 304C569 303.406 569.206 302.826 569.591 302.332C569.976 301.839 570.523 301.454 571.163 301.227C571.803 301.001 572.508 300.942 573.187 301.058C573.866 301.175 574.49 301.462 574.979 301.882C575.633 302.444 576 303.206 576 304C576 304.794 575.633 305.556 574.979 306.118Z" fill="#9f4d59"/>
<path d="M572 307C570.942 307 569.926 306.685 569.177 306.125C568.427 305.565 568.004 304.804 568 304.01C567.998 303.516 568.158 303.029 568.467 302.593C568.776 302.157 569.224 301.784 569.771 301.509C570.318 301.234 570.948 301.064 571.603 301.015C572.259 300.966 572.92 301.039 573.529 301.228C574.138 301.417 574.675 301.715 575.093 302.097C575.51 302.48 575.796 302.933 575.924 303.418C576.052 303.903 576.018 304.403 575.826 304.876C575.634 305.349 575.289 305.778 574.822 306.127C574.452 306.406 574.013 306.627 573.528 306.777C573.044 306.927 572.524 307.002 572 307ZM572 301.545C571.132 301.545 570.3 301.803 569.686 302.264C569.072 302.724 568.727 303.348 568.727 303.999C568.728 304.485 568.92 304.959 569.28 305.362C569.639 305.766 570.15 306.08 570.748 306.265C571.346 306.451 572.003 306.5 572.638 306.405C573.272 306.311 573.855 306.077 574.313 305.734C574.77 305.391 575.081 304.954 575.207 304.478C575.333 304.002 575.268 303.509 575.021 303.06C574.773 302.612 574.354 302.229 573.817 301.959C573.279 301.689 572.647 301.545 572 301.545Z" fill="#9f4d59"/>
<path d="M480.127 170.978C479.707 171.467 479.171 171.799 478.588 171.933C478.006 172.068 477.402 171.998 476.853 171.733C476.305 171.468 475.836 171.019 475.506 170.444C475.176 169.868 475 169.192 475 168.5C475 167.808 475.176 167.132 475.506 166.556C475.836 165.981 476.305 165.532 476.853 165.267C477.402 165.002 478.006 164.932 478.588 165.067C479.171 165.201 479.707 165.533 480.127 166.022C480.686 166.682 481 167.572 481 168.5C481 169.428 480.686 170.318 480.127 170.978Z" fill="#9f4d59"/>
<path d="M478.508 172C478.048 172.002 477.591 171.912 477.166 171.735C476.741 171.558 476.356 171.297 476.033 170.969C475.706 170.645 475.446 170.259 475.269 169.834C475.091 169.41 475 168.954 475 168.494C475 168.033 475.091 167.578 475.269 167.153C475.446 166.728 475.706 166.342 476.033 166.018C476.357 165.692 476.742 165.433 477.167 165.259C477.592 165.084 478.049 164.996 478.508 165C478.968 164.998 479.423 165.087 479.848 165.262C480.273 165.436 480.659 165.694 480.983 166.018C481.47 166.509 481.8 167.133 481.934 167.81C482.067 168.488 481.998 169.189 481.734 169.828C481.47 170.466 481.023 171.012 480.449 171.399C479.876 171.785 479.2 171.994 478.508 172ZM478.508 165.637C478.131 165.634 477.757 165.707 477.409 165.851C477.06 165.996 476.745 166.208 476.48 166.476C475.942 167.013 475.641 167.741 475.641 168.5C475.641 169.259 475.942 169.987 476.48 170.524C477.026 171.045 477.753 171.336 478.508 171.336C479.264 171.336 479.991 171.045 480.537 170.524C480.938 170.123 481.211 169.613 481.321 169.058C481.432 168.503 481.375 167.927 481.158 167.405C480.941 166.882 480.573 166.435 480.102 166.12C479.63 165.805 479.076 165.637 478.508 165.637Z" fill="#9f4d59"/>
<path d="M329.982 110.124C329.491 110.543 328.866 110.828 328.186 110.943C327.507 111.058 326.802 110.998 326.162 110.771C325.522 110.544 324.975 110.159 324.59 109.666C324.205 109.173 324 108.593 324 108C324 107.407 324.205 106.827 324.59 106.334C324.975 105.841 325.522 105.456 326.162 105.229C326.802 105.002 327.507 104.942 328.186 105.057C328.866 105.172 329.491 105.457 329.982 105.876C330.634 106.442 331 107.205 331 108C331 108.795 330.634 109.558 329.982 110.124Z" fill="#9f4d59"/>
<path d="M327.927 110.999C327.005 110.984 326.117 110.692 325.414 110.17C324.711 109.649 324.235 108.931 324.067 108.138C323.899 107.345 324.049 106.525 324.492 105.818C324.935 105.11 325.644 104.559 326.498 104.256C327.353 103.953 328.301 103.918 329.181 104.156C330.062 104.394 330.822 104.891 331.332 105.563C331.842 106.235 332.071 107.04 331.981 107.843C331.89 108.646 331.486 109.397 330.836 109.968C330.456 110.304 330.003 110.569 329.502 110.746C329.002 110.923 328.466 111.009 327.927 110.999ZM327.927 104.636C327.497 104.634 327.071 104.707 326.673 104.852C326.276 104.996 325.916 105.208 325.614 105.476C325.001 106.013 324.657 106.74 324.657 107.499C324.657 108.258 325.001 108.986 325.614 109.523C326.236 110.044 327.065 110.335 327.927 110.335C328.788 110.335 329.617 110.044 330.239 109.523C330.696 109.122 331.008 108.612 331.134 108.057C331.26 107.502 331.195 106.927 330.947 106.404C330.7 105.881 330.281 105.434 329.743 105.119C329.206 104.804 328.573 104.636 327.927 104.636Z" fill="#9f4d59"/>
<path d="M323.982 148.124C323.491 148.543 322.866 148.828 322.186 148.943C321.507 149.058 320.802 148.998 320.162 148.771C319.522 148.544 318.975 148.159 318.59 147.666C318.205 147.173 318 146.593 318 146C318 145.407 318.205 144.827 318.59 144.334C318.975 143.841 319.522 143.456 320.162 143.229C320.802 143.002 321.507 142.942 322.186 143.057C322.866 143.172 323.491 143.457 323.982 143.876C324.634 144.442 325 145.205 325 146C325 146.795 324.634 147.558 323.982 148.124Z" fill="#9f4d59"/>
<path d="M321.512 150C320.702 150.003 319.916 149.724 319.288 149.213C318.661 148.701 318.23 147.987 318.069 147.193C317.909 146.399 318.029 145.575 318.408 144.859C318.788 144.144 319.404 143.582 320.151 143.27C320.899 142.958 321.731 142.915 322.507 143.148C323.283 143.381 323.953 143.876 324.405 144.548C324.857 145.22 325.061 146.028 324.984 146.834C324.907 147.641 324.552 148.395 323.981 148.969C323.658 149.296 323.274 149.556 322.85 149.733C322.426 149.91 321.971 150.001 321.512 150ZM321.512 143.636C320.849 143.636 320.207 143.865 319.694 144.285C319.182 144.705 318.831 145.289 318.701 145.939C318.571 146.589 318.671 147.263 318.982 147.848C319.294 148.432 319.799 148.891 320.411 149.145C321.023 149.399 321.704 149.433 322.338 149.241C322.973 149.049 323.521 148.643 323.889 148.093C324.257 147.542 324.424 146.881 324.359 146.221C324.295 145.562 324.003 144.945 323.535 144.476C323.27 144.209 322.955 143.997 322.608 143.853C322.26 143.709 321.888 143.635 321.512 143.636Z" fill="#9f4d59"/>
<path d="M345.982 290.124C345.491 290.543 344.866 290.828 344.186 290.943C343.507 291.058 342.802 290.998 342.162 290.771C341.522 290.544 340.975 290.159 340.59 289.666C340.205 289.173 340 288.593 340 288C340 287.407 340.205 286.827 340.59 286.334C340.975 285.841 341.522 285.456 342.162 285.229C342.802 285.002 343.507 284.942 344.186 285.057C344.866 285.172 345.491 285.457 345.982 285.876C346.634 286.442 347 287.205 347 288C347 288.795 346.634 289.558 345.982 290.124Z" fill="#9f4d59"/>
<path d="M343.025 292C342.099 292.005 341.199 291.728 340.479 291.218C339.76 290.707 339.265 289.993 339.08 289.198C338.896 288.404 339.032 287.578 339.465 286.862C339.899 286.145 340.604 285.583 341.459 285.27C342.314 284.958 343.266 284.915 344.154 285.149C345.041 285.383 345.808 285.879 346.323 286.552C346.839 287.226 347.071 288.035 346.981 288.842C346.89 289.649 346.482 290.404 345.827 290.976C345.461 291.301 345.024 291.559 344.543 291.735C344.063 291.91 343.546 292.001 343.025 292ZM343.025 285.682C342.598 285.68 342.175 285.752 341.781 285.896C341.386 286.039 341.029 286.25 340.729 286.516C340.155 287.055 339.843 287.768 339.858 288.504C339.872 289.241 340.213 289.944 340.809 290.465C341.404 290.985 342.207 291.284 343.049 291.297C343.891 291.31 344.705 291.036 345.321 290.534C345.775 290.137 346.084 289.63 346.209 289.079C346.334 288.528 346.27 287.957 346.024 287.438C345.779 286.918 345.363 286.475 344.829 286.162C344.295 285.85 343.667 285.683 343.025 285.682Z" fill="#9f4d59"/>
<path d="M495.114 411.124C494.695 411.543 494.161 411.828 493.579 411.943C492.998 412.058 492.396 411.998 491.849 411.771C491.301 411.544 490.834 411.159 490.505 410.666C490.176 410.173 490 409.593 490 409C490 408.407 490.176 407.827 490.505 407.334C490.834 406.841 491.301 406.456 491.849 406.229C492.396 406.002 492.998 405.942 493.579 406.057C494.161 406.172 494.695 406.457 495.114 406.876C495.395 407.154 495.618 407.485 495.77 407.849C495.922 408.214 496 408.605 496 409C496 409.395 495.922 409.786 495.77 410.151C495.618 410.515 495.395 410.846 495.114 411.124Z" fill="#9f4d59"/>
<path d="M493.434 411.999C492.861 411.987 492.3 411.814 491.799 411.496C491.298 411.178 490.873 410.724 490.562 410.174C490.25 409.624 490.062 408.995 490.013 408.342C489.964 407.69 490.056 407.033 490.281 406.431C490.505 405.828 490.856 405.298 491.302 404.887C491.748 404.476 492.276 404.196 492.838 404.072C493.401 403.948 493.982 403.984 494.53 404.177C495.077 404.37 495.575 404.713 495.98 405.177C496.633 405.93 497 406.947 497 408.007C497 409.067 496.633 410.084 495.98 410.836C495.645 411.214 495.247 411.512 494.81 411.712C494.373 411.912 493.905 412.009 493.434 411.999ZM493.434 404.727C492.868 404.727 492.315 404.919 491.845 405.279C491.374 405.639 491.008 406.15 490.791 406.747C490.575 407.345 490.518 408.003 490.628 408.637C490.739 409.271 491.011 409.854 491.411 410.312C491.956 410.908 492.68 411.24 493.434 411.24C494.188 411.24 494.913 410.908 495.458 410.312C495.858 409.854 496.13 409.271 496.24 408.637C496.351 408.003 496.294 407.345 496.077 406.747C495.861 406.15 495.494 405.639 495.024 405.279C494.553 404.919 494 404.727 493.434 404.727Z" fill="#9f4d59"/>
<path d="M237.979 163.118C237.49 163.538 236.866 163.825 236.187 163.942C235.508 164.058 234.803 163.999 234.163 163.773C233.523 163.546 232.976 163.161 232.591 162.668C232.206 162.174 232 161.594 232 161C232 160.406 232.206 159.826 232.591 159.332C232.976 158.839 233.523 158.454 234.163 158.227C234.803 158.001 235.508 157.942 236.187 158.058C236.866 158.175 237.49 158.462 237.979 158.882C238.633 159.444 239 160.206 239 161C239 161.794 238.633 162.556 237.979 163.118Z" fill="#9f4d59"/>
<path d="M235.522 165C234.711 165.005 233.924 164.728 233.294 164.218C232.665 163.707 232.232 162.993 232.07 162.198C231.909 161.404 232.028 160.578 232.407 159.862C232.787 159.145 233.403 158.583 234.151 158.27C234.9 157.958 235.733 157.915 236.509 158.149C237.286 158.383 237.957 158.879 238.408 159.552C238.859 160.226 239.063 161.035 238.983 161.842C238.904 162.649 238.547 163.404 237.973 163.976C237.653 164.301 237.271 164.559 236.851 164.735C236.43 164.91 235.978 165.001 235.522 165ZM235.522 158.682C235.149 158.681 234.779 158.754 234.434 158.898C234.089 159.041 233.776 159.251 233.513 159.516C232.981 160.049 232.682 160.772 232.682 161.525C232.682 162.279 232.981 163.001 233.513 163.534C233.844 163.865 234.251 164.109 234.698 164.245C235.146 164.381 235.62 164.405 236.078 164.314C236.537 164.223 236.966 164.02 237.328 163.723C237.69 163.426 237.972 163.045 238.151 162.613C238.33 162.181 238.4 161.711 238.354 161.246C238.308 160.78 238.148 160.333 237.888 159.945C237.628 159.556 237.276 159.237 236.863 159.017C236.45 158.797 235.99 158.682 235.522 158.682Z" fill="#9f4d59"/>
<path d="M296 350C296 350.265 295.789 350.52 295.414 350.707C295.039 350.895 294.53 351 294 351C293.47 351 292.961 350.895 292.586 350.707C292.211 350.52 292 350.265 292 350C292 349.735 292.211 349.48 292.586 349.293C292.961 349.105 293.47 349 294 349C294.53 349 295.039 349.105 295.414 349.293C295.789 349.48 296 349.735 296 350Z" fill="#9f4d59"/>
<path d="M627.905 253.84L628 253.782H627.811L597.507 234L567.189 253.782H567L567.095 253.84L567 253.899H567.203L597.777 273L627.811 253.899H628L627.905 253.84Z" fill="#9f4d59" stroke="#321017" stroke-linecap="round" stroke-linejoin="round"/>
<path d="M618 235H577V280H618V235Z" fill="white" stroke="#730D23" stroke-linecap="round" stroke-linejoin="round"/>
<path d="M606 247.264C606 252.3 603.27 255.187 600.54 255.187C600.247 255.221 599.949 255.203 599.666 255.132C599.382 255.062 599.119 254.941 598.895 254.779C598.67 254.616 598.489 254.415 598.364 254.189C598.238 253.962 598.17 253.716 598.165 253.466C597.929 253.99 597.504 254.438 596.95 254.747C596.397 255.055 595.743 255.209 595.08 255.187C592.828 255.187 592.05 253.559 592.351 251.307L592.678 248.766C592.938 246.456 594.18 245.012 596.391 245.059C596.986 245.031 597.574 245.185 598.047 245.492C598.52 245.799 598.848 246.239 598.971 246.733L599.189 245.163H601.223L600.322 252.45C600.226 253.027 600.445 253.535 601.195 253.535C603.502 253.535 604.28 249.805 604.253 247.322C604.253 243.788 602.301 241.548 597.797 241.548C591.805 241.548 589.02 245.752 589.02 251.445C589.02 255.834 591.381 258.467 596.609 258.467C598.736 258.543 600.826 257.979 602.506 256.873L602.328 258.628C600.601 259.595 598.555 260.072 596.486 259.991C589.88 259.991 587 256.527 587 251.341C587 245.301 590.426 240 597.92 240C603.843 239.966 606 243.084 606 247.264ZM594.63 248.939L594.357 251.249C594.18 252.577 594.657 253.559 596.063 253.559C597.469 253.559 598.193 252.669 598.384 251.249L598.684 248.812C598.834 247.657 598.261 246.791 596.937 246.791C595.613 246.791 594.807 247.576 594.63 248.939Z" fill="#321017"/>
<path d="M567 254V285H628V254L597.507 269.494L567 254Z" fill="#9f4d59" stroke="#321017" stroke-linecap="round" stroke-linejoin="round"/>
<path d="M567 285L597.507 269L628 285" stroke="#321017" stroke-linecap="round" stroke-linejoin="round"/>
<path d="M269.658 259.56C270.207 256.901 269.865 254.157 268.674 251.671C267.483 249.184 265.496 247.065 262.961 245.578C260.426 244.091 257.455 243.302 254.419 243.309C251.384 243.316 248.418 244.12 245.892 245.618C244.079 241.615 240.757 238.3 236.496 236.243C232.235 234.186 227.302 233.516 222.546 234.348C217.79 235.181 213.509 237.464 210.439 240.804C207.369 244.144 205.703 248.333 205.728 252.649C205.728 252.878 205.728 253.106 205.728 253.322C202.757 254.102 200.175 255.764 198.412 258.032C196.649 260.3 195.811 263.036 196.036 265.787C196.261 268.538 197.537 271.137 199.652 273.153C201.766 275.168 204.591 276.479 207.657 276.866V276.999H268.997C271.576 277.04 274.069 276.177 275.94 274.596C277.811 273.014 278.908 270.841 278.994 268.545C279.081 266.249 278.151 264.015 276.404 262.325C274.657 260.635 272.234 259.625 269.658 259.512V259.56Z" fill="white" stroke="#730D23" stroke-linecap="round" stroke-linejoin="round"/>
<path d="M252 270.944L234.993 252L218 270.944H224.641V288H245.346V270.944H252Z" fill="#321017"/>
<path d="M379.011 486C376.871 487.43 374.825 488.961 372.884 490.586C370.142 492.931 362.246 495.617 357.49 498.491C352.733 501.364 355.529 504.237 359.724 505.434C363.919 506.63 375.968 505.668 380.437 504.953C384.906 504.237 387.168 499.687 390.8 498.971C394.433 498.256 401.164 500.883 401.438 496.333C401.712 491.782 402 487.231 402 487.231L379.011 486Z" fill="white" stroke="#321017" stroke-linecap="round" stroke-linejoin="round"/>
<path d="M400.838 496.647C400.838 495.749 400.946 494.863 401 494C397.995 495.817 394.232 495.738 389.223 496.647C382.875 497.783 380.655 502.906 367.944 503.371C359.714 503.667 356.371 502.417 355.017 501.497C354.787 503.212 356.912 504.689 359.647 505.462C363.802 506.598 375.687 505.689 380.1 504.996C384.513 504.303 386.746 499.895 390.333 499.203C393.921 498.51 400.526 501.054 400.838 496.647Z" fill="white" stroke="#321017" stroke-linecap="round" stroke-linejoin="round"/>
<path d="M381.677 485C381.677 485 375.561 492.258 373.44 494.593C371.318 496.928 377.422 496.142 380.09 493.807C382.57 491.373 384.878 488.778 387 486.041L381.677 485Z" fill="white" stroke="#321017" stroke-linecap="round" stroke-linejoin="round"/>
<path d="M468.499 486C470.595 487.43 472.597 488.961 474.497 490.586C477.18 492.931 484.908 495.617 489.563 498.491C494.219 501.364 491.482 504.237 487.376 505.434C483.271 506.63 471.478 505.668 467.104 504.953C462.73 504.237 460.517 499.687 456.961 498.971C453.406 498.256 446.818 500.883 446.55 496.333C446.282 491.782 446 487.231 446 487.231L468.499 486Z" fill="white" stroke="#321017" stroke-linecap="round" stroke-linejoin="round"/>
<path d="M447.159 496.647C447.159 495.749 447.053 494.863 447 494C449.94 495.817 453.621 495.738 458.521 496.647C464.731 497.783 466.903 502.906 479.337 503.371C487.388 503.667 490.659 502.417 491.983 501.497C492.208 503.212 490.129 504.689 487.455 505.462C483.389 506.598 471.763 505.689 467.446 504.996C463.129 504.303 460.944 499.895 457.435 499.203C453.926 498.51 447.424 501.054 447.159 496.647Z" fill="white" stroke="#321017" stroke-linecap="round" stroke-linejoin="round"/>
<path d="M466.703 485C466.703 485 473.256 492.258 475.529 494.593C477.802 496.928 471.262 496.142 468.404 493.807C465.747 491.373 463.273 488.778 461 486.041L466.703 485Z" fill="white" stroke="#321017" stroke-linecap="round" stroke-linejoin="round"/>
<path d="M382.193 312.131C382.193 312.131 378.748 339.582 378.748 343.962C378.748 348.342 378.748 404.222 379.518 414.105C380.288 423.987 376.438 428.045 378.748 440.636C381.058 453.228 381.828 475.368 381.828 475.368C381.828 475.368 378.748 477.074 378.748 478.781V486.264L401.96 488.496C401.96 488.496 403.419 470.952 403.797 465.497C404.175 460.043 409.971 425.682 411.512 415.8C413.052 405.917 419.132 349.703 419.132 349.703C419.132 349.703 429.238 412.064 430.008 414.152C432.161 419.033 433.966 424.028 435.412 429.107C438.871 440.35 441.965 479.163 441.965 479.163L445.275 490L469 486.097C469 486.097 465.474 468.612 465.474 465.891C465.474 463.17 464.704 464.184 463.933 457.369C462.514 444.708 462.125 431.972 462.772 419.261C463.542 399.508 453.138 347.077 453.138 347.077L450.058 312C450.058 312 411.849 319.806 382.193 312.131Z" fill="#321017" stroke="#321017" stroke-linecap="round" stroke-linejoin="round"/>
<path d="M428.571 342L422 352C422 352 436.082 345.077 445 343.923" stroke="white" stroke-linecap="round" stroke-linejoin="round"/>
<path d="M408 348C408 348 402.214 339.442 392 337" stroke="white" stroke-linecap="round" stroke-linejoin="round"/>
<path d="M380.599 315.607C380.599 315.607 376.527 324.279 378.577 326.886C380.626 329.493 399.328 336 418.044 336C436.759 336 455 330.355 455 326.455C455 322.556 451.458 313 451.458 313C451.458 313 421.084 325.152 380.599 315.607Z" fill="#9f4d59" stroke="#321017" stroke-linecap="round" stroke-linejoin="round"/>
<path d="M387.825 230.358C387.825 230.358 374.298 230.358 371.214 232.574C368.13 234.79 367.778 243.955 367.453 245.62C367.129 247.285 360 277.091 360 277.091L375.055 295.433L380.629 272L381.17 317.524C381.17 317.524 382.184 322.004 385.634 323.67C389.083 325.335 413.215 327 424.496 327C435.778 327 452.037 321.992 453.295 318.937C454.553 315.883 450.833 281.776 450.833 281.776L456.176 292.306L469 272.851C469 272.851 460.235 247.07 458.977 241.523C457.719 235.976 454.283 234.335 447.384 231.807C440.485 229.279 420.114 230.142 411.97 230.142C403.827 230.142 387.825 230.358 387.825 230.358Z" fill="#9f4d59" stroke="#321017" stroke-linecap="round" stroke-linejoin="round"/>
<path d="M390 319.233C392.543 318.972 394.921 318.013 396.777 316.497C398.634 314.982 399.87 312.991 400.302 310.823C402.36 302.863 403.396 298.439 403.396 298.439L407 298C406.928 302.433 406.582 306.86 405.964 311.261C404.942 318.782 401.821 321 400.302 321" stroke="#321017" stroke-linecap="round" stroke-linejoin="round"/>
<path d="M446.917 316.045C451.136 306.91 441.671 296.453 441.671 296.453L438 296C438 296 448.492 307.878 443.246 317" stroke="#321017" stroke-linecap="round" stroke-linejoin="round"/>
<path d="M380 272L378 258" stroke="#321017" stroke-linecap="round" stroke-linejoin="round"/>
<path d="M450 282L449 256" stroke="#321017" stroke-linecap="round" stroke-linejoin="round"/>
<path d="M452.59 284C452.59 284 448.47 277.503 462 272" stroke="#321017" stroke-linecap="round" stroke-linejoin="round"/>
<path d="M455 269C455 269 461.667 267 466 267" stroke="#321017" stroke-linecap="round" stroke-linejoin="round"/>
<path d="M364 272C364 272 374.74 274.86 377 282" stroke="#321017" stroke-linecap="round" stroke-linejoin="round"/>
<path d="M377 275C377 275 373.11 269.005 367 268" stroke="#321017" stroke-linecap="round" stroke-linejoin="round"/>
<path d="M406.535 219.014C406.535 219.014 399.497 219.014 397.423 220.4C395.349 221.787 394.292 225.472 393.249 226.159C392.205 226.846 387.522 226.621 386.479 229.156C385.435 231.692 385.435 231.005 393.516 237.699C401.598 244.393 421.613 252 423.727 252C425.841 252 439.354 238.161 443.261 236.597C447.168 235.033 447.69 234.986 447.944 234.062C448.198 233.137 447.69 228.528 444.291 226.68C441.872 225.489 439.221 224.709 436.478 224.382C436.478 224.382 435.969 221.609 431.795 219.536C427.621 217.462 421.894 217 417.733 217C413.572 217 406.535 219.014 406.535 219.014Z" fill="#9f4d59" stroke="#321017" stroke-linecap="round" stroke-linejoin="round"/>
<path d="M437 223C436.597 226.766 435.587 230.467 434 234" stroke="#321017" stroke-linecap="round" stroke-linejoin="round"/>
<path d="M395 228C395 228 396.071 231.507 402 235" stroke="#321017" stroke-linecap="round" stroke-linejoin="round"/>
<path d="M419 248L420 279" stroke="white" stroke-linecap="round" stroke-linejoin="round"/>
<path d="M427 249L430 277" stroke="white" stroke-linecap="round" stroke-linejoin="round"/>
<path d="M349.969 227.934L337.415 231.724C336.332 232.051 335.755 233.087 336.128 234.038L345.399 257.697C345.771 258.648 346.952 259.154 348.035 258.827L360.59 255.037C361.673 254.71 362.249 253.674 361.877 252.723L352.606 229.064C352.233 228.113 351.053 227.607 349.969 227.934Z" fill="#321017" stroke="#321017" stroke-linecap="round" stroke-linejoin="round"/>
<path d="M348.934 267.199C347.855 266.242 337.944 245.307 337.052 243.393C336.159 241.479 347.136 234.757 347.136 234.757C347.136 234.757 350.027 233.162 350.027 234.603C350.027 236.044 344.432 240.357 343.712 241.479C342.993 242.601 345.338 246.11 345.338 246.11C345.338 246.11 352.358 242.755 352.904 242.755C353.45 242.755 361.19 248.662 361.91 249.3C362.629 249.938 364.574 251.864 364.081 252.844C363.588 253.825 362.269 253.329 361.417 253.163C360.564 252.998 352.585 255.526 352.585 255.526C352.585 255.526 355.649 259.366 355.249 261.599C355.013 263.008 354.653 264.399 354.17 265.758C354.17 265.758 371.275 284.389 373.433 285.511C375.591 286.634 376.816 290.721 375.378 295.034C373.939 299.346 370.555 299.086 366.053 298.932C361.55 298.779 348.934 267.199 348.934 267.199Z" fill="white" stroke="#321017" stroke-linecap="round" stroke-linejoin="round"/>
<path d="M356 247.003C354.705 246.978 353.412 247.094 352.178 247.345C351.451 247.695 346 250 346 250" stroke="#321017" stroke-linecap="round" stroke-linejoin="round"/>
<path d="M348 254C350.117 252.336 352.325 250.806 354.612 249.419C357.063 249.106 359.531 248.968 362 249.006" stroke="#321017" stroke-linecap="round" stroke-linejoin="round"/>
<path d="M362 250C362 250 354.008 251.61 352.996 251.966C351.548 252.818 350.207 253.836 349 255" stroke="#321017" stroke-linecap="round" stroke-linejoin="round"/>
<path d="M346 247L343 248" stroke="#321017" stroke-linecap="round" stroke-linejoin="round"/>
<path d="M467.791 273.845L497.532 253.252C497.532 253.252 496.197 245.845 496.464 244.693C496.731 243.542 499.134 236.833 504.968 234.286C510.801 231.739 512.67 231.274 512.67 233.123C512.67 234.972 510.534 235.449 510 236.135C509.466 236.821 506.543 239.368 506.543 239.368C506.543 239.368 512.122 237.286 513.978 237.286C515.833 237.286 519.024 236.6 519.024 238.216C519.024 239.833 516.901 239.833 515.566 239.833C514.232 239.833 510.521 243.077 510.521 243.077C513.602 242.397 516.72 241.853 519.865 241.449C521.453 241.449 522.788 243.077 521.453 243.775C520.276 244.295 519.03 244.685 517.742 244.938C516.556 245.419 515.402 245.959 514.285 246.554C514.285 246.554 522.294 245.856 521.72 247.717C521.146 249.577 517.475 249.1 516.674 249.1C514.935 249.46 513.362 250.271 512.163 251.426C511.629 252.345 510.561 256.287 508.438 257.24C506.316 258.194 502.338 259.566 502.338 259.566C502.338 259.566 488.789 273.915 483.209 279.462C477.629 285.009 467.591 291.416 461.945 292.578C456.298 293.741 455.27 292.346 455.043 290.253C454.816 288.16 455.017 280.776 467.791 273.845Z" fill="white" stroke="#321017" stroke-linecap="round" stroke-linejoin="round"/>
<path d="M498 241.652C498 241.652 504.291 239 505.596 239C506.902 239 509.012 239.961 507.443 241.652C505.683 243.213 503.746 244.596 501.666 245.776C501.666 245.776 509.276 248.672 505.623 254" stroke="#321017" stroke-linecap="round" stroke-linejoin="round"/>
<path d="M422.314 178.222C422.314 178.222 413.774 179.526 409.833 183.737C405.892 187.947 392.918 213.415 393 215.7C393.082 217.985 406.179 216.824 406.179 216.824C406.179 216.824 407.548 229.576 412.159 238.907C413.432 241.443 417.962 246.467 422.82 244.589C427.678 242.711 429.786 213.63 429.786 213.63C429.786 213.63 434.411 219.36 437.915 217.829C441.911 216.071 441.185 211.848 438.325 211.537C435.465 211.226 447.494 201.967 444.525 194.862C441.555 187.756 426.009 176.26 422.314 178.222Z" fill="white" stroke="#321017" stroke-linecap="round" stroke-linejoin="round"/>
<path d="M419.773 169.718C419.773 169.718 403.763 168.363 402.199 174.994C400.634 181.625 408.537 185.333 417.787 184.857C427.036 184.382 435.252 185.594 436.258 186.937C437.265 188.28 424.724 189.729 427.376 191.69C428.921 192.864 430.868 193.558 432.912 193.663C432.912 193.663 428.832 194.316 428.832 196.835C428.832 199.355 430.096 210.56 432.096 210.727C434.095 210.893 437.904 211 437.904 211C441.681 209.714 445.187 207.891 448.282 205.605C453.002 201.981 455.083 193.615 450.228 188.173C445.372 182.73 441.631 177.561 437.795 173.224C433.959 168.886 430.45 164.299 422.017 162.529C413.584 160.758 408.66 163.503 419.773 169.718Z" fill="#321017" stroke="#321017" stroke-linecap="round" stroke-linejoin="round"/>
<path d="M449.849 198C450.209 199.338 449.924 200.685 449 202" stroke="white" stroke-linecap="round" stroke-linejoin="round"/>
<path d="M422.636 178C422.636 178 405.087 178 411.351 181.33C417.615 184.66 428.238 180.258 440.388 185.527C442.444 186.353 444.272 187.534 445.756 188.993C447.239 190.452 448.344 192.158 449 194" stroke="white" stroke-linecap="round" stroke-linejoin="round"/>
<path d="M433 190C433 190 443.309 196.264 444 204" stroke="white" stroke-linecap="round" stroke-linejoin="round"/>
<path d="M406 215.987C406 215.987 419.163 216.191 423 215" stroke="#321017" stroke-linecap="round" stroke-linejoin="round"/>
<path d="M403 205.798C403 205.798 412.605 209.46 416 204" stroke="#321017" stroke-linecap="round" stroke-linejoin="round"/>
<path d="M414 203L419 205" stroke="#321017" stroke-linecap="round" stroke-linejoin="round"/>
<path d="M407 195C407 195 398.137 195.213 398.003 196.33C397.868 197.447 403.121 201 403.121 201" fill="white"/>
<path d="M407 195C407 195 398.137 195.213 398.003 196.33C397.868 197.447 403.121 201 403.121 201" stroke="#321017" stroke-linecap="round" stroke-linejoin="round"/>
<path d="M408.616 192.437C408.066 193.507 407.122 194.196 406.502 193.95C405.882 193.704 405.826 192.646 406.39 191.564C406.953 190.481 407.883 189.804 408.503 190.051C409.123 190.297 409.165 191.354 408.616 192.437Z" fill="#321017"/>
<path d="M415.621 195.827C415.07 196.639 414.109 197.147 413.501 196.962C412.894 196.778 412.823 195.984 413.374 195.173C413.925 194.361 414.872 193.853 415.494 194.038C416.116 194.222 416.172 195.016 415.621 195.827Z" fill="#321017"/>
<path d="M417 189C417 189 420.714 189.724 419.877 195L417 189Z" fill="#321017" stroke="#321017" stroke-linecap="round" stroke-linejoin="round"/>
<path d="M413 186.35C413 186.35 410.806 182.917 407 187L413 186.35Z" fill="#321017" stroke="#321017" stroke-linecap="round" stroke-linejoin="round"/>
<path d="M341.338 226L341.119 217.524C342.41 217.521 343.647 217.075 344.561 216.283C345.476 215.492 345.993 214.419 346 213.298V190.238C345.996 189.115 345.481 188.039 344.566 187.245C343.652 186.451 342.412 186.003 341.119 186H279.868C278.577 186.006 277.341 186.455 276.429 187.249C275.517 188.043 275.004 189.117 275 190.238V213.333C275.004 214.453 275.518 215.526 276.43 216.318C277.342 217.11 278.578 217.556 279.868 217.56H332.837L341.338 226Z" fill="#321017"/>
<path d="M296 200.014C296.003 199.42 295.829 198.838 295.501 198.343C295.173 197.848 294.706 197.461 294.158 197.232C293.61 197.003 293.006 196.942 292.423 197.056C291.84 197.17 291.304 197.455 290.884 197.874C290.463 198.293 290.176 198.827 290.059 199.41C289.942 199.992 290 200.596 290.227 201.145C290.454 201.694 290.838 202.163 291.332 202.493C291.825 202.824 292.406 203 293 203C293.793 203 294.554 202.686 295.116 202.126C295.679 201.567 295.996 200.807 296 200.014Z" fill="#9f4d59"/>
<path d="M314 200.014C314.003 199.419 313.8 198.837 313.417 198.342C313.033 197.846 312.487 197.46 311.847 197.231C311.207 197.002 310.502 196.942 309.821 197.057C309.141 197.172 308.516 197.458 308.025 197.879C307.535 198.299 307.201 198.835 307.066 199.418C306.932 200.001 307.003 200.606 307.269 201.154C307.536 201.703 307.987 202.172 308.566 202.5C309.144 202.829 309.822 203.003 310.516 203C311.44 203 312.326 202.685 312.98 202.125C313.633 201.565 314 200.806 314 200.014Z" fill="#9f4d59"/>
<path d="M331 200.014C331.003 199.42 330.829 198.838 330.501 198.343C330.173 197.848 329.706 197.461 329.158 197.232C328.61 197.003 328.006 196.942 327.423 197.056C326.84 197.17 326.304 197.455 325.884 197.874C325.463 198.293 325.176 198.827 325.059 199.41C324.942 199.992 325 200.596 325.227 201.145C325.454 201.694 325.838 202.163 326.332 202.493C326.825 202.824 327.406 203 328 203C328.793 203 329.554 202.686 330.116 202.126C330.679 201.567 330.996 200.807 331 200.014Z" fill="#9f4d59"/>
<path d="M0 0H848V585H0V0Z" fill="#9f4d59" fill-opacity="0.1"/>
</svg>
