<svg width="848" height="585" viewBox="0 0 848 585" fill="none" xmlns="http://www.w3.org/2000/svg">
<rect width="848" height="585" fill="#25678E" fill-opacity="0.1"/>
<path d="M636.044 383.203C634.217 383.946 632.274 384.365 630.304 384.443C628.437 384.522 626.573 384.24 624.814 383.613C621.574 382.403 619.414 379.903 619.454 376.613C619.516 375.542 619.67 374.478 619.914 373.433C622.364 373.513 624.774 372.483 627.184 371.523C629.594 370.563 631.914 369.613 634.314 369.983C636.944 370.433 642.314 371.743 643.224 374.523C644.494 378.233 639.924 381.613 636.044 383.203Z" fill="#008BB7"/>
<path d="M614.364 378.382C611.912 377.404 609.771 375.78 608.167 373.683C606.563 371.586 605.557 369.095 605.254 366.472C604.784 363.812 605.424 361.202 607.964 360.822C608.935 360.783 609.902 360.955 610.8 361.326C611.698 361.697 612.504 362.259 613.164 362.972C614.496 364.425 615.472 366.167 616.014 368.062C616.618 370.047 616.761 372.144 616.434 374.192C616.064 375.726 615.357 377.157 614.364 378.382Z" fill="#008BB7"/>
<path d="M627.614 360.243C625.233 365.18 622.297 369.83 618.864 374.103C615.412 378.312 611.371 382 606.864 385.053" stroke="#008BB7" stroke-linecap="round" stroke-linejoin="round"/>
<path d="M604.764 408.523C601.218 408.101 597.861 406.695 595.074 404.463C592.434 402.243 591.004 399.303 592.074 396.153C592.47 395.14 592.994 394.182 593.634 393.303C598.164 395.113 604.054 393.513 607.564 396.853C608.834 398.06 610.017 399.357 611.104 400.733C612.274 402.263 612.994 404.013 612.704 405.423C612.474 408.823 608.364 408.903 604.764 408.523Z" fill="#008BB7"/>
<path d="M586.614 396.403C582.524 392.973 579.774 388.973 581.524 382.223C582.254 379.363 584.824 376.413 588.004 376.763C589.007 376.934 589.937 377.398 590.675 378.098C591.414 378.797 591.929 379.7 592.154 380.693C592.586 382.696 592.586 384.769 592.154 386.773C591.788 388.92 591.061 390.989 590.004 392.893C589.092 394.255 587.944 395.444 586.614 396.403Z" fill="#008BB7"/>
<path d="M606.864 385.053C605.764 385.863 604.554 386.473 603.404 387.193L599.704 389.293L592.394 393.593C589.974 395.013 587.554 396.423 585.104 397.743C583.884 398.403 582.654 399.043 581.414 399.653C580.174 400.263 578.924 400.863 577.614 401.543" stroke="#008BB7" stroke-linecap="round" stroke-linejoin="round"/>
<path d="M577.274 424.313C575.704 424.117 574.154 423.783 572.644 423.313C570.997 422.782 569.412 422.078 567.914 421.213C565.044 419.543 562.754 417.033 563.284 413.753C563.494 412.671 563.854 411.624 564.354 410.643C569.174 411.733 574.694 409.833 578.274 413.183C580.274 414.933 583.614 419.133 583.654 421.603C583.715 422.255 583.526 422.906 583.124 423.423C582.76 423.876 582.252 424.19 581.684 424.313C580.223 424.55 578.734 424.55 577.274 424.313Z" fill="#008BB7"/>
<path d="M557.903 415.272C555.423 414.182 553.173 413.042 551.583 411.112C549.993 409.182 549.153 406.542 549.813 402.452C550.353 399.022 553.413 394.892 557.053 394.622C558.107 394.551 559.153 394.846 560.014 395.459C560.874 396.071 561.496 396.963 561.773 397.982C562.302 400.029 562.424 402.159 562.133 404.252C561.893 406.521 561.387 408.753 560.623 410.902C559.904 412.468 558.99 413.936 557.903 415.272Z" fill="#008BB7"/>
<path d="M577.613 401.542C567.247 406.839 558.199 414.39 551.133 423.642L548.983 426.642" stroke="#008BB7" stroke-linecap="round" stroke-linejoin="round"/>
<path d="M214.203 311.473C214.517 313.28 215.179 315.008 216.153 316.563C217.021 318.034 218.19 319.305 219.583 320.293C222.183 322.123 225.153 322.443 227.583 320.683C228.377 320.104 229.099 319.432 229.733 318.683C228.555 316.689 227.818 314.465 227.573 312.163C227.183 309.833 226.783 307.483 225.403 305.743C223.833 303.883 220.403 300.123 217.693 300.893C215.863 301.413 214.803 303.103 214.243 305.113C213.794 307.207 213.78 309.372 214.203 311.473Z" fill="#008BB7"/>
<path d="M228.904 325.472C230.846 326.729 233.061 327.5 235.364 327.722C237.859 327.82 240.338 327.276 242.564 326.142C244.724 325.052 246.464 323.412 245.334 321.442C244.845 320.72 244.217 320.101 243.488 319.622C242.758 319.144 241.941 318.814 241.084 318.652C239.337 318.313 237.533 318.413 235.834 318.942C234.017 319.459 232.352 320.41 230.984 321.712C230.021 322.796 229.31 324.081 228.904 325.472Z" fill="#008BB7"/>
<path d="M230.204 318.823C228.607 323.95 227.731 329.274 227.604 334.643" stroke="#008BB7" stroke-linecap="round" stroke-linejoin="round"/>
<path d="M211.364 349.823C213.634 352.432 216.755 354.154 220.174 354.683C223.324 355.083 226.114 354.103 227.524 351.383C227.952 350.493 228.287 349.561 228.524 348.603C224.524 346.663 222.424 341.223 218.244 339.823C215.914 339.123 210.994 337.983 209.134 339.893C206.554 342.473 208.844 347.013 211.364 349.823Z" fill="#008BB7"/>
<path d="M230.783 355.143C233.08 355.441 235.415 355.187 237.593 354.403C239.936 353.391 241.918 351.698 243.283 349.543C244.01 348.537 244.458 347.357 244.583 346.123C244.659 345.582 244.585 345.03 244.37 344.528C244.155 344.026 243.807 343.592 243.363 343.273C242.6 342.815 241.741 342.538 240.854 342.461C239.967 342.385 239.074 342.512 238.243 342.833C236.567 343.478 235.064 344.505 233.853 345.833C232.536 347.229 231.543 348.899 230.943 350.723C230.591 352.17 230.537 353.674 230.783 355.143Z" fill="#008BB7"/>
<path d="M227.604 334.643C227.527 339.679 228 344.709 229.014 349.643C230.06 354.588 231.515 359.438 233.364 364.143" stroke="#008BB7" stroke-linecap="round" stroke-linejoin="round"/>
<path d="M223.134 383.552C226.08 385.142 229.46 385.742 232.774 385.262C235.884 384.742 238.354 383.082 238.924 380.092C239.088 379.101 239.125 378.093 239.034 377.092C234.624 376.402 230.934 372.092 226.514 372.332C224.104 372.522 219.174 373.332 218.044 375.672C216.564 378.832 220.014 381.892 223.134 383.552Z" fill="#008BB7"/>
<path d="M243.143 382.842C247.953 382.062 251.933 380.152 253.653 374.022C254.373 371.442 253.923 368.242 251.483 367.282C250.625 367.025 249.714 366.992 248.839 367.186C247.964 367.381 247.153 367.796 246.483 368.392C245.114 369.608 244.046 371.124 243.363 372.822C242.57 374.604 242.129 376.523 242.063 378.472C242.147 379.984 242.514 381.466 243.143 382.842Z" fill="#008BB7"/>
<path d="M233.364 364.143C237.236 373.612 242.067 382.659 247.784 391.143" stroke="#008BB7" stroke-linecap="round" stroke-linejoin="round"/>
<path d="M240.444 411.353C243.484 412.287 246.718 412.394 249.814 411.663C252.814 410.903 255.294 409.213 255.674 406.173C255.764 405.171 255.717 404.161 255.534 403.173C251.074 402.853 246.864 399.263 242.534 400.393C240.194 401.023 235.534 402.843 234.804 405.203C233.844 408.383 237.364 410.363 240.444 411.353Z" fill="#008BB7"/>
<path d="M260.034 408.802C264.804 407.972 269.124 406.452 270.134 399.442C270.554 396.442 269.364 392.692 266.634 391.782C265.743 391.534 264.797 391.555 263.918 391.843C263.039 392.132 262.265 392.674 261.694 393.402C260.539 394.874 259.72 396.581 259.294 398.402C258.771 400.357 258.571 402.384 258.704 404.402C258.918 405.929 259.367 407.413 260.034 408.802Z" fill="#008BB7"/>
<path d="M247.813 391.103C253.413 399.673 259.813 408.013 264.403 417.573" stroke="#008BB7" stroke-linecap="round" stroke-linejoin="round"/>
<path d="M251.924 433.943C254.517 435.298 257.303 436.249 260.184 436.763C263.184 437.273 266.184 437.063 267.844 434.443C268.345 433.565 268.703 432.613 268.904 431.623C266.904 430.623 265.214 428.963 263.394 427.673C261.574 426.383 259.714 425.413 257.544 425.613C255.144 425.793 250.394 426.983 248.994 428.743C247.114 431.023 249.594 432.593 251.924 433.943Z" fill="#008BB7"/>
<path d="M270.543 438.872C272.833 439.722 275.043 440.492 277.303 440.222C279.563 439.952 281.863 438.582 283.823 434.982C285.523 431.982 285.683 426.712 283.163 424.302C282.475 423.607 281.555 423.189 280.578 423.126C279.601 423.063 278.636 423.361 277.863 423.962C276.336 425.164 275.062 426.656 274.113 428.352C273 430.165 272.078 432.089 271.363 434.092C270.931 435.654 270.656 437.256 270.543 438.872Z" fill="#008BB7"/>
<path d="M264.364 417.573C266.737 422.368 268.443 427.465 269.434 432.723C270.034 436.103 272.434 441.783 274.684 455.503" stroke="#008BB7" stroke-linecap="round" stroke-linejoin="round"/>
<path d="M597.713 408.883V469.283H588.863L585.733 408.543L597.713 408.883Z" fill="white" stroke="#263238" stroke-linecap="round" stroke-linejoin="round"/>
<path d="M600.553 396.303V411.273L237.203 410.013V396.223H225.633V395.043L600.553 396.303Z" fill="#263238" stroke="#263238" stroke-linecap="round" stroke-linejoin="round"/>
<path d="M322.354 395.043H237.204V410.013H322.354V395.043Z" fill="white" stroke="#263238" stroke-linecap="round" stroke-linejoin="round"/>
<path d="M611.214 390.963H225.624V396.223H611.214V390.963Z" fill="white" stroke="#263238" stroke-linecap="round" stroke-linejoin="round"/>
<path d="M310.003 390.963H225.633V396.223H310.003V390.963Z" fill="white" stroke="#263238" stroke-linecap="round" stroke-linejoin="round"/>
<path d="M240.014 410.313V469.233H247.984L250.794 410.013L240.014 410.313Z" fill="white" stroke="#263238" stroke-linecap="round" stroke-linejoin="round"/>
<path d="M328.943 410.353V469.393H320.083L316.963 410.013L328.943 410.353Z" fill="white" stroke="#263238" stroke-linecap="round" stroke-linejoin="round"/>
<path d="M591.014 391.022L485.174 469.392H434.464L321.644 391.022H591.014Z" fill="#BFBFBF" stroke="#263238" stroke-linecap="round" stroke-linejoin="round"/>
<path d="M233.003 391.022L267.813 468.322L304.003 391.022H233.003Z" fill="#BFBFBF" stroke="#263238" stroke-linecap="round" stroke-linejoin="round"/>
<path d="M451.674 313.233C449.762 313.205 447.916 313.923 446.524 315.233C445.65 316.272 445.187 317.595 445.224 318.953" stroke="#263238" stroke-linecap="round" stroke-linejoin="round"/>
<path d="M475.104 330.123C476.844 326.813 478.504 322.803 481.104 318.633" stroke="#263238" stroke-linecap="round" stroke-linejoin="round"/>
<path d="M460.744 332.022C462.085 332.407 463.452 332.698 464.834 332.892" stroke="#263238" stroke-linecap="round" stroke-linejoin="round"/>
<path d="M475.164 332.293C476.064 332.073 478.164 331.853 479.034 331.643" stroke="#263238" stroke-linecap="round" stroke-linejoin="round"/>
<path d="M504.254 335.772L468.904 390.462H461.034L496.384 335.772H504.254Z" fill="#263238" stroke="#263238" stroke-linecap="round" stroke-linejoin="round"/>
<path d="M508.253 363.853V375.993L498.913 390.463H491.043L508.253 363.853Z" fill="#263238" stroke="#263238" stroke-linecap="round" stroke-linejoin="round"/>
<path d="M398.054 385.193H322.644V390.153H398.054V385.193Z" fill="#263238" stroke="#263238" stroke-linecap="round" stroke-linejoin="round"/>
<path d="M425.904 263.593L432.974 242.383" stroke="#263238" stroke-linecap="round" stroke-linejoin="round"/>
<path d="M460.464 297.393L441.624 291.103" stroke="#263238" stroke-linecap="round" stroke-linejoin="round"/>
<path d="M461.814 274.923L441.114 279.153" stroke="#263238" stroke-linecap="round" stroke-linejoin="round"/>
<path d="M451.753 254.783L435.273 269.393" stroke="#263238" stroke-linecap="round" stroke-linejoin="round"/>
<path d="M387.494 264.033L395.334 266.893" stroke="#263238" stroke-linecap="round" stroke-linejoin="round" stroke-dasharray="1.98 1.98"/>
<path d="M416.894 166.843V261.583" stroke="#263238" stroke-linecap="round" stroke-linejoin="round" stroke-dasharray="1.98 1.98"/>
<path d="M391.054 215.323L406.994 261.583" stroke="#263238" stroke-linecap="round" stroke-linejoin="round" stroke-dasharray="1.98 1.98"/>
<path d="M497.064 184.543C511.064 181.073 535.284 178.913 541.844 183.133C548.404 187.353 554.844 213.033 554.844 214.433C554.844 215.833 553.564 235.433 555.204 244.063C556.104 249.063 559.724 253.523 561.624 258.203C561.624 258.203 557.184 257.733 545.484 261.473C533.784 265.213 523.604 275.703 523.604 275.703L517.604 262.013C517.604 262.013 509.394 265.353 501.974 264.563L500.624 262.013L492.854 238.813C490.891 238.054 489.128 236.852 487.704 235.303C484.894 232.493 490.754 224.073 490.974 222.433C491.194 220.793 488.634 219.383 488.164 217.043C488.011 215.977 487.964 214.898 488.024 213.823C488.134 210.681 488.014 207.536 487.664 204.413C486.904 198.193 487.054 187.013 497.064 184.543Z" fill="white" stroke="#263238" stroke-linecap="round" stroke-linejoin="round"/>
<path d="M490.654 214.302C491.394 212.902 494.164 214.302 495.334 214.302C496.504 214.302 495.814 212.672 492.764 211.732C489.714 210.792 489.014 213.372 489.014 213.372C489.254 215.002 489.914 215.702 490.654 214.302Z" fill="#263238" stroke="#263238" stroke-linecap="round" stroke-linejoin="round"/>
<path d="M492.974 238.853C492.974 238.853 492.034 236.043 491.104 232.773C490.543 230.833 490.755 228.751 491.694 226.963" stroke="#263238" stroke-linecap="round" stroke-linejoin="round"/>
<path d="M443.004 312.093H426.224C425.277 311.997 424.365 311.682 423.561 311.171C422.757 310.661 422.083 309.97 421.594 309.153L410.164 289.353L404.164 278.943L399.534 270.843C398.594 269.213 397.664 267.183 400.324 267.203H418.254C418.474 267.203 418.694 267.263 418.924 267.273C419.529 267.273 420.124 267.422 420.657 267.706C421.191 267.99 421.647 268.401 421.984 268.903C422.538 269.639 423.042 270.41 423.494 271.213L444.714 308.213C445.634 309.793 444.634 312.093 443.004 312.093Z" fill="#263238" stroke="#263238" stroke-miterlimit="10"/>
<path d="M442.244 309.333H427.614C426.691 309.243 425.802 308.937 425.018 308.44C424.235 307.944 423.579 307.27 423.104 306.473L402.504 270.803C400.684 268.073 402.134 267.943 403.714 267.943H418.364C420.844 267.943 421.644 268.793 422.874 270.803L443.454 306.473C444.364 308.053 443.824 309.333 442.244 309.333Z" fill="#008BB7"/>
<path d="M416.454 270.323H409.364C408.673 270.253 408.008 270.023 407.421 269.652C406.834 269.28 406.342 268.777 405.984 268.183L405.794 267.853H417.194L417.384 268.183C418.044 269.363 417.644 270.323 416.454 270.323Z" fill="#263238"/>
<path d="M408.944 268.993C409.124 269.303 409.024 269.543 408.714 269.543C408.536 269.526 408.364 269.467 408.213 269.372C408.062 269.276 407.936 269.146 407.844 268.993C407.674 268.693 407.774 268.443 408.074 268.443C408.252 268.46 408.423 268.519 408.574 268.614C408.726 268.71 408.852 268.839 408.944 268.993Z" fill="white"/>
<path d="M414.064 269.653H410.974C410.82 269.639 410.671 269.589 410.539 269.507C410.407 269.426 410.296 269.315 410.214 269.183L410.134 269.033C409.984 268.763 410.074 268.553 410.334 268.553H413.424C413.578 268.569 413.725 268.621 413.856 268.705C413.986 268.788 414.095 268.9 414.174 269.033L414.264 269.183C414.414 269.473 414.364 269.653 414.064 269.653Z" fill="white"/>
<path opacity="0.2" d="M415.054 267.203L410.174 289.353L410.104 289.653L404.084 279.223L404.154 278.943L407.124 267.203H415.054Z" fill="white"/>
<path opacity="0.2" d="M435.754 292.243L438.354 296.753L436.044 306.373L435.764 307.583H431.854L432.164 306.373L435.754 292.243Z" fill="white"/>
<path d="M513.524 354.833C510.414 367.593 491.524 389.453 483.624 398.713C481.794 400.853 480.554 402.243 480.224 402.613L480.144 402.713C478.654 404.113 477.144 405.093 475.754 405.173C470.394 405.473 452.824 395.173 444.754 371.333C439.694 356.333 430.754 327.533 430.754 327.533C430.754 327.533 422.254 325.223 418.854 323.603C415.679 322.043 413.157 319.411 411.734 316.173C410.864 313.663 410.664 306.173 410.664 306.173C406.054 301.403 408.564 298.173 407.174 293.843C406.244 290.983 410.374 289.033 410.374 289.033L414.224 295.733L423.644 302.293C423.644 302.293 421.784 299.403 420.474 297.583C419.164 295.763 417.074 290.513 418.824 287.713C420.574 284.913 423.314 287.583 424.894 290.553C426.474 293.523 433.534 303.373 436.064 305.203C438.594 307.033 440.864 314.353 443.554 322.203C446.244 330.053 471.554 366.323 471.554 366.323L488.944 328.173C488.944 328.173 517.474 338.613 513.524 354.833Z" fill="white" stroke="#263238" stroke-linecap="round" stroke-linejoin="round"/>
<path d="M483.604 398.743C482.584 400.137 481.446 401.442 480.204 402.643C480.534 402.273 481.774 400.883 483.604 398.743Z" fill="white" stroke="#263238" stroke-linecap="round" stroke-linejoin="round"/>
<path d="M410.674 294.423L416.114 297.113" stroke="#263238" stroke-linecap="round" stroke-linejoin="round"/>
<path d="M570.784 265.742H560.874C556.474 265.742 516.544 280.742 516.544 280.742C517.939 277.29 519.793 274.041 522.054 271.082C527.252 264.756 533.982 259.864 541.604 256.872C552.064 252.582 558.954 254.192 558.954 254.192C565.554 254.742 570.784 265.742 570.784 265.742Z" fill="#008BB7"/>
<mask id="mask0_444_1665" style="mask-type:luminance" maskUnits="userSpaceOnUse" x="516" y="253" width="55" height="28">
<path d="M570.784 265.742H560.874C556.474 265.742 516.544 280.742 516.544 280.742C517.939 277.29 519.793 274.041 522.054 271.082C527.252 264.756 533.982 259.864 541.604 256.872C552.064 252.582 558.954 254.192 558.954 254.192C565.554 254.742 570.784 265.742 570.784 265.742Z" fill="white"/>
</mask>
<g mask="url(#mask0_444_1665)">
<path opacity="0.2" d="M531.614 267.002C530.994 268.382 530.614 270.082 531.474 271.302C531.87 271.76 532.381 272.104 532.954 272.299C533.527 272.494 534.141 272.533 534.734 272.412C535.912 272.148 537.038 271.688 538.064 271.052C547.203 266.198 557.276 263.357 567.604 262.722C565.364 257.382 558.954 254.812 553.194 255.232C545.644 255.782 534.844 259.772 531.614 267.002Z" fill="black"/>
</g>
<path d="M570.784 265.742H560.874C556.474 265.742 516.544 280.742 516.544 280.742C517.939 277.29 519.793 274.041 522.054 271.082C527.252 264.756 533.982 259.864 541.604 256.872C552.064 252.582 558.954 254.192 558.954 254.192C565.554 254.742 570.784 265.742 570.784 265.742Z" stroke="#263238" stroke-linecap="round" stroke-linejoin="round"/>
<path d="M610.734 469.323L606.464 426.173H503.694C499.854 426.173 498.794 434.713 498.794 434.713C498.794 434.713 432.104 428.973 384.904 446.063C375.714 449.383 369.604 459.133 369.604 468.903L610.734 469.323Z" fill="#263238" stroke="#263238" stroke-linecap="round" stroke-linejoin="round"/>
<path d="M477.004 342.353C484.214 325.353 491.604 302.843 492.544 298.963C494.854 289.423 503.074 286.793 512.274 282.843C521.474 278.893 542.174 266.743 556.274 263.783C570.374 260.823 585.654 264.843 600.644 275.983C606.094 280.033 614.504 294.313 615.484 306.473C616.464 318.633 614.044 354.833 609.284 388.043C606.734 405.853 608.444 430.093 603.194 437.043C597.944 443.993 577.634 448.893 557.254 447.913C536.874 446.933 528.004 441.993 519.134 436.403C510.264 430.813 502.694 424.233 502.694 420.953C502.694 417.673 507.944 410.103 509.924 404.843C511.904 399.583 516.544 360.473 516.544 360.473L507.214 371.213C482.434 367.743 477.004 342.353 477.004 342.353Z" fill="#008BB7"/>
<mask id="mask1_444_1665" style="mask-type:luminance" maskUnits="userSpaceOnUse" x="477" y="262" width="139" height="187">
<path d="M477.004 342.353C484.214 325.353 491.604 302.843 492.544 298.963C494.854 289.423 503.074 286.793 512.274 282.843C521.474 278.893 542.174 266.743 556.274 263.783C570.374 260.823 585.654 264.843 600.644 275.983C606.094 280.033 614.504 294.313 615.484 306.473C616.464 318.633 614.044 354.833 609.284 388.043C606.734 405.853 608.444 430.093 603.194 437.043C597.944 443.993 577.634 448.893 557.254 447.913C536.874 446.933 528.004 441.993 519.134 436.403C510.264 430.813 502.694 424.233 502.694 420.953C502.694 417.673 507.944 410.103 509.924 404.843C511.904 399.583 516.544 360.473 516.544 360.473L507.214 371.213C482.434 367.743 477.004 342.353 477.004 342.353Z" fill="white"/>
</mask>
<g mask="url(#mask1_444_1665)">
<path opacity="0.2" d="M504.954 291.193C502.224 292.193 500.864 295.403 500.954 298.313C501.044 301.223 502.324 303.933 503.364 306.653C505.046 311.081 506.194 315.693 506.784 320.393C507.114 322.973 506.984 326.153 504.714 327.393C502.884 328.393 500.444 327.563 499.044 325.993C497.758 324.314 496.869 322.365 496.444 320.293L500.914 347.563C498.474 348.253 495.834 346.933 494.234 344.973C492.753 342.915 491.686 340.588 491.094 338.123C491.234 344.476 491.377 350.81 491.524 357.123C491.686 358.312 491.439 359.522 490.824 360.553C490.094 361.493 488.364 361.683 487.824 360.613C491.034 364.913 494.824 369.613 500.134 370.283C506.554 371.153 512.044 365.973 516.454 361.213C524.234 352.793 532.404 343.583 533.864 332.213C534.974 323.593 531.864 314.743 526.564 307.873C521.264 301.003 513.804 295.973 505.874 292.413L504.954 291.193Z" fill="black"/>
<path opacity="0.2" d="M566.364 271.693C552.664 269.853 537.914 274.273 528.574 284.473C526.574 286.663 524.764 289.133 522.214 290.653C519.664 292.173 516.034 292.443 513.974 290.303C522.634 296.303 530.974 303.393 535.654 312.843C540.334 322.293 540.544 334.553 533.824 342.673C532.154 344.673 530.114 346.393 528.504 348.463C526.894 350.533 525.684 353.133 526.094 355.723C526.504 358.313 529.004 360.653 531.584 360.143L527.344 360.913C527.863 360.921 528.376 361.035 528.85 361.247C529.325 361.459 529.752 361.765 530.105 362.146C530.458 362.527 530.73 362.976 530.905 363.465C531.081 363.954 531.155 364.474 531.124 364.993L525.444 363.523L529.074 367.803L522.664 368.583L529.834 381.723L522.044 378.473C526.683 397.889 537.575 415.243 553.044 427.863C549.229 428.192 545.392 427.579 541.869 426.078C538.347 424.577 535.248 422.233 532.844 419.253C532.444 422.493 534.974 425.253 536.844 427.923C538.714 430.593 539.934 434.713 537.424 436.813C535.884 438.113 533.614 437.973 531.634 437.593C526.552 436.603 521.764 434.465 517.634 431.343C528.024 442.753 544.484 446.123 559.864 447.343C566.864 447.903 574.004 448.133 580.864 446.733C587.724 445.333 594.484 442.153 599.074 436.813C604.074 430.983 606.144 423.123 606.594 415.443C607.044 407.763 606.054 400.093 605.734 392.443C604.504 362.663 613.384 332.853 609.734 303.273C607.552 319.798 601.61 335.604 592.364 349.473C596.034 343.983 597.514 335.103 598.884 328.743C600.464 321.38 601.335 313.882 601.484 306.353C601.574 301.813 602.484 295.423 600.624 291.113C598.434 286.113 592.064 282.263 587.624 279.523C581.164 275.451 573.921 272.784 566.364 271.693Z" fill="black"/>
</g>
<path d="M477.004 342.353C484.214 325.353 491.604 302.843 492.544 298.963C494.854 289.423 503.074 286.793 512.274 282.843C521.474 278.893 542.174 266.743 556.274 263.783C570.374 260.823 585.654 264.843 600.644 275.983C606.094 280.033 614.504 294.313 615.484 306.473C616.464 318.633 614.044 354.833 609.284 388.043C606.734 405.853 608.444 430.093 603.194 437.043C597.944 443.993 577.634 448.893 557.254 447.913C536.874 446.933 528.004 441.993 519.134 436.403C510.264 430.813 502.694 424.233 502.694 420.953C502.694 417.673 507.944 410.103 509.924 404.843C511.904 399.583 516.544 360.473 516.544 360.473L507.214 371.213C482.434 367.743 477.004 342.353 477.004 342.353Z" stroke="#263238" stroke-linecap="round" stroke-linejoin="round"/>
<path d="M516.544 360.423L532.984 340.703" stroke="#263238" stroke-linecap="round" stroke-linejoin="round"/>
<path d="M535.354 337.853L537.914 334.783" stroke="#263238" stroke-linecap="round" stroke-linejoin="round"/>
<path d="M494.954 222.063C495.114 223.253 494.644 224.293 493.954 224.393C493.264 224.493 492.504 223.603 492.354 222.393C492.204 221.183 492.664 220.163 493.354 220.063C494.044 219.963 494.794 220.873 494.954 222.063Z" fill="#263238"/>
<path d="M495.854 245.373C499.439 244.514 502.54 242.275 504.484 239.143C505.111 242.276 504.862 245.522 503.764 248.523C503.557 249.185 503.128 249.756 502.548 250.137C501.968 250.518 501.274 250.686 500.584 250.613C499.696 250.323 498.911 249.781 498.324 249.053C497.662 248.338 497.056 247.573 496.514 246.763L495.854 245.373Z" fill="white" stroke="#263238" stroke-linecap="round" stroke-linejoin="round"/>
<path d="M560.854 219.053C559.524 226.053 556.534 236.903 555.204 243.923C546.604 245.923 541.924 247.053 533.204 248.143C525.704 249.083 518.084 232.463 515.724 227.083C515.184 227.323 513.074 216.773 509.534 213.323C508.429 212.417 507.408 211.413 506.484 210.323C504.894 208.013 505.204 204.713 504.544 202.023C504.439 201.534 504.281 201.058 504.074 200.603C504.068 200.636 504.068 200.67 504.074 200.703L503.764 200.843C499.69 202.675 495.165 203.262 490.758 202.53C486.351 201.799 482.259 199.782 478.994 196.733C477.433 195.389 476.344 193.581 475.884 191.573C475.434 188.943 476.724 186.353 477.964 183.983C479.754 180.553 481.684 176.983 484.894 174.833C487.454 173.133 490.544 172.503 493.564 171.903C501.834 170.263 510.154 168.623 518.564 168.223C522.304 168.043 526.614 168.373 528.874 171.343C529.874 172.633 530.584 174.473 532.194 174.713C533.404 174.883 534.494 174.033 535.634 173.593C538.914 172.373 542.354 174.773 545.034 177.023C551.864 182.763 559.034 189.023 561.574 197.593C563.544 204.553 562.214 211.963 560.854 219.053Z" fill="#263238" stroke="#263238" stroke-linecap="round" stroke-linejoin="round"/>
<path d="M517.154 236.873C521.604 238.053 525.104 231.713 524.874 226.583C524.644 221.453 522.074 215.583 518.324 217.703C514.574 219.823 515.324 227.303 515.324 227.303" fill="white"/>
<path d="M517.154 236.873C521.604 238.053 525.104 231.713 524.874 226.583C524.644 221.453 522.074 215.583 518.324 217.703C514.574 219.823 515.324 227.303 515.324 227.303" stroke="#263238" stroke-linecap="round" stroke-linejoin="round"/>
<path d="M504.514 202.063C504.403 202.013 504.304 201.941 504.221 201.852C504.139 201.762 504.075 201.657 504.034 201.543L503.694 200.883L504.004 200.743C503.998 200.71 503.998 200.676 504.004 200.643C504.225 201.097 504.396 201.573 504.514 202.063Z" fill="#263238" stroke="#263238" stroke-linecap="round" stroke-linejoin="round"/>
<path d="M517.464 240.253C519.464 244.053 518.904 248.843 516.904 252.653C514.904 256.463 511.644 259.473 508.314 262.213" stroke="#263238" stroke-linecap="round" stroke-linejoin="round"/>
<path d="M524.654 253.033C525.729 258.224 525.592 263.593 524.254 268.723" stroke="#263238" stroke-linecap="round" stroke-linejoin="round"/>
<path d="M488.124 333.473C487.929 321.758 489.5 310.08 492.784 298.833" stroke="#263238" stroke-linecap="round" stroke-linejoin="round"/>
<path d="M530.864 308.703C532.714 311.473 534.404 314.363 536.084 317.223" stroke="#263238" stroke-linecap="round" stroke-linejoin="round"/>
<path d="M500.114 291.653C507.804 289.723 516.044 292.983 522.004 298.203C524.451 300.383 526.66 302.816 528.594 305.463" stroke="#263238" stroke-linecap="round" stroke-linejoin="round"/>
<path d="M495.364 316.473C496.123 328.216 498.436 339.807 502.244 350.943" stroke="#263238" stroke-linecap="round" stroke-linejoin="round"/>
<path d="M495.164 304.633C495.117 306.799 495.117 308.969 495.164 311.143" stroke="#263238" stroke-linecap="round" stroke-linejoin="round"/>
<path d="M527.614 331.473C523.53 340.533 518.584 349.179 512.844 357.293" stroke="#263238" stroke-linecap="round" stroke-linejoin="round"/>
<path d="M523.454 358.273L540.194 366.473C540.565 366.608 540.881 366.861 541.094 367.193C541.624 368.263 539.954 369.033 538.764 369.013C532.437 368.91 526.345 366.596 521.544 362.473" stroke="#263238" stroke-linecap="round" stroke-linejoin="round"/>
<path d="M519.074 367.293C522.693 372.648 526.807 377.65 531.364 382.233" stroke="#263238" stroke-linecap="round" stroke-linejoin="round"/>
<path d="M607.114 317.563C603.37 337.541 595.757 356.595 584.704 373.653" stroke="#263238" stroke-linecap="round" stroke-linejoin="round"/>
<path d="M608.974 304.633C608.764 306.703 608.514 308.783 608.224 310.843" stroke="#263238" stroke-linecap="round" stroke-linejoin="round"/>
<path d="M591.724 349.053C582.33 363.038 570.679 375.366 557.244 385.533L558.444 384.473" stroke="#263238" stroke-linecap="round" stroke-linejoin="round"/>
<path d="M614.804 336.183C613.924 350.873 608.304 370.743 600.554 383.253L600.894 381.953" stroke="#263238" stroke-linecap="round" stroke-linejoin="round"/>
<path d="M472.364 364.313C470.881 367.236 470.031 370.439 469.869 373.713C469.707 376.987 470.237 380.258 471.424 383.313" stroke="#263238" stroke-linecap="round" stroke-linejoin="round"/>
<path d="M420.624 288.633C420.264 289.873 419.624 291.553 420.904 291.633C421.131 291.294 421.444 291.022 421.812 290.846C422.18 290.67 422.588 290.596 422.994 290.633" stroke="#263238" stroke-linecap="round" stroke-linejoin="round"/>
<path d="M428.804 299.403C431.194 300.753 434.504 302.973 436.044 305.233" stroke="#263238" stroke-linecap="round" stroke-linejoin="round"/>
<path d="M407.504 295.273C409.374 298.143 411.804 302.453 414.964 303.783C416.894 307.583 419.124 307.583 419.124 307.583" stroke="#263238" stroke-linecap="round" stroke-linejoin="round"/>
<path d="M410.644 306.203C411.014 307.133 412.424 310.093 414.204 310.093" stroke="#263238" stroke-linecap="round" stroke-linejoin="round"/>
<path d="M411.054 312.523C411.671 313.787 412.567 314.895 413.674 315.763" stroke="#263238" stroke-linecap="round" stroke-linejoin="round"/>
<path d="M626.264 346.473C631.264 346.473 635.624 348.563 635.924 351.173L640.294 389.323C640.564 391.643 637.444 393.553 633.294 393.553H540.364C536.244 393.553 533.154 391.643 533.464 389.323L538.624 351.173C538.974 348.563 543.344 346.473 548.374 346.473H626.264Z" fill="#263238" stroke="#263238" stroke-linecap="round" stroke-linejoin="round"/>
<path d="M634.154 346.473C639.154 346.473 643.564 348.563 643.914 351.173L649.064 389.323C649.384 391.643 646.294 393.553 642.164 393.553H549.164C545.034 393.553 541.904 391.643 542.164 389.323L546.534 351.173C546.834 348.563 551.164 346.473 556.194 346.473H634.154Z" fill="#636363" stroke="#263238" stroke-linecap="round" stroke-linejoin="round"/>
<path d="M578.634 373.183H570.314V469.373H578.634V373.183Z" fill="white" stroke="#263238" stroke-linecap="round" stroke-linejoin="round"/>
<path d="M626.744 373.273H618.424V469.373H626.744V373.273Z" fill="white" stroke="#263238" stroke-linecap="round" stroke-linejoin="round"/>
<path d="M584.114 369.973H565.744V379.693H584.114V369.973Z" fill="white" stroke="#263238" stroke-linecap="round" stroke-linejoin="round"/>
<path d="M631.764 369.973H613.394V379.693H631.764V369.973Z" fill="white" stroke="#263238" stroke-linecap="round" stroke-linejoin="round"/>
<path d="M502.104 436.813C505.87 445.006 511.138 452.42 517.634 458.673" stroke="#BFBFBF" stroke-linecap="round" stroke-linejoin="round"/>
<path d="M380.034 457.993C380.023 460.018 380.503 462.016 381.431 463.816C382.359 465.617 383.708 467.166 385.364 468.333" stroke="#BFBFBF" stroke-linecap="round" stroke-linejoin="round"/>
<path d="M509.144 435.783C519.106 445.721 532.392 451.623 546.444 452.353" stroke="#BFBFBF" stroke-linecap="round" stroke-linejoin="round"/>
<path d="M587.204 452.183C588.114 460.593 587.454 466.703 586.384 468.683" stroke="#BFBFBF" stroke-linecap="round" stroke-linejoin="round"/>
<path d="M580.734 453.573C594.934 450.863 602.424 447.653 608.014 439.003" stroke="#BFBFBF" stroke-linecap="round" stroke-linejoin="round"/>
<path d="M542.364 179.843L542.714 180.473C545.522 182.843 548.174 185.391 550.654 188.103C554.504 192.323 558.064 197.233 558.654 202.903C558.993 206.033 558.416 209.194 556.994 212.003" stroke="#BFBFBF" stroke-linecap="round" stroke-linejoin="round"/>
<path d="M526.994 205.693C526.754 208.485 527.533 211.269 529.188 213.53C530.842 215.792 533.26 217.377 535.994 217.993" stroke="#BFBFBF" stroke-linecap="round" stroke-linejoin="round"/>
<path d="M535.414 196.003C535.055 205.131 538.331 214.028 544.524 220.743" stroke="#BFBFBF" stroke-linecap="round" stroke-linejoin="round"/>
<path d="M550.754 203.843C552.125 209.218 552.312 214.828 551.304 220.283" stroke="#BFBFBF" stroke-linecap="round" stroke-linejoin="round"/>
<path d="M497.734 193.813C499.034 196.363 500.936 198.557 503.277 200.204C505.617 201.85 508.325 202.901 511.164 203.263" stroke="#BFBFBF" stroke-linecap="round" stroke-linejoin="round"/>
<path d="M504.474 193.823C505.766 195.855 507.545 197.533 509.649 198.705C511.753 199.876 514.116 200.505 516.524 200.533" stroke="#BFBFBF" stroke-linecap="round" stroke-linejoin="round"/>
<path d="M511.024 191.623C511.814 193.136 512.951 194.441 514.341 195.431C515.731 196.422 517.336 197.07 519.024 197.323" stroke="#BFBFBF" stroke-linecap="round" stroke-linejoin="round"/>
<path d="M504.434 263.923C506.568 263.234 508.574 262.2 510.374 260.863L510.534 260.733C512.166 259.487 513.619 258.023 514.854 256.383L514.914 256.303C516.524 254.163 517.774 250.013 518.764 246.703L517.454 261.793C512.703 264.003 507.473 264.983 502.244 264.643L504.434 263.923Z" fill="#263238" stroke="#263238" stroke-linecap="round" stroke-linejoin="round"/>
<path d="M648.724 469.393H473.244H422.544H222.004" stroke="#263238" stroke-linecap="round" stroke-linejoin="round"/>
<path d="M384.314 132.466C398.05 130.962 407.965 118.607 406.461 104.871C404.957 91.1353 392.602 81.2196 378.866 82.7239C365.13 84.2282 355.214 96.583 356.718 110.319C358.223 124.055 370.578 133.971 384.314 132.466Z" stroke="#263238" stroke-linecap="round" stroke-linejoin="round"/>
<path d="M384.154 128.152C395.515 126.735 403.576 116.376 402.159 105.016C400.742 93.6547 390.383 85.5937 379.022 87.0108C367.661 88.4279 359.6 98.7864 361.018 110.147C362.435 121.508 372.793 129.569 384.154 128.152Z" stroke="#263238" stroke-linecap="round" stroke-linejoin="round"/>
<path d="M387.904 91.3428L381.584 107.603V96.1428" stroke="#263238" stroke-linecap="round" stroke-linejoin="round"/>
</svg>
