<svg width="80" height="80" viewBox="0 0 80 80" fill="none" xmlns="http://www.w3.org/2000/svg">
<circle cx="40" cy="40" r="40" fill="white"/>
<circle cx="40" cy="40" r="35.5" fill="white" stroke="#008BB7"/>
<path d="M44.7998 22.7201C44.7998 22.4231 44.6734 22.1382 44.4483 21.9281C44.2233 21.7181 43.9181 21.6001 43.5998 21.6001H36.3998C36.0815 21.6001 35.7763 21.7181 35.5513 21.9281C35.3262 22.1382 35.1998 22.4231 35.1998 22.7201C35.1998 23.0171 35.0734 23.302 34.8483 23.5121C34.6233 23.7221 34.3181 23.8401 33.9998 23.8401C33.6815 23.8401 33.3763 23.9581 33.1513 24.1681C32.9262 24.3782 32.7998 24.6631 32.7998 24.9601V26.0801C32.7998 26.3771 32.9262 26.662 33.1513 26.8721C33.3763 27.0821 33.6815 27.2001 33.9998 27.2001H45.9998C46.3181 27.2001 46.6233 27.0821 46.8483 26.8721C47.0734 26.662 47.1998 26.3771 47.1998 26.0801V24.9601C47.1998 24.6631 47.0734 24.3782 46.8483 24.1681C46.6233 23.9581 46.3181 23.8401 45.9998 23.8401C45.6815 23.8401 45.3763 23.7221 45.1513 23.5121C44.9262 23.302 44.7998 23.0171 44.7998 22.7201Z" fill="#008BB7"/>
<path d="M30.6041 24H29.2001C28.2453 24 27.3296 24.3709 26.6545 25.031C25.9794 25.6911 25.6001 26.5864 25.6001 27.52V55.68C25.6001 56.6136 25.9794 57.5089 26.6545 58.169C27.3296 58.8291 28.2453 59.2 29.2001 59.2H50.8001C51.7549 59.2 52.6705 58.8291 53.3457 58.169C54.0208 57.5089 54.4001 56.6136 54.4001 55.68V27.52C54.4001 26.5864 54.0208 25.6911 53.3457 25.031C52.6705 24.3709 51.7549 24 50.8001 24H49.3961C49.5281 24.3661 49.6001 24.7627 49.6001 25.1733V26.3467C49.6001 27.2802 49.2208 28.1756 48.5457 28.8357C47.8706 29.4958 46.9549 29.8667 46.0001 29.8667H34.0001C33.0453 29.8667 32.1296 29.4958 31.4545 28.8357C30.7794 28.1756 30.4001 27.2802 30.4001 26.3467V25.1733C30.4001 24.7627 30.4721 24.3661 30.6041 24ZM44.8001 38.08C44.8001 37.4576 45.053 36.8607 45.503 36.4207C45.9531 35.9806 46.5636 35.7333 47.2001 35.7333C47.8366 35.7333 48.4471 35.9806 48.8972 36.4207C49.3472 36.8607 49.6001 37.4576 49.6001 38.08V49.8133C49.6001 50.4357 49.3472 51.0326 48.8972 51.4727C48.4471 51.9128 47.8366 52.16 47.2001 52.16C46.5636 52.16 45.9531 51.9128 45.503 51.4727C45.053 51.0326 44.8001 50.4357 44.8001 49.8133V38.08ZM30.4001 47.4667C30.4001 46.8443 30.653 46.2474 31.103 45.8073C31.5531 45.3672 32.1636 45.12 32.8001 45.12C33.4366 45.12 34.0471 45.3672 34.4972 45.8073C34.9472 46.2474 35.2001 46.8443 35.2001 47.4667V49.8133C35.2001 50.4357 34.9472 51.0326 34.4972 51.4727C34.0471 51.9128 33.4366 52.16 32.8001 52.16C32.1636 52.16 31.5531 51.9128 31.103 51.4727C30.653 51.0326 30.4001 50.4357 30.4001 49.8133V47.4667ZM40.0001 40.4267C40.6366 40.4267 41.2471 40.6739 41.6972 41.114C42.1472 41.5541 42.4001 42.151 42.4001 42.7733V49.8133C42.4001 50.4357 42.1472 51.0326 41.6972 51.4727C41.2471 51.9128 40.6366 52.16 40.0001 52.16C39.3636 52.16 38.7531 51.9128 38.303 51.4727C37.853 51.0326 37.6001 50.4357 37.6001 49.8133V42.7733C37.6001 42.151 37.853 41.5541 38.303 41.114C38.7531 40.6739 39.3636 40.4267 40.0001 40.4267Z" fill="#355666"/>
<circle cx="40" cy="40" r="40" fill="white"/>
<circle cx="40" cy="40" r="35.5" fill="white" stroke="#008BB7"/>
<path d="M28.1875 26.375C28.1875 25.2147 28.6484 24.1019 29.4689 23.2814C30.2894 22.4609 31.4022 22 32.5625 22H45.6875C46.8478 22 47.9606 22.4609 48.7811 23.2814C49.6016 24.1019 50.0625 25.2147 50.0625 26.375V43.875C51.2228 43.875 52.3356 44.3359 53.1561 45.1564C53.9766 45.9769 54.4375 47.0897 54.4375 48.25V49.3438C54.4375 49.6338 54.5527 49.912 54.7579 50.1171C54.963 50.3223 55.2412 50.4375 55.5312 50.4375C55.8213 50.4375 56.0995 50.3223 56.3046 50.1171C56.5098 49.912 56.625 49.6338 56.625 49.3438V39.5H55.5312C55.2412 39.5 54.963 39.3848 54.7579 39.1796C54.5527 38.9745 54.4375 38.6963 54.4375 38.4062V31.5703C54.4375 31.2802 54.5527 31.002 54.7579 30.7969C54.963 30.5918 55.2412 30.4766 55.5312 30.4766H58.8016C58.7775 29.4353 58.6856 28.5209 58.3619 27.8034C58.1886 27.3862 57.8866 27.0353 57.5 26.8016C57.0975 26.5609 56.485 26.375 55.5312 26.375C55.2412 26.375 54.963 26.2598 54.7579 26.0546C54.5527 25.8495 54.4375 25.5713 54.4375 25.2812C54.4375 24.9912 54.5527 24.713 54.7579 24.5079C54.963 24.3027 55.2412 24.1875 55.5312 24.1875C56.765 24.1875 57.7931 24.4281 58.62 24.9225C59.4578 25.4212 60.0069 26.1278 60.3569 26.9066C61.0022 28.3394 61 30.1112 61 31.4587V38.4062C61 38.6963 60.8848 38.9745 60.6796 39.1796C60.4745 39.3848 60.1963 39.5 59.9062 39.5H58.8125V49.3438C58.8125 50.214 58.4668 51.0486 57.8514 51.6639C57.2361 52.2793 56.4015 52.625 55.5312 52.625C54.661 52.625 53.8264 52.2793 53.2111 51.6639C52.5957 51.0486 52.25 50.214 52.25 49.3438V48.25C52.25 47.6698 52.0195 47.1134 51.6093 46.7032C51.1991 46.293 50.6427 46.0625 50.0625 46.0625V54.8125H51.1562C51.4463 54.8125 51.7245 54.9277 51.9296 55.1329C52.1348 55.338 52.25 55.6162 52.25 55.9062C52.25 56.1963 52.1348 56.4745 51.9296 56.6796C51.7245 56.8848 51.4463 57 51.1562 57H27.0938C26.8037 57 26.5255 56.8848 26.3204 56.6796C26.1152 56.4745 26 56.1963 26 55.9062C26 55.6162 26.1152 55.338 26.3204 55.1329C26.5255 54.9277 26.8037 54.8125 27.0938 54.8125H28.1875V26.375ZM33.6562 26.375C33.3662 26.375 33.088 26.4902 32.8829 26.6954C32.6777 26.9005 32.5625 27.1787 32.5625 27.4688V38.4062C32.5625 38.6963 32.6777 38.9745 32.8829 39.1796C33.088 39.3848 33.3662 39.5 33.6562 39.5H44.5938C44.8838 39.5 45.162 39.3848 45.3671 39.1796C45.5723 38.9745 45.6875 38.6963 45.6875 38.4062V27.4688C45.6875 27.1787 45.5723 26.9005 45.3671 26.6954C45.162 26.4902 44.8838 26.375 44.5938 26.375H33.6562Z" fill="#355666"/>
</svg>
