<svg width="47" height="36" viewBox="0 0 47 36" fill="none" xmlns="http://www.w3.org/2000/svg">
<path d="M25.7284 3.24219C24.2776 4.45676 22.8864 6.06806 22.0781 7.83036C20.4179 11.4534 21.3393 14.782 22.0487 16.9439C23.0165 19.886 24.9789 21.3735 27.3156 22.4568C30.6477 24.0034 34.8398 24.1084 38.6434 23.073C39.9828 22.71 42.0664 21.9494 42.52 21.2422C43.0129 20.4769 43.0886 18.995 42.0317 18.346C41.0024 17.7101 40.9025 18.195 37.8289 18.9134C35.6918 19.4124 33.3596 19.5006 30.5559 18.2269C28.7878 17.4231 27.5936 16.1917 27.1837 14.5063C26.0109 9.67426 28.5454 7.88382 29.0382 7.55462L25.7284 3.24219Z" fill="url(#paint0_linear_19_432)"/>
<path d="M29.2218 8.93153C27.9011 8.74677 24.0325 8.31534 19.9812 7.55752C13.7135 6.38891 6.34611 4.7626 3.9925 4.59003C-0.533806 4.25801 -1.28864 10.4462 2.32599 11.5079C4.37215 12.1063 10.0062 11.476 11.3733 14.3225C11.7912 15.1873 12.8936 18.4568 14.1422 22.5028C14.6323 24.0888 18.6168 23.8393 17.8753 20.4592C17.452 18.5299 16.4895 13.3181 16.4895 13.3181C16.4895 13.3181 27.9171 14.5945 28.8467 14.6771L29.2218 8.93153Z" fill="url(#paint1_linear_19_432)"/>
<path d="M35.2382 5.74452C36.689 5.78485 39.2146 6.17876 40.3527 6.97879L46.6925 8.29559C46.7522 4.58997 44.8219 2.59789 42.6599 1.44897C41.0184 0.577667 38.7165 -0.134193 35.2578 0.021497C31.9524 0.168746 28.4777 0.932191 25.7061 3.25629L29.0195 7.58091C30.5827 6.54173 32.5459 5.67136 35.2382 5.74452Z" fill="url(#paint2_linear_19_432)"/>
<path d="M40.2502 6.91125C40.2502 6.91125 40.5844 7.13541 40.7297 7.27703C41.4194 7.94106 41.6494 8.73546 39.5542 9.09842L41.2127 14.4922C44.9833 13.4287 46.6471 11.0877 46.6925 8.22712L40.2502 6.91125Z" fill="url(#paint3_linear_19_432)"/>
<path d="M39.6166 9.0899C37.7594 9.41347 34.1572 9.62356 29.1924 8.9314L28.8199 14.6769C36.8833 15.4113 39.7191 14.9095 41.2742 14.4725L39.6166 9.0899Z" fill="url(#paint4_linear_19_432)"/>
<path d="M0 29.8455C0 29.9477 0.0757503 30.0247 0.167542 30.0247H1.6879V34.3005L2.69048 34.3033V30.0247H4.21083C4.30262 30.0247 4.37748 29.9449 4.37748 29.8455V29.1843C4.37748 29.0821 4.30262 29.0061 4.21083 29.0061H0.167542C0.0757503 29.0061 0 29.0849 0 29.1843V29.8455Z" fill="#FC0103"/>
<path d="M3.5665 32.3515C3.5665 33.4779 4.46392 34.3539 5.57433 34.3539C6.69365 34.3539 7.59107 33.4779 7.59107 32.3515C7.59107 31.2157 6.69365 30.3247 5.57433 30.3247C4.46392 30.3247 3.5665 31.2157 3.5665 32.3515ZM4.67691 32.3422C4.67691 31.8122 5.06546 31.3724 5.57433 31.3724C6.09211 31.3724 6.48066 31.8094 6.48066 32.3422C6.48066 32.8758 6.09211 33.3044 5.57433 33.3044C5.06546 33.3044 4.67691 32.8758 4.67691 32.3422ZM8.24609 33.1684C8.24609 34.0369 8.87705 34.3886 9.51602 34.3886C9.95003 34.3886 10.3921 34.3258 10.6754 34.0988C11.1362 33.7274 10.7503 32.9752 10.1194 33.3466C9.93399 33.4573 9.62653 33.401 9.56949 33.3785C9.44295 33.3241 9.22193 33.2791 9.2353 32.904V31.2645H10.1657C10.8769 31.2645 10.8688 30.3191 10.1657 30.3191H9.2353V29.023L8.24609 29.0201V30.3191H7.75861V31.2645H8.24609V33.1684ZM11.0497 32.3337C11.0497 33.5624 11.9391 34.3511 12.8963 34.3511C13.39 34.3511 13.9069 34.1326 14.0798 33.8353V34.3568L14.9995 34.3539V30.8218C14.9995 30.1297 14.0985 30.1634 14.0985 30.7853C13.9238 30.487 13.398 30.3276 12.9016 30.3276C11.9472 30.3247 11.0497 31.0994 11.0497 32.3337ZM12.1602 32.3422C12.1602 31.8122 12.5487 31.3724 13.0665 31.3724C13.5834 31.3724 13.9719 31.8094 13.9719 32.3422C13.9719 32.8758 13.5834 33.3129 13.0665 33.3129C12.5487 33.3129 12.1602 32.8758 12.1602 32.3422ZM16.9048 34.3061V29.4741C16.9048 28.8607 15.8675 28.8813 15.8675 29.4741V34.3033L16.9048 34.3061ZM17.8022 28.946C17.7024 28.946 17.6356 29.0258 17.6356 29.1196V34.1242C17.6356 34.2264 17.7024 34.3033 17.8022 34.3033H21.1664L21.1691 33.2247H18.7754V32.2005H20.6522C20.752 32.2005 20.8189 32.1152 20.8189 32.0223V31.332C20.8189 31.2308 20.752 31.1538 20.6522 31.1538H18.7754V30.0274H20.9374C21.0372 30.0274 21.113 29.9477 21.113 29.8483V29.128C21.113 29.0258 21.0372 28.9489 20.9374 28.9489H17.8022V28.946ZM24.5583 34.1476C24.5583 34.2405 24.642 34.3033 24.7249 34.3033H25.3799C25.4637 34.3033 25.5475 34.2405 25.5475 34.1476V32.0336C25.5475 31.1023 25.0377 30.2628 24.0565 30.2628C23.4799 30.2628 22.9221 30.441 22.701 30.714C22.701 30.1522 21.8304 30.1297 21.8304 30.6652V34.3061L22.8116 34.3089V32.1611C22.8116 30.8359 24.5556 31.046 24.5556 32.1611L24.5583 34.1476ZM32.586 30.2291C32.0442 30.2291 31.6022 30.5667 31.3972 30.9044V30.6511C31.3972 30.1803 30.572 30.1297 30.572 30.669V34.292L31.5398 34.3061V32.4585C31.5398 31.9032 31.8963 31.2898 32.2759 31.2242L32.6698 31.1567C33.2972 31.1538 33.1983 30.2291 32.586 30.2291ZM35.1794 35.0442C34.6776 35.0442 34.1982 35.0152 33.9415 34.8651C33.3248 34.5049 32.9603 35.2965 33.3462 35.5291C33.864 35.8442 34.1224 35.9999 35.0983 35.9999C36.3468 35.9999 37.0232 35.274 37.0232 34.2095V30.669C37.0232 30.2 36.1606 30.1465 36.1606 30.6089V30.85C35.977 30.5517 35.4538 30.3848 34.953 30.3848C33.9959 30.3848 33.1279 31.151 33.1279 32.3628C33.1279 33.5736 33.9879 34.3258 34.9985 34.3258C35.4868 34.3258 35.8798 34.1073 36.0474 33.8409V34.1673C36.0447 34.6775 35.7667 35.0442 35.1794 35.0442ZM34.2356 32.3628C34.2356 31.8319 34.6242 31.4146 35.133 31.4146C35.6508 31.4146 36.0394 31.8291 36.0394 32.3628C36.0394 32.9011 35.6508 33.3072 35.133 33.3072C34.6242 33.3101 34.2356 32.9011 34.2356 32.3628Z" fill="#FC0103"/>
<path d="M38.3359 29.8484C38.6594 29.8484 38.9286 29.5567 38.9286 29.2162C38.9286 28.8664 38.6594 28.5747 38.3359 28.5747C38.0044 28.5747 37.7371 28.8664 37.7371 29.2162C37.7371 29.5595 38.0044 29.8484 38.3359 29.8484ZM38.6808 34.3034C38.7646 34.3034 38.827 34.2293 38.827 34.1449V30.8641C38.827 30.1719 37.8342 30.1719 37.8342 30.8641V34.1449C37.8342 34.2321 37.9046 34.3034 37.9857 34.3034H38.6808Z" fill="#FC0103"/>
<path d="M41.4061 30.2573C40.2449 30.2573 39.4062 31.1962 39.4062 32.3629C39.4062 33.5287 40.2279 34.4281 41.423 34.4281C42.2527 34.4281 42.7437 34.1702 43.0539 33.75C43.2419 33.404 42.7972 32.9838 42.4015 33.2248C42.0504 33.4752 41.8107 33.4405 41.4471 33.4405C41.005 33.4405 40.6165 33.1254 40.563 32.6321H43.0396C43.1964 32.6321 43.2339 32.5439 43.2339 32.4445V32.226C43.2312 31.213 42.6002 30.2573 41.4061 30.2573ZM42.242 31.9005H40.5817C40.6896 31.4635 41.0318 31.1962 41.4114 31.1962C41.7786 31.1962 42.1422 31.4231 42.242 31.9005Z" fill="#FC0103"/>
<path d="M45.2533 30.2291C44.2338 30.2291 43.6037 30.7966 43.6037 31.5197C43.6037 32.1612 44.0217 32.5607 44.6464 32.6892L45.2773 32.828C45.6409 32.9012 45.8299 32.9809 45.8299 33.1769C45.8299 33.3467 45.6579 33.5089 45.3014 33.5089C44.9218 33.5089 44.5305 33.4348 44.2855 33.2163C43.7436 32.9218 43.2606 33.5455 43.8033 33.9741C44.1179 34.2011 44.617 34.414 45.264 34.414C46.3129 34.414 47 33.8381 47 33.0747C47 32.3338 46.4635 32.0102 45.8085 31.8798L45.2016 31.7579C44.8781 31.6932 44.7596 31.5881 44.7596 31.4315C44.7596 31.2702 44.9565 31.1398 45.2586 31.1398C45.5821 31.1398 45.8539 31.1736 46.0919 31.3377C46.566 31.6275 47.0544 31.0123 46.6114 30.623C46.369 30.3989 46.0188 30.2291 45.2533 30.2291Z" fill="#FC0103"/>
<path d="M28.1408 30.2573C26.9787 30.2573 26.1401 31.1962 26.1401 32.3629C26.1401 33.5287 26.9627 34.4281 28.1569 34.4281C28.9875 34.4281 29.4776 34.1702 29.7877 33.75C29.9767 33.404 29.532 32.9838 29.1354 33.2248C28.7852 33.4752 28.5454 33.4405 28.1809 33.4405C27.7389 33.4405 27.3513 33.1254 27.2969 32.6321H29.7744C29.9303 32.6321 29.9687 32.5439 29.9687 32.4445V32.226C29.9687 31.213 29.335 30.2573 28.1408 30.2573ZM28.9794 31.9005H27.3183C27.4261 31.4635 27.7683 31.1962 28.1489 31.1962C28.5125 31.1962 28.877 31.4231 28.9794 31.9005Z" fill="#FC0103"/>
<defs>
<linearGradient id="paint0_linear_19_432" x1="24.2619" y1="9.22774" x2="37.0673" y2="22.441" gradientUnits="userSpaceOnUse">
<stop stop-color="#0186F5"/>
<stop offset="0.132" stop-color="#0186F5"/>
<stop offset="0.315" stop-color="#35C2B0"/>
<stop offset="0.667" stop-color="#AAD825"/>
<stop offset="1" stop-color="#FED700"/>
</linearGradient>
<linearGradient id="paint1_linear_19_432" x1="14.4763" y1="21.9931" x2="14.5867" y2="13.2903" gradientUnits="userSpaceOnUse">
<stop stop-color="#FF7F00"/>
<stop offset="1" stop-color="#FE0201"/>
</linearGradient>
<linearGradient id="paint2_linear_19_432" x1="26.6932" y1="3.84569" x2="40.0858" y2="4.08991" gradientUnits="userSpaceOnUse">
<stop stop-color="#0186F5"/>
<stop offset="0.198" stop-color="#0186F5"/>
<stop offset="1" stop-color="#3156FD"/>
</linearGradient>
<linearGradient id="paint3_linear_19_432" x1="42.1332" y1="11.0514" x2="43.4713" y2="8.54308" gradientUnits="userSpaceOnUse">
<stop stop-color="#8434D5"/>
<stop offset="0.854" stop-color="#3156FD"/>
<stop offset="1" stop-color="#3156FD"/>
</linearGradient>
<linearGradient id="paint4_linear_19_432" x1="39.4178" y1="11.667" x2="29.1332" y2="12.1299" gradientUnits="userSpaceOnUse">
<stop stop-color="#8434D5"/>
<stop offset="1" stop-color="#FE0201"/>
</linearGradient>
</defs>
</svg>
